<svg xmlns="http://www.w3.org/2000/svg" xmlns:xlink="http://www.w3.org/1999/xlink" version="1.1" width="199.32771" height="21.0094" viewBox="0,0,199.32771,21.0094"><g><g data-paper-data="{&quot;isPaintingLayer&quot;:true}" fill-rule="nonzero" stroke-linecap="square" stroke-linejoin="miter" stroke-miterlimit="10" stroke-dasharray="" stroke-dashoffset="0" style="mix-blend-mode: normal"><path d="M 9.5695 17.7789 C 9.3752 17.3256 9.1161 16.7426 8.7923 16.0302 C 8.4846 15.3015 8.1446 14.5243 7.7722 13.6985 C 7.3998 12.8727 7.0031 12.0226 6.5821 11.1483 C 6.1773 10.2577 5.7887 9.4238 5.4162 8.6466 C 5.06 7.8532 4.72 7.1488 4.3961 6.5335 C 4.0723 5.9182 3.8132 5.4486 3.6189 5.1248 C 3.4084 7.3917 3.2303 9.861 3.0846 12.5327 C 2.9551 15.1882 2.8417 17.868 2.7446 20.5721 L 0 20.5721 C 0.081 18.8396 0.17 17.0908 0.2672 15.3259 C 0.3643 13.5447 0.4696 11.8041 0.5829 10.1039 C 0.7125 8.3875 0.8501 6.7198 0.9958 5.1005 C 1.1416 3.4651 1.3035 1.9269 1.4816 0.4858 L 3.9347 0.4858 C 4.4691 1.3278 5.0358 2.3317 5.6349 3.4975 C 6.234 4.6472 6.8331 5.8616 7.4322 7.1408 C 8.0313 8.4037 8.6061 9.6667 9.1567 10.9297 C 9.7234 12.1927 10.2416 13.3504 10.7111 14.4029 C 11.1645 13.3505 11.6665 12.1927 12.217 10.9297 C 12.7837 9.6667 13.3666 8.4038 13.9658 7.1408 C 14.5811 5.8616 15.1883 4.6472 15.7874 3.4975 C 16.3865 2.3317 16.9451 1.3278 17.4633 0.4858 L 19.9164 0.4858 C 20.5803 6.9627 21.0741 13.6581 21.398 20.5722 L 18.6534 20.5722 C 18.5563 17.8681 18.4348 15.1883 18.2891 12.5328 C 18.1596 9.8611 17.9895 7.3918 17.7791 5.1249 C 17.5847 5.4487 17.3257 5.9183 17.0018 6.5336 C 16.6942 7.1489 16.3541 7.8532 15.9817 8.6467 C 15.6093 9.4239 15.2126 10.2578 14.7916 11.1484 C 14.3868 12.0227 13.9982 12.8728 13.6258 13.6986 C 13.2534 14.5244 12.9052 15.3016 12.5814 16.0303 C 12.2737 16.7427 12.0228 17.3257 11.8285 17.779 Z M 39.2491 20.5721 C 38.9091 19.6977 38.5933 18.8395 38.3019 17.9975 C 38.0104 17.1555 37.7108 16.3055 37.4032 15.4473 L 28.2951 15.4473 L 26.4735 20.5721 L 23.5589 20.5721 C 24.32 18.4509 25.0405 16.4836 25.7206 14.6701 C 26.4007 12.8565 27.0645 11.1402 27.7122 9.521 C 28.3599 7.9018 28.9995 6.3554 29.631 4.8819 C 30.2787 3.3923 30.9507 1.9269 31.6469 0.4858 L 34.2215 0.4858 C 34.9178 1.9269 35.5816 3.3923 36.2131 4.8819 C 36.8608 6.3554 37.5085 7.9018 38.1562 9.521 C 38.8039 11.1402 39.4596 12.8566 40.1235 14.6701 C 40.8036 16.4836 41.5323 18.451 42.3095 20.5721 Z M 36.6017 13.1156 C 35.9864 11.4316 35.3711 9.8043 34.7558 8.2337 C 34.1405 6.663 33.509 5.1491 32.8613 3.6918 C 32.1812 5.1491 31.5335 6.663 30.9182 8.2337 C 30.3191 9.8043 29.72 11.4316 29.1209 13.1156 Z M 45.0448 0.4857 L 47.8622 0.4857 L 47.8622 20.5721 L 45.0448 20.5721 Z M 66.6173 20.5721 C 66.1963 19.8596 65.7105 19.0581 65.16 18.1676 C 64.6094 17.277 64.0103 16.354 63.3626 15.3987 C 62.7312 14.4434 62.0673 13.4718 61.371 12.4841 C 60.6909 11.4964 60.0109 10.5491 59.3308 9.6424 C 58.6507 8.7194 57.995 7.8532 57.3635 7.0436 C 56.732 6.2178 56.141 5.4972 55.5904 4.8819 L 55.5904 20.5721 L 52.8459 20.5721 L 52.8459 0.4858 L 55.0804 0.4858 C 55.9871 1.4411 56.9506 2.5665 57.9707 3.8619 C 59.007 5.141 60.0352 6.4607 61.0553 7.8208 C 62.0754 9.181 63.0308 10.5249 63.9213 11.8527 C 64.8281 13.1642 65.5891 14.3301 66.2044 15.3502 L 66.2044 0.4858 L 68.9733 0.4858 L 68.9733 20.5722 Z M 87.3893 0.4857 L 87.3893 2.9145 L 81.0501 2.9145 L 81.0501 20.5721 L 78.2327 20.5721 L 78.2327 2.9146 L 71.9177 2.9146 L 71.9177 0.4857 Z M 90.343 20.5721 L 90.343 0.4857 L 102.6086 0.4857 L 102.6086 2.8903 L 93.1605 2.8903 L 93.1605 8.8652 L 101.5642 8.8652 L 101.5642 11.1969 L 93.1605 11.1969 L 93.1605 18.1676 L 103.3372 18.1676 L 103.3372 20.5721 Z M 120.6735 20.5721 C 120.2525 19.8596 119.7668 19.0581 119.2162 18.1676 C 118.6657 17.277 118.0666 16.354 117.4189 15.3987 C 116.7874 14.4434 116.1235 13.4718 115.4273 12.4841 C 114.7472 11.4964 114.0671 10.5491 113.3871 9.6424 C 112.707 8.7194 112.0512 7.8532 111.4197 7.0436 C 110.7882 6.2178 110.1972 5.4972 109.6467 4.8819 L 109.6467 20.5721 L 106.9021 20.5721 L 106.9021 0.4858 L 109.1367 0.4858 C 110.0434 1.4411 111.0069 2.5665 112.027 3.8619 C 113.0633 5.141 114.0915 6.4607 115.1116 7.8208 C 116.1317 9.181 117.087 10.5249 117.9776 11.8527 C 118.8843 13.1642 119.6454 14.3301 120.2607 15.3502 L 120.2607 0.4858 L 123.0295 0.4858 L 123.0295 20.5722 Z M 141.4456 20.5721 C 141.1056 19.6977 140.7898 18.8395 140.4984 17.9975 C 140.2069 17.1555 139.9073 16.3055 139.5997 15.4473 L 130.4916 15.4473 L 128.67 20.5721 L 125.7554 20.5721 C 126.5165 18.4509 127.237 16.4836 127.9171 14.6701 C 128.5972 12.8565 129.261 11.1402 129.9087 9.521 C 130.5564 7.9018 131.196 6.3554 131.8275 4.8819 C 132.4752 3.3923 133.1472 1.9269 133.8434 0.4858 L 136.418 0.4858 C 137.1142 1.9269 137.7781 3.3923 138.4096 4.8819 C 139.0573 6.3554 139.705 7.9018 140.3527 9.521 C 141.0004 11.1402 141.6561 12.8566 142.32 14.6701 C 143.0001 16.4836 143.7287 18.451 144.506 20.5721 Z M 138.7982 13.1156 C 138.1829 11.4316 137.5676 9.8043 136.9523 8.2337 C 136.337 6.663 135.7055 5.1491 135.0578 3.6918 C 134.3777 5.1491 133.73 6.663 133.1148 8.2337 C 132.5156 9.8043 131.9165 11.4316 131.3174 13.1156 Z M 161.0127 20.5721 C 160.5917 19.8596 160.1059 19.0581 159.5554 18.1676 C 159.0049 17.277 158.4058 16.354 157.7581 15.3987 C 157.1266 14.4434 156.4627 13.4718 155.7664 12.4841 C 155.0864 11.4964 154.4063 10.5491 153.7262 9.6424 C 153.0462 8.7194 152.3904 7.8532 151.7589 7.0436 C 151.1274 6.2178 150.5364 5.4972 149.9859 4.8819 L 149.9859 20.5721 L 147.2413 20.5721 L 147.2413 0.4858 L 149.4758 0.4858 C 150.3826 1.4411 151.346 2.5665 152.3661 3.8619 C 153.4024 5.141 154.4306 6.4607 155.4507 7.8208 C 156.4708 9.181 157.4262 10.5249 158.3168 11.8527 C 159.2235 13.1642 159.9846 14.3301 160.5998 15.3502 L 160.5998 0.4858 L 163.3687 0.4858 L 163.3687 20.5722 Z M 176.9757 21.0093 C 175.567 21.0093 174.2797 20.7826 173.1139 20.3292 C 171.9642 19.8596 170.9684 19.1796 170.1264 18.289 C 169.3006 17.3984 168.6611 16.3055 168.2077 15.0101 C 167.7543 13.6985 167.5276 12.2008 167.5276 10.5168 C 167.5276 8.8328 167.7867 7.3431 168.3048 6.0478 C 168.823 4.7362 169.5111 3.6351 170.3693 2.7446 C 171.2437 1.854 172.2557 1.1739 173.4054 0.7043 C 174.5712 0.2348 175.8099 0 177.1215 0 C 177.9635 0 178.7164 0.0648 179.3803 0.1943 C 180.0442 0.3077 180.619 0.4453 181.1048 0.6072 C 181.6067 0.7529 182.0115 0.9068 182.3192 1.0687 C 182.6268 1.2144 182.8373 1.3278 182.9507 1.4087 L 182.1492 3.7161 C 181.971 3.6028 181.7201 3.4813 181.3962 3.3518 C 181.0724 3.2061 180.7 3.0684 180.279 2.9389 C 179.858 2.8094 179.3965 2.7041 178.8945 2.6232 C 178.4088 2.526 177.9149 2.4774 177.413 2.4774 C 176.3605 2.4774 175.4051 2.6636 174.547 3.0361 C 173.705 3.3923 172.9844 3.9185 172.3853 4.6148 C 171.7862 5.3111 171.3247 6.1612 171.0009 7.1651 C 170.6771 8.1528 170.5151 9.2701 170.5151 10.5169 C 170.5151 11.7151 170.6528 12.808 170.9281 13.7958 C 171.2195 14.7673 171.6405 15.6093 172.191 16.3217 C 172.7578 17.0342 173.4621 17.5847 174.3041 17.9733 C 175.1461 18.3458 176.1257 18.532 177.243 18.532 C 178.5384 18.532 179.6071 18.4025 180.449 18.1434 C 181.3072 17.8681 181.9549 17.6252 182.3921 17.4147 L 183.0965 19.7221 C 182.9669 19.8193 182.7241 19.9407 182.3678 20.0864 C 182.0278 20.2322 181.5987 20.3779 181.0806 20.5236 C 180.5624 20.6532 179.9552 20.7665 179.2589 20.8637 C 178.5627 20.9608 177.8017 21.0094 176.9759 21.0094 Z M 186.3335 20.5721 L 186.3335 0.4857 L 198.5991 0.4857 L 198.5991 2.8903 L 189.1509 2.8903 L 189.1509 8.8652 L 197.5547 8.8652 L 197.5547 11.1969 L 189.1509 11.1969 L 189.1509 18.1676 L 199.3277 18.1676 L 199.3277 20.5721 Z " stroke-width="1" fill="#8ac7da" stroke="none"/></g></g></svg>