<svg xmlns="http://www.w3.org/2000/svg" xmlns:xlink="http://www.w3.org/1999/xlink" version="1.1" width="417.0351" height="29.4646" viewBox="0,0,417.0351,29.4646"><g><g data-paper-data="{&quot;isPaintingLayer&quot;:true}" fill-rule="nonzero" stroke-linecap="square" stroke-linejoin="miter" stroke-miterlimit="10" stroke-dasharray="" stroke-dashoffset="0" style="mix-blend-mode: normal"><path d="M 10.0861 20.7865 C 9.8813 20.3087 9.6082 19.6943 9.2669 18.9434 C 8.9426 18.1754 8.5842 17.3562 8.1917 16.4859 C 7.7992 15.6155 7.3811 14.7195 6.9373 13.798 C 6.5107 12.8593 6.1011 11.9804 5.7086 11.1612 C 5.3331 10.325 4.9748 9.5826 4.6334 8.9341 C 4.2921 8.2856 4.019 7.7907 3.8143 7.4494 C 3.5924 9.8386 3.4047 12.4412 3.2511 15.2571 C 3.1146 18.0559 2.9951 20.8804 2.8927 23.7304 L 0 23.7304 C 0.0853 21.9043 0.1792 20.0612 0.2816 18.201 C 0.384 16.3237 0.4949 14.4891 0.6144 12.6972 C 0.7509 10.8882 0.896 9.1304 1.0496 7.4238 C 1.2032 5.7001 1.3738 4.0788 1.5615 2.56 L 4.1471 2.56 C 4.7102 3.4474 5.3076 4.5055 5.939 5.7343 C 6.5704 6.946 7.2019 8.2259 7.8333 9.5741 C 8.4648 10.9053 9.0706 12.2364 9.6509 13.5676 C 10.2482 14.8987 10.7943 16.119 11.2892 17.2283 C 11.7671 16.119 12.2961 14.8987 12.8764 13.5676 C 13.4737 12.2364 14.0881 10.9053 14.7195 9.5741 C 15.368 8.2259 16.008 6.946 16.6394 5.7343 C 17.2709 4.5055 17.8597 3.4474 18.4058 2.56 L 20.9913 2.56 C 21.691 9.3864 22.2115 16.4432 22.5528 23.7304 L 19.6601 23.7304 C 19.5577 20.8804 19.4297 18.056 19.2762 15.2571 C 19.1396 12.4412 18.9604 9.8386 18.7386 7.4494 C 18.5338 7.7907 18.2607 8.2856 17.9194 8.9341 C 17.5951 9.5827 17.2368 10.325 16.8442 11.1613 C 16.4517 11.9804 16.0336 12.8593 15.5899 13.798 C 15.1632 14.7195 14.7536 15.6155 14.3611 16.4859 C 13.9686 17.3563 13.6017 18.1754 13.2604 18.9434 C 12.9361 19.6943 12.6716 20.3087 12.4668 20.7866 Z M 39.678 23.2696 C 39.0295 23.4403 38.1676 23.611 37.0925 23.7816 C 36.0173 23.9693 34.78 24.0632 33.3806 24.0632 C 32.1519 24.0632 31.1194 23.884 30.2831 23.5256 C 29.4469 23.1672 28.7728 22.6638 28.2608 22.0153 C 27.7659 21.3668 27.399 20.5988 27.16 19.7113 C 26.9382 18.8239 26.8272 17.8426 26.8272 16.7674 L 26.8272 7.8333 L 29.6687 7.8333 L 29.6687 16.1531 C 29.6687 18.0815 29.9759 19.4639 30.5903 20.3001 C 31.2047 21.1364 32.2372 21.5545 33.6878 21.5545 C 33.995 21.5545 34.3107 21.546 34.6349 21.5289 C 34.9592 21.5118 35.2579 21.4862 35.5309 21.4521 C 35.821 21.418 36.0856 21.3924 36.3245 21.3753 C 36.5634 21.3412 36.7341 21.2985 36.8365 21.2473 L 36.8365 7.8333 L 39.678 7.8333 Z M 49.338 24.0376 C 47.5802 24.0035 46.3343 23.628 45.6005 22.9113 C 44.8667 22.1945 44.4997 21.0852 44.4997 19.5834 L 44.4997 0.512 L 47.3412 0 L 47.3412 19.1226 C 47.3412 19.5834 47.3839 19.9674 47.4692 20.2745 C 47.5546 20.5817 47.6826 20.8292 47.8532 21.0169 C 48.041 21.1876 48.2884 21.3241 48.5956 21.4265 C 48.9028 21.5118 49.2782 21.5886 49.7219 21.6569 Z M 55.5576 7.8334 L 61.599 7.8334 L 61.599 10.2141 L 55.5576 10.2141 L 55.5576 17.561 C 55.5576 18.3461 55.6173 19.0031 55.7368 19.5322 C 55.8733 20.0442 56.0611 20.4537 56.3 20.7609 C 56.5389 21.051 56.8376 21.2559 57.196 21.3753 C 57.5714 21.4948 58.0066 21.5545 58.5015 21.5545 C 59.3548 21.5545 60.0375 21.4606 60.5495 21.2729 C 61.0785 21.0852 61.4454 20.9487 61.6502 20.8633 L 62.1878 23.2185 C 61.9148 23.355 61.4198 23.5256 60.7031 23.7304 C 59.9863 23.9523 59.1671 24.0632 58.2455 24.0632 C 57.1704 24.0632 56.2829 23.9267 55.5832 23.6536 C 54.8835 23.3806 54.3203 22.971 53.8937 22.4249 C 53.467 21.8617 53.1598 21.1791 52.9721 20.3769 C 52.8015 19.5748 52.7161 18.6447 52.7161 17.5866 L 52.7161 3.4047 L 55.5576 2.9183 Z M 68.0497 23.7304 L 65.2082 23.7304 L 65.2082 7.8334 L 68.0497 7.8334 Z M 66.5905 4.9663 C 66.0956 4.9663 65.669 4.7956 65.3106 4.4543 C 64.9522 4.113 64.773 3.6607 64.773 3.0975 C 64.773 2.5343 64.9522 2.0821 65.3106 1.7408 C 65.669 1.3994 66.0956 1.2288 66.5905 1.2288 C 67.1025 1.2288 67.5377 1.3995 67.8961 1.7408 C 68.2545 2.0821 68.4337 2.5343 68.4337 3.0975 C 68.4337 3.6607 68.2545 4.113 67.8961 4.4543 C 67.5377 4.7956 67.1025 4.9663 66.5905 4.9663 Z M 83.9744 15.8203 C 83.9744 13.9601 83.5137 12.5351 82.5921 11.5452 C 81.6705 10.5383 80.4503 10.0349 78.9314 10.0349 C 78.0611 10.0349 77.3869 10.069 76.9091 10.1373 C 76.4312 10.1885 76.0558 10.2567 75.7827 10.3421 L 75.7827 20.3769 C 76.1241 20.65 76.619 20.9231 77.2675 21.1961 C 77.916 21.4521 78.6328 21.5801 79.4178 21.5801 C 80.2199 21.5801 80.9111 21.435 81.4913 21.1449 C 82.0716 20.8548 82.5409 20.4537 82.8993 19.9417 C 83.2747 19.4127 83.5478 18.7983 83.7185 18.0986 C 83.8891 17.3989 83.9745 16.6395 83.9745 15.8203 Z M 86.9183 15.8203 C 86.9183 17.0149 86.7562 18.1242 86.432 19.1482 C 86.1248 20.1721 85.664 21.051 85.0496 21.7849 C 84.4523 22.5187 83.7099 23.0904 82.8225 23.5 C 81.9351 23.8926 80.9196 24.0888 79.7762 24.0888 C 78.8546 24.0888 78.044 23.9694 77.3443 23.7304 C 76.6446 23.4915 76.1241 23.2611 75.7827 23.0393 L 75.7827 29.3878 L 72.9412 29.3878 L 72.9412 8.3198 C 73.6068 8.1662 74.443 7.9955 75.4499 7.8078 C 76.4568 7.603 77.6259 7.5006 78.957 7.5006 C 80.1687 7.5006 81.2609 7.6968 82.2337 8.0894 C 83.2235 8.4648 84.0598 9.0109 84.7424 9.7277 C 85.4421 10.4445 85.9797 11.3234 86.3552 12.3644 C 86.7306 13.3884 86.9183 14.5403 86.9183 15.8203 Z M 95.7057 24.0376 C 93.9479 24.0035 92.702 23.628 91.9682 22.9113 C 91.2343 22.1945 90.8674 21.0852 90.8674 19.5834 L 90.8674 0.512 L 93.7089 0 L 93.7089 19.1226 C 93.7089 19.5834 93.7516 19.9674 93.8369 20.2745 C 93.9223 20.5817 94.0503 20.8292 94.2209 21.0169 C 94.4086 21.1876 94.6561 21.3241 94.9633 21.4265 C 95.2705 21.5118 95.6459 21.5886 96.0896 21.6569 Z M 104.6644 21.6825 C 105.33 21.6825 105.9188 21.6654 106.4307 21.6313 C 106.9598 21.5972 107.395 21.546 107.7363 21.4777 L 107.7363 16.7419 C 107.5315 16.6395 107.1987 16.5541 106.7379 16.4859 C 106.2942 16.4005 105.7396 16.3579 105.074 16.3579 C 104.6473 16.3579 104.1951 16.392 103.7172 16.4603 C 103.2394 16.5115 102.8042 16.6395 102.4117 16.8443 C 102.0192 17.032 101.6864 17.2965 101.4133 17.6378 C 101.1573 17.9621 101.0293 18.4058 101.0293 18.969 C 101.0293 19.9759 101.3536 20.6841 102.0021 21.0937 C 102.6506 21.4862 103.538 21.6825 104.6644 21.6825 Z M 104.4084 7.4494 C 105.5518 7.4494 106.5161 7.5944 107.3011 7.8846 C 108.0862 8.1747 108.7176 8.5928 109.1954 9.1389 C 109.6733 9.685 110.0146 10.3335 110.2194 11.0844 C 110.4242 11.8183 110.5266 12.6289 110.5266 13.5164 L 110.5266 23.4488 C 110.2877 23.5 109.9464 23.5598 109.5026 23.628 C 109.0589 23.6963 108.564 23.756 108.0179 23.8072 C 107.4718 23.8755 106.8745 23.9352 106.226 23.9864 C 105.5945 24.0376 104.9631 24.0632 104.3316 24.0632 C 103.4271 24.0632 102.5994 23.9694 101.8485 23.7816 C 101.0976 23.611 100.4405 23.3294 99.8774 22.9369 C 99.3313 22.5273 98.9046 21.9982 98.5974 21.3497 C 98.2902 20.7012 98.1366 19.9162 98.1366 18.9946 C 98.1366 18.1242 98.3158 17.3733 98.6742 16.7419 C 99.0326 16.1104 99.519 15.5985 100.1334 15.2059 C 100.7477 14.8134 101.456 14.5318 102.2581 14.3612 C 103.0772 14.1734 103.9391 14.0796 104.8436 14.0796 C 105.1337 14.0796 105.4238 14.0966 105.714 14.1308 C 106.0212 14.1478 106.3113 14.182 106.5843 14.2332 C 106.8745 14.2844 107.1134 14.3355 107.3011 14.3867 C 107.5059 14.4209 107.651 14.4465 107.7363 14.4635 L 107.7363 13.67 C 107.7363 13.2092 107.6851 12.7484 107.5827 12.2876 C 107.4803 11.8268 107.2926 11.4172 107.0195 11.0589 C 106.7635 10.7005 106.4051 10.4189 105.9443 10.2141 C 105.5006 9.9922 104.9118 9.8813 104.178 9.8813 C 103.2394 9.8813 102.4117 9.9496 101.6949 10.0861 C 100.9952 10.2226 100.4747 10.3591 100.1333 10.4957 L 99.8005 8.1406 C 100.1589 7.987 100.7648 7.8334 101.6181 7.6798 C 102.4885 7.5262 103.4186 7.4494 104.4084 7.4494 Z M 112.9162 26.6999 C 113.1381 26.8023 113.4282 26.8962 113.7866 26.9815 C 114.145 27.0839 114.4948 27.1351 114.8362 27.1351 C 115.9625 27.1351 116.8414 26.8791 117.4729 26.3671 C 118.1043 25.8722 118.6675 25.0616 119.1624 23.9352 C 117.8825 21.4948 116.6878 18.9092 115.5785 16.1787 C 114.4692 13.431 113.5477 10.6493 112.8138 7.8334 L 115.8857 7.8334 C 116.1076 8.7549 116.3721 9.7448 116.6793 10.8029 C 117.0035 11.861 117.3534 12.9532 117.7289 14.0796 C 118.1214 15.1889 118.5395 16.3067 118.9832 17.433 C 119.444 18.5594 119.9133 19.6431 120.3912 20.6841 C 121.1762 18.5338 121.8503 16.4091 122.4135 14.3099 C 122.9767 12.2108 123.5143 10.0519 124.0263 7.8334 L 126.9702 7.8334 C 126.2363 10.837 125.4171 13.7212 124.5126 16.4859 C 123.6252 19.2335 122.661 21.8105 121.6199 24.2168 C 121.2103 25.1384 120.7837 25.9234 120.34 26.5719 C 119.9133 27.2375 119.4355 27.7836 118.9064 28.2103 C 118.3774 28.654 117.7801 28.9697 117.1145 29.1574 C 116.4489 29.3622 115.698 29.4646 114.8617 29.4646 C 114.6399 29.4646 114.401 29.4476 114.145 29.4134 C 113.906 29.3964 113.6671 29.3622 113.4282 29.311 C 113.2063 29.2598 112.993 29.2001 112.7882 29.1319 C 112.6005 29.0807 112.464 29.0295 112.3786 28.9783 Z M 129.08 15.8203 C 129.08 14.4038 129.2848 13.175 129.6944 12.134 C 130.1039 11.0759 130.6415 10.2055 131.3071 9.5229 C 131.9727 8.8232 132.7406 8.3027 133.611 7.9613 C 134.4984 7.62 135.4029 7.4494 136.3245 7.4494 C 138.4578 7.4494 140.0961 8.1149 141.2395 9.4461 C 142.383 10.7773 142.9547 12.8081 142.9547 15.5387 C 142.9547 15.6581 142.9547 15.8203 142.9547 16.0251 C 142.9547 16.2128 142.9462 16.3835 142.9291 16.5371 L 132.0495 16.5371 C 132.1689 18.1925 132.6468 19.4468 133.483 20.3001 C 134.3192 21.1534 135.6248 21.5801 137.3997 21.5801 C 138.3895 21.5801 139.2258 21.4948 139.9084 21.3241 C 140.591 21.1534 141.103 20.9913 141.4443 20.8377 L 141.8539 23.2184 C 141.5126 23.3891 140.9068 23.5768 140.0364 23.7816 C 139.166 23.9864 138.1847 24.0888 137.0925 24.0888 C 135.7101 24.0888 134.507 23.884 133.483 23.4744 C 132.4761 23.0478 131.6484 22.4675 130.9999 21.7337 C 130.3514 20.9999 129.865 20.1295 129.5407 19.1226 C 129.2336 18.1157 129.08 17.0149 129.08 15.8203 Z M 139.9852 14.2587 C 140.0023 12.9788 139.678 11.9292 139.0124 11.1101 C 138.3639 10.2738 137.4594 9.8557 136.2989 9.8557 C 135.6334 9.8557 135.0531 9.9837 134.5582 10.2397 C 134.0633 10.4957 133.6366 10.8285 133.2782 11.238 C 132.9369 11.6476 132.6724 12.1169 132.4847 12.646 C 132.2969 13.175 132.1689 13.7126 132.1007 14.2587 Z M 152.9242 7.5006 C 153.1632 7.5006 153.4362 7.5176 153.7434 7.5518 C 154.0676 7.5859 154.3834 7.6286 154.6906 7.6798 C 154.9978 7.731 155.2793 7.7822 155.5353 7.8334 C 155.7913 7.8846 155.9791 7.9272 156.0985 7.9614 L 155.6121 10.4445 C 155.3903 10.3591 155.0148 10.2653 154.4858 10.1629 C 153.9738 10.0434 153.3082 9.9837 152.489 9.9837 C 151.96 9.9837 151.4309 10.0434 150.9019 10.1629 C 150.3899 10.2653 150.0571 10.3336 149.9035 10.3677 L 149.9035 23.7304 L 147.062 23.7304 L 147.062 8.499 C 147.7276 8.26 148.5553 8.0382 149.5451 7.8334 C 150.552 7.6115 151.6784 7.5006 152.9242 7.5006 Z M 178.8484 21.1705 L 178.8484 23.7304 L 166.1 23.7304 L 166.1 2.5599 L 169.0696 2.5599 L 169.0696 21.1705 Z M 195.4456 15.7947 C 195.4456 17.0576 195.2578 18.201 194.8824 19.225 C 194.524 20.2319 194.012 21.1023 193.3464 21.8361 C 192.6809 22.5699 191.8873 23.1416 190.9657 23.5512 C 190.0612 23.9438 189.0629 24.14 187.9706 24.14 C 186.8955 24.14 185.8971 23.9438 184.9755 23.5512 C 184.054 23.1417 183.2604 22.5699 182.5948 21.8361 C 181.9463 21.1023 181.4343 20.2319 181.0589 19.225 C 180.7005 18.201 180.5213 17.0576 180.5213 15.7947 C 180.5213 14.5489 180.7005 13.414 181.0589 12.39 C 181.4343 11.349 181.9463 10.4615 182.5948 9.7277 C 183.2604 8.9939 184.054 8.4307 184.9755 8.0382 C 185.8971 7.6456 186.8955 7.4494 187.9706 7.4494 C 189.0629 7.4494 190.0612 7.6456 190.9657 8.0382 C 191.8873 8.4307 192.6809 8.9939 193.3464 9.7277 C 194.012 10.4615 194.524 11.349 194.8824 12.39 C 195.2578 13.414 195.4456 14.5489 195.4456 15.7947 Z M 192.4761 15.7947 C 192.4761 13.9857 192.0665 12.5607 191.2473 11.5196 C 190.4452 10.4786 189.353 9.9581 187.9706 9.9581 C 186.5883 9.9581 185.4961 10.4786 184.6939 11.5196 C 183.8918 12.5607 183.4908 13.9857 183.4908 15.7947 C 183.4908 17.5866 183.8918 19.0117 184.6939 20.0698 C 185.496 21.1108 186.5883 21.6313 187.9706 21.6313 C 189.353 21.6313 190.4452 21.1108 191.2473 20.0698 C 192.0665 19.0117 192.4761 17.5866 192.4761 15.7947 Z M 202.2923 8.5501 C 202.6337 8.3112 203.1542 8.0723 203.8539 7.8334 C 204.5536 7.5944 205.3643 7.475 206.2858 7.475 C 207.4292 7.475 208.4447 7.6798 209.3321 8.0893 C 210.2196 8.4989 210.9619 9.0706 211.5592 9.8045 C 212.1736 10.5383 212.6344 11.4172 212.9416 12.4412 C 213.2658 13.4481 213.428 14.5659 213.428 15.7947 C 213.428 17.0746 213.2403 18.2266 212.8648 19.2506 C 212.4894 20.2745 211.9518 21.1449 211.252 21.8617 C 210.5694 22.5784 209.7332 23.1331 208.7433 23.5256 C 207.7706 23.9011 206.6783 24.0888 205.4667 24.0888 C 204.1355 24.0888 202.9579 23.9949 201.934 23.8072 C 200.9271 23.6366 200.0994 23.4574 199.4509 23.2696 L 199.4509 0.512 L 202.2924 0 Z M 202.2923 21.2473 C 202.5654 21.3326 202.9579 21.4094 203.4699 21.4777 C 203.9989 21.546 204.656 21.5801 205.441 21.5801 C 206.9599 21.5801 208.1801 21.0766 209.1017 20.0697 C 210.0233 19.0628 210.4841 17.6378 210.4841 15.7947 C 210.4841 14.9755 210.3987 14.2075 210.2281 13.4908 C 210.0574 12.774 209.7843 12.1596 209.4089 11.6476 C 209.0505 11.1186 208.5812 10.709 208.0009 10.4189 C 207.4207 10.1287 206.7295 9.9837 205.9274 9.9837 C 205.1424 9.9837 204.4256 10.1202 203.7771 10.3933 C 203.1286 10.6492 202.6337 10.9138 202.2923 11.1868 Z M 220.2953 8.5501 C 220.6367 8.3112 221.1572 8.0723 221.8569 7.8334 C 222.5566 7.5944 223.3672 7.475 224.2888 7.475 C 225.4322 7.475 226.4477 7.6798 227.3351 8.0893 C 228.2225 8.4989 228.9649 9.0706 229.5622 9.8045 C 230.1766 10.5383 230.6374 11.4172 230.9446 12.4412 C 231.2688 13.4481 231.431 14.5659 231.431 15.7947 C 231.431 17.0746 231.2432 18.2266 230.8678 19.2506 C 230.4923 20.2745 229.9548 21.1449 229.2551 21.8617 C 228.5724 22.5784 227.7362 23.1331 226.7463 23.5256 C 225.7736 23.9011 224.6813 24.0888 223.4697 24.0888 C 222.1385 24.0888 220.9609 23.9949 219.937 23.8072 C 218.9301 23.6366 218.1024 23.4574 217.4539 23.2696 L 217.4539 0.512 L 220.2954 0 Z M 220.2953 21.2473 C 220.5684 21.3326 220.9609 21.4094 221.4729 21.4777 C 222.0019 21.546 222.659 21.5801 223.444 21.5801 C 224.9629 21.5801 226.1831 21.0766 227.1047 20.0697 C 228.0263 19.0628 228.4871 17.6378 228.4871 15.7947 C 228.4871 14.9755 228.4017 14.2075 228.2311 13.4908 C 228.0604 12.774 227.7873 12.1596 227.4119 11.6476 C 227.0535 11.1186 226.5842 10.709 226.0039 10.4189 C 225.4237 10.1287 224.7325 9.9837 223.9304 9.9837 C 223.1454 9.9837 222.4286 10.1202 221.7801 10.3933 C 221.1316 10.6492 220.6367 10.9138 220.2953 11.1868 Z M 233.1906 26.6999 C 233.4125 26.8023 233.7026 26.8962 234.061 26.9815 C 234.4194 27.0839 234.7692 27.1351 235.1105 27.1351 C 236.2369 27.1351 237.1158 26.8791 237.7473 26.3671 C 238.3787 25.8722 238.9419 25.0616 239.4368 23.9352 C 238.1568 21.4948 236.9622 18.9092 235.8529 16.1787 C 234.7436 13.431 233.8221 10.6493 233.0882 7.8334 L 236.1601 7.8334 C 236.382 8.7549 236.6465 9.7448 236.9537 10.8029 C 237.2779 11.861 237.6278 12.9532 238.0033 14.0796 C 238.3958 15.1889 238.8139 16.3067 239.2576 17.433 C 239.7184 18.5594 240.1877 19.6431 240.6656 20.6841 C 241.4506 18.5338 242.1247 16.4091 242.6879 14.3099 C 243.2511 12.2108 243.7887 10.0519 244.3007 7.8334 L 247.2446 7.8334 C 246.5107 10.837 245.6915 13.7212 244.787 16.4859 C 243.8996 19.2335 242.9354 21.8105 241.8943 24.2168 C 241.4848 25.1384 241.0581 25.9234 240.6144 26.5719 C 240.1877 27.2375 239.7099 27.7836 239.1808 28.2103 C 238.6518 28.654 238.0545 28.9697 237.3889 29.1574 C 236.7233 29.3622 235.9724 29.4646 235.1362 29.4646 C 234.9143 29.4646 234.6754 29.4476 234.4194 29.4134 C 234.1805 29.3964 233.9415 29.3622 233.7026 29.311 C 233.4807 29.2598 233.2674 29.2001 233.0626 29.1319 C 232.8749 29.0807 232.7384 29.0295 232.653 28.9783 Z " stroke-width="1" fill="#ffffff" stroke="none"/><path d="M 255.1121 20.485 C 256.683 20.485 257.4684 19.9426 257.4684 18.8577 C 257.4684 18.5279 257.399 18.2458 257.2601 18.0115 C 257.1213 17.7771 256.9303 17.5775 256.6873 17.4126 C 256.453 17.239 256.1839 17.0915 255.8802 16.97 C 255.5764 16.8398 255.2509 16.714 254.9038 16.5924 C 254.5132 16.4622 254.14 16.3104 253.7842 16.1368 C 253.437 15.9632 253.1333 15.7593 252.8729 15.5249 C 252.6125 15.2906 252.4086 15.0129 252.261 14.6917 C 252.1135 14.3706 252.0397 13.9844 252.0397 13.5331 C 252.0397 12.5871 252.3608 11.8493 253.0031 11.3199 C 253.6453 10.7905 254.5306 10.5258 255.6589 10.5258 C 256.3098 10.5258 256.9 10.5995 257.4294 10.7471 C 257.9675 10.8859 258.3624 11.0378 258.6141 11.2027 L 258.1324 12.4265 C 257.9067 12.2963 257.5769 12.1661 257.143 12.0359 C 256.7177 11.9057 256.223 11.8406 255.6589 11.8406 C 255.3638 11.8406 255.0904 11.871 254.8387 11.9318 C 254.5957 11.9925 254.3787 12.088 254.1878 12.2182 C 254.0055 12.3397 253.858 12.4959 253.7451 12.6869 C 253.641 12.8778 253.5889 13.1035 253.5889 13.3638 C 253.5889 13.6502 253.6453 13.8932 253.7581 14.0929 C 253.871 14.2925 254.0315 14.466 254.2398 14.6136 C 254.4481 14.7611 254.6868 14.9 254.9559 15.0302 C 255.2336 15.1517 255.5374 15.2732 255.8672 15.3947 C 256.3358 15.5857 256.7654 15.7766 257.156 15.9675 C 257.5466 16.1498 257.8807 16.3711 258.1584 16.6315 C 258.4448 16.8832 258.6661 17.1913 258.8224 17.5558 C 258.9786 17.9116 259.0567 18.3413 259.0567 18.8446 C 259.0567 19.7906 258.7095 20.5197 258.0152 21.0318 C 257.3296 21.5351 256.3619 21.7868 255.1121 21.7868 C 254.6868 21.7868 254.2962 21.7565 253.9404 21.6957 C 253.5846 21.6436 253.2634 21.5785 252.977 21.5004 C 252.6993 21.4223 252.4606 21.3399 252.261 21.2531 C 252.0614 21.1663 251.9008 21.0882 251.7793 21.0187 L 252.235 19.782 C 252.4693 19.9122 252.8295 20.064 253.3155 20.2376 C 253.8102 20.4025 254.4091 20.485 255.1121 20.485 Z M 260.7909 21.5525 L 260.7909 9.7447 L 262.2359 9.4843 L 262.2359 13.6242 C 262.505 13.5201 262.7914 13.442 263.0952 13.3899 C 263.3989 13.3291 263.7027 13.2987 264.0065 13.2987 C 264.6487 13.2987 265.1825 13.3899 265.6077 13.5721 C 266.033 13.7544 266.3715 14.0104 266.6232 14.3402 C 266.8749 14.6613 267.0528 15.0519 267.157 15.5119 C 267.2611 15.9632 267.3132 16.4622 267.3132 17.009 L 267.3132 21.5525 L 265.8681 21.5525 L 265.8681 17.3215 C 265.8681 16.8268 265.8334 16.4058 265.764 16.0587 C 265.6945 15.7028 265.5817 15.4164 265.4255 15.1995 C 265.278 14.9825 265.074 14.8263 264.8136 14.7308 C 264.5533 14.6266 264.2321 14.5746 263.8503 14.5746 C 263.694 14.5746 263.5335 14.5876 263.3686 14.6136 C 263.2037 14.631 263.0431 14.6527 262.8869 14.6787 C 262.7393 14.7048 262.6048 14.7351 262.4833 14.7699 C 262.3705 14.7959 262.288 14.8176 262.236 14.8349 L 262.236 21.5525 Z M 276.8008 17.5168 C 276.8008 18.159 276.7053 18.7405 276.5144 19.2613 C 276.3321 19.7733 276.0717 20.216 275.7333 20.5892 C 275.3948 20.9624 274.9912 21.2531 274.5225 21.4614 C 274.0625 21.661 273.5548 21.7608 272.9994 21.7608 C 272.4526 21.7608 271.9449 21.661 271.4762 21.4614 C 271.0075 21.2531 270.6039 20.9624 270.2655 20.5892 C 269.9356 20.216 269.6753 19.7733 269.4843 19.2613 C 269.3021 18.7405 269.211 18.159 269.211 17.5168 C 269.211 16.8832 269.3021 16.306 269.4843 15.7853 C 269.6753 15.2559 269.9357 14.8046 270.2655 14.4314 C 270.6039 14.0582 271.0075 13.7718 271.4762 13.5721 C 271.9449 13.3725 272.4526 13.2727 272.9994 13.2727 C 273.5548 13.2727 274.0625 13.3725 274.5225 13.5721 C 274.9912 13.7718 275.3948 14.0582 275.7333 14.4314 C 276.0717 14.8046 276.3321 15.2559 276.5144 15.7853 C 276.7053 16.3061 276.8008 16.8832 276.8008 17.5168 Z M 275.2906 17.5168 C 275.2906 16.5968 275.0823 15.8721 274.6657 15.3427 C 274.2578 14.8132 273.7024 14.5485 272.9994 14.5485 C 272.2964 14.5485 271.7409 14.8132 271.333 15.3427 C 270.9251 15.8721 270.7211 16.5968 270.7211 17.5168 C 270.7211 18.4281 270.9251 19.1528 271.333 19.6909 C 271.7409 20.2203 272.2964 20.485 272.9994 20.485 C 273.7024 20.485 274.2578 20.2203 274.6657 19.6909 C 275.0823 19.1528 275.2906 18.4281 275.2906 17.5168 Z M 285.2359 21.5525 C 284.9495 20.8061 284.6414 19.9556 284.3116 19.0009 C 283.9818 18.0375 283.6824 17.0394 283.4133 16.0066 C 283.1443 17.0394 282.8492 18.0375 282.5281 19.0009 C 282.2069 19.9556 281.9032 20.8061 281.6168 21.5525 L 280.3539 21.5525 C 279.8766 20.485 279.4079 19.2699 278.9479 17.9073 C 278.4966 16.536 278.067 15.0562 277.6591 13.468 L 279.2213 13.468 C 279.3255 13.954 279.447 14.4834 279.5859 15.0562 C 279.7334 15.6291 279.8853 16.2019 280.0415 16.7747 C 280.2064 17.3388 280.3756 17.8856 280.5492 18.415 C 280.7315 18.9445 280.9007 19.4045 281.0569 19.795 C 281.2305 19.309 281.3998 18.7969 281.5647 18.2588 C 281.7383 17.712 281.9032 17.1609 282.0594 16.6055 C 282.2156 16.05 282.3631 15.5075 282.502 14.9781 C 282.6495 14.44 282.7711 13.9366 282.8665 13.468 L 284.0642 13.468 C 284.1597 13.9366 284.2725 14.44 284.4027 14.9781 C 284.5416 15.5075 284.6891 16.05 284.8453 16.6055 C 285.0016 17.1609 285.1621 17.712 285.327 18.2588 C 285.5006 18.7969 285.6785 19.309 285.8608 19.795 C 286.017 19.4045 286.1776 18.9445 286.3425 18.415 C 286.5161 17.8856 286.6853 17.3388 286.8502 16.7747 C 287.0151 16.2019 287.1713 15.6291 287.3189 15.0562 C 287.4664 14.4834 287.5922 13.954 287.6964 13.468 L 289.1805 13.468 C 288.7813 15.0562 288.3517 16.536 287.8917 17.9073 C 287.4404 19.2699 286.976 20.485 286.4987 21.5525 Z M 292.1584 21.5525 L 290.7133 21.5525 L 290.7133 13.468 L 292.1584 13.468 Z M 291.4163 12.0099 C 291.1646 12.0099 290.9477 11.9231 290.7654 11.7495 C 290.5831 11.5759 290.492 11.346 290.492 11.0596 C 290.492 10.7731 290.5831 10.5432 290.7654 10.3696 C 290.9477 10.196 291.1646 10.1092 291.4163 10.1092 C 291.6767 10.1092 291.898 10.196 292.0803 10.3696 C 292.2625 10.5432 292.3536 10.7731 292.3536 11.0596 C 292.3536 11.346 292.2625 11.576 292.0803 11.7495 C 291.898 11.9231 291.6767 12.0099 291.4163 12.0099 Z M 294.646 13.7023 C 294.9758 13.6155 295.4141 13.5287 295.9609 13.4419 C 296.5076 13.3465 297.1412 13.2987 297.8616 13.2987 C 298.5038 13.2987 299.0376 13.3899 299.4629 13.5721 C 299.8881 13.7544 300.2266 14.0104 300.4783 14.3402 C 300.73 14.6613 300.9079 15.0519 301.0121 15.5119 C 301.1162 15.9632 301.1683 16.4622 301.1683 17.009 L 301.1683 21.5525 L 299.7232 21.5525 L 299.7232 17.3215 C 299.7232 16.8268 299.6885 16.4058 299.6191 16.0587 C 299.5497 15.7028 299.4368 15.4164 299.2806 15.1995 C 299.1331 14.9825 298.9291 14.8263 298.6687 14.7308 C 298.4084 14.6266 298.0872 14.5746 297.7054 14.5746 C 297.5491 14.5746 297.3886 14.5789 297.2237 14.5876 C 297.0588 14.5963 296.8982 14.6093 296.742 14.6266 C 296.5944 14.644 296.4599 14.6657 296.3384 14.6917 C 296.2256 14.7091 296.1431 14.7221 296.0911 14.7308 L 296.0911 21.5525 L 294.646 21.5525 Z M 308.6326 20.7454 C 308.5024 20.8235 308.2594 20.9276 307.9035 21.0578 C 307.5477 21.188 307.1311 21.2531 306.6538 21.2531 C 306.1677 21.2531 305.7077 21.175 305.2738 21.0188 C 304.8485 20.8625 304.4753 20.6239 304.1542 20.3027 C 303.8331 19.9729 303.577 19.565 303.3861 19.079 C 303.2038 18.593 303.1127 18.0115 303.1127 17.3345 C 303.1127 16.7443 303.1995 16.2062 303.3731 15.7202 C 303.5466 15.2255 303.8027 14.8002 304.1412 14.4444 C 304.4796 14.0885 304.8919 13.8108 305.3779 13.6112 C 305.864 13.4029 306.4151 13.2987 307.0313 13.2987 C 307.6996 13.2987 308.2854 13.3508 308.7888 13.455 C 309.2922 13.5504 309.7175 13.6372 310.0646 13.7153 L 310.0646 20.9276 C 310.0646 22.1774 309.7435 23.08 309.1012 23.6355 C 308.459 24.1909 307.4826 24.4687 306.1721 24.4687 C 305.6687 24.4687 305.1913 24.4253 304.74 24.3385 C 304.2887 24.2604 303.8982 24.1649 303.5683 24.0521 L 303.8287 22.8023 C 304.1151 22.9151 304.4666 23.0149 304.8832 23.1017 C 305.3085 23.1885 305.7511 23.2319 306.2111 23.2319 C 307.0703 23.2319 307.6866 23.0583 308.0598 22.7112 C 308.4416 22.3727 308.6326 21.8302 308.6326 21.0838 Z M 308.6196 14.7438 C 308.472 14.7004 308.2767 14.6614 308.0337 14.6266 C 307.7907 14.5919 307.4609 14.5746 307.0443 14.5746 C 306.2632 14.5746 305.6643 14.8306 305.2477 15.3427 C 304.8312 15.846 304.6229 16.5187 304.6229 17.3605 C 304.6229 17.8205 304.6793 18.2198 304.7921 18.5582 C 304.9136 18.8881 305.0742 19.1614 305.2738 19.3784 C 305.4821 19.5954 305.7164 19.7559 305.9768 19.8601 C 306.2458 19.9642 306.5192 20.0163 306.7969 20.0163 C 307.1788 20.0163 307.5303 19.9642 307.8515 19.8601 C 308.1726 19.7473 308.4286 19.6171 308.6196 19.4695 Z M 315.6749 16.1628 C 315.6749 14.3576 315.9917 12.9689 316.6253 11.9969 C 317.2675 11.0162 318.1528 10.5258 319.2811 10.5258 C 320.4093 10.5258 321.2903 11.0162 321.9238 11.9969 C 322.5661 12.9689 322.8872 14.3576 322.8872 16.1628 C 322.8872 17.9594 322.5661 19.348 321.9238 20.3288 C 321.2903 21.3008 320.4093 21.7869 319.2811 21.7869 C 318.1528 21.7869 317.2675 21.3008 316.6253 20.3288 C 315.9917 19.348 315.6749 17.9594 315.6749 16.1628 Z M 321.364 16.1628 C 321.364 15.5727 321.3293 15.0129 321.2599 14.4834 C 321.1905 13.954 321.0733 13.494 320.9084 13.1035 C 320.7522 12.7042 320.5395 12.3875 320.2705 12.1531 C 320.0014 11.9188 319.6716 11.8016 319.2811 11.8016 C 318.8818 11.8016 318.5477 11.9188 318.2786 12.1531 C 318.0096 12.3875 317.7926 12.7042 317.6277 13.1035 C 317.4715 13.494 317.3587 13.954 317.2892 14.4834 C 317.2285 15.0129 317.1981 15.5727 317.1981 16.1628 C 317.1981 16.753 317.2285 17.3128 317.2892 17.8422 C 317.3587 18.3716 317.4715 18.8316 317.6277 19.2222 C 317.7926 19.6127 318.0096 19.9252 318.2786 20.1595 C 318.5477 20.3939 318.8818 20.511 319.2811 20.511 C 319.6716 20.511 320.0014 20.3939 320.2705 20.1595 C 320.5395 19.9252 320.7522 19.6128 320.9084 19.2222 C 321.0733 18.8316 321.1905 18.3716 321.2599 17.8422 C 321.3293 17.3128 321.364 16.753 321.364 16.1628 Z M 335.6354 17.5168 C 335.6354 18.159 335.5399 18.7405 335.349 19.2613 C 335.1667 19.7733 334.9063 20.216 334.5679 20.5892 C 334.2294 20.9624 333.8258 21.2531 333.3571 21.4614 C 332.8971 21.661 332.3894 21.7608 331.834 21.7608 C 331.2872 21.7608 330.7795 21.661 330.3108 21.4614 C 329.8421 21.2531 329.4386 20.9624 329.1001 20.5892 C 328.7703 20.216 328.5099 19.7733 328.319 19.2613 C 328.1367 18.7405 328.0456 18.159 328.0456 17.5168 C 328.0456 16.8832 328.1367 16.306 328.319 15.7853 C 328.5099 15.2559 328.7703 14.8046 329.1001 14.4314 C 329.4385 14.0582 329.8421 13.7718 330.3108 13.5721 C 330.7795 13.3725 331.2872 13.2727 331.834 13.2727 C 332.3894 13.2727 332.8971 13.3725 333.3571 13.5721 C 333.8258 13.7718 334.2294 14.0582 334.5679 14.4314 C 334.9063 14.8046 335.1667 15.2559 335.349 15.7853 C 335.5399 16.3061 335.6354 16.8832 335.6354 17.5168 Z M 334.1252 17.5168 C 334.1252 16.5968 333.9169 15.8721 333.5003 15.3427 C 333.0924 14.8132 332.537 14.5485 331.834 14.5485 C 331.131 14.5485 330.5755 14.8132 330.1676 15.3427 C 329.7597 15.8721 329.5557 16.5968 329.5557 17.5168 C 329.5557 18.4281 329.7597 19.1528 330.1676 19.6909 C 330.5755 20.2203 331.131 20.485 331.834 20.485 C 332.537 20.485 333.0924 20.2203 333.5003 19.6909 C 333.9169 19.1528 334.1252 18.4281 334.1252 17.5168 Z M 340.8228 9.4843 C 341.248 9.4843 341.6126 9.519 341.9163 9.5885 C 342.2201 9.6492 342.4371 9.7056 342.5673 9.7577 L 342.2939 10.9945 C 342.1724 10.9337 341.9944 10.8773 341.7601 10.8252 C 341.5344 10.7645 341.2567 10.7341 340.9269 10.7341 C 340.2586 10.7341 339.79 10.9207 339.5209 11.2939 C 339.2519 11.6584 339.1173 12.1488 339.1173 12.765 L 339.1173 13.468 L 342.2158 13.468 L 342.2158 14.6787 L 339.1173 14.6787 L 339.1173 21.5525 L 337.6723 21.5525 L 337.6723 12.7389 C 337.6723 11.7061 337.924 10.9077 338.4274 10.3435 C 338.9394 9.7707 339.7379 9.4843 340.8228 9.4843 Z M 346.7944 16.1628 C 346.7944 14.3576 347.1112 12.9689 347.7447 11.9969 C 348.387 11.0162 349.2723 10.5258 350.4005 10.5258 C 351.5288 10.5258 352.4097 11.0162 353.0433 11.9969 C 353.6855 12.9689 354.0067 14.3576 354.0067 16.1628 C 354.0067 17.9594 353.6855 19.348 353.0433 20.3288 C 352.4097 21.3008 351.5288 21.7869 350.4005 21.7869 C 349.2723 21.7869 348.387 21.3008 347.7447 20.3288 C 347.1112 19.348 346.7944 17.9594 346.7944 16.1628 Z M 352.4835 16.1628 C 352.4835 15.5727 352.4488 15.0129 352.3793 14.4834 C 352.3099 13.954 352.1927 13.494 352.0278 13.1035 C 351.8716 12.7042 351.659 12.3875 351.3899 12.1531 C 351.1209 11.9188 350.7911 11.8016 350.4005 11.8016 C 350.0013 11.8016 349.6671 11.9188 349.3981 12.1531 C 349.129 12.3875 348.912 12.7042 348.7471 13.1035 C 348.5909 13.494 348.4781 13.954 348.4087 14.4834 C 348.3479 15.0129 348.3175 15.5727 348.3175 16.1628 C 348.3175 16.753 348.3479 17.3128 348.4087 17.8422 C 348.4781 18.3716 348.5909 18.8316 348.7471 19.2222 C 348.912 19.6127 349.129 19.9252 349.3981 20.1595 C 349.6671 20.3939 350.0013 20.511 350.4005 20.511 C 350.7911 20.511 351.1209 20.3939 351.3899 20.1595 C 351.659 19.9252 351.8716 19.6128 352.0278 19.2222 C 352.1927 18.8316 352.3099 18.3716 352.3793 17.8422 C 352.4488 17.3128 352.4835 16.753 352.4835 16.1628 Z M 359.6207 13.7023 C 359.9505 13.6155 360.3844 13.5287 360.9225 13.4419 C 361.4693 13.3465 362.0985 13.2987 362.8102 13.2987 C 363.331 13.2987 363.7649 13.3682 364.1121 13.507 C 364.4679 13.6459 364.7673 13.8499 365.0104 14.1189 C 365.0798 14.0668 365.1926 13.9974 365.3488 13.9106 C 365.5051 13.8151 365.696 13.724 365.9216 13.6372 C 366.156 13.5504 366.412 13.4723 366.6897 13.4029 C 366.9675 13.3335 367.2669 13.2987 367.588 13.2987 C 368.2129 13.2987 368.7206 13.3899 369.1112 13.5721 C 369.5018 13.7544 369.8099 14.0104 370.0355 14.3402 C 370.2612 14.67 370.4131 15.0649 370.4912 15.5249 C 370.5693 15.9762 370.6083 16.4709 370.6083 17.009 L 370.6083 21.5525 L 369.1633 21.5525 L 369.1633 17.3215 C 369.1633 16.8441 369.1372 16.4362 369.0852 16.0977 C 369.0418 15.7592 368.955 15.4772 368.8248 15.2515 C 368.6946 15.0172 368.5167 14.8479 368.291 14.7438 C 368.0741 14.631 367.7876 14.5745 367.4318 14.5745 C 366.9458 14.5745 366.5422 14.6396 366.2211 14.7698 C 365.9086 14.9 365.696 15.0172 365.5831 15.1213 C 365.6699 15.3904 365.7307 15.6855 365.7654 16.0066 C 365.8088 16.3277 365.8305 16.6619 365.8305 17.009 L 365.8305 21.5525 L 364.3854 21.5525 L 364.3854 17.3215 C 364.3854 16.8441 364.3594 16.4362 364.3073 16.0977 C 364.2552 15.7592 364.1641 15.4772 364.0339 15.2515 C 363.9038 15.0172 363.7258 14.8479 363.5002 14.7438 C 363.2832 14.631 363.0055 14.5745 362.667 14.5745 C 362.5194 14.5745 362.3632 14.5789 362.1983 14.5876 C 362.0334 14.5962 361.8729 14.6093 361.7166 14.6266 C 361.5691 14.644 361.4302 14.6657 361.3 14.6917 C 361.1785 14.7091 361.1004 14.7221 361.0657 14.7308 L 361.0657 21.5525 L 359.6207 21.5525 Z M 375.7381 20.511 C 376.0766 20.511 376.376 20.5023 376.6364 20.485 C 376.9054 20.4676 377.1267 20.4416 377.3003 20.4069 L 377.3003 17.9984 C 377.1962 17.9464 377.0269 17.903 376.7926 17.8682 C 376.567 17.8248 376.2849 17.8032 375.9464 17.8032 C 375.7294 17.8032 375.4994 17.8205 375.2564 17.8552 C 375.0134 17.8813 374.7921 17.9464 374.5925 18.0505 C 374.3929 18.146 374.2236 18.2805 374.0848 18.4541 C 373.9546 18.619 373.8895 18.8446 373.8895 19.1311 C 373.8895 19.6431 374.0544 20.0033 374.3842 20.2116 C 374.714 20.4112 375.1653 20.511 375.7381 20.511 Z M 375.6079 13.2727 C 376.1894 13.2727 376.6798 13.3465 377.079 13.494 C 377.4782 13.6416 377.7994 13.8542 378.0424 14.1319 C 378.2854 14.4097 378.459 14.7395 378.5631 15.1213 C 378.6673 15.4945 378.7193 15.9068 378.7193 16.3581 L 378.7193 21.4093 C 378.5978 21.4354 378.4243 21.4657 378.1986 21.5004 C 377.9729 21.5352 377.7212 21.5655 377.4435 21.5916 C 377.1658 21.6263 376.862 21.6567 376.5322 21.6827 C 376.2111 21.7087 375.89 21.7218 375.5688 21.7218 C 375.1089 21.7218 374.6879 21.674 374.306 21.5786 C 373.9242 21.4918 373.59 21.3486 373.3036 21.1489 C 373.0259 20.9407 372.8089 20.6716 372.6527 20.3418 C 372.4965 20.012 372.4184 19.6128 372.4184 19.1441 C 372.4184 18.7015 372.5095 18.3196 372.6917 17.9985 C 372.874 17.6773 373.1214 17.417 373.4338 17.2173 C 373.7463 17.0177 374.1064 16.8745 374.5143 16.7877 C 374.9309 16.6923 375.3692 16.6445 375.8292 16.6445 C 375.9768 16.6445 376.1243 16.6532 376.2719 16.6706 C 376.4281 16.6792 376.5756 16.6966 376.7145 16.7226 C 376.862 16.7487 376.9835 16.7747 377.079 16.8008 C 377.1832 16.8181 377.2569 16.8311 377.3003 16.8398 L 377.3003 16.4362 C 377.3003 16.2019 377.2743 15.9676 377.2222 15.7332 C 377.1701 15.4989 377.0747 15.2906 376.9358 15.1083 C 376.8056 14.9261 376.6234 14.7829 376.389 14.6787 C 376.1634 14.5659 375.8639 14.5095 375.4907 14.5095 C 375.0134 14.5095 374.5925 14.5442 374.2279 14.6136 C 373.8721 14.6831 373.6074 14.7525 373.4338 14.8219 L 373.2646 13.6242 C 373.4468 13.5461 373.7549 13.468 374.1889 13.3899 C 374.6315 13.3118 375.1045 13.2727 375.6079 13.2727 Z M 382.4592 13.468 L 385.5315 13.468 L 385.5315 14.6787 L 382.4592 14.6787 L 382.4592 18.415 C 382.4592 18.8143 382.4896 19.1484 382.5503 19.4175 C 382.6197 19.6778 382.7152 19.8861 382.8367 20.0424 C 382.9582 20.1899 383.1101 20.2941 383.2924 20.3548 C 383.4833 20.4156 383.7046 20.4459 383.9563 20.4459 C 384.3903 20.4459 384.7374 20.3982 384.9978 20.3027 C 385.2668 20.2073 385.4534 20.1378 385.5576 20.0945 L 385.831 21.2922 C 385.6921 21.3616 385.4404 21.4484 385.0759 21.5525 C 384.7114 21.6654 384.2948 21.7218 383.8261 21.7218 C 383.2793 21.7218 382.828 21.6523 382.4722 21.5135 C 382.1164 21.3746 381.8299 21.1663 381.613 20.8886 C 381.396 20.6022 381.2398 20.255 381.1443 19.8471 C 381.0575 19.4392 381.0141 18.9662 381.0141 18.4281 L 381.0141 11.2158 L 382.4592 10.9684 Z M 390.6669 21.7348 C 390.0159 21.7348 389.4431 21.635 388.9484 21.4354 C 388.4624 21.2271 388.0501 20.9363 387.7116 20.5631 C 387.3732 20.1899 387.1215 19.7473 386.9565 19.2352 C 386.7916 18.7145 386.7092 18.146 386.7092 17.5298 C 386.7092 16.9049 386.8003 16.3364 386.9826 15.8244 C 387.1649 15.3036 387.4209 14.8566 387.7507 14.4834 C 388.0805 14.1016 388.4841 13.8065 388.9614 13.5982 C 389.4475 13.3812 389.9856 13.2727 390.5757 13.2727 C 390.9403 13.2727 391.3048 13.3031 391.6693 13.3638 C 392.0338 13.4246 392.381 13.5201 392.7108 13.6502 L 392.3853 14.887 C 392.1683 14.7829 391.9166 14.7004 391.6302 14.6397 C 391.3438 14.5789 391.0401 14.5485 390.7189 14.5485 C 389.9118 14.5485 389.2912 14.8046 388.8573 15.3166 C 388.432 15.82 388.2194 16.5577 388.2194 17.5298 C 388.2194 17.9637 388.2671 18.363 388.3626 18.7275 C 388.458 19.0833 388.6099 19.3914 388.8182 19.6518 C 389.0352 19.9122 389.3086 20.1118 389.6384 20.2507 C 389.9769 20.3895 390.3848 20.459 390.8621 20.459 C 391.244 20.459 391.5912 20.4242 391.9036 20.3548 C 392.2161 20.2854 392.4591 20.2073 392.6327 20.1205 L 392.8279 21.3312 C 392.7498 21.3833 392.6327 21.4354 392.4764 21.4874 C 392.3202 21.5308 392.1423 21.5699 391.9427 21.6046 C 391.7517 21.6393 391.5434 21.6697 391.3178 21.6957 C 391.0921 21.7218 390.8752 21.7348 390.6669 21.7348 Z M 394.3929 21.5525 L 394.3929 9.7447 L 395.8379 9.4843 L 395.8379 13.6242 C 396.107 13.5201 396.3934 13.442 396.6972 13.3899 C 397.0009 13.3291 397.3047 13.2987 397.6085 13.2987 C 398.2507 13.2987 398.7845 13.3899 399.2098 13.5721 C 399.635 13.7544 399.9735 14.0104 400.2252 14.3402 C 400.4769 14.6613 400.6548 15.0519 400.759 15.5119 C 400.8631 15.9632 400.9152 16.4622 400.9152 17.009 L 400.9152 21.5525 L 399.4701 21.5525 L 399.4701 17.3215 C 399.4701 16.8268 399.4354 16.4058 399.366 16.0587 C 399.2966 15.7028 399.1837 15.4164 399.0275 15.1995 C 398.88 14.9825 398.676 14.8263 398.4156 14.7308 C 398.1553 14.6266 397.8341 14.5746 397.4522 14.5746 C 397.296 14.5746 397.1355 14.5876 396.9706 14.6136 C 396.8057 14.631 396.6451 14.6527 396.4889 14.6787 C 396.3413 14.7048 396.2068 14.7351 396.0853 14.7699 C 395.9725 14.7959 395.89 14.8176 395.8379 14.8349 L 395.8379 21.5525 Z M 402.813 17.5298 C 402.813 16.8094 402.9171 16.1845 403.1254 15.6551 C 403.3337 15.117 403.6071 14.6744 403.9456 14.3272 C 404.2841 13.9714 404.6746 13.7067 405.1173 13.5331 C 405.5686 13.3595 406.0285 13.2727 406.4972 13.2727 C 407.5821 13.2727 408.4153 13.6112 408.9968 14.2881 C 409.5783 14.9651 409.869 15.9979 409.869 17.3866 C 409.869 17.4473 409.869 17.5298 409.869 17.6339 C 409.869 17.7294 409.8647 17.8162 409.856 17.8943 L 404.3231 17.8943 C 404.3839 18.7362 404.6269 19.3741 405.0522 19.808 C 405.4774 20.242 406.1414 20.459 407.044 20.459 C 407.5474 20.459 407.9727 20.4155 408.3198 20.3288 C 408.667 20.242 408.9274 20.1595 409.1009 20.0814 L 409.3092 21.2921 C 409.1357 21.3789 408.8276 21.4744 408.3849 21.5786 C 407.9423 21.6827 407.4432 21.7348 406.8878 21.7348 C 406.1848 21.7348 405.5729 21.6306 405.0522 21.4223 C 404.5401 21.2053 404.1192 20.9103 403.7894 20.5371 C 403.4596 20.1639 403.2122 19.7212 403.0473 19.2092 C 402.8911 18.6971 402.813 18.1373 402.813 17.5298 Z M 408.3589 16.7356 C 408.3676 16.0847 408.2027 15.551 407.8642 15.1344 C 407.5344 14.7091 407.0744 14.4965 406.4842 14.4965 C 406.1457 14.4965 405.8506 14.5615 405.5989 14.6917 C 405.3472 14.8219 405.1303 14.9912 404.948 15.1995 C 404.7744 15.4078 404.6399 15.6464 404.5444 15.9155 C 404.449 16.1845 404.3839 16.4579 404.3491 16.7357 Z M 413.8325 20.511 C 414.4226 20.511 414.8609 20.4329 415.1474 20.2767 C 415.4338 20.1205 415.577 19.8731 415.577 19.5346 C 415.577 19.1788 415.4338 18.8967 415.1474 18.6884 C 414.8696 18.4802 414.4096 18.2502 413.7674 17.9985 C 413.4549 17.8683 413.1555 17.7381 412.8691 17.6079 C 412.5914 17.4777 412.3484 17.3258 412.1401 17.1523 C 411.9318 16.9787 411.7625 16.7661 411.6324 16.5144 C 411.5108 16.2627 411.4501 15.9589 411.4501 15.6031 C 411.4501 14.8827 411.7148 14.3142 412.2442 13.8976 C 412.7736 13.481 413.494 13.2727 414.4053 13.2727 C 414.631 13.2727 414.8566 13.2857 415.0823 13.3118 C 415.3166 13.3378 415.5292 13.3682 415.7202 13.4029 C 415.9198 13.4376 416.0934 13.4767 416.2409 13.5201 C 416.3972 13.5548 416.5187 13.5895 416.6054 13.6242 L 416.3321 14.874 C 416.1758 14.7872 415.9328 14.7004 415.603 14.6136 C 415.2732 14.5268 414.874 14.4834 414.4053 14.4834 C 414.0061 14.4834 413.6546 14.5659 413.3508 14.7308 C 413.047 14.887 412.8951 15.1344 412.8951 15.4729 C 412.8951 15.6464 412.9299 15.8027 412.9993 15.9415 C 413.0687 16.0717 413.1729 16.1932 413.3117 16.3061 C 413.4506 16.4189 413.6242 16.523 413.8325 16.6185 C 414.0408 16.7053 414.2881 16.8008 414.5745 16.9049 C 414.9564 17.0525 415.2992 17.1957 415.603 17.3345 C 415.9068 17.4734 416.1628 17.6383 416.3711 17.8292 C 416.5881 18.0115 416.753 18.2371 416.8658 18.5062 C 416.9786 18.7666 417.0351 19.0877 417.0351 19.4696 C 417.0351 20.216 416.7573 20.7801 416.2019 21.162 C 415.6464 21.5439 414.8566 21.7348 413.8325 21.7348 C 413.1208 21.7348 412.561 21.674 412.1531 21.5525 C 411.7452 21.4397 411.4718 21.3529 411.3329 21.2922 L 411.5933 20.0424 C 411.7582 20.1031 412.0229 20.1986 412.3874 20.3288 C 412.752 20.4503 413.2336 20.5111 413.8325 20.5111 Z " stroke-width="1" fill="#ffffff" stroke="none"/></g></g></svg>