<svg xmlns="http://www.w3.org/2000/svg" xmlns:xlink="http://www.w3.org/1999/xlink" version="1.1" width="169.26033" height="14.85976" viewBox="0,0,169.26033,14.85976"><g><g data-paper-data="{&quot;isPaintingLayer&quot;:true}" fill-rule="nonzero" stroke-linejoin="miter" stroke-miterlimit="10" stroke-dasharray="" stroke-dashoffset="0" style="mix-blend-mode: normal"><path d="M 3.4072 14.6098 L 3.4072 0.25 L 163.7314 0.25 L 163.7504 14.6098 Z " data-paper-data="{&quot;index&quot;:null}" fill="#000000" stroke="#ffffff" stroke-width="0.5" stroke-linecap="butt"/><path d="M 166.6082 14.588 C 164.2402 14.588 155.3751 14.588 155.3751 14.588 L 155.3751 0.263 C 155.3751 0.263 164.1984 0.263 166.5733 0.263 C 167.6812 0.263 169.0103 1.5901 169.0103 2.7134 C 169.0103 3.488 169.0103 9.0516 169.0103 12.2773 C 169.0103 13.6211 167.7032 14.588 166.6082 14.588 Z " data-paper-data="{&quot;index&quot;:null}" fill="#000000" stroke="#ffffff" stroke-width="0.5" stroke-linecap="butt"/><path d="M 0.25 12.2773 C 0.25 9.0516 0.25 3.488 0.25 2.7134 C 0.25 1.5901 1.5792 0.263 2.6871 0.263 C 5.0619 0.263 13.8852 0.263 13.8852 0.263 L 13.8852 14.588 C 13.8852 14.588 5.0202 14.588 2.6522 14.588 C 1.5571 14.588 0.25 13.6211 0.25 12.2773 Z " fill="#000000" stroke="#ffffff" stroke-width="0.5" stroke-linecap="butt"/><path d="M635.73333,366.92058v-13.84106h21.10476v13.84106z" fill="#000000" stroke="none" stroke-width="0" stroke-linecap="butt" transform="matrix(1,0,0,1,-628.57366,-352.57452)"/><path d="M 7.4719 10.777 C 8.1803 10.777 8.6855 10.6364 8.9876 10.3552 C 9.3001 10.0739 9.4563 9.6989 9.4563 9.2302 C 9.4563 8.9281 9.3886 8.6729 9.2532 8.4645 C 9.1282 8.2562 8.9615 8.0895 8.7532 7.9645 C 8.5553 7.8395 8.3157 7.751 8.0344 7.6989 C 7.7636 7.6468 7.4824 7.6208 7.1907 7.6208 L 6.8938 7.6208 L 6.8938 6.6989 L 7.3001 6.6989 C 7.498 6.6989 7.7011 6.6833 7.9095 6.6521 C 8.1282 6.6104 8.3261 6.5375 8.5032 6.4333 C 8.6803 6.3291 8.8209 6.1885 8.9251 6.0114 C 9.0397 5.8239 9.097 5.5948 9.097 5.3239 C 9.097 5.1052 9.0553 4.9177 8.972 4.7614 C 8.899 4.5948 8.7949 4.4594 8.6595 4.3552 C 8.524 4.251 8.3678 4.1781 8.1907 4.1364 C 8.024 4.0844 7.847 4.0583 7.6595 4.0583 C 7.274 4.0583 6.9459 4.1156 6.6751 4.2302 C 6.4147 4.3448 6.1907 4.4594 6.0032 4.5739 L 5.5657 3.7302 C 5.6595 3.6677 5.7793 3.6 5.9251 3.5271 C 6.0814 3.4437 6.248 3.3708 6.4251 3.3083 C 6.6126 3.2458 6.8105 3.1937 7.0189 3.1521 C 7.2376 3.1 7.4616 3.074 7.6907 3.074 C 8.1282 3.074 8.5084 3.1312 8.8314 3.2458 C 9.1543 3.35 9.4199 3.501 9.6282 3.699 C 9.8366 3.8969 9.9928 4.1313 10.097 4.4021 C 10.2012 4.6625 10.2532 4.949 10.2532 5.2615 C 10.2532 5.699 10.1282 6.074 9.8782 6.3865 C 9.6282 6.6886 9.3262 6.9177 8.972 7.074 C 9.1907 7.1365 9.3991 7.2302 9.597 7.3552 C 9.7949 7.4698 9.9668 7.6209 10.1126 7.8084 C 10.2689 7.9959 10.3939 8.2094 10.4876 8.449 C 10.5814 8.6886 10.6283 8.9542 10.6283 9.2459 C 10.6283 9.6104 10.5658 9.949 10.4408 10.2615 C 10.3158 10.5636 10.123 10.8292 9.8626 11.0584 C 9.6022 11.2771 9.2741 11.4542 8.8783 11.5896 C 8.4928 11.7146 8.0293 11.7771 7.4876 11.7771 C 7.2793 11.7771 7.0658 11.7563 6.847 11.7146 C 6.6283 11.6834 6.4199 11.6417 6.222 11.5896 C 6.0345 11.548 5.8679 11.5063 5.722 11.4646 C 5.5762 11.4125 5.472 11.3709 5.4095 11.3396 L 5.6283 10.3709 C 5.7637 10.4334 5.9877 10.5167 6.3002 10.6209 C 6.6231 10.725 7.0137 10.7771 7.472 10.7771 Z M 16.2087 11.5895 C 16.1254 11.4124 16.016 11.2197 15.8806 11.0114 C 15.7556 10.7927 15.615 10.5687 15.4587 10.3395 C 15.3129 10.1104 15.1566 9.8864 14.99 9.6677 C 14.8337 9.4385 14.6827 9.225 14.5369 9.027 C 14.3806 9.225 14.2191 9.4385 14.0525 9.6677 C 13.8962 9.8968 13.7452 10.126 13.5994 10.3552 C 13.4535 10.5739 13.3129 10.7927 13.1775 11.0114 C 13.0525 11.2302 12.9483 11.4229 12.865 11.5896 L 11.7087 11.5896 C 11.99 11.0479 12.3233 10.4958 12.7087 9.9333 C 13.1046 9.3604 13.4952 8.8187 13.8806 8.3083 L 11.8025 5.3552 L 13.0681 5.3552 L 14.5525 7.5271 L 16.0525 5.3552 L 17.24 5.3552 L 15.2244 8.2458 C 15.6098 8.7667 16.0056 9.3187 16.4119 9.9021 C 16.8181 10.475 17.1619 11.0375 17.4431 11.5896 Z " fill="#ffffff" stroke="none" stroke-width="1" stroke-linecap="square"/><path d="M782.68928,366.90748v-13.81491h2.7619v13.81491z" fill="#000000" stroke="none" stroke-width="0" stroke-linecap="butt" transform="matrix(1,0,0,1,-628.57366,-352.57452)"/><path d="M 22.5285 7.7735 C 22.5285 8.8048 22.6744 9.7579 22.966 10.6329 C 23.2681 11.4975 23.7056 12.3048 24.2785 13.0548 L 23.4973 13.586 C 22.8723 12.8256 22.3671 11.9506 21.9817 10.961 C 21.6067 9.9715 21.4192 8.909 21.4192 7.7735 C 21.4192 6.6381 21.6067 5.5808 21.9817 4.6017 C 22.3671 3.6121 22.8723 2.7371 23.4973 1.9767 L 24.2786 2.5079 C 23.7056 3.2579 23.2681 4.0704 22.9661 4.9454 C 22.6744 5.81 22.5286 6.7527 22.5286 7.7735 Z M 24.7128 7.211 C 24.7128 6.4923 24.817 5.8621 25.0253 5.3204 C 25.2337 4.7787 25.5201 4.3256 25.8847 3.961 C 26.2493 3.5965 26.6712 3.3204 27.1503 3.1329 C 27.6399 2.9454 28.1555 2.8517 28.6972 2.8517 C 29.2389 2.8517 29.7441 2.9454 30.2128 3.1329 C 30.692 3.3204 31.1087 3.5965 31.4628 3.961 C 31.8274 4.3256 32.1139 4.7788 32.3222 5.3204 C 32.541 5.8621 32.6504 6.4923 32.6504 7.2111 C 32.6504 7.9194 32.541 8.5444 32.3222 9.0861 C 32.1139 9.6277 31.8274 10.0808 31.4629 10.4454 C 31.1087 10.81 30.692 11.0861 30.2129 11.2736 C 29.7441 11.4611 29.2389 11.5548 28.6972 11.5548 C 28.1556 11.5548 27.64 11.4611 27.1504 11.2736 C 26.6712 11.0861 26.2493 10.81 25.8848 10.4454 C 25.5202 10.0809 25.2337 9.6277 25.0254 9.0861 C 24.817 8.5444 24.7129 7.9194 24.7129 7.2111 Z M 25.9316 7.211 C 25.9316 7.711 25.9941 8.1694 26.1191 8.586 C 26.2441 8.9923 26.4264 9.3412 26.666 9.6329 C 26.9055 9.9142 27.192 10.1329 27.5253 10.2892 C 27.8691 10.4454 28.2545 10.5235 28.6816 10.5235 C 29.0982 10.5235 29.4732 10.4454 29.8066 10.2892 C 30.1503 10.1329 30.4368 9.9142 30.666 9.6329 C 30.9056 9.3412 31.0878 8.9923 31.2128 8.586 C 31.3483 8.1694 31.416 7.711 31.416 7.211 C 31.416 6.7006 31.3483 6.2423 31.2129 5.836 C 31.0879 5.4194 30.9056 5.0704 30.666 4.7892 C 30.4368 4.4975 30.1504 4.2736 29.8066 4.1173 C 29.4733 3.9611 29.0983 3.8829 28.6816 3.8829 C 28.2545 3.8829 27.8691 3.9611 27.5254 4.1173 C 27.192 4.2736 26.9056 4.4975 26.666 4.7892 C 26.4264 5.0704 26.2441 5.4194 26.1191 5.8361 C 25.9941 6.2423 25.9316 6.7007 25.9316 7.2111 Z M 34.2989 5.3048 C 34.5593 5.2423 34.8979 5.1746 35.3145 5.1017 C 35.7416 5.0287 36.2312 4.9923 36.7833 4.9923 C 37.2833 4.9923 37.6947 5.0652 38.0177 5.211 C 38.351 5.3465 38.6166 5.5392 38.8145 5.7892 C 39.0124 6.0392 39.1479 6.3412 39.2208 6.6954 C 39.3041 7.0496 39.3458 7.4402 39.3458 7.8673 L 39.3458 11.3673 L 38.2364 11.3673 L 38.2364 8.1017 C 38.2364 7.7163 38.2104 7.3881 38.1583 7.1173 C 38.1062 6.8465 38.0177 6.6277 37.8927 6.4611 C 37.7781 6.2944 37.6166 6.1746 37.4083 6.1017 C 37.2104 6.0184 36.9656 5.9767 36.6739 5.9767 C 36.5489 5.9767 36.4239 5.9819 36.2989 5.9923 C 36.1739 6.0027 36.0489 6.0131 35.9239 6.0236 C 35.8093 6.034 35.7052 6.0496 35.6114 6.0704 C 35.5281 6.0809 35.4656 6.0913 35.4239 6.1017 L 35.4239 11.3673 L 34.2989 11.3673 Z M 43.0619 11.4923 C 42.3744 11.4715 41.8848 11.3204 41.5932 11.0392 C 41.3119 10.7579 41.1713 10.3256 41.1713 9.7423 L 41.1713 2.2423 L 42.2807 2.0548 L 42.2807 9.5548 C 42.2807 9.7423 42.2963 9.8985 42.3276 10.0235 C 42.3588 10.1381 42.4109 10.2319 42.4838 10.3048 C 42.5567 10.3777 42.6505 10.4298 42.7651 10.461 C 42.8901 10.4923 43.0411 10.5235 43.2182 10.5548 Z M 43.7442 12.5235 C 43.8275 12.5652 43.9369 12.6017 44.0723 12.6329 C 44.2182 12.6746 44.3588 12.6954 44.4942 12.6954 C 44.9317 12.6954 45.2755 12.5965 45.5255 12.3985 C 45.7755 12.211 45.9994 11.8933 46.1973 11.4454 C 45.6973 10.4871 45.2286 9.4715 44.7911 8.3985 C 44.3536 7.3256 43.989 6.2371 43.6973 5.1329 L 44.9005 5.1329 C 44.9942 5.4871 45.0984 5.8725 45.213 6.2892 C 45.338 6.7058 45.4786 7.1381 45.6348 7.5861 C 45.7911 8.0236 45.9526 8.4611 46.1192 8.8986 C 46.2963 9.3361 46.4838 9.7579 46.6817 10.1642 C 46.9838 9.3309 47.2442 8.5027 47.463 7.6798 C 47.6921 6.8465 47.9057 5.9975 48.1036 5.1329 L 49.2599 5.1329 C 48.9682 6.31 48.6453 7.4402 48.2911 8.5236 C 47.9474 9.6069 47.5671 10.6173 47.1505 11.5548 C 46.9942 11.9194 46.8276 12.2319 46.6505 12.4923 C 46.4838 12.7527 46.2963 12.9663 46.088 13.133 C 45.8796 13.2996 45.6453 13.4194 45.3849 13.4923 C 45.1245 13.5757 44.8328 13.6173 44.5099 13.6173 C 44.4161 13.6173 44.3224 13.6121 44.2286 13.6017 C 44.1349 13.5913 44.0411 13.5757 43.9474 13.5548 C 43.8536 13.534 43.7703 13.5132 43.6974 13.4923 C 43.6245 13.4715 43.5724 13.4507 43.5411 13.4298 Z M 55.324 10.5704 C 55.5844 10.5704 55.8136 10.5652 56.0115 10.5547 C 56.2198 10.5339 56.3917 10.5079 56.5271 10.4766 L 56.5271 8.6173 C 56.4438 8.5756 56.3136 8.5443 56.1365 8.5235 C 55.9594 8.4923 55.7407 8.4766 55.4803 8.4766 C 55.3136 8.4766 55.1365 8.4923 54.949 8.5235 C 54.7615 8.5443 54.5896 8.5912 54.4334 8.6641 C 54.2771 8.7371 54.1469 8.8412 54.0428 8.9766 C 53.9386 9.1016 53.8865 9.2735 53.8865 9.4923 C 53.8865 9.8985 54.0115 10.1798 54.2615 10.336 C 54.5219 10.4923 54.8761 10.5704 55.324 10.5704 Z M 55.2146 4.9766 C 55.6625 4.9766 56.0428 5.0339 56.3553 5.1485 C 56.6678 5.2631 56.9178 5.4297 57.1053 5.6485 C 57.2928 5.8568 57.423 6.1068 57.4959 6.3985 C 57.5792 6.6902 57.6209 7.0079 57.6209 7.3516 L 57.6209 11.2579 C 57.5271 11.2787 57.3917 11.3048 57.2146 11.336 C 57.048 11.3568 56.8553 11.3777 56.6365 11.3985 C 56.4178 11.4298 56.1834 11.4506 55.9334 11.461 C 55.6834 11.4818 55.4334 11.4923 55.1834 11.4923 C 54.8292 11.4923 54.5063 11.4558 54.2146 11.3829 C 53.923 11.3204 53.6678 11.211 53.449 11.0548 C 53.2303 10.8985 53.0584 10.6954 52.9334 10.4454 C 52.8188 10.185 52.7615 9.8725 52.7615 9.5079 C 52.7615 9.1641 52.8292 8.8673 52.9647 8.6173 C 53.1105 8.3673 53.3032 8.1694 53.5428 8.0235 C 53.7824 7.8673 54.0584 7.7527 54.3709 7.6798 C 54.6938 7.6069 55.0324 7.5704 55.3866 7.5704 C 55.5011 7.5704 55.6157 7.5808 55.7303 7.6017 C 55.8553 7.6121 55.9699 7.6277 56.0741 7.6485 C 56.1886 7.659 56.2824 7.6746 56.3553 7.6954 C 56.4386 7.7162 56.4959 7.7267 56.5272 7.7267 L 56.5272 7.4142 C 56.5272 7.2371 56.5063 7.06 56.4647 6.8829 C 56.423 6.6954 56.3501 6.534 56.2459 6.3985 C 56.1522 6.2527 56.0116 6.1381 55.8241 6.0548 C 55.647 5.9715 55.4126 5.9298 55.1209 5.9298 C 54.7564 5.9298 54.4334 5.9558 54.1522 6.0079 C 53.8814 6.06 53.6782 6.1121 53.5428 6.1642 L 53.4022 5.2423 C 53.548 5.1798 53.7876 5.1225 54.121 5.0704 C 54.4647 5.0079 54.8293 4.9767 55.2147 4.9767 Z M 63.8068 8.2579 C 63.8068 7.5287 63.6245 6.9714 63.2599 6.586 C 62.9058 6.1902 62.4266 5.9922 61.8224 5.9922 C 61.4891 5.9922 61.2287 6.0079 61.0412 6.0391 C 60.8537 6.06 60.7026 6.086 60.588 6.1173 L 60.588 10.0548 C 60.7235 10.1589 60.9162 10.2631 61.1662 10.3673 C 61.4266 10.4714 61.7078 10.5235 62.0099 10.5235 C 62.3328 10.5235 62.6089 10.4662 62.8381 10.3516 C 63.0672 10.2371 63.2495 10.0808 63.3849 9.8829 C 63.5308 9.6746 63.6349 9.435 63.6974 9.1641 C 63.7703 8.8829 63.8068 8.5808 63.8068 8.2579 Z M 64.963 8.2579 C 64.963 8.7266 64.9005 9.1641 64.7755 9.5704 C 64.6505 9.9662 64.4683 10.3099 64.2287 10.6016 C 63.9891 10.8829 63.6922 11.1068 63.338 11.2735 C 62.9943 11.4297 62.5985 11.5079 62.1505 11.5079 C 61.7964 11.5079 61.4787 11.461 61.1974 11.3673 C 60.9266 11.2735 60.7235 11.1798 60.5881 11.086 L 60.5881 13.586 L 59.4631 13.586 L 59.4631 5.3204 C 59.7339 5.2579 60.0672 5.1902 60.4631 5.1173 C 60.8589 5.0339 61.3172 4.9923 61.8381 4.9923 C 62.3172 4.9923 62.7495 5.0704 63.1349 5.2266 C 63.5203 5.3725 63.8485 5.586 64.1193 5.8673 C 64.3902 6.1485 64.5985 6.4923 64.7443 6.8985 C 64.8902 7.3048 64.9631 7.7579 64.9631 8.2579 Z M 70.8748 8.2579 C 70.8748 7.5287 70.6925 6.9714 70.328 6.586 C 69.9738 6.1902 69.4946 5.9922 68.8905 5.9922 C 68.5571 5.9922 68.2967 6.0079 68.1092 6.0391 C 67.9217 6.06 67.7707 6.086 67.6561 6.1173 L 67.6561 10.0548 C 67.7915 10.1589 67.9842 10.2631 68.2342 10.3673 C 68.4946 10.4714 68.7759 10.5235 69.078 10.5235 C 69.4009 10.5235 69.6769 10.4662 69.9061 10.3516 C 70.1353 10.2371 70.3176 10.0808 70.453 9.8829 C 70.5988 9.6746 70.703 9.435 70.7655 9.1641 C 70.8384 8.8829 70.8749 8.5808 70.8749 8.2579 Z M 72.0311 8.2579 C 72.0311 8.7266 71.9686 9.1641 71.8436 9.5704 C 71.7186 9.9662 71.5363 10.3099 71.2967 10.6016 C 71.0571 10.8829 70.7603 11.1068 70.4061 11.2735 C 70.0623 11.4297 69.6665 11.5079 69.2186 11.5079 C 68.8644 11.5079 68.5467 11.461 68.2655 11.3673 C 67.9946 11.2735 67.7915 11.1798 67.6561 11.086 L 67.6561 13.586 L 66.5311 13.586 L 66.5311 5.3204 C 66.8019 5.2579 67.1353 5.1902 67.5311 5.1173 C 67.9269 5.0339 68.3853 4.9923 68.9061 4.9923 C 69.3853 4.9923 69.8176 5.0704 70.203 5.2266 C 70.5884 5.3725 70.9165 5.586 71.1874 5.8673 C 71.4582 6.1485 71.6665 6.4923 71.8124 6.8985 C 71.9582 7.3048 72.0311 7.7579 72.0311 8.2579 Z M 75.4742 11.4923 C 74.7867 11.4715 74.2971 11.3204 74.0054 11.0392 C 73.7242 10.7579 73.5835 10.3256 73.5835 9.7423 L 73.5835 2.2423 L 74.6929 2.0548 L 74.6929 9.5548 C 74.6929 9.7423 74.7085 9.8985 74.7398 10.0235 C 74.771 10.1381 74.8231 10.2319 74.896 10.3048 C 74.9689 10.3777 75.0627 10.4298 75.1773 10.461 C 75.3023 10.4923 75.4533 10.5235 75.6304 10.5548 Z M 78.0001 11.3673 L 76.8751 11.3673 L 76.8751 5.1329 L 78.0001 5.1329 Z M 77.4376 3.9923 C 77.2397 3.9923 77.0679 3.9298 76.922 3.8048 C 76.7866 3.6694 76.7189 3.4923 76.7189 3.2735 C 76.7189 3.0444 76.7866 2.8673 76.922 2.7423 C 77.0679 2.6069 77.2397 2.5392 77.4377 2.5392 C 77.6356 2.5392 77.8023 2.6069 77.9377 2.7423 C 78.0835 2.8673 78.1564 3.0444 78.1564 3.2735 C 78.1564 3.4923 78.0835 3.6694 77.9377 3.8048 C 77.8023 3.9298 77.6356 3.9923 77.4377 3.9923 Z M 79.5674 8.2579 C 79.5674 7.7058 79.6456 7.2266 79.8018 6.8204 C 79.9685 6.4037 80.182 6.0599 80.4425 5.7891 C 80.7133 5.5183 81.0206 5.3152 81.3643 5.1797 C 81.7081 5.0443 82.057 4.9766 82.4112 4.9766 C 83.255 4.9766 83.9008 5.237 84.3487 5.7579 C 84.7966 6.2787 85.0206 7.0756 85.0206 8.1485 C 85.0206 8.2006 85.0206 8.2631 85.0206 8.336 C 85.0206 8.4089 85.0154 8.4818 85.005 8.5548 L 80.7393 8.5548 C 80.781 9.2006 80.9633 9.6902 81.2862 10.0235 C 81.6196 10.3568 82.1352 10.5235 82.8331 10.5235 C 83.2289 10.5235 83.5571 10.4923 83.8175 10.4298 C 84.0883 10.3568 84.2914 10.2891 84.4269 10.2266 L 84.5831 11.1641 C 84.4477 11.2371 84.2081 11.31 83.8644 11.3829 C 83.531 11.4662 83.1456 11.5079 82.7081 11.5079 C 82.1665 11.5079 81.6977 11.4298 81.3019 11.2735 C 80.906 11.1068 80.5779 10.8777 80.3175 10.586 C 80.0675 10.2943 79.88 9.9506 79.755 9.5548 C 79.63 9.1589 79.5675 8.7266 79.5675 8.2579 Z M 83.8487 7.6485 C 83.8591 7.1485 83.7341 6.7371 83.4737 6.4142 C 83.2133 6.0808 82.8539 5.9142 82.3956 5.9142 C 82.1456 5.9142 81.9216 5.9662 81.7237 6.0704 C 81.5258 6.1746 81.3591 6.3048 81.2237 6.461 C 81.0883 6.6173 80.9841 6.7996 80.9112 7.0079 C 80.8383 7.2162 80.7862 7.4298 80.755 7.6485 Z M 88.0724 10.5704 C 88.5307 10.5704 88.8692 10.5131 89.088 10.3985 C 89.3067 10.2735 89.4161 10.0756 89.4161 9.8047 C 89.4161 9.5339 89.3067 9.3204 89.088 9.1641 C 88.8796 8.9975 88.5255 8.8152 88.0255 8.6173 C 87.7859 8.5235 87.5567 8.4298 87.338 8.336 C 87.1192 8.2318 86.9265 8.112 86.7599 7.9766 C 86.6036 7.8412 86.4786 7.6798 86.3849 7.4923 C 86.2911 7.2943 86.2442 7.0548 86.2442 6.7735 C 86.2442 6.2214 86.4474 5.7839 86.8536 5.461 C 87.2599 5.1381 87.8172 4.9766 88.5255 4.9766 C 88.7026 4.9766 88.8745 4.9871 89.0411 5.0079 C 89.2182 5.0183 89.3849 5.0391 89.5411 5.0704 C 89.6974 5.1016 89.8328 5.1329 89.9474 5.1641 C 90.062 5.1954 90.1505 5.2214 90.213 5.2423 L 90.0099 6.211 C 89.8849 6.1485 89.6922 6.086 89.4318 6.0235 C 89.1818 5.9506 88.8797 5.9142 88.5255 5.9142 C 88.213 5.9142 87.937 5.9767 87.6974 6.1017 C 87.4682 6.2162 87.3537 6.4089 87.3537 6.6798 C 87.3537 6.8152 87.3797 6.935 87.4318 7.0392 C 87.4839 7.1433 87.562 7.2371 87.6662 7.3204 C 87.7808 7.4037 87.9162 7.4819 88.0724 7.5548 C 88.2391 7.6277 88.4318 7.7006 88.6505 7.7735 C 88.9526 7.8881 89.2183 8.0027 89.4474 8.1173 C 89.6766 8.2215 89.8745 8.3465 90.0412 8.4923 C 90.2078 8.6381 90.3328 8.8152 90.4162 9.0235 C 90.5099 9.2215 90.5568 9.4663 90.5568 9.7579 C 90.5568 10.3308 90.3381 10.7683 89.9006 11.0704 C 89.4735 11.3621 88.8641 11.5079 88.0724 11.5079 C 87.5203 11.5079 87.0881 11.4611 86.7756 11.3673 C 86.4631 11.284 86.2547 11.2163 86.1506 11.1642 L 86.3537 10.2111 C 86.4787 10.2527 86.6818 10.3256 86.9631 10.4298 C 87.2443 10.5236 87.6141 10.5704 88.0725 10.5704 Z M 95.7902 5.1329 L 98.1652 5.1329 L 98.1652 6.0704 L 95.7902 6.0704 L 95.7902 8.9454 C 95.7902 9.2579 95.811 9.5183 95.8527 9.7266 C 95.9048 9.9245 95.9777 10.0808 96.0714 10.1954 C 96.1756 10.3099 96.3006 10.3933 96.4464 10.4454 C 96.5923 10.487 96.7589 10.5079 96.9464 10.5079 C 97.2798 10.5079 97.5454 10.4714 97.7433 10.3985 C 97.9516 10.3256 98.0974 10.2735 98.1808 10.2422 L 98.3995 11.1641 C 98.2849 11.2162 98.087 11.2839 97.8058 11.3673 C 97.5245 11.4506 97.2068 11.4923 96.8527 11.4923 C 96.4256 11.4923 96.0714 11.4402 95.7902 11.336 C 95.5193 11.2318 95.3006 11.0704 95.1339 10.8516 C 94.9673 10.6329 94.8475 10.3673 94.7745 10.0548 C 94.712 9.7423 94.6808 9.3777 94.6808 8.961 L 94.6808 3.3829 L 95.7902 3.1954 Z M 104.9149 8.2423 C 104.9149 8.7423 104.842 9.1954 104.6962 9.6017 C 104.5503 9.9975 104.3472 10.3412 104.0868 10.6329 C 103.8264 10.9142 103.5139 11.1329 103.1493 11.2892 C 102.7952 11.4454 102.4097 11.5235 101.9931 11.5235 C 101.566 11.5235 101.1702 11.4454 100.8056 11.2892 C 100.4514 11.1329 100.1441 10.9142 99.8837 10.6329 C 99.6233 10.3412 99.4202 9.9975 99.2743 9.6017 C 99.1285 9.1954 99.0556 8.7423 99.0556 8.2423 C 99.0556 7.7527 99.1285 7.31 99.2743 6.9142 C 99.4202 6.5079 99.6233 6.1642 99.8837 5.8829 C 100.1441 5.5913 100.4514 5.3673 100.8056 5.2111 C 101.1702 5.0548 101.566 4.9767 101.9931 4.9767 C 102.4097 4.9767 102.7952 5.0548 103.1493 5.2111 C 103.5139 5.3673 103.8264 5.5913 104.0868 5.8829 C 104.3472 6.1642 104.5504 6.5079 104.6962 6.9142 C 104.8421 7.31 104.915 7.7527 104.915 8.2423 Z M 103.7431 8.2423 C 103.7431 7.5444 103.5868 6.9923 103.2743 6.586 C 102.9618 6.1694 102.5347 5.961 101.9931 5.961 C 101.441 5.961 101.0087 6.1694 100.6962 6.586 C 100.3837 6.9923 100.2274 7.5444 100.2274 8.2423 C 100.2274 8.9506 100.3837 9.5131 100.6962 9.9298 C 101.0087 10.336 101.441 10.5392 101.9931 10.5392 C 102.5347 10.5392 102.9618 10.336 103.2743 9.9298 C 103.5868 9.5131 103.7431 8.9506 103.7431 8.2423 Z M 113.1733 10.7423 C 113.0795 10.8048 112.892 10.8881 112.6108 10.9923 C 112.3399 11.086 112.017 11.1329 111.642 11.1329 C 111.267 11.1329 110.9129 11.0756 110.5795 10.961 C 110.2462 10.836 109.9545 10.6485 109.7045 10.3985 C 109.4649 10.1485 109.2722 9.836 109.1264 9.461 C 108.9806 9.086 108.9076 8.6381 108.9076 8.1173 C 108.9076 7.659 108.9754 7.2423 109.1108 6.8673 C 109.2462 6.4819 109.4441 6.1537 109.7045 5.8829 C 109.9649 5.6017 110.2827 5.3829 110.6577 5.2267 C 111.0327 5.0704 111.4597 4.9923 111.9389 4.9923 C 112.4597 4.9923 112.9129 5.034 113.2983 5.1173 C 113.6837 5.1902 114.0066 5.2579 114.267 5.3204 L 114.267 10.8829 C 114.267 11.8413 114.017 12.534 113.517 12.9611 C 113.0274 13.3986 112.2774 13.6173 111.267 13.6173 C 110.8816 13.6173 110.5118 13.5861 110.1577 13.5236 C 109.8139 13.4611 109.5118 13.3881 109.2514 13.3048 L 109.4545 12.3204 C 109.6837 12.4142 109.9598 12.4923 110.2827 12.5548 C 110.6056 12.6277 110.9441 12.6642 111.2983 12.6642 C 111.965 12.6642 112.4441 12.5288 112.7358 12.2579 C 113.0275 11.9975 113.1733 11.5809 113.1733 11.0079 Z M 113.1576 6.1173 C 113.0431 6.086 112.892 6.0548 112.7045 6.0235 C 112.517 5.9923 112.2618 5.9767 111.9389 5.9767 C 111.3452 5.9767 110.8868 6.1746 110.5639 6.5704 C 110.241 6.9558 110.0795 7.4767 110.0795 8.1329 C 110.0795 8.4871 110.1212 8.7944 110.2045 9.0548 C 110.2983 9.3048 110.4233 9.5183 110.5795 9.6954 C 110.7358 9.8621 110.9129 9.9871 111.1108 10.0704 C 111.3191 10.1433 111.5327 10.1798 111.7514 10.1798 C 112.0535 10.1798 112.3243 10.1381 112.5639 10.0548 C 112.8139 9.9715 113.0118 9.8725 113.1577 9.7579 Z M 118.3124 10.5704 C 118.5728 10.5704 118.802 10.5652 118.9999 10.5547 C 119.2083 10.5339 119.3801 10.5079 119.5156 10.4766 L 119.5156 8.6173 C 119.4322 8.5756 119.302 8.5443 119.1249 8.5235 C 118.9478 8.4923 118.7291 8.4766 118.4687 8.4766 C 118.302 8.4766 118.1249 8.4923 117.9374 8.5235 C 117.7499 8.5443 117.5781 8.5912 117.4218 8.6641 C 117.2656 8.7371 117.1354 8.8412 117.0312 8.9766 C 116.927 9.1016 116.8749 9.2735 116.8749 9.4923 C 116.8749 9.8985 116.9999 10.1798 117.2499 10.336 C 117.5104 10.4923 117.8645 10.5704 118.3124 10.5704 Z M 118.2031 4.9766 C 118.651 4.9766 119.0312 5.0339 119.3437 5.1485 C 119.6562 5.2631 119.9062 5.4297 120.0937 5.6485 C 120.2812 5.8568 120.4114 6.1068 120.4843 6.3985 C 120.5677 6.6902 120.6093 7.0079 120.6093 7.3516 L 120.6093 11.2579 C 120.5156 11.2787 120.3802 11.3048 120.2031 11.336 C 120.0364 11.3568 119.8437 11.3777 119.6249 11.3985 C 119.4062 11.4298 119.1718 11.4506 118.9218 11.461 C 118.6718 11.4818 118.4218 11.4923 118.1718 11.4923 C 117.8177 11.4923 117.4947 11.4558 117.2031 11.3829 C 116.9114 11.3204 116.6562 11.211 116.4375 11.0548 C 116.2187 10.8985 116.0468 10.6954 115.9218 10.4454 C 115.8072 10.185 115.75 9.8725 115.75 9.5079 C 115.75 9.1641 115.8177 8.8673 115.9531 8.6173 C 116.0989 8.3673 116.2916 8.1694 116.5312 8.0235 C 116.7708 7.8673 117.0469 7.7527 117.3594 7.6798 C 117.6823 7.6069 118.0208 7.5704 118.375 7.5704 C 118.4896 7.5704 118.6041 7.5808 118.7187 7.6017 C 118.8437 7.6121 118.9583 7.6277 119.0625 7.6485 C 119.1771 7.659 119.2708 7.6746 119.3437 7.6954 C 119.4271 7.7162 119.4844 7.7267 119.5156 7.7267 L 119.5156 7.4142 C 119.5156 7.2371 119.4948 7.06 119.4531 6.8829 C 119.4115 6.6954 119.3385 6.534 119.2344 6.3985 C 119.1406 6.2527 119 6.1381 118.8125 6.0548 C 118.6354 5.9715 118.401 5.9298 118.1094 5.9298 C 117.7448 5.9298 117.4219 5.9558 117.1406 6.0079 C 116.8698 6.06 116.6667 6.1121 116.5313 6.1642 L 116.3906 5.2423 C 116.5365 5.1798 116.776 5.1225 117.1094 5.0704 C 117.4531 5.0079 117.8177 4.9767 118.2031 4.9767 Z M 122.4515 5.3048 C 122.7119 5.2423 123.0504 5.1746 123.4671 5.1017 C 123.8942 5.0287 124.3838 4.9923 124.9358 4.9923 C 125.3317 4.9923 125.665 5.0496 125.9358 5.1642 C 126.2067 5.2683 126.4358 5.4246 126.6233 5.6329 C 126.6754 5.5912 126.7588 5.534 126.8733 5.461 C 126.9983 5.3881 127.1494 5.3204 127.3265 5.2579 C 127.5036 5.185 127.7015 5.1225 127.9202 5.0704 C 128.139 5.0183 128.3681 4.9923 128.6077 4.9923 C 129.0973 4.9923 129.4931 5.0652 129.7952 5.2111 C 130.0973 5.3465 130.3317 5.5444 130.4984 5.8048 C 130.6754 6.0548 130.79 6.3569 130.8421 6.7111 C 130.9046 7.0652 130.9359 7.4506 130.9359 7.8673 L 130.9359 11.3673 L 129.8265 11.3673 L 129.8265 8.1017 C 129.8265 7.7371 129.8056 7.4246 129.764 7.1642 C 129.7327 6.8934 129.665 6.6694 129.5609 6.4923 C 129.4671 6.3152 129.3317 6.185 129.1546 6.1017 C 128.988 6.0184 128.7692 5.9767 128.4984 5.9767 C 128.1234 5.9767 127.8109 6.0288 127.5609 6.1329 C 127.3213 6.2267 127.1546 6.3152 127.0609 6.3986 C 127.1234 6.6069 127.1702 6.8361 127.2015 7.0861 C 127.2432 7.3361 127.264 7.5965 127.264 7.8673 L 127.264 11.3673 L 126.139 11.3673 L 126.139 8.1017 C 126.139 7.7371 126.1182 7.4246 126.0765 7.1642 C 126.0452 6.8934 125.9775 6.6694 125.8734 6.4923 C 125.7692 6.3153 125.6286 6.185 125.4515 6.1017 C 125.2848 6.0184 125.0713 5.9767 124.8109 5.9767 C 124.6963 5.9767 124.5765 5.9819 124.4515 5.9923 C 124.3265 6.0028 124.2015 6.0132 124.0765 6.0236 C 123.9619 6.034 123.8578 6.0496 123.764 6.0705 C 123.6703 6.0809 123.6078 6.0913 123.5765 6.1017 L 123.5765 11.3674 L 122.4515 11.3674 Z M 132.4398 8.2579 C 132.4398 7.7058 132.5179 7.2266 132.6742 6.8204 C 132.8408 6.4037 133.0544 6.0599 133.3148 5.7891 C 133.5857 5.5183 133.8929 5.3152 134.2367 5.1797 C 134.5804 5.0443 134.9294 4.9766 135.2836 4.9766 C 136.1273 4.9766 136.7732 5.237 137.2211 5.7579 C 137.669 6.2787 137.893 7.0756 137.893 8.1485 C 137.893 8.2006 137.893 8.2631 137.893 8.336 C 137.893 8.4089 137.8877 8.4818 137.8773 8.5548 L 133.6117 8.5548 C 133.6534 9.2006 133.8357 9.6902 134.1586 10.0235 C 134.4919 10.3568 135.0076 10.5235 135.7055 10.5235 C 136.1013 10.5235 136.4294 10.4923 136.6899 10.4298 C 136.9607 10.3568 137.1638 10.2891 137.2992 10.2266 L 137.4555 11.1641 C 137.3201 11.2371 137.0805 11.31 136.7367 11.3829 C 136.4034 11.4662 136.018 11.5079 135.5805 11.5079 C 135.0388 11.5079 134.5701 11.4298 134.1742 11.2735 C 133.7784 11.1068 133.4503 10.8777 133.1899 10.586 C 132.9399 10.2943 132.7524 9.9506 132.6274 9.5548 C 132.5024 9.1589 132.4399 8.7266 132.4399 8.2579 Z M 136.7211 7.6485 C 136.7315 7.1485 136.6065 6.7371 136.3461 6.4142 C 136.0856 6.0808 135.7263 5.9142 135.2679 5.9142 C 135.0179 5.9142 134.794 5.9662 134.5961 6.0704 C 134.3982 6.1746 134.2315 6.3048 134.0961 6.461 C 133.9607 6.6173 133.8565 6.7996 133.7836 7.0079 C 133.7107 7.2162 133.6586 7.4298 133.6273 7.6485 Z M 143.8353 8.2579 C 143.8353 7.5287 143.6531 6.9714 143.2885 6.586 C 142.9343 6.1902 142.4551 5.9922 141.851 5.9922 C 141.5176 5.9922 141.2572 6.0079 141.0697 6.0391 C 140.8822 6.06 140.7312 6.086 140.6166 6.1173 L 140.6166 10.0548 C 140.752 10.1589 140.9447 10.2631 141.1947 10.3673 C 141.4551 10.4714 141.7364 10.5235 142.0385 10.5235 C 142.3614 10.5235 142.6374 10.4662 142.8666 10.3516 C 143.0958 10.2371 143.2781 10.0808 143.4135 9.8829 C 143.5593 9.6746 143.6635 9.435 143.726 9.1641 C 143.7989 8.8829 143.8354 8.5808 143.8354 8.2579 Z M 144.9916 8.2579 C 144.9916 8.7266 144.9291 9.1641 144.8041 9.5704 C 144.6791 9.9662 144.4968 10.3099 144.2572 10.6016 C 144.0176 10.8829 143.7208 11.1068 143.3666 11.2735 C 143.0229 11.4297 142.627 11.5079 142.1791 11.5079 C 141.8249 11.5079 141.5072 11.461 141.226 11.3673 C 140.9551 11.2735 140.752 11.1798 140.6166 11.086 L 140.6166 13.586 L 139.4916 13.586 L 139.4916 5.3204 C 139.7625 5.2579 140.0958 5.1902 140.4916 5.1173 C 140.8875 5.0339 141.3458 4.9923 141.8666 4.9923 C 142.3458 4.9923 142.7781 5.0704 143.1635 5.2266 C 143.5489 5.3725 143.877 5.586 144.1479 5.8673 C 144.4187 6.1485 144.627 6.4923 144.7729 6.8985 C 144.9187 7.3048 144.9916 7.7579 144.9916 8.2579 Z M 148.4347 11.4923 C 147.7472 11.4715 147.2576 11.3204 146.9659 11.0392 C 146.6847 10.7579 146.544 10.3256 146.544 9.7423 L 146.544 2.2423 L 147.6534 2.0548 L 147.6534 9.5548 C 147.6534 9.7423 147.669 9.8985 147.7003 10.0235 C 147.7315 10.1381 147.7836 10.2319 147.8565 10.3048 C 147.9295 10.3777 148.0232 10.4298 148.1378 10.461 C 148.2628 10.4923 148.4138 10.5235 148.5909 10.5548 Z M 151.9607 10.5704 C 152.2211 10.5704 152.4503 10.5652 152.6482 10.5547 C 152.8565 10.5339 153.0284 10.5079 153.1638 10.4766 L 153.1638 8.6173 C 153.0805 8.5756 152.9503 8.5443 152.7732 8.5235 C 152.5961 8.4923 152.3774 8.4766 152.1169 8.4766 C 151.9503 8.4766 151.7732 8.4923 151.5857 8.5235 C 151.3982 8.5443 151.2263 8.5912 151.0701 8.6641 C 150.9138 8.7371 150.7836 8.8412 150.6795 8.9766 C 150.5753 9.1016 150.5232 9.2735 150.5232 9.4923 C 150.5232 9.8985 150.6482 10.1798 150.8982 10.336 C 151.1586 10.4923 151.5128 10.5704 151.9607 10.5704 Z M 151.8513 4.9766 C 152.2992 4.9766 152.6794 5.0339 152.9919 5.1485 C 153.3044 5.2631 153.5544 5.4297 153.7419 5.6485 C 153.9294 5.8568 154.0597 6.1068 154.1326 6.3985 C 154.2159 6.6902 154.2576 7.0079 154.2576 7.3516 L 154.2576 11.2579 C 154.1638 11.2787 154.0284 11.3048 153.8513 11.336 C 153.6847 11.3568 153.4919 11.3777 153.2732 11.3985 C 153.0544 11.4298 152.8201 11.4506 152.5701 11.461 C 152.3201 11.4818 152.0701 11.4923 151.8201 11.4923 C 151.4659 11.4923 151.143 11.4558 150.8513 11.3829 C 150.5597 11.3204 150.3045 11.211 150.0857 11.0548 C 149.867 10.8985 149.6951 10.6954 149.5701 10.4454 C 149.4555 10.185 149.3982 9.8725 149.3982 9.5079 C 149.3982 9.1641 149.4659 8.8673 149.6013 8.6173 C 149.7472 8.3673 149.9399 8.1694 150.1795 8.0235 C 150.4191 7.8673 150.6951 7.7527 151.0076 7.6798 C 151.3305 7.6069 151.6691 7.5704 152.0232 7.5704 C 152.1378 7.5704 152.2524 7.5808 152.367 7.6017 C 152.492 7.6121 152.6066 7.6277 152.7107 7.6485 C 152.8253 7.659 152.9191 7.6746 152.992 7.6954 C 153.0753 7.7162 153.1326 7.7267 153.1639 7.7267 L 153.1639 7.4142 C 153.1639 7.2371 153.143 7.06 153.1014 6.8829 C 153.0597 6.6954 152.9868 6.534 152.8826 6.3985 C 152.7889 6.2527 152.6482 6.1381 152.4607 6.0548 C 152.2837 5.9715 152.0493 5.9298 151.7576 5.9298 C 151.393 5.9298 151.0701 5.9558 150.7889 6.0079 C 150.518 6.06 150.3149 6.1121 150.1795 6.1642 L 150.0389 5.2423 C 150.1847 5.1798 150.4243 5.1225 150.7576 5.0704 C 151.1014 5.0079 151.466 4.9767 151.8514 4.9767 Z M 155.201 12.5235 C 155.2843 12.5652 155.3937 12.6017 155.5291 12.6329 C 155.6749 12.6746 155.8156 12.6954 155.951 12.6954 C 156.3885 12.6954 156.7322 12.5965 156.9822 12.3985 C 157.2322 12.211 157.4562 11.8933 157.6541 11.4454 C 157.1541 10.4871 156.6854 9.4715 156.2479 8.3985 C 155.8104 7.3256 155.4458 6.2371 155.1541 5.1329 L 156.3572 5.1329 C 156.451 5.4871 156.5552 5.8725 156.6697 6.2892 C 156.7947 6.7058 156.9354 7.1381 157.0916 7.5861 C 157.2479 8.0236 157.4093 8.4611 157.576 8.8986 C 157.7531 9.3361 157.9406 9.7579 158.1385 10.1642 C 158.4406 9.3309 158.701 8.5027 158.9198 7.6798 C 159.1489 6.8465 159.3625 5.9975 159.5604 5.1329 L 160.7166 5.1329 C 160.425 6.31 160.102 7.4402 159.7479 8.5236 C 159.4041 9.6069 159.0239 10.6173 158.6073 11.5548 C 158.451 11.9194 158.2844 12.2319 158.1073 12.4923 C 157.9406 12.7527 157.7531 12.9663 157.5448 13.133 C 157.3364 13.2996 157.1021 13.4194 156.8416 13.4923 C 156.5812 13.5757 156.2896 13.6173 155.9666 13.6173 C 155.8729 13.6173 155.7791 13.6121 155.6854 13.6017 C 155.5916 13.5913 155.4979 13.5757 155.4041 13.5548 C 155.3104 13.534 155.2271 13.5132 155.1541 13.4923 C 155.0812 13.4715 155.0291 13.4507 154.9979 13.4298 Z M 162.7744 7.7735 C 162.7744 6.7527 162.6233 5.81 162.3213 4.9454 C 162.0296 4.0704 161.5921 3.2579 161.0088 2.5079 L 161.8056 1.9767 C 162.4306 2.7371 162.9306 3.6121 163.3056 4.6017 C 163.691 5.5808 163.8838 6.6381 163.8838 7.7735 C 163.8838 8.909 163.6911 9.9715 163.3056 10.961 C 162.9306 11.9506 162.4306 12.8256 161.8056 13.586 L 161.0088 13.0548 C 161.5921 12.3048 162.0296 11.4975 162.3213 10.6329 C 162.6234 9.7579 162.7744 8.8048 162.7744 7.7735 Z " fill="#ffffff" stroke="none" stroke-width="1" stroke-linecap="square"/></g></g></svg>