<svg version="1.1" xmlns="http://www.w3.org/2000/svg" xmlns:xlink="http://www.w3.org/1999/xlink" width="496" height="496" viewBox="0,0,496,496"><g transform="translate(-392,-112)"><g data-paper-data="{&quot;isPaintingLayer&quot;:true}" fill="#ffffff" fill-rule="nonzero" stroke="none" stroke-width="1" stroke-linecap="butt" stroke-linejoin="miter" stroke-miterlimit="10" stroke-dasharray="" stroke-dashoffset="0" style="mix-blend-mode: normal"><path d="M640,112c137,0 248,111 248,248c0,137 -111,248 -248,248c-137,0 -248,-111 -248,-248c0,-137 111,-248 248,-248zM640,160c-110.5,0 -200,89.5 -200,200c0,110.5 89.5,200 200,200c110.5,0 200,-89.5 200,-200c0,-110.5 -89.5,-200 -200,-200zM756,328h-116v-67c0,-10.7 -12.9,-16.1 -20.5,-8.5l-99,99c-4.7,4.7 -4.7,12.3 0,17l99,99c7.6,7.5 20.5,2.2 20.5,-8.5v-67h116c6.6,0 12,-5.4 12,-12v-40c0,-6.6 -5.4,-12 -12,-12z"/></g></g></svg>