<svg xmlns="http://www.w3.org/2000/svg" xmlns:xlink="http://www.w3.org/1999/xlink" version="1.1" width="125.05998" height="21.00847" viewBox="0,0,125.05998,21.00847"><g><g data-paper-data="{&quot;isPaintingLayer&quot;:true}" fill-rule="nonzero" stroke-linecap="square" stroke-linejoin="miter" stroke-miterlimit="10" stroke-dasharray="" stroke-dashoffset="0" style="mix-blend-mode: normal"><path d="M 13.106 10.6987 L 15.9265 10.6987 L 15.9265 20.1088 C 15.6834 20.1736 15.343 20.2547 14.9053 20.3519 C 14.4838 20.4492 13.9813 20.5465 13.3977 20.6437 C 12.8304 20.741 12.2063 20.822 11.5254 20.8869 C 10.8446 20.9679 10.1557 21.0085 9.4586 21.0085 C 8.0484 21.0085 6.7597 20.7734 5.5925 20.3033 C 4.4416 19.8332 3.4447 19.1605 2.6017 18.2852 C 1.775 17.3936 1.1347 16.2994 0.6808 15.0026 C 0.2269 13.7058 0 12.2144 0 10.5286 C 0 8.8427 0.2594 7.3513 0.7781 6.0545 C 1.2968 4.7415 1.9857 3.6392 2.8449 2.7476 C 3.7203 1.8561 4.7415 1.1752 5.9086 0.7051 C 7.0758 0.235 8.3321 0 9.6775 0 C 10.5853 0 11.3877 0.0649 12.0848 0.1945 C 12.798 0.308 13.4059 0.4458 13.9084 0.6079 C 14.4109 0.7538 14.8243 0.9078 15.1485 1.0699 C 15.4727 1.2158 15.6916 1.3293 15.805 1.4103 L 14.9054 3.7446 C 14.338 3.388 13.5923 3.0881 12.6684 2.8449 C 11.7444 2.6018 10.7961 2.4802 9.8235 2.4802 C 8.8022 2.4802 7.8701 2.6666 7.0272 3.0395 C 6.1843 3.3961 5.4629 3.9229 4.8632 4.62 C 4.2796 5.317 3.8176 6.168 3.4772 7.1731 C 3.153 8.1619 2.9909 9.2804 2.9909 10.5286 C 2.9909 11.7282 3.1287 12.8224 3.4043 13.8112 C 3.696 14.7838 4.1256 15.6268 4.693 16.34 C 5.2603 17.0532 5.9655 17.6044 6.8084 17.9934 C 7.6514 18.3663 8.6483 18.5527 9.7992 18.5527 C 10.6097 18.5527 11.2987 18.5122 11.866 18.4311 C 12.4334 18.3501 12.8468 18.269 13.1061 18.188 Z M 20.3366 20.5951 L 20.3366 0.4863 L 32.6159 0.4863 L 32.6159 2.8935 L 23.1572 2.8935 L 23.1572 8.8751 L 31.5703 8.8751 L 31.5703 11.2094 L 23.1572 11.2094 L 23.1572 18.1879 L 33.3453 18.1879 L 33.3453 20.5951 Z M 50.701 20.5951 C 50.2795 19.8818 49.7932 19.0794 49.2421 18.1879 C 48.6909 17.2963 48.0911 16.3723 47.4427 15.4159 C 46.8105 14.4595 46.1459 13.4869 45.4489 12.4981 C 44.768 11.5092 44.0872 10.5609 43.4064 9.6532 C 42.7255 8.7292 42.069 7.8619 41.4368 7.0514 C 40.8047 6.2247 40.213 5.5034 39.6618 4.8874 L 39.6618 20.5951 L 36.9142 20.5951 L 36.9142 0.4863 L 39.1512 0.4863 C 40.059 1.4427 41.0235 2.5693 42.0448 3.8661 C 43.0822 5.1467 44.1116 6.4679 45.1328 7.8296 C 46.1541 9.1912 47.1105 10.5367 48.002 11.8659 C 48.9098 13.1789 49.6717 14.3461 50.2877 15.3673 L 50.2877 0.4863 L 53.0596 0.4863 L 53.0596 20.5951 Z M 58.0499 20.5951 L 58.0499 0.4863 L 70.3292 0.4863 L 70.3292 2.8935 L 60.8705 2.8935 L 60.8705 8.8751 L 69.2836 8.8751 L 69.2836 11.2094 L 60.8705 11.2094 L 60.8705 18.1879 L 71.0586 18.1879 L 71.0586 20.5951 Z M 84.4509 12.182 C 84.7751 12.571 85.1723 13.0816 85.6424 13.7138 C 86.1125 14.3298 86.5988 15.0269 87.1013 15.805 C 87.6038 16.5668 88.0983 17.3612 88.5846 18.1879 C 89.0871 19.0146 89.5166 19.817 89.8733 20.5951 L 86.7852 20.5951 C 86.3962 19.8656 85.9747 19.12 85.5208 18.3581 C 85.0669 17.5962 84.6049 16.8749 84.1349 16.194 C 83.681 15.5132 83.2271 14.8729 82.7732 14.2731 C 82.3193 13.6733 81.9059 13.1465 81.5331 12.6926 C 81.2737 12.7088 81.0144 12.7169 80.755 12.7169 C 80.4956 12.7169 80.2282 12.7169 79.9526 12.7169 L 77.4482 12.7169 L 77.4482 20.5951 L 74.6276 20.5951 L 74.6276 0.7538 C 75.4219 0.5755 76.3053 0.4539 77.278 0.3891 C 78.2506 0.308 79.1421 0.2675 79.9526 0.2675 C 82.7894 0.2675 84.9454 0.8024 86.4205 1.8723 C 87.8957 2.9422 88.6332 4.5308 88.6332 6.6381 C 88.6332 7.9674 88.2766 9.1102 87.5634 10.0666 C 86.8663 11.0068 85.8289 11.7119 84.451 12.1821 Z M 80.1957 2.7476 C 78.9962 2.7476 78.0803 2.7719 77.4481 2.8206 L 77.4481 10.407 L 79.442 10.407 C 80.4146 10.407 81.2818 10.3583 82.0437 10.2611 C 82.8218 10.1638 83.4783 9.9855 84.0133 9.7261 C 84.5482 9.4506 84.9616 9.0696 85.2534 8.5833 C 85.5451 8.0808 85.691 7.4162 85.691 6.5895 C 85.691 5.8438 85.5452 5.2197 85.2534 4.7172 C 84.9616 4.2147 84.5644 3.8175 84.0619 3.5258 C 83.5756 3.234 82.992 3.0313 82.3112 2.9179 C 81.6466 2.8044 80.9414 2.7477 80.1958 2.7477 Z M 107.1488 20.5951 C 106.8083 19.7197 106.4923 18.8606 106.2005 18.0177 C 105.9087 17.1747 105.6088 16.3237 105.3008 15.4645 L 96.1825 15.4645 L 94.3589 20.5951 L 91.4411 20.5951 C 92.2029 18.4716 92.9243 16.502 93.6051 14.6865 C 94.286 12.8709 94.9506 11.1526 95.599 9.5316 C 96.2474 7.9106 96.8877 6.3625 97.5199 4.8874 C 98.1683 3.396 98.8411 1.929 99.5381 0.4863 L 102.1155 0.4863 C 102.8126 1.929 103.4772 3.396 104.1094 4.8874 C 104.7578 6.3625 105.4062 7.9106 106.0546 9.5316 C 106.703 11.1527 107.3595 12.871 108.0242 14.6865 C 108.705 16.502 109.4345 18.4716 110.2126 20.5951 Z M 104.4984 13.1303 C 103.8824 11.4444 103.2664 9.8153 102.6504 8.2429 C 102.0344 6.6705 101.4022 5.1549 100.7538 3.6959 C 100.073 5.1548 99.4246 6.6705 98.8086 8.2429 C 98.2088 9.8153 97.609 11.4444 97.0092 13.1303 Z M 125.06 18.1636 L 125.06 20.5951 L 112.9509 20.5951 L 112.9509 0.4863 L 115.7715 0.4863 L 115.7715 18.1636 Z " stroke-width="1" fill="#8ac7da" stroke="none"/></g></g></svg>