<svg xmlns="http://www.w3.org/2000/svg" xmlns:xlink="http://www.w3.org/1999/xlink" version="1.1" width="98.43571" height="21.0106" viewBox="0,0,98.43571,21.0106"><g><g data-paper-data="{&quot;isPaintingLayer&quot;:true}" fill-rule="nonzero" stroke-linecap="square" stroke-linejoin="miter" stroke-miterlimit="10" stroke-dasharray="" stroke-dashoffset="0" style="mix-blend-mode: normal"><path d="M 0 20.5734 L 0 0.4858 L 12.2663 0.4858 L 12.2663 2.8905 L 2.8176 2.8905 L 2.8176 8.8657 L 11.2219 8.8657 L 11.2219 11.1975 L 2.8176 11.1975 L 2.8176 18.1687 L 12.995 18.1687 L 12.995 20.5734 Z M 33.0528 10.5174 C 33.0528 12.2501 32.7775 13.7641 32.2269 15.0596 C 31.6926 16.3389 30.9315 17.3995 29.9437 18.2416 C 28.9559 19.0836 27.7738 19.7151 26.3974 20.1362 C 25.0372 20.541 23.5312 20.7434 21.8795 20.7434 C 21.0699 20.7434 20.1792 20.711 19.2077 20.6463 C 18.2361 20.5815 17.3535 20.4519 16.5601 20.2576 L 16.5601 0.753 C 17.3536 0.5749 18.2361 0.4534 19.2077 0.3887 C 20.1793 0.3077 21.0699 0.2672 21.8795 0.2672 C 23.5312 0.2672 25.0372 0.4777 26.3974 0.8987 C 27.7738 1.3198 28.9559 1.9513 29.9437 2.7933 C 30.9315 3.6192 31.6926 4.6798 32.2269 5.9753 C 32.7775 7.2546 33.0528 8.7686 33.0528 10.5175 Z M 22.1224 18.2901 C 24.7943 18.2901 26.786 17.61 28.0977 16.2498 C 29.4093 14.8734 30.0652 12.9626 30.0652 10.5174 C 30.0652 8.0561 29.4093 6.1453 28.0977 4.7851 C 26.7861 3.4248 24.7943 2.7447 22.1224 2.7447 C 21.329 2.7447 20.7136 2.7528 20.2764 2.769 C 19.8392 2.7852 19.5396 2.8014 19.3777 2.8176 L 19.3777 18.193 C 19.5396 18.2092 19.8392 18.2335 20.2764 18.2659 C 20.7136 18.2821 21.329 18.2902 22.1224 18.2902 Z M 37.2384 0.4858 L 40.056 0.4858 L 40.056 20.5734 L 37.2384 20.5734 Z M 58.4722 0.4858 L 58.4722 2.9147 L 52.1326 2.9147 L 52.1326 20.5734 L 49.315 20.5734 L 49.315 2.9148 L 42.9996 2.9148 L 42.9996 0.4858 Z M 59.8167 10.5174 C 59.8167 8.7848 60.0758 7.2626 60.594 5.951 C 61.1121 4.6393 61.8084 3.5463 62.6829 2.6719 C 63.5573 1.7812 64.5775 1.1173 65.7434 0.6801 C 66.9255 0.2267 68.1723 0 69.484 0 C 70.7794 0 72.002 0.2267 73.1517 0.6801 C 74.3014 1.1173 75.3054 1.7812 76.1637 2.6719 C 77.0381 3.5463 77.7344 4.6393 78.2526 5.951 C 78.7707 7.2626 79.0298 8.7848 79.0298 10.5174 C 79.0298 12.2339 78.7707 13.748 78.2526 15.0596 C 77.7344 16.3713 77.0381 17.4724 76.1637 18.363 C 75.3054 19.2374 74.3014 19.9014 73.1517 20.3548 C 72.002 20.792 70.7794 21.0106 69.484 21.0106 C 68.1724 21.0106 66.9255 20.792 65.7434 20.3548 C 64.5775 19.9014 63.5573 19.2375 62.6829 18.363 C 61.8085 17.4724 61.1121 16.3713 60.594 15.0596 C 60.0758 13.748 59.8167 12.2339 59.8167 10.5175 Z M 62.78 10.5174 C 62.78 11.7319 62.9339 12.8411 63.2415 13.8451 C 63.5492 14.8329 63.9864 15.6749 64.5532 16.3713 C 65.1361 17.0676 65.8324 17.6019 66.6421 17.9744 C 67.4679 18.3468 68.391 18.533 69.4111 18.533 C 70.4475 18.533 71.3705 18.3468 72.1801 17.9744 C 72.9898 17.6019 73.678 17.0676 74.2448 16.3713 C 74.8115 15.675 75.2487 14.8329 75.5564 13.8451 C 75.8803 12.8412 76.0422 11.7319 76.0422 10.5175 C 76.0422 9.2868 75.8803 8.1775 75.5564 7.1898 C 75.2487 6.1858 74.8115 5.3438 74.2448 4.6636 C 73.678 3.9673 72.9898 3.433 72.1801 3.0605 C 71.3705 2.6719 70.4475 2.4776 69.4111 2.4776 C 68.391 2.4776 67.4679 2.6719 66.6421 3.0605 C 65.8325 3.433 65.1362 3.9673 64.5532 4.6636 C 63.9864 5.3438 63.5492 6.1858 63.2416 7.1898 C 62.9339 8.1776 62.7801 9.2868 62.7801 10.5175 Z M 93.0191 12.1691 C 93.3429 12.5577 93.7397 13.0678 94.2093 13.6994 C 94.6789 14.3147 95.1647 15.011 95.6667 15.7883 C 96.1687 16.5494 96.6626 17.3428 97.1483 18.1687 C 97.6503 18.9945 98.0795 19.7961 98.4357 20.5734 L 95.3509 20.5734 C 94.9623 19.8447 94.5413 19.0998 94.0879 18.3387 C 93.6345 17.5776 93.173 16.8571 92.7034 16.1769 C 92.25 15.4968 91.7966 14.8572 91.3431 14.2581 C 90.8897 13.6589 90.4768 13.1326 90.1044 12.6792 C 89.8453 12.6954 89.5862 12.7035 89.3271 12.7035 C 89.068 12.7035 88.8008 12.7035 88.5256 12.7035 L 86.0237 12.7035 L 86.0237 20.5734 L 83.2061 20.5734 L 83.2061 0.753 C 83.9996 0.5749 84.8821 0.4534 85.8537 0.3887 C 86.8253 0.3077 87.7159 0.2672 88.5256 0.2672 C 91.3594 0.2672 93.5131 0.8016 94.9866 1.8703 C 96.4602 2.9391 97.197 4.526 97.197 6.6311 C 97.197 7.959 96.8408 9.1006 96.1283 10.056 C 95.4319 10.9952 94.3956 11.6996 93.0192 12.1692 Z M 88.7684 2.7447 C 87.5701 2.7447 86.6552 2.769 86.0237 2.8176 L 86.0237 10.396 L 88.0154 10.396 C 88.987 10.396 89.8533 10.3474 90.6144 10.2502 C 91.3917 10.1531 92.0475 9.9749 92.5819 9.7159 C 93.1163 9.4406 93.5292 9.06 93.8207 8.5742 C 94.1121 8.0723 94.2579 7.4083 94.2579 6.5825 C 94.2579 5.8376 94.1121 5.2142 93.8207 4.7122 C 93.5292 4.2102 93.1325 3.8135 92.6305 3.522 C 92.1447 3.2305 91.5617 3.0281 90.8816 2.9148 C 90.2177 2.8014 89.5133 2.7448 88.7684 2.7448 Z " stroke-width="1" fill="#8ac7da" stroke="none"/></g></g></svg>