<svg version="1.1" xmlns="http://www.w3.org/2000/svg" xmlns:xlink="http://www.w3.org/1999/xlink" width="154.91002" height="14.12504" viewBox="0,0,154.91002,14.12504"><g transform="translate(-218.54501,-162.93751)"><g data-paper-data="{&quot;isPaintingLayer&quot;:true}" fill="#ffffff" fill-rule="nonzero" stroke="none" stroke-width="1" stroke-linecap="square" stroke-linejoin="miter" stroke-miterlimit="10" stroke-dasharray="" stroke-dashoffset="0" style="mix-blend-mode: normal"><path d="M226.87312,169.23438c0,0.875 -0.13541,1.64063 -0.40625,2.29688c-0.27084,0.64583 -0.65625,1.18229 -1.15625,1.60938c-0.5,0.41667 -1.09896,0.73438 -1.79687,0.95313c-0.6875,0.20833 -1.44791,0.3125 -2.28125,0.3125c-0.40625,0 -0.85937,-0.02083 -1.35937,-0.0625c-0.48959,-0.03125 -0.93229,-0.09375 -1.32812,-0.1875v-9.85937c0.39584,-0.09375 0.83854,-0.15625 1.32813,-0.1875c0.5,-0.04167 0.95313,-0.0625 1.35938,-0.0625c0.83334,0 1.59375,0.10938 2.28125,0.32813c0.69791,0.20833 1.29688,0.52604 1.79688,0.95313c0.5,0.41667 0.88541,0.95313 1.15625,1.60938c0.27084,0.64583 0.40625,1.41146 0.40625,2.29688zM221.3575,173.15625c1.34375,0 2.34896,-0.34375 3.01563,-1.03125c0.66666,-0.6875 1,-1.65104 1,-2.89062c0,-1.25 -0.33334,-2.21875 -1,-2.90625c-0.66666,-0.6875 -1.67187,-1.03125 -3.01562,-1.03125c-0.40625,0 -0.71875,0.00521 -0.9375,0.01563c-0.21875,0.01042 -0.36979,0.02083 -0.45312,0.03125v7.76563c0.08334,0.01042 0.23438,0.02083 0.45313,0.03125c0.21875,0.01042 0.53125,0.01563 0.9375,0.01563zM230.26057,174.3125h-1.35937v-7.625h1.35938zM229.57307,165.3125c-0.23959,0 -0.44791,-0.07812 -0.625,-0.23437c-0.16666,-0.16667 -0.25,-0.38542 -0.25,-0.65625c0,-0.27083 0.08334,-0.48437 0.25,-0.64062c0.17709,-0.16667 0.38541,-0.25 0.625,-0.25c0.25,0 0.45834,0.08333 0.625,0.25c0.16666,0.15625 0.25,0.36979 0.25,0.64063c0,0.27083 -0.08334,0.48958 -0.25,0.65625c-0.16666,0.15625 -0.375,0.23438 -0.625,0.23438zM234.39049,173.32813c0.55209,0 0.96354,-0.07292 1.23438,-0.21875c0.27084,-0.14583 0.40625,-0.38021 0.40625,-0.70312c0,-0.33333 -0.13541,-0.59375 -0.40625,-0.78125c-0.26041,-0.19792 -0.69271,-0.42187 -1.29687,-0.67187c-0.29166,-0.11458 -0.57291,-0.23437 -0.84375,-0.35937c-0.27084,-0.125 -0.50521,-0.26562 -0.70312,-0.42187c-0.1875,-0.16667 -0.34375,-0.36458 -0.46875,-0.59375c-0.11459,-0.23958 -0.17187,-0.53125 -0.17187,-0.875c0,-0.67708 0.25,-1.21354 0.75,-1.60937c0.5,-0.39583 1.17709,-0.59375 2.03125,-0.59375c0.21875,0 0.43229,0.01563 0.64063,0.04688c0.21875,0.02083 0.42188,0.04688 0.60938,0.07813c0.1875,0.03125 0.34896,0.06771 0.48438,0.10938c0.14584,0.04167 0.26041,0.07813 0.34375,0.10938l-0.25,1.17188c-0.15625,-0.08333 -0.39062,-0.16667 -0.70312,-0.25c-0.3125,-0.08333 -0.6875,-0.125 -1.125,-0.125c-0.375,0 -0.70834,0.07813 -1,0.23438c-0.28125,0.14583 -0.42187,0.38021 -0.42187,0.70313c0,0.16667 0.03125,0.31771 0.09375,0.45313c0.0625,0.125 0.16146,0.23958 0.29688,0.34375c0.13541,0.09375 0.29688,0.1875 0.48438,0.28125c0.19791,0.08333 0.4375,0.17708 0.71875,0.28125c0.35416,0.13542 0.67188,0.27083 0.95313,0.40625c0.29166,0.125 0.53646,0.27604 0.73438,0.45313c0.19791,0.17708 0.34896,0.39063 0.45313,0.64063c0.11459,0.25 0.17188,0.55208 0.17188,0.90625c0,0.70833 -0.26562,1.24479 -0.79687,1.60938c-0.52084,0.35417 -1.26041,0.53125 -2.21875,0.53125c-0.67709,0 -1.20834,-0.05729 -1.59375,-0.17187c-0.375,-0.10417 -0.63021,-0.1875 -0.76562,-0.25l0.23438,-1.17187c0.15625,0.0625 0.40625,0.15104 0.75,0.26563c0.34375,0.11458 0.80209,0.17188 1.375,0.17188zM241.72408,173.32813c0.32291,0 0.60938,-0.00521 0.85938,-0.01562c0.25,-0.02083 0.45834,-0.04687 0.625,-0.07812v-2.28125c-0.10416,-0.04167 -0.26562,-0.07812 -0.48437,-0.10937c-0.21875,-0.04167 -0.48437,-0.0625 -0.79687,-0.0625c-0.19791,0 -0.41666,0.01563 -0.65625,0.04688c-0.22916,0.03125 -0.4375,0.09375 -0.625,0.1875c-0.1875,0.08333 -0.34375,0.20833 -0.46875,0.375c-0.125,0.15625 -0.1875,0.36979 -0.1875,0.64063c0,0.48958 0.15625,0.82813 0.46875,1.01563c0.3125,0.1875 0.73438,0.28125 1.26563,0.28125zM241.6147,166.5c0.54166,0 1,0.07292 1.375,0.21875c0.375,0.13542 0.67709,0.33333 0.90625,0.59375c0.22916,0.26042 0.39063,0.56771 0.48438,0.92188c0.10416,0.35417 0.15625,0.75 0.15625,1.1875v4.76563c-0.11459,0.01042 -0.27604,0.03646 -0.48437,0.07813c-0.20834,0.03125 -0.44791,0.0625 -0.71875,0.09375c-0.26041,0.03125 -0.54687,0.05729 -0.85937,0.07813c-0.30209,0.02083 -0.60416,0.03125 -0.90625,0.03125c-0.42709,0 -0.82291,-0.04687 -1.1875,-0.14062c-0.36459,-0.08333 -0.68229,-0.21875 -0.95312,-0.40625c-0.26041,-0.1875 -0.46354,-0.4375 -0.60937,-0.75c-0.14584,-0.3125 -0.21875,-0.6875 -0.21875,-1.125c0,-0.42708 0.08334,-0.79167 0.25,-1.09375c0.17709,-0.30208 0.41146,-0.54687 0.70313,-0.73437c0.29166,-0.1875 0.63021,-0.32292 1.01563,-0.40625c0.39584,-0.08333 0.8125,-0.125 1.25,-0.125c0.13541,0 0.27604,0.00521 0.42188,0.01563c0.14584,0.01042 0.28125,0.03125 0.40625,0.0625c0.13541,0.02083 0.25,0.04167 0.34375,0.0625c0.10416,0.02083 0.17709,0.03646 0.21875,0.04688v-0.39062c0,-0.21875 -0.02604,-0.4375 -0.07812,-0.65625c-0.05209,-0.21875 -0.14062,-0.41146 -0.26562,-0.57812c-0.125,-0.17708 -0.29687,-0.31771 -0.51562,-0.42187c-0.21875,-0.10417 -0.50521,-0.15625 -0.85937,-0.15625c-0.44791,0 -0.84375,0.03125 -1.1875,0.09375c-0.33334,0.0625 -0.58334,0.13021 -0.75,0.20313l-0.15625,-1.125c0.17709,-0.08333 0.46875,-0.16146 0.875,-0.23437c0.41666,-0.07292 0.86459,-0.10937 1.34375,-0.10937zM248.1559,167.03125c0.16666,-0.11458 0.41666,-0.22917 0.75,-0.34375c0.34375,-0.11458 0.73438,-0.17187 1.17188,-0.17187c0.55209,0 1.03646,0.09896 1.45313,0.29688c0.42709,0.19792 0.78646,0.47396 1.07813,0.82813c0.30209,0.34375 0.52604,0.76042 0.67188,1.25c0.15625,0.48958 0.23438,1.02604 0.23438,1.60938c0,0.61458 -0.09375,1.17188 -0.28125,1.67188c-0.17709,0.48958 -0.43229,0.90625 -0.76562,1.25c-0.33334,0.34375 -0.73437,0.60938 -1.20312,0.79688c-0.46875,0.17708 -0.99479,0.26563 -1.57812,0.26563c-0.63541,0 -1.19791,-0.04687 -1.6875,-0.14062c-0.48959,-0.08333 -0.89062,-0.16667 -1.20312,-0.25v-10.92187l1.35938,-0.23437zM248.1559,173.125c0.13541,0.04167 0.32813,0.07813 0.57813,0.10938c0.25,0.03125 0.5625,0.04688 0.9375,0.04688c0.72916,0 1.3125,-0.23958 1.75,-0.71875c0.44791,-0.48958 0.67188,-1.17708 0.67188,-2.0625c0,-0.38542 -0.04166,-0.75 -0.125,-1.09375c-0.07291,-0.34375 -0.19791,-0.64062 -0.375,-0.89062c-0.17709,-0.25 -0.40625,-0.44271 -0.6875,-0.57812c-0.28125,-0.14583 -0.61459,-0.21875 -1,-0.21875c-0.375,0 -0.71875,0.0625 -1.03125,0.1875c-0.3125,0.125 -0.55209,0.25521 -0.71875,0.39063zM257.71034,174.45313c-0.83334,-0.01042 -1.42709,-0.1875 -1.78125,-0.53125c-0.35416,-0.34375 -0.53125,-0.88021 -0.53125,-1.60937v-9.14062l1.35938,-0.23437v9.15625c0,0.22917 0.02084,0.41667 0.0625,0.5625c0.04166,0.14583 0.10416,0.26563 0.1875,0.35938c0.09375,0.08333 0.21354,0.14583 0.35938,0.1875c0.14584,0.04167 0.32813,0.07813 0.54688,0.10938zM259.00841,170.51563c0,-0.67708 0.09375,-1.26562 0.28125,-1.76562c0.19791,-0.5 0.45834,-0.91667 0.78125,-1.25c0.32291,-0.33333 0.69271,-0.58333 1.10938,-0.75c0.42709,-0.16667 0.85938,-0.25 1.29688,-0.25c1.03125,0 1.81771,0.32292 2.35938,0.96875c0.55209,0.63542 0.82813,1.60938 0.82813,2.92188c0,0.05208 0,0.125 0,0.21875c0,0.09375 -0.00521,0.18229 -0.01562,0.26563h-5.21875c0.05209,0.79167 0.27604,1.39063 0.67188,1.79688c0.40625,0.40625 1.03646,0.60938 1.89063,0.60938c0.47916,0 0.88021,-0.04167 1.20313,-0.125c0.33334,-0.08333 0.58334,-0.16146 0.75,-0.23437l0.1875,1.14063c-0.16666,0.08333 -0.45834,0.17188 -0.875,0.26563c-0.41666,0.10417 -0.88541,0.15625 -1.40625,0.15625c-0.66666,0 -1.24479,-0.09896 -1.73437,-0.29687c-0.47916,-0.19792 -0.875,-0.47396 -1.1875,-0.82812c-0.3125,-0.35417 -0.54687,-0.77083 -0.70312,-1.25c-0.14584,-0.48958 -0.21875,-1.02083 -0.21875,-1.59375zM264.24278,169.76563c0.01041,-0.61458 -0.14584,-1.11979 -0.46875,-1.51562c-0.3125,-0.39583 -0.75,-0.59375 -1.3125,-0.59375c-0.3125,0 -0.58854,0.0625 -0.82812,0.1875c-0.23959,0.125 -0.44271,0.28646 -0.60937,0.48438c-0.16666,0.1875 -0.29687,0.41146 -0.39062,0.67188c-0.08334,0.25 -0.14062,0.50521 -0.17187,0.76563zM274.32124,174.48438c-0.61459,0 -1.15625,-0.09375 -1.625,-0.28125c-0.45834,-0.19792 -0.84896,-0.47396 -1.17187,-0.82812c-0.3125,-0.35417 -0.54687,-0.77083 -0.70312,-1.25c-0.15625,-0.48958 -0.23437,-1.02604 -0.23437,-1.60937c0,-0.58333 0.08334,-1.11979 0.25,-1.60937c0.17709,-0.48958 0.42188,-0.91146 0.73438,-1.26562c0.3125,-0.35417 0.69271,-0.63021 1.14063,-0.82812c0.45834,-0.20833 0.96354,-0.3125 1.51563,-0.3125c0.34375,0 0.6875,0.03125 1.03125,0.09375c0.34375,0.05208 0.67188,0.14063 0.98438,0.26563l-0.3125,1.17188c-0.19791,-0.10417 -0.43229,-0.18229 -0.70312,-0.23437c-0.27084,-0.0625 -0.55729,-0.09375 -0.85937,-0.09375c-0.76041,0 -1.34375,0.23958 -1.75,0.71875c-0.40625,0.47917 -0.60937,1.17708 -0.60937,2.09375c0,0.40625 0.04688,0.78125 0.14063,1.125c0.09375,0.34375 0.23959,0.64063 0.4375,0.89063c0.19791,0.23958 0.45313,0.42708 0.76563,0.5625c0.3125,0.125 0.69271,0.1875 1.14063,0.1875c0.36459,0 0.69271,-0.03125 0.98438,-0.09375c0.29166,-0.07292 0.52084,-0.14583 0.6875,-0.21875l0.1875,1.14063c-0.07291,0.05208 -0.18229,0.09896 -0.32812,0.14063c-0.14584,0.04167 -0.3125,0.07813 -0.5,0.10938c-0.1875,0.04167 -0.38541,0.07292 -0.59375,0.09375c-0.20834,0.02083 -0.41146,0.03125 -0.60937,0.03125zM280.10518,174.45313c-0.83334,-0.01042 -1.42709,-0.1875 -1.78125,-0.53125c-0.35416,-0.34375 -0.53125,-0.88021 -0.53125,-1.60937v-9.14062l1.35938,-0.23437v9.15625c0,0.22917 0.02084,0.41667 0.0625,0.5625c0.04166,0.14583 0.10416,0.26563 0.1875,0.35938c0.09375,0.08333 0.21354,0.14583 0.35938,0.1875c0.14584,0.04167 0.32813,0.07813 0.54688,0.10938zM288.55949,170.5c0,0.60417 -0.08854,1.15104 -0.26562,1.64063c-0.17709,0.48958 -0.42709,0.91146 -0.75,1.26563c-0.3125,0.35417 -0.69271,0.625 -1.14062,0.8125c-0.4375,0.1875 -0.91146,0.28125 -1.42187,0.28125c-0.52084,0 -1,-0.09375 -1.4375,-0.28125c-0.4375,-0.1875 -0.81771,-0.45833 -1.14062,-0.8125c-0.3125,-0.35417 -0.55729,-0.77604 -0.73437,-1.26562c-0.17709,-0.48958 -0.26562,-1.03646 -0.26562,-1.64062c0,-0.59375 0.08854,-1.13542 0.26563,-1.625c0.17709,-0.5 0.42188,-0.92187 0.73438,-1.26562c0.32291,-0.35417 0.70313,-0.625 1.14063,-0.8125c0.4375,-0.19792 0.91666,-0.29687 1.4375,-0.29687c0.51041,0 0.98438,0.09896 1.42188,0.29688c0.44791,0.1875 0.82813,0.45833 1.14063,0.8125c0.32291,0.34375 0.57291,0.76563 0.75,1.26563c0.17709,0.48958 0.26563,1.03125 0.26563,1.625zM287.13762,170.5c0,-0.85417 -0.19791,-1.53125 -0.59375,-2.03125c-0.38541,-0.51042 -0.90625,-0.76562 -1.5625,-0.76562c-0.66666,0 -1.19271,0.25521 -1.57812,0.76563c-0.38541,0.5 -0.57812,1.17708 -0.57812,2.03125c0,0.86458 0.19271,1.54688 0.57813,2.04688c0.38541,0.5 0.91146,0.75 1.57813,0.75c0.65625,0 1.17709,-0.25 1.5625,-0.75c0.39584,-0.5 0.59375,-1.18229 0.59375,-2.04687zM290.47234,166.90625c0.3125,-0.07292 0.72396,-0.15104 1.23438,-0.23437c0.52084,-0.09375 1.11979,-0.14062 1.79688,-0.14062c0.60416,0 1.10416,0.08854 1.5,0.26563c0.40625,0.16667 0.72916,0.40625 0.96875,0.71875c0.23959,0.30208 0.40625,0.66667 0.5,1.09375c0.10416,0.42708 0.15625,0.90104 0.15625,1.42188v4.28125h-1.35937v-3.98437c0,-0.46875 -0.03125,-0.86979 -0.09375,-1.20312c-0.0625,-0.33333 -0.17187,-0.59896 -0.32812,-0.79687c-0.14584,-0.20833 -0.33854,-0.35937 -0.57812,-0.45312c-0.23959,-0.09375 -0.54166,-0.14062 -0.90625,-0.14062c-0.14584,0 -0.29687,0.00521 -0.45312,0.01563c-0.15625,0.01042 -0.30729,0.02604 -0.45312,0.04688c-0.13541,0.01042 -0.26041,0.02604 -0.375,0.04688c-0.11459,0.01042 -0.19791,0.02083 -0.25,0.03125v6.4375h-1.35937zM298.46318,170.51563c0,-0.67708 0.09375,-1.26562 0.28125,-1.76562c0.19791,-0.5 0.45834,-0.91667 0.78125,-1.25c0.32291,-0.33333 0.69271,-0.58333 1.10938,-0.75c0.42709,-0.16667 0.85938,-0.25 1.29688,-0.25c1.03125,0 1.81771,0.32292 2.35938,0.96875c0.55209,0.63542 0.82813,1.60938 0.82813,2.92188c0,0.05208 0,0.125 0,0.21875c0,0.09375 -0.00521,0.18229 -0.01562,0.26563h-5.21875c0.05209,0.79167 0.27604,1.39063 0.67188,1.79688c0.40625,0.40625 1.03646,0.60938 1.89063,0.60938c0.47916,0 0.88021,-0.04167 1.20313,-0.125c0.33334,-0.08333 0.58334,-0.16146 0.75,-0.23437l0.1875,1.14063c-0.16666,0.08333 -0.45834,0.17188 -0.875,0.26563c-0.41666,0.10417 -0.88541,0.15625 -1.40625,0.15625c-0.66666,0 -1.24479,-0.09896 -1.73437,-0.29687c-0.47916,-0.19792 -0.875,-0.47396 -1.1875,-0.82812c-0.3125,-0.35417 -0.54687,-0.77083 -0.70312,-1.25c-0.14584,-0.48958 -0.21875,-1.02083 -0.21875,-1.59375zM303.69756,169.76563c0.01041,-0.61458 -0.14584,-1.11979 -0.46875,-1.51562c-0.3125,-0.39583 -0.75,-0.59375 -1.3125,-0.59375c-0.3125,0 -0.58854,0.0625 -0.82812,0.1875c-0.23959,0.125 -0.44271,0.28646 -0.60937,0.48438c-0.16666,0.1875 -0.29687,0.41146 -0.39062,0.67188c-0.08334,0.25 -0.14062,0.50521 -0.17187,0.76563zM313.27602,166.53125c0.11459,0 0.24479,0.01042 0.39063,0.03125c0.15625,0.01042 0.30729,0.02604 0.45313,0.04688c0.15625,0.02083 0.29166,0.04688 0.40625,0.07813c0.125,0.02083 0.21875,0.04167 0.28125,0.0625l-0.23437,1.1875c-0.11459,-0.04167 -0.29687,-0.08854 -0.54687,-0.14062c-0.23959,-0.05208 -0.55729,-0.07812 -0.95312,-0.07812c-0.25,0 -0.5,0.02604 -0.75,0.07813c-0.25,0.05208 -0.41666,0.08854 -0.5,0.10938v6.40625h-1.35937v-7.29687c0.32291,-0.11458 0.72396,-0.22396 1.20313,-0.32812c0.47916,-0.10417 1.01563,-0.15625 1.60938,-0.15625zM315.69899,170.51563c0,-0.67708 0.09375,-1.26562 0.28125,-1.76562c0.19791,-0.5 0.45834,-0.91667 0.78125,-1.25c0.32291,-0.33333 0.69271,-0.58333 1.10938,-0.75c0.42709,-0.16667 0.85938,-0.25 1.29688,-0.25c1.03125,0 1.81771,0.32292 2.35938,0.96875c0.55209,0.63542 0.82813,1.60938 0.82813,2.92188c0,0.05208 0,0.125 0,0.21875c0,0.09375 -0.00521,0.18229 -0.01562,0.26563h-5.21875c0.05209,0.79167 0.27604,1.39063 0.67188,1.79688c0.40625,0.40625 1.03646,0.60938 1.89063,0.60938c0.47916,0 0.88021,-0.04167 1.20313,-0.125c0.33334,-0.08333 0.58334,-0.16146 0.75,-0.23437l0.1875,1.14063c-0.16666,0.08333 -0.45834,0.17188 -0.875,0.26563c-0.41666,0.10417 -0.88541,0.15625 -1.40625,0.15625c-0.66666,0 -1.24479,-0.09896 -1.73437,-0.29687c-0.47916,-0.19792 -0.875,-0.47396 -1.1875,-0.82812c-0.3125,-0.35417 -0.54687,-0.77083 -0.70312,-1.25c-0.14584,-0.48958 -0.21875,-1.02083 -0.21875,-1.59375zM320.93337,169.76563c0.01041,-0.61458 -0.14584,-1.11979 -0.46875,-1.51562c-0.3125,-0.39583 -0.75,-0.59375 -1.3125,-0.59375c-0.3125,0 -0.58854,0.0625 -0.82812,0.1875c-0.23959,0.125 -0.44271,0.28646 -0.60937,0.48438c-0.16666,0.1875 -0.29687,0.41146 -0.39062,0.67188c-0.08334,0.25 -0.14062,0.50521 -0.17187,0.76563zM324.31374,166.90625c0.3125,-0.07292 0.72396,-0.15104 1.23438,-0.23437c0.52084,-0.09375 1.11979,-0.14062 1.79688,-0.14062c0.60416,0 1.10416,0.08854 1.49997,0.26563c0.40625,0.16667 0.72916,0.40625 0.96875,0.71875c0.23959,0.30208 0.40625,0.66667 0.5,1.09375c0.10416,0.42708 0.15625,0.90104 0.15625,1.42188v4.28125h-1.35937v-3.98437c0,-0.46875 -0.03125,-0.86979 -0.09375,-1.20312c-0.0625,-0.33333 -0.17187,-0.59896 -0.3281,-0.79687c-0.14584,-0.20833 -0.33854,-0.35937 -0.57812,-0.45312c-0.23959,-0.09375 -0.54166,-0.14062 -0.90625,-0.14062c-0.14584,0 -0.29687,0.00521 -0.45312,0.01563c-0.15625,0.01042 -0.30729,0.02604 -0.45312,0.04688c-0.13541,0.01042 -0.26041,0.02604 -0.375,0.04688c-0.11459,0.01042 -0.19791,0.02083 -0.25,0.03125v6.4375h-1.35937v-7.40625zM337.6483,168.29688c-0.16666,-0.13542 -0.40625,-0.26562 -0.71875,-0.39062c-0.3125,-0.125 -0.65104,-0.1875 -1.01562,-0.1875c-0.39584,0 -0.73437,0.07292 -1.01562,0.21875c-0.27084,0.13542 -0.49479,0.32813 -0.67187,0.57813c-0.17709,0.25 -0.30729,0.54688 -0.39062,0.89063c-0.07291,0.34375 -0.10937,0.70833 -0.10937,1.09375c0,0.88542 0.21875,1.57292 0.65625,2.0625c0.4375,0.47917 1.02604,0.71875 1.76563,0.71875c0.36459,0 0.67188,-0.01562 0.92188,-0.04687c0.25,-0.03125 0.44271,-0.06771 0.57813,-0.10937zM337.6483,163.17188l1.35938,-0.23437v11.15625c-0.3125,0.08333 -0.71354,0.16667 -1.20312,0.25c-0.47916,0.09375 -1.03646,0.14063 -1.67187,0.14063c-0.59375,0 -1.125,-0.08854 -1.59375,-0.26562c-0.46875,-0.1875 -0.86979,-0.45312 -1.20312,-0.79687c-0.32291,-0.34375 -0.57812,-0.76042 -0.76562,-1.25c-0.17709,-0.5 -0.26562,-1.05729 -0.26562,-1.67187c0,-0.58333 0.07291,-1.11979 0.21875,-1.60937c0.15625,-0.48958 0.38021,-0.90625 0.67188,-1.25c0.29166,-0.35417 0.65104,-0.63021 1.07813,-0.82812c0.42709,-0.19792 0.91146,-0.29687 1.45313,-0.29687c0.44791,0 0.83854,0.05729 1.17188,0.17188c0.33334,0.11458 0.58334,0.22917 0.75,0.34375zM340.93712,170.51563c0,-0.67708 0.09375,-1.26562 0.28125,-1.76562c0.19791,-0.5 0.45834,-0.91667 0.78125,-1.25c0.32291,-0.33333 0.69271,-0.58333 1.10938,-0.75c0.42709,-0.16667 0.85938,-0.25 1.29688,-0.25c1.03125,0 1.81771,0.32292 2.35938,0.96875c0.55209,0.63542 0.82813,1.60938 0.82813,2.92188c0,0.05208 0,0.125 0,0.21875c0,0.09375 -0.00521,0.18229 -0.01562,0.26563h-5.21875c0.05209,0.79167 0.27604,1.39063 0.67188,1.79688c0.40625,0.40625 1.03646,0.60938 1.89063,0.60938c0.47916,0 0.88021,-0.04167 1.20313,-0.125c0.33334,-0.08333 0.58334,-0.16146 0.75,-0.23437l0.1875,1.14063c-0.16666,0.08333 -0.45834,0.17188 -0.875,0.26563c-0.41666,0.10417 -0.88541,0.15625 -1.40625,0.15625c-0.66666,0 -1.24479,-0.09896 -1.73437,-0.29687c-0.47916,-0.19792 -0.875,-0.47396 -1.1875,-0.82812c-0.3125,-0.35417 -0.54687,-0.77083 -0.70312,-1.25c-0.14584,-0.48958 -0.21875,-1.02083 -0.21875,-1.59375zM346.17149,169.76563c0.01041,-0.61458 -0.14584,-1.11979 -0.46875,-1.51562c-0.3125,-0.39583 -0.75,-0.59375 -1.3125,-0.59375c-0.3125,0 -0.58854,0.0625 -0.82812,0.1875c-0.23959,0.125 -0.44271,0.28646 -0.60937,0.48438c-0.16666,0.1875 -0.29687,0.41146 -0.39062,0.67188c-0.08334,0.25 -0.14062,0.50521 -0.17187,0.76563zM352.36436,166.53125c0.11459,0 0.24479,0.01042 0.39063,0.03125c0.15625,0.01042 0.30729,0.02604 0.45313,0.04688c0.15625,0.02083 0.29166,0.04688 0.40625,0.07813c0.125,0.02083 0.21875,0.04167 0.28125,0.0625l-0.23437,1.1875c-0.11459,-0.04167 -0.29687,-0.08854 -0.54687,-0.14062c-0.23959,-0.05208 -0.55729,-0.07812 -0.95312,-0.07812c-0.25,0 -0.5,0.02604 -0.75,0.07813c-0.25,0.05208 -0.41666,0.08854 -0.5,0.10938v6.40625h-1.35937v-7.29687c0.32291,-0.11458 0.72396,-0.22396 1.20313,-0.32812c0.47916,-0.10417 1.01563,-0.15625 1.60938,-0.15625zM356.56859,174.3125h-1.35937v-7.625h1.35938zM355.88109,165.3125c-0.23959,0 -0.44791,-0.07812 -0.625,-0.23437c-0.16666,-0.16667 -0.25,-0.38542 -0.25,-0.65625c0,-0.27083 0.08334,-0.48437 0.25,-0.64062c0.17709,-0.16667 0.38541,-0.25 0.625,-0.25c0.25,0 0.45834,0.08333 0.625,0.25c0.16666,0.15625 0.25,0.36979 0.25,0.64063c0,0.27083 -0.08334,0.48958 -0.25,0.65625c-0.16666,0.15625 -0.375,0.23438 -0.625,0.23438zM358.91728,166.90625c0.3125,-0.07292 0.72396,-0.15104 1.23438,-0.23437c0.52084,-0.09375 1.11979,-0.14062 1.79688,-0.14062c0.60416,0 1.10416,0.08854 1.5,0.26563c0.40625,0.16667 0.72916,0.40625 0.96875,0.71875c0.23959,0.30208 0.40625,0.66667 0.5,1.09375c0.10416,0.42708 0.15625,0.90104 0.15625,1.42188v4.28125h-1.35937v-3.98437c0,-0.46875 -0.03125,-0.86979 -0.09375,-1.20312c-0.0625,-0.33333 -0.17187,-0.59896 -0.32812,-0.79687c-0.14584,-0.20833 -0.33854,-0.35937 -0.57812,-0.45312c-0.23959,-0.09375 -0.54166,-0.14062 -0.90625,-0.14062c-0.14584,0 -0.29687,0.00521 -0.45312,0.01563c-0.15625,0.01042 -0.30729,0.02604 -0.45312,0.04688c-0.13541,0.01042 -0.26041,0.02604 -0.375,0.04688c-0.11459,0.01042 -0.19791,0.02083 -0.25,0.03125v6.4375h-1.35937zM372.11125,173.54688c-0.11459,0.08333 -0.34375,0.1875 -0.6875,0.3125c-0.33334,0.11458 -0.72396,0.17188 -1.17187,0.17188c-0.45834,0 -0.89062,-0.07292 -1.29687,-0.21875c-0.40625,-0.14583 -0.76041,-0.36979 -1.0625,-0.67187c-0.30209,-0.3125 -0.54166,-0.69792 -0.71875,-1.15625c-0.17709,-0.45833 -0.26562,-1.00521 -0.26562,-1.64062c0,-0.5625 0.08334,-1.07292 0.25,-1.53125c0.16666,-0.46875 0.40625,-0.86979 0.71875,-1.20312c0.32291,-0.33333 0.71354,-0.59375 1.17188,-0.78125c0.45834,-0.19792 0.97396,-0.29687 1.54688,-0.29687c0.63541,0 1.1875,0.04688 1.65625,0.14063c0.47916,0.09375 0.88021,0.17708 1.20313,0.25v6.79688c0,1.17708 -0.30209,2.02604 -0.90625,2.54688c-0.60416,0.53125 -1.52084,0.79688 -2.75,0.79688c-0.47916,0 -0.93229,-0.04167 -1.35937,-0.125c-0.42709,-0.07292 -0.79687,-0.16146 -1.10937,-0.26562l0.25,-1.1875c0.27084,0.10417 0.60416,0.19792 1,0.28125c0.39584,0.08333 0.8125,0.125 1.25,0.125c0.80209,0 1.38021,-0.16146 1.73438,-0.48437c0.36459,-0.32292 0.54688,-0.83333 0.54688,-1.53125zM372.09563,167.89063c-0.13541,-0.04167 -0.31771,-0.07812 -0.54687,-0.10937c-0.22916,-0.03125 -0.54166,-0.04687 -0.9375,-0.04687c-0.72916,0 -1.29166,0.23958 -1.6875,0.71875c-0.39584,0.47917 -0.59375,1.11458 -0.59375,1.90625c0,0.4375 0.05209,0.8125 0.15625,1.125c0.11459,0.3125 0.26563,0.57292 0.45313,0.78125c0.19791,0.19792 0.42188,0.34896 0.67188,0.45313c0.25,0.09375 0.50521,0.14063 0.76563,0.14063c0.36459,0 0.69791,-0.05208 1,-0.15625c0.30209,-0.10417 0.54166,-0.22396 0.71875,-0.35937z"/></g></g></svg>