<svg version="1.1" xmlns="http://www.w3.org/2000/svg" xmlns:xlink="http://www.w3.org/1999/xlink" width="610.6444" height="14.8598" viewBox="0,0,610.6444,14.8598"><g transform="translate(-628.57367,-352.57452)"><g data-paper-data="{&quot;isPaintingLayer&quot;:true}" fill-rule="nonzero" stroke-linejoin="miter" stroke-miterlimit="10" stroke-dasharray="" stroke-dashoffset="0" style="mix-blend-mode: normal"><path d="M635.73087,367.18432v-14.3598h599.1721l0.0711,14.3598z" data-paper-data="{&quot;index&quot;:null}" fill="#000000" stroke="#ffffff" stroke-width="0.5" stroke-linecap="butt"/><path d="M1236.56587,367.16252c-2.368,0 -11.2331,0 -11.2331,0v-14.3249c0,0 8.8234,0 11.1982,0c1.1079,0 2.4371,1.327 2.4371,2.4503c0,0.7746 0,6.3382 0,9.5639c0,1.3438 -1.3071,2.3107 -2.4022,2.3107z" data-paper-data="{&quot;index&quot;:null}" fill="#000000" stroke="#ffffff" stroke-width="0.5" stroke-linecap="butt"/><path d="M628.82367,364.85182c0,-3.2257 0,-8.7893 0,-9.5639c0,-1.1233 1.3292,-2.4503 2.4371,-2.4503c2.3748,0 11.1981,0 11.1981,0v14.3249c0,0 -8.865,0 -11.233,0c-1.0951,0 -2.4022,-0.9669 -2.4022,-2.3107z" fill="#000000" stroke="#ffffff" stroke-width="0.5" stroke-linecap="butt"/><path d="M635.73334,366.9206v-13.84106h21.10476v13.84106z" fill="#000000" stroke="none" stroke-width="0" stroke-linecap="butt"/><path d="M1223.4361,366.9075v-13.81491h2.7619v13.81491z" fill="#000000" stroke="none" stroke-width="0" stroke-linecap="butt"/><path d="M639.53317,360.40622c0,0.5 -0.0729,0.9532 -0.2188,1.3594c-0.1458,0.3958 -0.3489,0.7396 -0.6094,1.0313c-0.2604,0.2812 -0.5729,0.5 -0.9375,0.6562c-0.3541,0.1563 -0.7395,0.2344 -1.1562,0.2344c-0.4271,0 -0.8229,-0.0781 -1.1875,-0.2344c-0.3542,-0.1562 -0.6615,-0.375 -0.9219,-0.6562c-0.2604,-0.2917 -0.4635,-0.6355 -0.6094,-1.0313c-0.1458,-0.4062 -0.2187,-0.8594 -0.2187,-1.3594c0,-0.4895 0.0729,-0.9322 0.2187,-1.3281c0.1459,-0.4062 0.349,-0.75 0.6094,-1.0312c0.2604,-0.2917 0.5677,-0.5156 0.9219,-0.6719c0.3646,-0.1562 0.7604,-0.2344 1.1875,-0.2344c0.4167,0 0.8021,0.0782 1.1563,0.2344c0.3645,0.1563 0.677,0.3802 0.9375,0.6719c0.2604,0.2812 0.4635,0.625 0.6093,1.0312c0.1459,0.3959 0.2188,0.8386 0.2188,1.3282zM638.36127,360.40622c0,-0.6979 -0.1563,-1.25 -0.4688,-1.6562c-0.3125,-0.4167 -0.7395,-0.625 -1.2812,-0.625c-0.5521,0 -0.9844,0.2083 -1.2969,0.625c-0.3125,0.4062 -0.4687,0.9583 -0.4687,1.6562c0,0.7084 0.1562,1.2709 0.4687,1.6875c0.3125,0.4063 0.7448,0.6094 1.2969,0.6094c0.5417,0 0.9687,-0.2031 1.2812,-0.6094c0.3125,-0.4166 0.4688,-0.9791 0.4688,-1.6875zM642.55067,362.73442c0.4583,0 0.7969,-0.0573 1.0156,-0.1719c0.2188,-0.125 0.3282,-0.3229 0.3282,-0.5938c0,-0.2708 -0.1094,-0.4843 -0.3281,-0.6406c-0.2084,-0.1667 -0.5625,-0.3489 -1.0625,-0.5469c-0.2396,-0.0937 -0.4688,-0.1875 -0.6875,-0.2812c-0.2188,-0.1042 -0.4115,-0.224 -0.5782,-0.3594c-0.1562,-0.1354 -0.2812,-0.2968 -0.375,-0.4843c-0.0937,-0.198 -0.1406,-0.4375 -0.1406,-0.7188c0,-0.5521 0.2031,-0.9896 0.6094,-1.3125c0.4062,-0.3229 0.9635,-0.4844 1.6719,-0.4844c0.1771,0 0.3489,0.0105 0.5156,0.0313c0.1771,0.0104 0.3437,0.0312 0.5,0.0625c0.1562,0.0312 0.2917,0.0625 0.4062,0.0937c0.1146,0.0313 0.2032,0.0573 0.2657,0.0782l-0.2031,0.9687c-0.125,-0.0625 -0.3178,-0.125 -0.5782,-0.1875c-0.25,-0.0729 -0.5521,-0.1094 -0.9062,-0.1094c-0.3125,0 -0.5886,0.0625 -0.8281,0.1875c-0.2292,0.1146 -0.3438,0.3073 -0.3438,0.5782c0,0.1354 0.0261,0.2552 0.0781,0.3594c0.0521,0.1041 0.1303,0.1979 0.2344,0.2812c0.1146,0.0833 0.25,0.1615 0.4063,0.2344c0.1666,0.0729 0.3594,0.1458 0.5781,0.2187c0.3021,0.1146 0.5677,0.2292 0.7969,0.3438c0.2291,0.1042 0.4271,0.2292 0.5937,0.375c0.1667,0.1458 0.2917,0.3229 0.375,0.5312c0.0938,0.198 0.1407,0.4427 0.1407,0.7344c0,0.5729 -0.2188,1.0104 -0.6563,1.3125c-0.4271,0.2917 -1.0364,0.4375 -1.8281,0.4375c-0.5521,0 -0.9844,-0.0469 -1.2969,-0.1406c-0.3125,-0.0833 -0.5208,-0.151 -0.625,-0.2031l0.2032,-0.9531c0.125,0.0416 0.3281,0.1145 0.6093,0.2187c0.2813,0.0938 0.6511,0.1406 1.1094,0.1406zM651.41837,363.34372c-0.25,0.073 -0.5886,0.1407 -1.0157,0.2032c-0.4166,0.0729 -0.901,0.1093 -1.4531,0.1093c-0.4791,0 -0.8854,-0.0677 -1.2187,-0.2031c-0.3229,-0.1354 -0.5834,-0.3333 -0.7813,-0.5937c-0.1979,-0.2605 -0.3437,-0.5625 -0.4375,-0.9063c-0.0833,-0.3437 -0.125,-0.7292 -0.125,-1.1562v-3.5h1.1094v3.2656c0,0.75 0.1198,1.2917 0.3594,1.625c0.2396,0.3229 0.6458,0.4844 1.2187,0.4844c0.1146,0 0.2344,0 0.3594,0c0.1354,-0.0104 0.2552,-0.0209 0.3594,-0.0313c0.1146,-0.0104 0.2187,-0.0208 0.3125,-0.0312c0.0937,-0.0209 0.1615,-0.0365 0.2031,-0.0469v-5.2656h1.1094zM654.63447,357.46872c0,0.6771 -0.026,1.2917 -0.0781,1.8438c-0.0416,0.5417 -0.0989,1.0833 -0.1719,1.625h-0.6875c-0.0729,-0.5417 -0.1354,-1.0833 -0.1875,-1.625c-0.0416,-0.5521 -0.0625,-1.1667 -0.0625,-1.8438v-2.25h1.1875zM654.83767,362.89062c0,0.2083 -0.073,0.3958 -0.2188,0.5625c-0.1354,0.1563 -0.3281,0.2344 -0.5781,0.2344c-0.25,0 -0.4479,-0.0781 -0.5938,-0.2344c-0.1354,-0.1667 -0.2031,-0.3542 -0.2031,-0.5625c0,-0.2187 0.0677,-0.4062 0.2031,-0.5625c0.1459,-0.1667 0.3438,-0.25 0.5938,-0.25c0.25,0 0.4427,0.0833 0.5781,0.25c0.1459,0.1563 0.2188,0.3438 0.2188,0.5625zM655.63407,365.78122c-0.0938,0 -0.2136,-0.0156 -0.3594,-0.0468c-0.1562,-0.0209 -0.2865,-0.0521 -0.3906,-0.0938l0.1406,-0.9062c0.0834,0.0208 0.1771,0.0364 0.2813,0.0468c0.1041,0.0209 0.1979,0.0313 0.2812,0.0313c0.3854,0 0.6563,-0.1198 0.8125,-0.3594c0.1667,-0.2292 0.25,-0.5729 0.25,-1.0312v-6.125h1.125v6.1093c0,0.8021 -0.1823,1.3959 -0.5469,1.7813c-0.3645,0.3958 -0.8958,0.5937 -1.5937,0.5937zM657.21217,356.15622c-0.1979,0 -0.3698,-0.0625 -0.5156,-0.1875c-0.1354,-0.1354 -0.2031,-0.3125 -0.2031,-0.5312c0,-0.2292 0.0677,-0.4063 0.2031,-0.5313c0.1458,-0.1354 0.3177,-0.2031 0.5156,-0.2031c0.1979,0 0.3646,0.0677 0.5,0.2031c0.1459,0.125 0.2188,0.3021 0.2188,0.5313c0,0.2187 -0.0729,0.3958 -0.2188,0.5312c-0.1354,0.125 -0.3021,0.1875 -0.5,0.1875zM661.13877,362.73442c0.4584,0 0.7969,-0.0573 1.0157,-0.1719c0.2187,-0.125 0.3281,-0.3229 0.3281,-0.5938c0,-0.2708 -0.1094,-0.4843 -0.3281,-0.6406c-0.2084,-0.1667 -0.5625,-0.3489 -1.0625,-0.5469c-0.2396,-0.0937 -0.4688,-0.1875 -0.6875,-0.2812c-0.2188,-0.1042 -0.4115,-0.224 -0.5781,-0.3594c-0.1563,-0.1354 -0.2813,-0.2968 -0.375,-0.4843c-0.0938,-0.198 -0.1407,-0.4375 -0.1407,-0.7188c0,-0.5521 0.2032,-0.9896 0.6094,-1.3125c0.4063,-0.3229 0.9636,-0.4844 1.6719,-0.4844c0.1771,0 0.349,0.0105 0.5156,0.0313c0.1771,0.0104 0.3438,0.0312 0.5,0.0625c0.1563,0.0312 0.2917,0.0625 0.4063,0.0937c0.1146,0.0313 0.2031,0.0573 0.2656,0.0782l-0.2031,0.9687c-0.125,-0.0625 -0.3177,-0.125 -0.5781,-0.1875c-0.25,-0.0729 -0.5521,-0.1094 -0.9063,-0.1094c-0.3125,0 -0.5885,0.0625 -0.8281,0.1875c-0.2292,0.1146 -0.3438,0.3073 -0.3438,0.5782c0,0.1354 0.0261,0.2552 0.0782,0.3594c0.0521,0.1041 0.1302,0.1979 0.2344,0.2812c0.1145,0.0833 0.25,0.1615 0.4062,0.2344c0.1667,0.0729 0.3594,0.1458 0.5781,0.2187c0.3021,0.1146 0.5677,0.2292 0.7969,0.3438c0.2292,0.1042 0.4271,0.2292 0.5938,0.375c0.1666,0.1458 0.2916,0.3229 0.375,0.5312c0.0937,0.198 0.1406,0.4427 0.1406,0.7344c0,0.5729 -0.2188,1.0104 -0.6563,1.3125c-0.427,0.2917 -1.0364,0.4375 -1.8281,0.4375c-0.5521,0 -0.9843,-0.0469 -1.2968,-0.1406c-0.3125,-0.0833 -0.5209,-0.151 -0.625,-0.2031l0.2031,-0.9531c0.125,0.0416 0.3281,0.1145 0.6094,0.2187c0.2812,0.0938 0.651,0.1406 1.1093,0.1406zM672.91917,363.53122c-0.2292,-0.5729 -0.4688,-1.2291 -0.7188,-1.9687c-0.25,-0.7396 -0.4792,-1.5104 -0.6875,-2.3125c-0.2083,0.8021 -0.4375,1.5729 -0.6875,2.3125c-0.25,0.7396 -0.4844,1.3958 -0.7031,1.9687h-0.9688c-0.375,-0.8229 -0.7396,-1.7604 -1.0937,-2.8125c-0.3438,-1.0625 -0.6719,-2.2031 -0.9844,-3.4218h1.2031c0.073,0.375 0.1667,0.7812 0.2813,1.2187c0.1146,0.4375 0.2344,0.8802 0.3594,1.3281c0.125,0.4375 0.2552,0.8594 0.3906,1.2657c0.1354,0.4062 0.2604,0.7604 0.375,1.0625c0.1354,-0.375 0.2708,-0.7709 0.4062,-1.1875c0.1355,-0.4271 0.2605,-0.8542 0.375,-1.2813c0.125,-0.4271 0.2396,-0.8437 0.3438,-1.25c0.1042,-0.4167 0.1979,-0.8021 0.2812,-1.1562h0.9219c0.0729,0.3541 0.1615,0.7395 0.2657,1.1562c0.1041,0.4063 0.2135,0.8229 0.3281,1.25c0.125,0.4271 0.2552,0.8542 0.3906,1.2813c0.1354,0.4166 0.2709,0.8125 0.4063,1.1875c0.1146,-0.3021 0.2343,-0.6563 0.3593,-1.0625c0.1355,-0.4063 0.2657,-0.8282 0.3907,-1.2657c0.1354,-0.4479 0.2604,-0.8906 0.375,-1.3281c0.1146,-0.4375 0.2083,-0.8437 0.2812,-1.2187h1.1563c-0.3125,1.2187 -0.6459,2.3594 -1,3.4219c-0.3542,1.052 -0.7136,1.9895 -1.0781,2.8125zM678.25877,363.53122h-1.125v-6.2343h1.125zM677.69627,356.15622c-0.1979,0 -0.3697,-0.0625 -0.5156,-0.1875c-0.1354,-0.1354 -0.2031,-0.3125 -0.2031,-0.5312c0,-0.2292 0.0677,-0.4063 0.2031,-0.5313c0.1459,-0.1354 0.3177,-0.2031 0.5157,-0.2031c0.1979,0 0.3646,0.0677 0.5,0.2031c0.1458,0.125 0.2187,0.3021 0.2187,0.5313c0,0.2187 -0.0729,0.3958 -0.2187,0.5312c-0.1354,0.125 -0.3021,0.1875 -0.5,0.1875zM682.04487,363.65622c-0.6875,-0.0208 -1.1771,-0.1718 -1.4688,-0.4531c-0.2812,-0.2812 -0.4218,-0.7135 -0.4218,-1.2969v-7.5l1.1093,-0.1875v7.5c0,0.1875 0.0157,0.3438 0.0469,0.4688c0.0313,0.1146 0.0834,0.2083 0.1563,0.2812c0.0729,0.073 0.1666,0.125 0.2812,0.1563c0.125,0.0312 0.276,0.0625 0.4531,0.0937zM685.32087,363.65622c-0.6875,-0.0208 -1.1771,-0.1718 -1.4688,-0.4531c-0.2812,-0.2812 -0.4218,-0.7135 -0.4218,-1.2969v-7.5l1.1094,-0.1875v7.5c0,0.1875 0.0156,0.3438 0.0468,0.4688c0.0313,0.1146 0.0834,0.2083 0.1563,0.2812c0.0729,0.073 0.1666,0.125 0.2812,0.1563c0.125,0.0312 0.2761,0.0625 0.4532,0.0937zM691.61887,362.73442c0.2604,0 0.4896,-0.0052 0.6875,-0.0157c0.2084,-0.0208 0.3802,-0.0468 0.5156,-0.0781v-1.8594c-0.0833,-0.0416 -0.2135,-0.0729 -0.3906,-0.0937c-0.1771,-0.0313 -0.3958,-0.0469 -0.6562,-0.0469c-0.1667,0 -0.3438,0.0157 -0.5313,0.0469c-0.1875,0.0208 -0.3593,0.0677 -0.5156,0.1406c-0.1562,0.073 -0.2865,0.1771 -0.3906,0.3125c-0.1042,0.125 -0.1563,0.2969 -0.1563,0.5157c0,0.4062 0.125,0.6875 0.375,0.8437c0.2604,0.1563 0.6146,0.2344 1.0625,0.2344zM691.50947,357.14062c0.448,0 0.8282,0.0573 1.1407,0.1719c0.3125,0.1146 0.5625,0.2812 0.75,0.5c0.1875,0.2083 0.3177,0.4583 0.3906,0.75c0.0833,0.2917 0.125,0.6094 0.125,0.9531v3.9063c-0.0937,0.0208 -0.2292,0.0468 -0.4062,0.0781c-0.1667,0.0208 -0.3594,0.0417 -0.5782,0.0625c-0.2187,0.0312 -0.4531,0.0521 -0.7031,0.0625c-0.25,0.0208 -0.5,0.0312 -0.75,0.0312c-0.3542,0 -0.6771,-0.0364 -0.9687,-0.1093c-0.2917,-0.0625 -0.5469,-0.1719 -0.7657,-0.3281c-0.2187,-0.1563 -0.3906,-0.3594 -0.5156,-0.6094c-0.1146,-0.2604 -0.1718,-0.5729 -0.1718,-0.9375c0,-0.3438 0.0677,-0.6406 0.2031,-0.8906c0.1458,-0.25 0.3385,-0.448 0.5781,-0.5938c0.2396,-0.1562 0.5156,-0.2708 0.8281,-0.3437c0.323,-0.073 0.6615,-0.1094 1.0157,-0.1094c0.1146,0 0.2291,0.0104 0.3437,0.0312c0.125,0.0105 0.2396,0.0261 0.3438,0.0469c0.1146,0.0104 0.2083,0.0261 0.2812,0.0469c0.0834,0.0208 0.1407,0.0313 0.1719,0.0313v-0.3125c0,-0.1771 -0.0208,-0.3542 -0.0625,-0.5313c-0.0417,-0.1875 -0.1146,-0.349 -0.2187,-0.4844c-0.0938,-0.1458 -0.2344,-0.2604 -0.4219,-0.3437c-0.1771,-0.0833 -0.4115,-0.125 -0.7031,-0.125c-0.3646,0 -0.6875,0.026 -0.9688,0.0781c-0.2708,0.0521 -0.4739,0.1042 -0.6094,0.1563l-0.1406,-0.9219c0.1459,-0.0625 0.3854,-0.1198 0.7188,-0.1719c0.3437,-0.0625 0.7083,-0.0937 1.0937,-0.0937zM698.47667,363.67192c-0.5,0 -0.9427,-0.0782 -1.3281,-0.2344c-0.375,-0.1667 -0.6927,-0.3906 -0.9531,-0.6719c-0.2604,-0.2917 -0.4584,-0.6354 -0.5938,-1.0312c-0.125,-0.3959 -0.1875,-0.8334 -0.1875,-1.3125c0,-0.4792 0.0677,-0.9167 0.2031,-1.3125c0.1459,-0.4063 0.3438,-0.7552 0.5938,-1.0469c0.2604,-0.2917 0.5781,-0.5156 0.9531,-0.6719c0.375,-0.1666 0.7865,-0.25 1.2344,-0.25c0.2813,0 0.5625,0.0261 0.8438,0.0782c0.2812,0.0416 0.552,0.1145 0.8125,0.2187l-0.2657,0.9531c-0.1666,-0.0833 -0.3593,-0.1458 -0.5781,-0.1875c-0.2187,-0.052 -0.4531,-0.0781 -0.7031,-0.0781c-0.625,0 -1.1042,0.1979 -1.4375,0.5938c-0.3229,0.3854 -0.4844,0.9531 -0.4844,1.7031c0,0.3333 0.0365,0.6406 0.1094,0.9219c0.0729,0.2812 0.1927,0.526 0.3594,0.7344c0.1666,0.1979 0.375,0.3489 0.625,0.4531c0.2604,0.1042 0.5729,0.1562 0.9375,0.1562c0.3021,0 0.5729,-0.026 0.8125,-0.0781c0.2396,-0.0625 0.4271,-0.125 0.5625,-0.1875l0.1562,0.9375c-0.0625,0.0417 -0.1562,0.0833 -0.2812,0.125c-0.1146,0.0313 -0.25,0.0573 -0.4063,0.0781c-0.1562,0.0313 -0.3229,0.0573 -0.5,0.0782c-0.1666,0.0208 -0.3281,0.0312 -0.4843,0.0312zM702.38487,357.29692h2.375v0.9375h-2.375v2.875c0,0.3125 0.0208,0.5729 0.0625,0.7812c0.0521,0.1979 0.125,0.3542 0.2187,0.4688c0.1042,0.1145 0.2292,0.1979 0.375,0.25c0.1459,0.0416 0.3125,0.0625 0.5,0.0625c0.3334,0 0.599,-0.0365 0.7969,-0.1094c0.2083,-0.0729 0.3542,-0.125 0.4375,-0.1563l0.2188,0.9219c-0.1146,0.0521 -0.3125,0.1198 -0.5938,0.2031c-0.2812,0.0834 -0.599,0.125 -0.9531,0.125c-0.4271,0 -0.7813,-0.052 -1.0625,-0.1562c-0.2709,-0.1042 -0.4896,-0.2656 -0.6563,-0.4844c-0.1666,-0.2187 -0.2864,-0.4843 -0.3593,-0.7968c-0.0625,-0.3125 -0.0938,-0.6771 -0.0938,-1.0938v-5.5781l1.1094,-0.1875zM707.28697,363.53122h-1.125v-6.2343h1.125zM706.72447,356.15622c-0.1979,0 -0.3698,-0.0625 -0.5156,-0.1875c-0.1354,-0.1354 -0.2031,-0.3125 -0.2031,-0.5312c0,-0.2292 0.0677,-0.4063 0.2031,-0.5313c0.1459,-0.1354 0.3177,-0.2031 0.5156,-0.2031c0.198,0 0.3646,0.0677 0.5,0.2031c0.1459,0.125 0.2188,0.3021 0.2188,0.5313c0,0.2187 -0.0729,0.3958 -0.2188,0.5312c-0.1354,0.125 -0.302,0.1875 -0.5,0.1875zM714.07307,357.29692c-0.3125,1.1666 -0.6771,2.2864 -1.0938,3.3593c-0.4167,1.073 -0.8229,2.0313 -1.2187,2.875h-1c-0.3959,-0.8437 -0.8073,-1.802 -1.2344,-2.875c-0.4167,-1.0729 -0.7813,-2.1927 -1.0938,-3.3593h1.2032c0.0937,0.3854 0.2083,0.802 0.3437,1.25c0.1354,0.4479 0.276,0.8906 0.4219,1.3281c0.1458,0.4271 0.2917,0.849 0.4375,1.2656c0.1562,0.4063 0.3021,0.7657 0.4375,1.0782c0.1354,-0.3125 0.2812,-0.6719 0.4375,-1.0782c0.1562,-0.4166 0.3073,-0.8385 0.4531,-1.2656c0.1459,-0.4375 0.2813,-0.8802 0.4063,-1.3281c0.1354,-0.4479 0.2552,-0.8646 0.3593,-1.25zM714.71037,360.42192c0,-0.5521 0.0781,-1.0313 0.2343,-1.4375c0.1667,-0.4167 0.3802,-0.7605 0.6407,-1.0313c0.2708,-0.2708 0.5781,-0.4739 0.9218,-0.6094c0.3438,-0.1354 0.6928,-0.2031 1.0469,-0.2031c0.8438,0 1.4896,0.2604 1.9375,0.7813c0.4479,0.5208 0.6719,1.3177 0.6719,2.3906c0,0.0521 0,0.1146 0,0.1875c0,0.0729 -0.0052,0.1458 -0.0156,0.2187h-4.2656c0.0416,0.6459 0.2239,1.1355 0.5468,1.4688c0.3334,0.3333 0.849,0.5 1.5469,0.5c0.3959,0 0.724,-0.0313 0.9844,-0.0938c0.2708,-0.0729 0.474,-0.1406 0.6094,-0.2031l0.1562,0.9375c-0.1354,0.0729 -0.375,0.1459 -0.7187,0.2188c-0.3334,0.0833 -0.7188,0.125 -1.1563,0.125c-0.5416,0 -1.0104,-0.0781 -1.4062,-0.2344c-0.3959,-0.1667 -0.724,-0.3958 -0.9844,-0.6875c-0.25,-0.2917 -0.4375,-0.6354 -0.5625,-1.0312c-0.125,-0.3959 -0.1875,-0.8282 -0.1875,-1.2969zM718.99157,359.81252c0.0104,-0.5 -0.1146,-0.9115 -0.375,-1.2344c-0.2604,-0.3333 -0.6198,-0.5 -1.0781,-0.5c-0.25,0 -0.474,0.0521 -0.6719,0.1563c-0.1979,0.1041 -0.3646,0.2343 -0.5,0.3906c-0.1354,0.1562 -0.2396,0.3385 -0.3125,0.5469c-0.0729,0.2083 -0.125,0.4218 -0.1562,0.6406zM723.63717,363.65622c-0.6875,-0.0208 -1.1771,-0.1718 -1.4688,-0.4531c-0.2812,-0.2812 -0.4219,-0.7135 -0.4219,-1.2969v-7.5l1.1094,-0.1875v7.5c0,0.1875 0.0156,0.3438 0.0469,0.4688c0.0312,0.1146 0.0833,0.2083 0.1562,0.2812c0.073,0.073 0.1667,0.125 0.2813,0.1563c0.125,0.0312 0.276,0.0625 0.4531,0.0937zM724.31937,364.68752c0.0834,0.0417 0.1927,0.0781 0.3281,0.1094c0.1459,0.0416 0.2865,0.0625 0.4219,0.0625c0.4375,0 0.7813,-0.099 1.0313,-0.2969c0.25,-0.1875 0.4739,-0.5052 0.6719,-0.9531c-0.5,-0.9584 -0.9688,-1.974 -1.4063,-3.0469c-0.4375,-1.0729 -0.8021,-2.1615 -1.0937,-3.2656h1.2031c0.0937,0.3541 0.1979,0.7396 0.3125,1.1562c0.125,0.4167 0.2656,0.849 0.4219,1.2969c0.1562,0.4375 0.3177,0.875 0.4843,1.3125c0.1771,0.4375 0.3646,0.8594 0.5625,1.2656c0.3021,-0.8333 0.5625,-1.6614 0.7813,-2.4843c0.2292,-0.8334 0.4427,-1.6823 0.6406,-2.5469h1.1563c-0.2917,1.1771 -0.6146,2.3073 -0.9688,3.3906c-0.3437,1.0834 -0.7239,2.0938 -1.1406,3.0313c-0.1562,0.3646 -0.3229,0.6771 -0.5,0.9375c-0.1667,0.2604 -0.3542,0.4739 -0.5625,0.6406c-0.2083,0.1667 -0.4427,0.2865 -0.7031,0.3594c-0.2604,0.0833 -0.5521,0.125 -0.875,0.125c-0.0938,0 -0.1875,-0.0052 -0.2813,-0.0156c-0.0937,-0.0105 -0.1875,-0.0261 -0.2812,-0.0469c-0.0938,-0.0208 -0.1771,-0.0417 -0.25,-0.0625c-0.0729,-0.0208 -0.125,-0.0417 -0.1563,-0.0625zM735.64917,363.65622c-0.6875,-0.0208 -1.1771,-0.1718 -1.4687,-0.4531c-0.2813,-0.2812 -0.4219,-0.7135 -0.4219,-1.2969v-7.5l1.1094,-0.1875v7.5c0,0.1875 0.0156,0.3438 0.0469,0.4688c0.0312,0.1146 0.0833,0.2083 0.1562,0.2812c0.0729,0.073 0.1667,0.125 0.2813,0.1563c0.125,0.0312 0.276,0.0625 0.4531,0.0937zM742.56587,360.40622c0,0.5 -0.0729,0.9532 -0.2188,1.3594c-0.1458,0.3958 -0.3489,0.7396 -0.6094,1.0313c-0.2604,0.2812 -0.5729,0.5 -0.9375,0.6562c-0.3541,0.1563 -0.7395,0.2344 -1.1562,0.2344c-0.4271,0 -0.8229,-0.0781 -1.1875,-0.2344c-0.3542,-0.1562 -0.6615,-0.375 -0.9219,-0.6562c-0.2604,-0.2917 -0.4635,-0.6355 -0.6093,-1.0313c-0.1459,-0.4062 -0.2188,-0.8594 -0.2188,-1.3594c0,-0.4895 0.0729,-0.9322 0.2188,-1.3281c0.1458,-0.4062 0.3489,-0.75 0.6093,-1.0312c0.2604,-0.2917 0.5677,-0.5156 0.9219,-0.6719c0.3646,-0.1562 0.7604,-0.2344 1.1875,-0.2344c0.4167,0 0.8021,0.0782 1.1563,0.2344c0.3646,0.1563 0.6771,0.3802 0.9375,0.6719c0.2604,0.2812 0.4635,0.625 0.6093,1.0312c0.1459,0.3959 0.2188,0.8386 0.2188,1.3282zM741.39397,360.40622c0,-0.6979 -0.1563,-1.25 -0.4688,-1.6562c-0.3125,-0.4167 -0.7395,-0.625 -1.2812,-0.625c-0.5521,0 -0.9844,0.2083 -1.2969,0.625c-0.3125,0.4062 -0.4687,0.9583 -0.4687,1.6562c0,0.7084 0.1562,1.2709 0.4687,1.6875c0.3125,0.4063 0.7448,0.6094 1.2969,0.6094c0.5417,0 0.9687,-0.2031 1.2812,-0.6094c0.3125,-0.4166 0.4688,-0.9791 0.4688,-1.6875zM749.64587,360.40622c0,0.5 -0.0729,0.9532 -0.2187,1.3594c-0.1459,0.3958 -0.349,0.7396 -0.6094,1.0313c-0.2604,0.2812 -0.5729,0.5 -0.9375,0.6562c-0.3542,0.1563 -0.7396,0.2344 -1.1563,0.2344c-0.427,0 -0.8229,-0.0781 -1.1875,-0.2344c-0.3541,-0.1562 -0.6614,-0.375 -0.9218,-0.6562c-0.2604,-0.2917 -0.4636,-0.6355 -0.6094,-1.0313c-0.1458,-0.4062 -0.2187,-0.8594 -0.2187,-1.3594c0,-0.4895 0.0729,-0.9322 0.2187,-1.3281c0.1458,-0.4062 0.349,-0.75 0.6094,-1.0312c0.2604,-0.2917 0.5677,-0.5156 0.9219,-0.6719c0.3645,-0.1562 0.7604,-0.2344 1.1875,-0.2344c0.4166,0 0.802,0.0782 1.1562,0.2344c0.3646,0.1563 0.6771,0.3802 0.9375,0.6719c0.2604,0.2812 0.4635,0.625 0.6094,1.0312c0.1458,0.3959 0.2187,0.8386 0.2187,1.3282zM748.47397,360.40622c0,-0.6979 -0.1562,-1.25 -0.4687,-1.6562c-0.3125,-0.4167 -0.7396,-0.625 -1.2813,-0.625c-0.552,0 -0.9843,0.2083 -1.2968,0.625c-0.3125,0.4062 -0.4688,0.9583 -0.4688,1.6562c0,0.7084 0.1563,1.2709 0.4688,1.6875c0.3125,0.4063 0.7448,0.6094 1.2969,0.6094c0.5416,0 0.9687,-0.2031 1.2812,-0.6094c0.3125,-0.4166 0.4688,-0.9791 0.4688,-1.6875zM753.47597,360.09372c0.2395,0.1875 0.4895,0.4167 0.75,0.6875c0.2708,0.2709 0.5364,0.5677 0.7968,0.8907c0.2605,0.3125 0.5052,0.6302 0.7344,0.9531c0.2396,0.3229 0.4375,0.625 0.5938,0.9062h-1.3125c-0.1667,-0.2812 -0.3594,-0.5677 -0.5782,-0.8593c-0.2187,-0.2917 -0.4479,-0.5677 -0.6875,-0.8282c-0.2395,-0.2708 -0.4843,-0.5156 -0.7343,-0.7343c-0.25,-0.2292 -0.4844,-0.4219 -0.7031,-0.5781v3h-1.125v-9.125l1.125,-0.1875v5.6875c0.1875,-0.1875 0.3958,-0.3959 0.625,-0.625c0.2395,-0.2396 0.4687,-0.4792 0.6875,-0.7188c0.2291,-0.2396 0.4427,-0.4687 0.6406,-0.6875c0.1979,-0.2187 0.3698,-0.4115 0.5156,-0.5781h1.3125c-0.1875,0.1979 -0.3906,0.4167 -0.6094,0.6562c-0.2083,0.2396 -0.4322,0.4844 -0.6718,0.7344c-0.2292,0.2396 -0.4636,0.4844 -0.7031,0.7344c-0.2292,0.2396 -0.448,0.4635 -0.6563,0.6719zM762.68387,354.21872c0.3333,0 0.6146,0.0261 0.8437,0.0782c0.2396,0.0416 0.4063,0.0833 0.5,0.125l-0.2031,0.9687c-0.0937,-0.0521 -0.2291,-0.0989 -0.4062,-0.1406c-0.1771,-0.0521 -0.3907,-0.0781 -0.6407,-0.0781c-0.5208,0 -0.8854,0.1458 -1.0937,0.4375c-0.2083,0.2812 -0.3125,0.6614 -0.3125,1.1406v0.5469h2.3906v0.9375h-2.3906v5.2969h-1.125v-6.7969c0,-0.8021 0.1979,-1.4219 0.5938,-1.8594c0.3958,-0.4375 1.0104,-0.6562 1.8437,-0.6562zM770.39397,360.40622c0,0.5 -0.0729,0.9532 -0.2187,1.3594c-0.1458,0.3958 -0.349,0.7396 -0.6094,1.0313c-0.2604,0.2812 -0.5729,0.5 -0.9375,0.6562c-0.3541,0.1563 -0.7396,0.2344 -1.1562,0.2344c-0.4271,0 -0.8229,-0.0781 -1.1875,-0.2344c-0.3542,-0.1562 -0.6615,-0.375 -0.9219,-0.6562c-0.2604,-0.2917 -0.4635,-0.6355 -0.6094,-1.0313c-0.1458,-0.4062 -0.2187,-0.8594 -0.2187,-1.3594c0,-0.4895 0.0729,-0.9322 0.2187,-1.3281c0.1459,-0.4062 0.349,-0.75 0.6094,-1.0312c0.2604,-0.2917 0.5677,-0.5156 0.9219,-0.6719c0.3646,-0.1562 0.7604,-0.2344 1.1875,-0.2344c0.4167,0 0.8021,0.0782 1.1562,0.2344c0.3646,0.1563 0.6771,0.3802 0.9375,0.6719c0.2605,0.2812 0.4636,0.625 0.6094,1.0312c0.1459,0.3959 0.2188,0.8386 0.2188,1.3282zM769.22217,360.40622c0,-0.6979 -0.1563,-1.25 -0.4688,-1.6562c-0.3125,-0.4167 -0.7396,-0.625 -1.2812,-0.625c-0.5521,0 -0.9844,0.2083 -1.2969,0.625c-0.3125,0.4062 -0.4687,0.9583 -0.4687,1.6562c0,0.7084 0.1562,1.2709 0.4687,1.6875c0.3125,0.4063 0.7448,0.6094 1.2969,0.6094c0.5417,0 0.9687,-0.2031 1.2812,-0.6094c0.3125,-0.4166 0.4688,-0.9791 0.4688,-1.6875zM774.27097,357.15622c0.0937,0 0.2031,0.0052 0.3281,0.0157c0.125,0.0104 0.2448,0.026 0.3594,0.0468c0.125,0.0209 0.2344,0.0417 0.3281,0.0625c0.1042,0.0209 0.1823,0.0417 0.2344,0.0625l-0.2031,0.9688c-0.0834,-0.0313 -0.2292,-0.0677 -0.4375,-0.1094c-0.1979,-0.0521 -0.4584,-0.0781 -0.7813,-0.0781c-0.2083,0 -0.4166,0.026 -0.625,0.0781c-0.1979,0.0417 -0.3281,0.0677 -0.3906,0.0782v5.25h-1.125v-5.9688c0.2708,-0.1042 0.599,-0.1979 0.9844,-0.2812c0.3958,-0.0834 0.8385,-0.125 1.3281,-0.125zM781.48747,362.73442c0.2604,0 0.4896,-0.0052 0.6875,-0.0157c0.2084,-0.0208 0.3802,-0.0468 0.5157,-0.0781v-1.8594c-0.0834,-0.0416 -0.2136,-0.0729 -0.3907,-0.0937c-0.177,-0.0313 -0.3958,-0.0469 -0.6562,-0.0469c-0.1667,0 -0.3438,0.0157 -0.5313,0.0469c-0.1875,0.0208 -0.3593,0.0677 -0.5156,0.1406c-0.1562,0.073 -0.2864,0.1771 -0.3906,0.3125c-0.1042,0.125 -0.1563,0.2969 -0.1563,0.5157c0,0.4062 0.125,0.6875 0.375,0.8437c0.2605,0.1563 0.6146,0.2344 1.0625,0.2344zM781.37807,357.14062c0.448,0 0.8282,0.0573 1.1407,0.1719c0.3125,0.1146 0.5625,0.2812 0.75,0.5c0.1875,0.2083 0.3177,0.4583 0.3906,0.75c0.0833,0.2917 0.125,0.6094 0.125,0.9531v3.9063c-0.0937,0.0208 -0.2292,0.0468 -0.4062,0.0781c-0.1667,0.0208 -0.3594,0.0417 -0.5782,0.0625c-0.2187,0.0312 -0.4531,0.0521 -0.7031,0.0625c-0.25,0.0208 -0.5,0.0312 -0.75,0.0312c-0.3541,0 -0.6771,-0.0364 -0.9687,-0.1093c-0.2917,-0.0625 -0.5469,-0.1719 -0.7657,-0.3281c-0.2187,-0.1563 -0.3906,-0.3594 -0.5156,-0.6094c-0.1146,-0.2604 -0.1718,-0.5729 -0.1718,-0.9375c0,-0.3438 0.0677,-0.6406 0.2031,-0.8906c0.1458,-0.25 0.3385,-0.448 0.5781,-0.5938c0.2396,-0.1562 0.5156,-0.2708 0.8281,-0.3437c0.323,-0.073 0.6615,-0.1094 1.0157,-0.1094c0.1146,0 0.2291,0.0104 0.3437,0.0312c0.125,0.0105 0.2396,0.0261 0.3438,0.0469c0.1146,0.0104 0.2083,0.0261 0.2812,0.0469c0.0834,0.0208 0.1407,0.0313 0.1719,0.0313v-0.3125c0,-0.1771 -0.0208,-0.3542 -0.0625,-0.5313c-0.0417,-0.1875 -0.1146,-0.349 -0.2187,-0.4844c-0.0938,-0.1458 -0.2344,-0.2604 -0.4219,-0.3437c-0.1771,-0.0833 -0.4115,-0.125 -0.7031,-0.125c-0.3646,0 -0.6875,0.026 -0.9688,0.0781c-0.2708,0.0521 -0.4739,0.1042 -0.6094,0.1563l-0.1406,-0.9219c0.1459,-0.0625 0.3854,-0.1198 0.7188,-0.1719c0.3437,-0.0625 0.7083,-0.0937 1.0937,-0.0937zM785.62657,357.46872c0.2604,-0.0625 0.5989,-0.1302 1.0156,-0.2031c0.4271,-0.0729 0.9167,-0.1094 1.4687,-0.1094c0.5,0 0.9115,0.073 1.2344,0.2188c0.3334,0.1354 0.599,0.3281 0.7969,0.5781c0.1979,0.25 0.3333,0.5521 0.4063,0.9063c0.0833,0.3541 0.125,0.7448 0.125,1.1718v3.5h-1.1094v-3.2656c0,-0.3854 -0.0261,-0.7135 -0.0781,-0.9843c-0.0521,-0.2709 -0.1407,-0.4896 -0.2657,-0.6563c-0.1145,-0.1667 -0.276,-0.2865 -0.4843,-0.3594c-0.1979,-0.0833 -0.4427,-0.125 -0.7344,-0.125c-0.125,0 -0.25,0.0052 -0.375,0.0157c-0.125,0.0104 -0.25,0.0208 -0.375,0.0312c-0.1146,0.0104 -0.2187,0.0261 -0.3125,0.0469c-0.0833,0.0104 -0.1458,0.0208 -0.1875,0.0312v5.2657h-1.125zM796.54587,358.60942c-0.1355,-0.1146 -0.3334,-0.224 -0.5938,-0.3282c-0.25,-0.1041 -0.526,-0.1562 -0.8281,-0.1562c-0.3229,0 -0.599,0.0625 -0.8281,0.1875c-0.2188,0.1146 -0.4011,0.276 -0.5469,0.4844c-0.1458,0.1979 -0.25,0.4375 -0.3125,0.7187c-0.0625,0.2813 -0.0938,0.5781 -0.0938,0.8906c0,0.7292 0.1771,1.2917 0.5313,1.6875c0.3646,0.3959 0.8437,0.5938 1.4375,0.5938c0.3125,0 0.5677,-0.0104 0.7656,-0.0313c0.2084,-0.0312 0.3646,-0.0625 0.4688,-0.0937zM796.54587,354.40622l1.125,-0.1875v9.125c-0.2605,0.073 -0.5886,0.1459 -0.9844,0.2188c-0.3958,0.0729 -0.8542,0.1094 -1.375,0.1094c-0.4792,0 -0.9115,-0.073 -1.2969,-0.2188c-0.3854,-0.1562 -0.7135,-0.375 -0.9844,-0.6562c-0.2708,-0.2813 -0.4843,-0.6198 -0.6406,-1.0157c-0.1458,-0.4062 -0.2187,-0.8645 -0.2187,-1.375c0,-0.4791 0.0625,-0.9166 0.1875,-1.3125c0.125,-0.4062 0.3073,-0.75 0.5469,-1.0312c0.2395,-0.2917 0.5312,-0.5156 0.875,-0.6719c0.3541,-0.1667 0.7552,-0.25 1.2031,-0.25c0.3542,0 0.6667,0.0521 0.9375,0.1563c0.2812,0.0937 0.4896,0.1823 0.625,0.2656zM804.47967,362.73442c0.2604,0 0.4896,-0.0052 0.6875,-0.0157c0.2083,-0.0208 0.3802,-0.0468 0.5156,-0.0781v-1.8594c-0.0833,-0.0416 -0.2135,-0.0729 -0.3906,-0.0937c-0.1771,-0.0313 -0.3959,-0.0469 -0.6563,-0.0469c-0.1666,0 -0.3437,0.0157 -0.5312,0.0469c-0.1875,0.0208 -0.3594,0.0677 -0.5156,0.1406c-0.1563,0.073 -0.2865,0.1771 -0.3907,0.3125c-0.1041,0.125 -0.1562,0.2969 -0.1562,0.5157c0,0.4062 0.125,0.6875 0.375,0.8437c0.2604,0.1563 0.6146,0.2344 1.0625,0.2344zM804.37027,357.14062c0.4479,0 0.8281,0.0573 1.1406,0.1719c0.3125,0.1146 0.5625,0.2812 0.75,0.5c0.1875,0.2083 0.3177,0.4583 0.3907,0.75c0.0833,0.2917 0.125,0.6094 0.125,0.9531v3.9063c-0.0938,0.0208 -0.2292,0.0468 -0.4063,0.0781c-0.1667,0.0208 -0.3594,0.0417 -0.5781,0.0625c-0.2188,0.0312 -0.4531,0.0521 -0.7031,0.0625c-0.25,0.0208 -0.5,0.0312 -0.75,0.0312c-0.3542,0 -0.6771,-0.0364 -0.9688,-0.1093c-0.2916,-0.0625 -0.5469,-0.1719 -0.7656,-0.3281c-0.2188,-0.1563 -0.3906,-0.3594 -0.5156,-0.6094c-0.1146,-0.2604 -0.1719,-0.5729 -0.1719,-0.9375c0,-0.3438 0.0677,-0.6406 0.2031,-0.8906c0.1459,-0.25 0.3386,-0.448 0.5782,-0.5938c0.2395,-0.1562 0.5156,-0.2708 0.8281,-0.3437c0.3229,-0.073 0.6614,-0.1094 1.0156,-0.1094c0.1146,0 0.2292,0.0104 0.3438,0.0312c0.125,0.0105 0.2396,0.0261 0.3437,0.0469c0.1146,0.0104 0.2084,0.0261 0.2813,0.0469c0.0833,0.0208 0.1406,0.0313 0.1718,0.0313v-0.3125c0,-0.1771 -0.0208,-0.3542 -0.0625,-0.5313c-0.0416,-0.1875 -0.1145,-0.349 -0.2187,-0.4844c-0.0938,-0.1458 -0.2344,-0.2604 -0.4219,-0.3437c-0.1771,-0.0833 -0.4114,-0.125 -0.7031,-0.125c-0.3646,0 -0.6875,0.026 -0.9687,0.0781c-0.2709,0.0521 -0.474,0.1042 -0.6094,0.1563l-0.1406,-0.9219c0.1458,-0.0625 0.3854,-0.1198 0.7187,-0.1719c0.3438,-0.0625 0.7084,-0.0937 1.0938,-0.0937zM810.49367,363.65622c-0.6875,-0.0208 -1.1771,-0.1718 -1.4687,-0.4531c-0.2813,-0.2812 -0.4219,-0.7135 -0.4219,-1.2969v-7.5l1.1094,-0.1875v7.5c0,0.1875 0.0156,0.3438 0.0469,0.4688c0.0312,0.1146 0.0833,0.2083 0.1562,0.2812c0.0729,0.073 0.1667,0.125 0.2813,0.1563c0.125,0.0312 0.276,0.0625 0.4531,0.0937zM811.55097,360.42192c0,-0.5521 0.0781,-1.0313 0.2344,-1.4375c0.1666,-0.4167 0.3802,-0.7605 0.6406,-1.0313c0.2708,-0.2708 0.5781,-0.4739 0.9219,-0.6094c0.3437,-0.1354 0.6927,-0.2031 1.0469,-0.2031c0.8437,0 1.4896,0.2604 1.9375,0.7813c0.4479,0.5208 0.6718,1.3177 0.6718,2.3906c0,0.0521 0,0.1146 0,0.1875c0,0.0729 -0.0052,0.1458 -0.0156,0.2187h-4.2656c0.0417,0.6459 0.224,1.1355 0.5469,1.4688c0.3333,0.3333 0.8489,0.5 1.5469,0.5c0.3958,0 0.7239,-0.0313 0.9843,-0.0938c0.2709,-0.0729 0.474,-0.1406 0.6094,-0.2031l0.1563,0.9375c-0.1354,0.0729 -0.375,0.1459 -0.7188,0.2188c-0.3333,0.0833 -0.7187,0.125 -1.1562,0.125c-0.5417,0 -1.0104,-0.0781 -1.4063,-0.2344c-0.3958,-0.1667 -0.7239,-0.3958 -0.9844,-0.6875c-0.25,-0.2917 -0.4375,-0.6354 -0.5625,-1.0312c-0.125,-0.3959 -0.1875,-0.8282 -0.1875,-1.2969zM815.83217,359.81252c0.0105,-0.5 -0.1145,-0.9115 -0.375,-1.2344c-0.2604,-0.3333 -0.6197,-0.5 -1.0781,-0.5c-0.25,0 -0.4739,0.0521 -0.6718,0.1563c-0.198,0.1041 -0.3646,0.2343 -0.5,0.3906c-0.1355,0.1562 -0.2396,0.3385 -0.3125,0.5469c-0.073,0.2083 -0.125,0.4218 -0.1563,0.6406zM820.91527,357.15622c0.0937,0 0.2031,0.0052 0.3281,0.0157c0.125,0.0104 0.2448,0.026 0.3594,0.0468c0.125,0.0209 0.2344,0.0417 0.3281,0.0625c0.1042,0.0209 0.1823,0.0417 0.2344,0.0625l-0.2031,0.9688c-0.0834,-0.0313 -0.2292,-0.0677 -0.4375,-0.1094c-0.1979,-0.0521 -0.4584,-0.0781 -0.7813,-0.0781c-0.2083,0 -0.4166,0.026 -0.625,0.0781c-0.1979,0.0417 -0.3281,0.0677 -0.3906,0.0782v5.25h-1.125v-5.9688c0.2708,-0.1042 0.599,-0.1979 0.9844,-0.2812c0.3958,-0.0834 0.8385,-0.125 1.3281,-0.125zM824.28167,357.29692h2.375v0.9375h-2.375v2.875c0,0.3125 0.0208,0.5729 0.0625,0.7812c0.0521,0.1979 0.125,0.3542 0.2187,0.4688c0.1042,0.1145 0.2292,0.1979 0.375,0.25c0.1459,0.0416 0.3125,0.0625 0.5,0.0625c0.3334,0 0.599,-0.0365 0.7969,-0.1094c0.2084,-0.0729 0.3542,-0.125 0.4375,-0.1563l0.2188,0.9219c-0.1146,0.0521 -0.3125,0.1198 -0.5938,0.2031c-0.2812,0.0834 -0.5989,0.125 -0.9531,0.125c-0.4271,0 -0.7812,-0.052 -1.0625,-0.1562c-0.2708,-0.1042 -0.4896,-0.2656 -0.6562,-0.4844c-0.1667,-0.2187 -0.2865,-0.4843 -0.3594,-0.7968c-0.0625,-0.3125 -0.0938,-0.6771 -0.0938,-1.0938v-5.5781l1.1094,-0.1875zM830.11207,364.68752c0.0834,0.0417 0.1927,0.0781 0.3281,0.1094c0.1459,0.0416 0.2865,0.0625 0.4219,0.0625c0.4375,0 0.7813,-0.099 1.0313,-0.2969c0.25,-0.1875 0.4739,-0.5052 0.6718,-0.9531c-0.5,-0.9584 -0.9687,-1.974 -1.4062,-3.0469c-0.4375,-1.0729 -0.8021,-2.1615 -1.0938,-3.2656h1.2032c0.0937,0.3541 0.1979,0.7396 0.3125,1.1562c0.125,0.4167 0.2656,0.849 0.4219,1.2969c0.1562,0.4375 0.3177,0.875 0.4843,1.3125c0.1771,0.4375 0.3646,0.8594 0.5625,1.2656c0.3021,-0.8333 0.5625,-1.6614 0.7813,-2.4843c0.2291,-0.8334 0.4427,-1.6823 0.6406,-2.5469h1.1563c-0.2917,1.1771 -0.6146,2.3073 -0.9688,3.3906c-0.3437,1.0834 -0.7239,2.0938 -1.1406,3.0313c-0.1563,0.3646 -0.3229,0.6771 -0.5,0.9375c-0.1667,0.2604 -0.3542,0.4739 -0.5625,0.6406c-0.2083,0.1667 -0.4427,0.2865 -0.7031,0.3594c-0.2604,0.0833 -0.5521,0.125 -0.875,0.125c-0.0938,0 -0.1875,-0.0052 -0.2813,-0.0156c-0.0937,-0.0105 -0.1875,-0.0261 -0.2812,-0.0469c-0.0938,-0.0208 -0.1771,-0.0417 -0.25,-0.0625c-0.0729,-0.0208 -0.125,-0.0417 -0.1563,-0.0625zM842.31047,360.40622c0,0.5 -0.0729,0.9532 -0.2187,1.3594c-0.1458,0.3958 -0.349,0.7396 -0.6094,1.0313c-0.2604,0.2812 -0.5729,0.5 -0.9375,0.6562c-0.3541,0.1563 -0.7396,0.2344 -1.1562,0.2344c-0.4271,0 -0.8229,-0.0781 -1.1875,-0.2344c-0.3542,-0.1562 -0.6615,-0.375 -0.9219,-0.6562c-0.2604,-0.2917 -0.4635,-0.6355 -0.6094,-1.0313c-0.1458,-0.4062 -0.2187,-0.8594 -0.2187,-1.3594c0,-0.4895 0.0729,-0.9322 0.2187,-1.3281c0.1459,-0.4062 0.349,-0.75 0.6094,-1.0312c0.2604,-0.2917 0.5677,-0.5156 0.9219,-0.6719c0.3646,-0.1562 0.7604,-0.2344 1.1875,-0.2344c0.4166,0 0.8021,0.0782 1.1562,0.2344c0.3646,0.1563 0.6771,0.3802 0.9375,0.6719c0.2604,0.2812 0.4636,0.625 0.6094,1.0312c0.1459,0.3959 0.2188,0.8386 0.2188,1.3282zM841.13867,360.40622c0,-0.6979 -0.1563,-1.25 -0.4688,-1.6562c-0.3125,-0.4167 -0.7396,-0.625 -1.2812,-0.625c-0.5521,0 -0.9844,0.2083 -1.2969,0.625c-0.3125,0.4062 -0.4688,0.9583 -0.4688,1.6562c0,0.7084 0.1563,1.2709 0.4688,1.6875c0.3125,0.4063 0.7448,0.6094 1.2969,0.6094c0.5416,0 0.9687,-0.2031 1.2812,-0.6094c0.3125,-0.4166 0.4688,-0.9791 0.4688,-1.6875zM848.84367,363.34372c-0.25,0.073 -0.5885,0.1407 -1.0156,0.2032c-0.4167,0.0729 -0.9011,0.1093 -1.4531,0.1093c-0.4792,0 -0.8854,-0.0677 -1.2188,-0.2031c-0.3229,-0.1354 -0.5833,-0.3333 -0.7812,-0.5937c-0.1979,-0.2605 -0.3438,-0.5625 -0.4375,-0.9063c-0.0834,-0.3437 -0.125,-0.7292 -0.125,-1.1562v-3.5h1.1093v3.2656c0,0.75 0.1198,1.2917 0.3594,1.625c0.2396,0.3229 0.6459,0.4844 1.2188,0.4844c0.1146,0 0.2344,0 0.3594,0c0.1354,-0.0104 0.2552,-0.0209 0.3593,-0.0313c0.1146,-0.0104 0.2188,-0.0208 0.3125,-0.0312c0.0938,-0.0209 0.1615,-0.0365 0.2032,-0.0469v-5.2656h1.1093zM859.05057,360.40622c0,0.5 -0.0729,0.9532 -0.2187,1.3594c-0.1458,0.3958 -0.349,0.7396 -0.6094,1.0313c-0.2604,0.2812 -0.5729,0.5 -0.9375,0.6562c-0.3541,0.1563 -0.7396,0.2344 -1.1562,0.2344c-0.4271,0 -0.8229,-0.0781 -1.1875,-0.2344c-0.3542,-0.1562 -0.6615,-0.375 -0.9219,-0.6562c-0.2604,-0.2917 -0.4635,-0.6355 -0.6094,-1.0313c-0.1458,-0.4062 -0.2187,-0.8594 -0.2187,-1.3594c0,-0.4895 0.0729,-0.9322 0.2187,-1.3281c0.1459,-0.4062 0.349,-0.75 0.6094,-1.0312c0.2604,-0.2917 0.5677,-0.5156 0.9219,-0.6719c0.3646,-0.1562 0.7604,-0.2344 1.1875,-0.2344c0.4167,0 0.8021,0.0782 1.1562,0.2344c0.3646,0.1563 0.6771,0.3802 0.9375,0.6719c0.2605,0.2812 0.4636,0.625 0.6094,1.0312c0.1459,0.3959 0.2188,0.8386 0.2188,1.3282zM857.87877,360.40622c0,-0.6979 -0.1563,-1.25 -0.4688,-1.6562c-0.3125,-0.4167 -0.7396,-0.625 -1.2812,-0.625c-0.5521,0 -0.9844,0.2083 -1.2969,0.625c-0.3125,0.4062 -0.4687,0.9583 -0.4687,1.6562c0,0.7084 0.1562,1.2709 0.4687,1.6875c0.3125,0.4063 0.7448,0.6094 1.2969,0.6094c0.5416,0 0.9687,-0.2031 1.2812,-0.6094c0.3125,-0.4166 0.4688,-0.9791 0.4688,-1.6875zM863.05257,354.21872c0.3333,0 0.6146,0.0261 0.8437,0.0782c0.2396,0.0416 0.4063,0.0833 0.5,0.125l-0.2031,0.9687c-0.0937,-0.0521 -0.2291,-0.0989 -0.4062,-0.1406c-0.1771,-0.0521 -0.3907,-0.0781 -0.6407,-0.0781c-0.5208,0 -0.8854,0.1458 -1.0937,0.4375c-0.2084,0.2812 -0.3125,0.6614 -0.3125,1.1406v0.5469h2.3906v0.9375h-2.3906v5.2969h-1.125v-6.7969c0,-0.8021 0.1979,-1.4219 0.5937,-1.8594c0.3959,-0.4375 1.0105,-0.6562 1.8438,-0.6562zM869.14407,363.53122h-1.125v-6.2343h1.125zM868.58157,356.15622c-0.1979,0 -0.3698,-0.0625 -0.5156,-0.1875c-0.1354,-0.1354 -0.2031,-0.3125 -0.2031,-0.5312c0,-0.2292 0.0677,-0.4063 0.2031,-0.5313c0.1459,-0.1354 0.3177,-0.2031 0.5156,-0.2031c0.198,0 0.3646,0.0677 0.5,0.2031c0.1459,0.125 0.2188,0.3021 0.2188,0.5313c0,0.2187 -0.0729,0.3958 -0.2188,0.5312c-0.1354,0.125 -0.302,0.1875 -0.5,0.1875zM872.50827,362.73442c0.4583,0 0.7968,-0.0573 1.0156,-0.1719c0.2187,-0.125 0.3281,-0.3229 0.3281,-0.5938c0,-0.2708 -0.1094,-0.4843 -0.3281,-0.6406c-0.2083,-0.1667 -0.5625,-0.3489 -1.0625,-0.5469c-0.2396,-0.0937 -0.4688,-0.1875 -0.6875,-0.2812c-0.2188,-0.1042 -0.4115,-0.224 -0.5781,-0.3594c-0.1563,-0.1354 -0.2813,-0.2968 -0.375,-0.4843c-0.0938,-0.198 -0.1406,-0.4375 -0.1406,-0.7188c0,-0.5521 0.2031,-0.9896 0.6093,-1.3125c0.4063,-0.3229 0.9636,-0.4844 1.6719,-0.4844c0.1771,0 0.349,0.0105 0.5156,0.0313c0.1771,0.0104 0.3438,0.0312 0.5,0.0625c0.1563,0.0312 0.2917,0.0625 0.4063,0.0937c0.1146,0.0313 0.2031,0.0573 0.2656,0.0782l-0.2031,0.9687c-0.125,-0.0625 -0.3177,-0.125 -0.5781,-0.1875c-0.25,-0.0729 -0.5521,-0.1094 -0.9063,-0.1094c-0.3125,0 -0.5885,0.0625 -0.8281,0.1875c-0.2291,0.1146 -0.3437,0.3073 -0.3437,0.5782c0,0.1354 0.026,0.2552 0.0781,0.3594c0.0521,0.1041 0.1302,0.1979 0.2344,0.2812c0.1146,0.0833 0.25,0.1615 0.4062,0.2344c0.1667,0.0729 0.3594,0.1458 0.5782,0.2187c0.302,0.1146 0.5677,0.2292 0.7968,0.3438c0.2292,0.1042 0.4271,0.2292 0.5938,0.375c0.1666,0.1458 0.2916,0.3229 0.375,0.5312c0.0937,0.198 0.1406,0.4427 0.1406,0.7344c0,0.5729 -0.2187,1.0104 -0.6562,1.3125c-0.4271,0.2917 -1.0365,0.4375 -1.8282,0.4375c-0.552,0 -0.9843,-0.0469 -1.2968,-0.1406c-0.3125,-0.0833 -0.5209,-0.151 -0.625,-0.2031l0.2031,-0.9531c0.125,0.0416 0.3281,0.1145 0.6094,0.2187c0.2812,0.0938 0.651,0.1406 1.1094,0.1406zM877.86027,362.73442c0.4584,0 0.7969,-0.0573 1.0156,-0.1719c0.2188,-0.125 0.3282,-0.3229 0.3282,-0.5938c0,-0.2708 -0.1094,-0.4843 -0.3282,-0.6406c-0.2083,-0.1667 -0.5625,-0.3489 -1.0625,-0.5469c-0.2395,-0.0937 -0.4687,-0.1875 -0.6875,-0.2812c-0.2187,-0.1042 -0.4114,-0.224 -0.5781,-0.3594c-0.1562,-0.1354 -0.2812,-0.2968 -0.375,-0.4843c-0.0937,-0.198 -0.1406,-0.4375 -0.1406,-0.7188c0,-0.5521 0.2031,-0.9896 0.6094,-1.3125c0.4062,-0.3229 0.9635,-0.4844 1.6719,-0.4844c0.1771,0 0.3489,0.0105 0.5156,0.0313c0.1771,0.0104 0.3437,0.0312 0.5,0.0625c0.1562,0.0312 0.2917,0.0625 0.4062,0.0937c0.1146,0.0313 0.2032,0.0573 0.2657,0.0782l-0.2031,0.9687c-0.125,-0.0625 -0.3178,-0.125 -0.5782,-0.1875c-0.25,-0.0729 -0.5521,-0.1094 -0.9062,-0.1094c-0.3125,0 -0.5886,0.0625 -0.8281,0.1875c-0.2292,0.1146 -0.3438,0.3073 -0.3438,0.5782c0,0.1354 0.0261,0.2552 0.0781,0.3594c0.0521,0.1041 0.1303,0.1979 0.2344,0.2812c0.1146,0.0833 0.25,0.1615 0.4063,0.2344c0.1666,0.0729 0.3594,0.1458 0.5781,0.2187c0.3021,0.1146 0.5677,0.2292 0.7969,0.3438c0.2291,0.1042 0.4271,0.2292 0.5937,0.375c0.1667,0.1458 0.2917,0.3229 0.375,0.5312c0.0938,0.198 0.1407,0.4427 0.1407,0.7344c0,0.5729 -0.2188,1.0104 -0.6563,1.3125c-0.4271,0.2917 -1.0364,0.4375 -1.8281,0.4375c-0.5521,0 -0.9844,-0.0469 -1.2969,-0.1406c-0.3125,-0.0833 -0.5208,-0.151 -0.625,-0.2031l0.2032,-0.9531c0.125,0.0416 0.3281,0.1145 0.6093,0.2187c0.2813,0.0938 0.6511,0.1406 1.1094,0.1406zM886.72797,363.34372c-0.25,0.073 -0.5885,0.1407 -1.0156,0.2032c-0.4167,0.0729 -0.9011,0.1093 -1.4531,0.1093c-0.4792,0 -0.8855,-0.0677 -1.2188,-0.2031c-0.3229,-0.1354 -0.5833,-0.3333 -0.7812,-0.5937c-0.198,-0.2605 -0.3438,-0.5625 -0.4375,-0.9063c-0.0834,-0.3437 -0.125,-0.7292 -0.125,-1.1562v-3.5h1.1093v3.2656c0,0.75 0.1198,1.2917 0.3594,1.625c0.2396,0.3229 0.6459,0.4844 1.2188,0.4844c0.1146,0 0.2343,0 0.3593,0c0.1354,-0.0104 0.2553,-0.0209 0.3594,-0.0313c0.1146,-0.0104 0.2188,-0.0208 0.3125,-0.0312c0.0938,-0.0209 0.1615,-0.0365 0.2031,-0.0469v-5.2656h1.1094zM888.30347,360.42192c0,-0.5521 0.0782,-1.0313 0.2344,-1.4375c0.1667,-0.4167 0.3802,-0.7605 0.6406,-1.0313c0.2709,-0.2708 0.5782,-0.4739 0.9219,-0.6094c0.3438,-0.1354 0.6927,-0.2031 1.0469,-0.2031c0.8437,0 1.4896,0.2604 1.9375,0.7813c0.4479,0.5208 0.6719,1.3177 0.6719,2.3906c0,0.0521 0,0.1146 0,0.1875c0,0.0729 -0.0052,0.1458 -0.0157,0.2187h-4.2656c0.0417,0.6459 0.224,1.1355 0.5469,1.4688c0.3333,0.3333 0.849,0.5 1.5469,0.5c0.3958,0 0.7239,-0.0313 0.9844,-0.0938c0.2708,-0.0729 0.4739,-0.1406 0.6093,-0.2031l0.1563,0.9375c-0.1354,0.0729 -0.375,0.1459 -0.7188,0.2188c-0.3333,0.0833 -0.7187,0.125 -1.1562,0.125c-0.5417,0 -1.0104,-0.0781 -1.4063,-0.2344c-0.3958,-0.1667 -0.7239,-0.3958 -0.9843,-0.6875c-0.25,-0.2917 -0.4375,-0.6354 -0.5625,-1.0312c-0.125,-0.3959 -0.1875,-0.8282 -0.1875,-1.2969zM892.58477,359.81252c0.0104,-0.5 -0.1146,-0.9115 -0.375,-1.2344c-0.2604,-0.3333 -0.6198,-0.5 -1.0781,-0.5c-0.25,0 -0.474,0.0521 -0.6719,0.1563c-0.1979,0.1041 -0.3646,0.2343 -0.5,0.3906c-0.1354,0.1562 -0.2396,0.3385 -0.3125,0.5469c-0.0729,0.2083 -0.125,0.4218 -0.1563,0.6406zM896.80837,362.73442c0.4584,0 0.7969,-0.0573 1.0157,-0.1719c0.2187,-0.125 0.3281,-0.3229 0.3281,-0.5938c0,-0.2708 -0.1094,-0.4843 -0.3281,-0.6406c-0.2084,-0.1667 -0.5625,-0.3489 -1.0625,-0.5469c-0.2396,-0.0937 -0.4688,-0.1875 -0.6875,-0.2812c-0.2188,-0.1042 -0.4115,-0.224 -0.5782,-0.3594c-0.1562,-0.1354 -0.2812,-0.2968 -0.375,-0.4843c-0.0937,-0.198 -0.1406,-0.4375 -0.1406,-0.7188c0,-0.5521 0.2032,-0.9896 0.6094,-1.3125c0.4063,-0.3229 0.9635,-0.4844 1.6719,-0.4844c0.1771,0 0.3489,0.0105 0.5156,0.0313c0.1771,0.0104 0.3438,0.0312 0.5,0.0625c0.1563,0.0312 0.2917,0.0625 0.4063,0.0937c0.1146,0.0313 0.2031,0.0573 0.2656,0.0782l-0.2031,0.9687c-0.125,-0.0625 -0.3177,-0.125 -0.5781,-0.1875c-0.25,-0.0729 -0.5521,-0.1094 -0.9063,-0.1094c-0.3125,0 -0.5885,0.0625 -0.8281,0.1875c-0.2292,0.1146 -0.3438,0.3073 -0.3438,0.5782c0,0.1354 0.0261,0.2552 0.0782,0.3594c0.0521,0.1041 0.1302,0.1979 0.2343,0.2812c0.1146,0.0833 0.25,0.1615 0.4063,0.2344c0.1667,0.0729 0.3594,0.1458 0.5781,0.2187c0.3021,0.1146 0.5677,0.2292 0.7969,0.3438c0.2292,0.1042 0.4271,0.2292 0.5938,0.375c0.1666,0.1458 0.2916,0.3229 0.375,0.5312c0.0937,0.198 0.1406,0.4427 0.1406,0.7344c0,0.5729 -0.2188,1.0104 -0.6563,1.3125c-0.4271,0.2917 -1.0364,0.4375 -1.8281,0.4375c-0.5521,0 -0.9844,-0.0469 -1.2969,-0.1406c-0.3125,-0.0833 -0.5208,-0.151 -0.625,-0.2031l0.2032,-0.9531c0.125,0.0416 0.3281,0.1145 0.6094,0.2187c0.2812,0.0938 0.651,0.1406 1.1093,0.1406zM908.58877,363.53122c-0.2292,-0.5729 -0.4688,-1.2291 -0.7188,-1.9687c-0.25,-0.7396 -0.4791,-1.5104 -0.6875,-2.3125c-0.2083,0.8021 -0.4375,1.5729 -0.6875,2.3125c-0.25,0.7396 -0.4843,1.3958 -0.7031,1.9687h-0.9687c-0.375,-0.8229 -0.7396,-1.7604 -1.0938,-2.8125c-0.3437,-1.0625 -0.6719,-2.2031 -0.9844,-3.4218h1.2032c0.0729,0.375 0.1666,0.7812 0.2812,1.2187c0.1146,0.4375 0.2344,0.8802 0.3594,1.3281c0.125,0.4375 0.2552,0.8594 0.3906,1.2657c0.1354,0.4062 0.2604,0.7604 0.375,1.0625c0.1354,-0.375 0.2709,-0.7709 0.4063,-1.1875c0.1354,-0.4271 0.2604,-0.8542 0.375,-1.2813c0.125,-0.4271 0.2396,-0.8437 0.3437,-1.25c0.1042,-0.4167 0.1979,-0.8021 0.2813,-1.1562h0.9218c0.073,0.3541 0.1615,0.7395 0.2657,1.1562c0.1041,0.4063 0.2135,0.8229 0.3281,1.25c0.125,0.4271 0.2552,0.8542 0.3906,1.2813c0.1354,0.4166 0.2709,0.8125 0.4063,1.1875c0.1146,-0.3021 0.2344,-0.6563 0.3594,-1.0625c0.1354,-0.4063 0.2656,-0.8282 0.3906,-1.2657c0.1354,-0.4479 0.2604,-0.8906 0.375,-1.3281c0.1146,-0.4375 0.2083,-0.8437 0.2812,-1.2187h1.1563c-0.3125,1.2187 -0.6458,2.3594 -1,3.4219c-0.3542,1.052 -0.7135,1.9895 -1.0781,2.8125zM913.92847,363.53122h-1.125v-6.2343h1.125zM913.36597,356.15622c-0.1979,0 -0.3698,-0.0625 -0.5157,-0.1875c-0.1354,-0.1354 -0.2031,-0.3125 -0.2031,-0.5312c0,-0.2292 0.0677,-0.4063 0.2032,-0.5313c0.1458,-0.1354 0.3177,-0.2031 0.5156,-0.2031c0.1979,0 0.3646,0.0677 0.5,0.2031c0.1458,0.125 0.2187,0.3021 0.2187,0.5313c0,0.2187 -0.0729,0.3958 -0.2187,0.5312c-0.1354,0.125 -0.3021,0.1875 -0.5,0.1875zM916.88637,357.29692h2.375v0.9375h-2.375v2.875c0,0.3125 0.0208,0.5729 0.0625,0.7812c0.0521,0.1979 0.125,0.3542 0.2187,0.4688c0.1042,0.1145 0.2292,0.1979 0.375,0.25c0.1459,0.0416 0.3125,0.0625 0.5,0.0625c0.3334,0 0.599,-0.0365 0.7969,-0.1094c0.2084,-0.0729 0.3542,-0.125 0.4375,-0.1563l0.2188,0.9219c-0.1146,0.0521 -0.3125,0.1198 -0.5938,0.2031c-0.2812,0.0834 -0.599,0.125 -0.9531,0.125c-0.4271,0 -0.7813,-0.052 -1.0625,-0.1562c-0.2709,-0.1042 -0.4896,-0.2656 -0.6563,-0.4844c-0.1666,-0.2187 -0.2864,-0.4843 -0.3593,-0.7968c-0.0625,-0.3125 -0.0938,-0.6771 -0.0938,-1.0938v-5.5781l1.1094,-0.1875zM920.66347,363.53122v-9.125l1.125,-0.1875v3.1875c0.2084,-0.0729 0.4271,-0.1302 0.6563,-0.1718c0.2396,-0.0521 0.474,-0.0782 0.7031,-0.0782c0.5,0 0.9115,0.073 1.2344,0.2188c0.3333,0.1354 0.599,0.3281 0.7969,0.5781c0.1979,0.25 0.3333,0.5521 0.4062,0.9063c0.0834,0.3541 0.125,0.7448 0.125,1.1718v3.5h-1.1093v-3.2656c0,-0.3854 -0.0261,-0.7135 -0.0782,-0.9843c-0.0521,-0.2709 -0.1406,-0.4896 -0.2656,-0.6563c-0.1146,-0.1667 -0.276,-0.2865 -0.4844,-0.3594c-0.1979,-0.0833 -0.4427,-0.125 -0.7343,-0.125c-0.125,0 -0.25,0.0105 -0.375,0.0313c-0.125,0.0104 -0.25,0.026 -0.375,0.0469c-0.1146,0.0208 -0.2188,0.0468 -0.3125,0.0781c-0.0834,0.0208 -0.1459,0.0365 -0.1875,0.0469v5.1875zM929.56887,364.68752c0.0833,0.0417 0.1927,0.0781 0.3281,0.1094c0.1458,0.0416 0.2865,0.0625 0.4219,0.0625c0.4375,0 0.7812,-0.099 1.0312,-0.2969c0.25,-0.1875 0.474,-0.5052 0.6719,-0.9531c-0.5,-0.9584 -0.9687,-1.974 -1.4062,-3.0469c-0.4375,-1.0729 -0.8021,-2.1615 -1.0938,-3.2656h1.2031c0.0938,0.3541 0.1979,0.7396 0.3125,1.1562c0.125,0.4167 0.2657,0.849 0.4219,1.2969c0.1563,0.4375 0.3177,0.875 0.4844,1.3125c0.1771,0.4375 0.3646,0.8594 0.5625,1.2656c0.3021,-0.8333 0.5625,-1.6614 0.7812,-2.4843c0.2292,-0.8334 0.4428,-1.6823 0.6407,-2.5469h1.1562c-0.2916,1.1771 -0.6146,2.3073 -0.9687,3.3906c-0.3438,1.0834 -0.724,2.0938 -1.1406,3.0313c-0.1563,0.3646 -0.323,0.6771 -0.5,0.9375c-0.1667,0.2604 -0.3542,0.4739 -0.5625,0.6406c-0.2084,0.1667 -0.4428,0.2865 -0.7032,0.3594c-0.2604,0.0833 -0.5521,0.125 -0.875,0.125c-0.0937,0 -0.1875,-0.0052 -0.2812,-0.0156c-0.0938,-0.0105 -0.1875,-0.0261 -0.2813,-0.0469c-0.0937,-0.0208 -0.1771,-0.0417 -0.25,-0.0625c-0.0729,-0.0208 -0.125,-0.0417 -0.1562,-0.0625zM941.76727,360.40622c0,0.5 -0.0729,0.9532 -0.2187,1.3594c-0.1459,0.3958 -0.349,0.7396 -0.6094,1.0313c-0.2604,0.2812 -0.5729,0.5 -0.9375,0.6562c-0.3542,0.1563 -0.7396,0.2344 -1.1563,0.2344c-0.4271,0 -0.8229,-0.0781 -1.1875,-0.2344c-0.3541,-0.1562 -0.6614,-0.375 -0.9218,-0.6562c-0.2604,-0.2917 -0.4636,-0.6355 -0.6094,-1.0313c-0.1458,-0.4062 -0.2188,-0.8594 -0.2188,-1.3594c0,-0.4895 0.073,-0.9322 0.2188,-1.3281c0.1458,-0.4062 0.349,-0.75 0.6094,-1.0312c0.2604,-0.2917 0.5677,-0.5156 0.9218,-0.6719c0.3646,-0.1562 0.7605,-0.2344 1.1875,-0.2344c0.4167,0 0.8021,0.0782 1.1563,0.2344c0.3646,0.1563 0.6771,0.3802 0.9375,0.6719c0.2604,0.2812 0.4635,0.625 0.6094,1.0312c0.1458,0.3959 0.2187,0.8386 0.2187,1.3282zM940.59537,360.40622c0,-0.6979 -0.1562,-1.25 -0.4687,-1.6562c-0.3125,-0.4167 -0.7396,-0.625 -1.2813,-0.625c-0.5521,0 -0.9844,0.2083 -1.2969,0.625c-0.3125,0.4062 -0.4687,0.9583 -0.4687,1.6562c0,0.7084 0.1562,1.2709 0.4687,1.6875c0.3125,0.4063 0.7448,0.6094 1.2969,0.6094c0.5417,0 0.9688,-0.2031 1.2813,-0.6094c0.3125,-0.4166 0.4687,-0.9791 0.4687,-1.6875zM948.30047,363.34372c-0.25,0.073 -0.5886,0.1407 -1.0157,0.2032c-0.4166,0.0729 -0.901,0.1093 -1.4531,0.1093c-0.4791,0 -0.8854,-0.0677 -1.2187,-0.2031c-0.3229,-0.1354 -0.5834,-0.3333 -0.7813,-0.5937c-0.1979,-0.2605 -0.3437,-0.5625 -0.4375,-0.9063c-0.0833,-0.3437 -0.125,-0.7292 -0.125,-1.1562v-3.5h1.1094v3.2656c0,0.75 0.1198,1.2917 0.3594,1.625c0.2396,0.3229 0.6458,0.4844 1.2187,0.4844c0.1146,0 0.2344,0 0.3594,0c0.1354,-0.0104 0.2552,-0.0209 0.3594,-0.0313c0.1146,-0.0104 0.2187,-0.0208 0.3125,-0.0312c0.0937,-0.0209 0.1615,-0.0365 0.2031,-0.0469v-5.2656h1.1094zM952.53227,357.15622c0.0937,0 0.2031,0.0052 0.3281,0.0157c0.125,0.0104 0.2448,0.026 0.3594,0.0468c0.125,0.0209 0.2343,0.0417 0.3281,0.0625c0.1042,0.0209 0.1823,0.0417 0.2344,0.0625l-0.2032,0.9688c-0.0833,-0.0313 -0.2291,-0.0677 -0.4375,-0.1094c-0.1979,-0.0521 -0.4583,-0.0781 -0.7812,-0.0781c-0.2083,0 -0.4167,0.026 -0.625,0.0781c-0.1979,0.0417 -0.3281,0.0677 -0.3906,0.0782v5.25h-1.125v-5.9688c0.2708,-0.1042 0.5989,-0.1979 0.9844,-0.2812c0.3958,-0.0834 0.8385,-0.125 1.3281,-0.125zM959.90507,355.12502c1.1666,0 2.0625,0.2239 2.6875,0.6719c0.6354,0.4479 0.9531,1.1093 0.9531,1.9843c0,0.4792 -0.0886,0.8907 -0.2656,1.2344c-0.1667,0.3333 -0.4115,0.6094 -0.7344,0.8281c-0.3229,0.2084 -0.7188,0.3646 -1.1875,0.4688c-0.4584,0.0937 -0.9792,0.1406 -1.5625,0.1406h-0.9219v3.0782h-1.1719v-8.2032c0.3334,-0.0729 0.698,-0.125 1.0938,-0.1562c0.4062,-0.0313 0.776,-0.0469 1.1094,-0.0469zM960.01437,356.15622c-0.5,0 -0.8802,0.0105 -1.1406,0.0313v3.2656h0.875c0.3959,0 0.75,-0.026 1.0625,-0.0781c0.3229,-0.0521 0.5938,-0.1406 0.8125,-0.2656c0.2292,-0.125 0.401,-0.2917 0.5156,-0.5c0.125,-0.2188 0.1875,-0.5 0.1875,-0.8438c0,-0.3125 -0.0625,-0.5729 -0.1875,-0.7812c-0.125,-0.2084 -0.2968,-0.375 -0.5156,-0.5c-0.2083,-0.125 -0.4531,-0.2084 -0.7344,-0.25c-0.2812,-0.0521 -0.5729,-0.0782 -0.875,-0.0782zM968.57607,363.71872c-0.5833,0 -1.1146,-0.0937 -1.5938,-0.2812c-0.4791,-0.1979 -0.8906,-0.4792 -1.2343,-0.8438c-0.3438,-0.375 -0.6094,-0.8333 -0.7969,-1.375c-0.1875,-0.5416 -0.2812,-1.1562 -0.2812,-1.8437c0,-0.6979 0.1041,-1.3177 0.3125,-1.8594c0.2083,-0.5417 0.4895,-0.9948 0.8437,-1.3594c0.3646,-0.375 0.7865,-0.6562 1.2656,-0.8437c0.4896,-0.1979 1.0052,-0.2969 1.5469,-0.2969c0.3438,0 0.6511,0.0261 0.9219,0.0781c0.2812,0.0521 0.5208,0.1094 0.7187,0.1719c0.2084,0.0625 0.375,0.125 0.5,0.1875c0.1355,0.0625 0.224,0.1094 0.2657,0.1407l-0.3281,0.9687c-0.073,-0.0521 -0.1771,-0.1042 -0.3125,-0.1562c-0.1355,-0.0625 -0.2917,-0.1198 -0.4688,-0.1719c-0.1667,-0.0521 -0.3542,-0.0938 -0.5625,-0.125c-0.2083,-0.0417 -0.4167,-0.0625 -0.625,-0.0625c-0.4375,0 -0.8333,0.0781 -1.1875,0.2344c-0.3437,0.1458 -0.6406,0.3645 -0.8906,0.6562c-0.25,0.2813 -0.4427,0.6302 -0.5781,1.0469c-0.125,0.4062 -0.1875,0.8698 -0.1875,1.3906c0,0.4896 0.0573,0.9375 0.1718,1.3438c0.1146,0.4062 0.2865,0.7604 0.5157,1.0625c0.2291,0.2916 0.5156,0.5156 0.8594,0.6719c0.3541,0.1562 0.7656,0.2343 1.2343,0.2343c0.5313,0 0.974,-0.052 1.3282,-0.1562c0.3541,-0.1146 0.6198,-0.2188 0.7968,-0.3125l0.2969,0.9687c-0.0521,0.0417 -0.151,0.0938 -0.2968,0.1563c-0.1459,0.0521 -0.3282,0.1094 -0.5469,0.1719c-0.2188,0.052 -0.474,0.0989 -0.7656,0.1406c-0.2813,0.0417 -0.5886,0.0625 -0.9219,0.0625zM980.24127,363.53122c-0.2292,-0.5729 -0.4688,-1.2291 -0.7188,-1.9687c-0.25,-0.7396 -0.4791,-1.5104 -0.6875,-2.3125c-0.2083,0.8021 -0.4375,1.5729 -0.6875,2.3125c-0.25,0.7396 -0.4843,1.3958 -0.7031,1.9687h-0.9687c-0.375,-0.8229 -0.7396,-1.7604 -1.0938,-2.8125c-0.3437,-1.0625 -0.6719,-2.2031 -0.9844,-3.4218h1.2032c0.0729,0.375 0.1666,0.7812 0.2812,1.2187c0.1146,0.4375 0.2344,0.8802 0.3594,1.3281c0.125,0.4375 0.2552,0.8594 0.3906,1.2657c0.1354,0.4062 0.2604,0.7604 0.375,1.0625c0.1354,-0.375 0.2709,-0.7709 0.4063,-1.1875c0.1354,-0.4271 0.2604,-0.8542 0.375,-1.2813c0.125,-0.4271 0.2396,-0.8437 0.3437,-1.25c0.1042,-0.4167 0.1979,-0.8021 0.2813,-1.1562h0.9219c0.0729,0.3541 0.1614,0.7395 0.2656,1.1562c0.1042,0.4063 0.2135,0.8229 0.3281,1.25c0.125,0.4271 0.2552,0.8542 0.3907,1.2813c0.1354,0.4166 0.2708,0.8125 0.4062,1.1875c0.1146,-0.3021 0.2344,-0.6563 0.3594,-1.0625c0.1354,-0.4063 0.2656,-0.8282 0.3906,-1.2657c0.1354,-0.4479 0.2604,-0.8906 0.375,-1.3281c0.1146,-0.4375 0.2084,-0.8437 0.2813,-1.2187h1.1562c-0.3125,1.2187 -0.6458,2.3594 -1,3.4219c-0.3541,1.052 -0.7135,1.9895 -1.0781,2.8125zM984.45597,363.53122v-9.125l1.125,-0.1875v3.1875c0.2083,-0.0729 0.4271,-0.1302 0.6562,-0.1718c0.2396,-0.0521 0.474,-0.0782 0.7032,-0.0782c0.5,0 0.9114,0.073 1.2343,0.2188c0.3334,0.1354 0.599,0.3281 0.7969,0.5781c0.1979,0.25 0.3334,0.5521 0.4063,0.9063c0.0833,0.3541 0.125,0.7448 0.125,1.1718v3.5h-1.1094v-3.2656c0,-0.3854 -0.026,-0.7135 -0.0781,-0.9843c-0.0521,-0.2709 -0.1406,-0.4896 -0.2656,-0.6563c-0.1146,-0.1667 -0.2761,-0.2865 -0.4844,-0.3594c-0.1979,-0.0833 -0.4427,-0.125 -0.7344,-0.125c-0.125,0 -0.25,0.0105 -0.375,0.0313c-0.125,0.0104 -0.25,0.026 -0.375,0.0469c-0.1146,0.0208 -0.2187,0.0468 -0.3125,0.0781c-0.0833,0.0208 -0.1458,0.0365 -0.1875,0.0469v5.1875zM992.43297,363.53122h-1.125v-6.2343h1.125zM991.87047,356.15622c-0.1979,0 -0.3697,-0.0625 -0.5156,-0.1875c-0.1354,-0.1354 -0.2031,-0.3125 -0.2031,-0.5312c0,-0.2292 0.0677,-0.4063 0.2031,-0.5313c0.1459,-0.1354 0.3177,-0.2031 0.5157,-0.2031c0.1979,0 0.3645,0.0677 0.5,0.2031c0.1458,0.125 0.2187,0.3021 0.2187,0.5313c0,0.2187 -0.0729,0.3958 -0.2187,0.5312c-0.1355,0.125 -0.3021,0.1875 -0.5,0.1875zM997.06277,363.67192c-0.5,0 -0.9427,-0.0782 -1.3281,-0.2344c-0.375,-0.1667 -0.6927,-0.3906 -0.9531,-0.6719c-0.2604,-0.2917 -0.4584,-0.6354 -0.5938,-1.0312c-0.125,-0.3959 -0.1875,-0.8334 -0.1875,-1.3125c0,-0.4792 0.0678,-0.9167 0.2032,-1.3125c0.1458,-0.4063 0.3437,-0.7552 0.5937,-1.0469c0.2604,-0.2917 0.5781,-0.5156 0.9531,-0.6719c0.375,-0.1666 0.7865,-0.25 1.2344,-0.25c0.2813,0 0.5625,0.0261 0.8438,0.0782c0.2812,0.0416 0.5521,0.1145 0.8125,0.2187l-0.2656,0.9531c-0.1667,-0.0833 -0.3594,-0.1458 -0.5782,-0.1875c-0.2187,-0.052 -0.4531,-0.0781 -0.7031,-0.0781c-0.625,0 -1.1041,0.1979 -1.4375,0.5938c-0.3229,0.3854 -0.4844,0.9531 -0.4844,1.7031c0,0.3333 0.0365,0.6406 0.1094,0.9219c0.0729,0.2812 0.1927,0.526 0.3594,0.7344c0.1667,0.1979 0.375,0.3489 0.625,0.4531c0.2604,0.1042 0.5729,0.1562 0.9375,0.1562c0.3021,0 0.5729,-0.026 0.8125,-0.0781c0.2396,-0.0625 0.4271,-0.125 0.5625,-0.1875l0.1563,0.9375c-0.0625,0.0417 -0.1563,0.0833 -0.2813,0.125c-0.1146,0.0313 -0.25,0.0573 -0.4062,0.0781c-0.1563,0.0313 -0.323,0.0573 -0.5,0.0782c-0.1667,0.0208 -0.3282,0.0312 -0.4844,0.0312zM999.92407,363.53122v-9.125l1.125,-0.1875v3.1875c0.2083,-0.0729 0.4271,-0.1302 0.6563,-0.1718c0.2395,-0.0521 0.4739,-0.0782 0.7031,-0.0782c0.5,0 0.9114,0.073 1.2344,0.2188c0.3333,0.1354 0.5989,0.3281 0.7968,0.5781c0.1979,0.25 0.3334,0.5521 0.4063,0.9063c0.0833,0.3541 0.125,0.7448 0.125,1.1718v3.5h-1.1094v-3.2656c0,-0.3854 -0.026,-0.7135 -0.0781,-0.9843c-0.0521,-0.2709 -0.1406,-0.4896 -0.2656,-0.6563c-0.1146,-0.1667 -0.2761,-0.2865 -0.4844,-0.3594c-0.1979,-0.0833 -0.4427,-0.125 -0.7344,-0.125c-0.125,0 -0.25,0.0105 -0.375,0.0313c-0.125,0.0104 -0.25,0.026 -0.375,0.0469c-0.1146,0.0208 -0.2187,0.0468 -0.3125,0.0781c-0.0833,0.0208 -0.1458,0.0365 -0.1875,0.0469v5.1875zM1012.26687,363.67192c-0.5,0 -0.9427,-0.0782 -1.3281,-0.2344c-0.375,-0.1667 -0.6927,-0.3906 -0.9531,-0.6719c-0.2604,-0.2917 -0.4584,-0.6354 -0.5938,-1.0312c-0.125,-0.3959 -0.1875,-0.8334 -0.1875,-1.3125c0,-0.4792 0.0677,-0.9167 0.2032,-1.3125c0.1458,-0.4063 0.3437,-0.7552 0.5937,-1.0469c0.2604,-0.2917 0.5781,-0.5156 0.9531,-0.6719c0.375,-0.1666 0.7865,-0.25 1.2344,-0.25c0.2813,0 0.5625,0.0261 0.8438,0.0782c0.2812,0.0416 0.5521,0.1145 0.8125,0.2187l-0.2656,0.9531c-0.1667,-0.0833 -0.3594,-0.1458 -0.5782,-0.1875c-0.2187,-0.052 -0.4531,-0.0781 -0.7031,-0.0781c-0.625,0 -1.1041,0.1979 -1.4375,0.5938c-0.3229,0.3854 -0.4844,0.9531 -0.4844,1.7031c0,0.3333 0.0365,0.6406 0.1094,0.9219c0.0729,0.2812 0.1927,0.526 0.3594,0.7344c0.1667,0.1979 0.375,0.3489 0.625,0.4531c0.2604,0.1042 0.5729,0.1562 0.9375,0.1562c0.3021,0 0.5729,-0.026 0.8125,-0.0781c0.2396,-0.0625 0.4271,-0.125 0.5625,-0.1875l0.1563,0.9375c-0.0625,0.0417 -0.1563,0.0833 -0.2813,0.125c-0.1146,0.0313 -0.25,0.0573 -0.4062,0.0781c-0.1563,0.0313 -0.323,0.0573 -0.5,0.0782c-0.1667,0.0208 -0.3282,0.0312 -0.4844,0.0312zM1020.48777,360.40622c0,0.5 -0.0729,0.9532 -0.2187,1.3594c-0.1459,0.3958 -0.349,0.7396 -0.6094,1.0313c-0.2604,0.2812 -0.5729,0.5 -0.9375,0.6562c-0.3542,0.1563 -0.7396,0.2344 -1.1562,0.2344c-0.4271,0 -0.823,-0.0781 -1.1875,-0.2344c-0.3542,-0.1562 -0.6615,-0.375 -0.9219,-0.6562c-0.2604,-0.2917 -0.4636,-0.6355 -0.6094,-1.0313c-0.1458,-0.4062 -0.2187,-0.8594 -0.2187,-1.3594c0,-0.4895 0.0729,-0.9322 0.2187,-1.3281c0.1459,-0.4062 0.349,-0.75 0.6094,-1.0312c0.2604,-0.2917 0.5677,-0.5156 0.9219,-0.6719c0.3646,-0.1562 0.7604,-0.2344 1.1875,-0.2344c0.4166,0 0.8021,0.0782 1.1562,0.2344c0.3646,0.1563 0.6771,0.3802 0.9375,0.6719c0.2604,0.2812 0.4636,0.625 0.6094,1.0312c0.1458,0.3959 0.2187,0.8386 0.2187,1.3282zM1019.31587,360.40622c0,-0.6979 -0.1562,-1.25 -0.4687,-1.6562c-0.3125,-0.4167 -0.7396,-0.625 -1.2813,-0.625c-0.552,0 -0.9843,0.2083 -1.2968,0.625c-0.3125,0.4062 -0.4688,0.9583 -0.4688,1.6562c0,0.7084 0.1563,1.2709 0.4688,1.6875c0.3125,0.4063 0.7448,0.6094 1.2969,0.6094c0.5416,0 0.9687,-0.2031 1.2812,-0.6094c0.3125,-0.4166 0.4688,-0.9791 0.4688,-1.6875zM1027.02097,363.34372c-0.25,0.073 -0.5885,0.1407 -1.0156,0.2032c-0.4167,0.0729 -0.9011,0.1093 -1.4531,0.1093c-0.4792,0 -0.8855,-0.0677 -1.2188,-0.2031c-0.3229,-0.1354 -0.5833,-0.3333 -0.7812,-0.5937c-0.198,-0.2605 -0.3438,-0.5625 -0.4375,-0.9063c-0.0834,-0.3437 -0.125,-0.7292 -0.125,-1.1562v-3.5h1.1093v3.2656c0,0.75 0.1198,1.2917 0.3594,1.625c0.2396,0.3229 0.6459,0.4844 1.2188,0.4844c0.1146,0 0.2343,0 0.3593,0c0.1355,-0.0104 0.2553,-0.0209 0.3594,-0.0313c0.1146,-0.0104 0.2188,-0.0208 0.3125,-0.0312c0.0938,-0.0209 0.1615,-0.0365 0.2032,-0.0469v-5.2656h1.1093zM1030.81527,363.65622c-0.6875,-0.0208 -1.1771,-0.1718 -1.4688,-0.4531c-0.2812,-0.2812 -0.4218,-0.7135 -0.4218,-1.2969v-7.5l1.1093,-0.1875v7.5c0,0.1875 0.0157,0.3438 0.0469,0.4688c0.0313,0.1146 0.0834,0.2083 0.1563,0.2812c0.0729,0.073 0.1666,0.125 0.2812,0.1563c0.125,0.0312 0.2761,0.0625 0.4531,0.0937zM1036.24747,358.60942c-0.1354,-0.1146 -0.3333,-0.224 -0.5937,-0.3282c-0.25,-0.1041 -0.5261,-0.1562 -0.8281,-0.1562c-0.323,0 -0.599,0.0625 -0.8282,0.1875c-0.2187,0.1146 -0.401,0.276 -0.5468,0.4844c-0.1459,0.1979 -0.25,0.4375 -0.3125,0.7187c-0.0625,0.2813 -0.0938,0.5781 -0.0938,0.8906c0,0.7292 0.1771,1.2917 0.5313,1.6875c0.3646,0.3959 0.8437,0.5938 1.4375,0.5938c0.3125,0 0.5677,-0.0104 0.7656,-0.0313c0.2083,-0.0312 0.3646,-0.0625 0.4687,-0.0937zM1036.24747,354.40622l1.125,-0.1875v9.125c-0.2604,0.073 -0.5885,0.1459 -0.9843,0.2188c-0.3959,0.0729 -0.8542,0.1094 -1.375,0.1094c-0.4792,0 -0.9115,-0.073 -1.2969,-0.2188c-0.3854,-0.1562 -0.7136,-0.375 -0.9844,-0.6562c-0.2708,-0.2813 -0.4844,-0.6198 -0.6406,-1.0157c-0.1458,-0.4062 -0.2188,-0.8645 -0.2188,-1.375c0,-0.4791 0.0625,-0.9166 0.1875,-1.3125c0.125,-0.4062 0.3073,-0.75 0.5469,-1.0312c0.2396,-0.2917 0.5313,-0.5156 0.875,-0.6719c0.3542,-0.1667 0.7552,-0.25 1.2032,-0.25c0.3541,0 0.6666,0.0521 0.9375,0.1563c0.2812,0.0937 0.4895,0.1823 0.625,0.2656zM1043.18137,357.56252c0.1354,-0.0833 0.3385,-0.1719 0.6093,-0.2656c0.2813,-0.1042 0.599,-0.1563 0.9532,-0.1563c0.4479,0 0.8437,0.0833 1.1875,0.25c0.3541,0.1563 0.651,0.3802 0.8906,0.6719c0.2396,0.2812 0.4219,0.625 0.5469,1.0312c0.125,0.3959 0.1875,0.8334 0.1875,1.3125c0,0.5105 -0.0729,0.9688 -0.2188,1.375c-0.1458,0.3959 -0.3541,0.7344 -0.625,1.0157c-0.2708,0.2812 -0.5989,0.5 -0.9843,0.6562c-0.3854,0.1458 -0.8177,0.2188 -1.2969,0.2188c-0.5208,0 -0.9844,-0.0365 -1.3906,-0.1094c-0.3959,-0.0729 -0.724,-0.1458 -0.9844,-0.2188v-8.9375l1.125,-0.1875zM1043.18137,362.56252c0.1145,0.0312 0.2708,0.0625 0.4687,0.0937c0.2083,0.0209 0.4635,0.0313 0.7656,0.0313c0.6042,0 1.0834,-0.1979 1.4375,-0.5938c0.3646,-0.3958 0.5469,-0.9583 0.5469,-1.6875c0,-0.3125 -0.0364,-0.6093 -0.1093,-0.8906c-0.0625,-0.2812 -0.1667,-0.5208 -0.3125,-0.7187c-0.1355,-0.2084 -0.3178,-0.3698 -0.5469,-0.4844c-0.2292,-0.125 -0.5052,-0.1875 -0.8281,-0.1875c-0.3021,0 -0.5834,0.0521 -0.8438,0.1562c-0.25,0.1042 -0.4427,0.2136 -0.5781,0.3282zM1048.78067,360.42192c0,-0.5521 0.0781,-1.0313 0.2343,-1.4375c0.1667,-0.4167 0.3803,-0.7605 0.6407,-1.0313c0.2708,-0.2708 0.5781,-0.4739 0.9219,-0.6094c0.3437,-0.1354 0.6927,-0.2031 1.0468,-0.2031c0.8438,0 1.4896,0.2604 1.9375,0.7813c0.4479,0.5208 0.6719,1.3177 0.6719,2.3906c0,0.0521 0,0.1146 0,0.1875c0,0.0729 -0.0052,0.1458 -0.0156,0.2187h-4.2656c0.0416,0.6459 0.2239,1.1355 0.5469,1.4688c0.3333,0.3333 0.8489,0.5 1.5468,0.5c0.3959,0 0.724,-0.0313 0.9844,-0.0938c0.2709,-0.0729 0.474,-0.1406 0.6094,-0.2031l0.1562,0.9375c-0.1354,0.0729 -0.375,0.1459 -0.7187,0.2188c-0.3333,0.0833 -0.7188,0.125 -1.1563,0.125c-0.5416,0 -1.0104,-0.0781 -1.4062,-0.2344c-0.3958,-0.1667 -0.724,-0.3958 -0.9844,-0.6875c-0.25,-0.2917 -0.4375,-0.6354 -0.5625,-1.0312c-0.125,-0.3959 -0.1875,-0.8282 -0.1875,-1.2969zM1053.06187,359.81252c0.0104,-0.5 -0.1146,-0.9115 -0.375,-1.2344c-0.2604,-0.3333 -0.6198,-0.5 -1.0781,-0.5c-0.25,0 -0.474,0.0521 -0.6719,0.1563c-0.1979,0.1041 -0.3646,0.2343 -0.5,0.3906c-0.1354,0.1562 -0.2396,0.3385 -0.3125,0.5469c-0.0729,0.2083 -0.125,0.4218 -0.1562,0.6406zM1058.60447,363.53122v-9.125l1.125,-0.1875v3.1875c0.2083,-0.0729 0.4271,-0.1302 0.6563,-0.1718c0.2395,-0.0521 0.4739,-0.0782 0.7031,-0.0782c0.5,0 0.9115,0.073 1.2344,0.2188c0.3333,0.1354 0.5989,0.3281 0.7969,0.5781c0.1979,0.25 0.3333,0.5521 0.4062,0.9063c0.0833,0.3541 0.125,0.7448 0.125,1.1718v3.5h-1.1094v-3.2656c0,-0.3854 -0.026,-0.7135 -0.0781,-0.9843c-0.0521,-0.2709 -0.1406,-0.4896 -0.2656,-0.6563c-0.1146,-0.1667 -0.276,-0.2865 -0.4844,-0.3594c-0.1979,-0.0833 -0.4427,-0.125 -0.7343,-0.125c-0.125,0 -0.25,0.0105 -0.375,0.0313c-0.125,0.0104 -0.25,0.026 -0.375,0.0469c-0.1146,0.0208 -0.2188,0.0468 -0.3125,0.0781c-0.0834,0.0208 -0.1459,0.0365 -0.1875,0.0469v5.1875zM1070.42527,363.34372c-0.25,0.073 -0.5885,0.1407 -1.0156,0.2032c-0.4167,0.0729 -0.901,0.1093 -1.4531,0.1093c-0.4792,0 -0.8854,-0.0677 -1.2188,-0.2031c-0.3229,-0.1354 -0.5833,-0.3333 -0.7812,-0.5937c-0.1979,-0.2605 -0.3438,-0.5625 -0.4375,-0.9063c-0.0834,-0.3437 -0.125,-0.7292 -0.125,-1.1562v-3.5h1.1094v3.2656c0,0.75 0.1198,1.2917 0.3593,1.625c0.2396,0.3229 0.6459,0.4844 1.2188,0.4844c0.1146,0 0.2344,0 0.3594,0c0.1354,-0.0104 0.2552,-0.0209 0.3594,-0.0313c0.1145,-0.0104 0.2187,-0.0208 0.3125,-0.0312c0.0937,-0.0209 0.1614,-0.0365 0.2031,-0.0469v-5.2656h1.1094zM1074.65707,357.15622c0.0938,0 0.2032,0.0052 0.3282,0.0157c0.125,0.0104 0.2447,0.026 0.3593,0.0468c0.125,0.0209 0.2344,0.0417 0.3282,0.0625c0.1041,0.0209 0.1823,0.0417 0.2344,0.0625l-0.2032,0.9688c-0.0833,-0.0313 -0.2291,-0.0677 -0.4375,-0.1094c-0.1979,-0.0521 -0.4583,-0.0781 -0.7812,-0.0781c-0.2084,0 -0.4167,0.026 -0.625,0.0781c-0.1979,0.0417 -0.3281,0.0677 -0.3906,0.0782v5.25h-1.125v-5.9688c0.2708,-0.1042 0.5989,-0.1979 0.9843,-0.2812c0.3959,-0.0834 0.8386,-0.125 1.3282,-0.125zM1078.02347,357.29692h2.375v0.9375h-2.375v2.875c0,0.3125 0.0209,0.5729 0.0625,0.7812c0.0521,0.1979 0.125,0.3542 0.2188,0.4688c0.1041,0.1145 0.2291,0.1979 0.375,0.25c0.1458,0.0416 0.3125,0.0625 0.5,0.0625c0.3333,0 0.5989,-0.0365 0.7969,-0.1094c0.2083,-0.0729 0.3541,-0.125 0.4375,-0.1563l0.2187,0.9219c-0.1146,0.0521 -0.3125,0.1198 -0.5937,0.2031c-0.2813,0.0834 -0.599,0.125 -0.9532,0.125c-0.4271,0 -0.7812,-0.052 -1.0625,-0.1562c-0.2708,-0.1042 -0.4896,-0.2656 -0.6562,-0.4844c-0.1667,-0.2187 -0.2865,-0.4843 -0.3594,-0.7968c-0.0625,-0.3125 -0.0937,-0.6771 -0.0937,-1.0938v-5.5781l1.1093,-0.1875zM1082.92567,363.53122h-1.125v-6.2343h1.125zM1082.36317,356.15622c-0.1979,0 -0.3698,-0.0625 -0.5156,-0.1875c-0.1355,-0.1354 -0.2032,-0.3125 -0.2032,-0.5312c0,-0.2292 0.0678,-0.4063 0.2032,-0.5313c0.1458,-0.1354 0.3177,-0.2031 0.5156,-0.2031c0.1979,0 0.3646,0.0677 0.5,0.2031c0.1458,0.125 0.2188,0.3021 0.2188,0.5313c0,0.2187 -0.073,0.3958 -0.2188,0.5312c-0.1354,0.125 -0.3021,0.1875 -0.5,0.1875zM1084.83667,357.46872c0.2604,-0.0625 0.5989,-0.1302 1.0156,-0.2031c0.4271,-0.0729 0.9167,-0.1094 1.4688,-0.1094c0.5,0 0.9114,0.073 1.2344,0.2188c0.3333,0.1354 0.5989,0.3281 0.7968,0.5781c0.1979,0.25 0.3334,0.5521 0.4063,0.9063c0.0833,0.3541 0.125,0.7448 0.125,1.1718v3.5h-1.1094v-3.2656c0,-0.3854 -0.026,-0.7135 -0.0781,-0.9843c-0.0521,-0.2709 -0.1406,-0.4896 -0.2656,-0.6563c-0.1146,-0.1667 -0.2761,-0.2865 -0.4844,-0.3594c-0.1979,-0.0833 -0.4427,-0.125 -0.7344,-0.125c-0.125,0 -0.25,0.0052 -0.375,0.0157c-0.125,0.0104 -0.25,0.0208 -0.375,0.0312c-0.1146,0.0104 -0.2187,0.0261 -0.3125,0.0469c-0.0833,0.0104 -0.1458,0.0208 -0.1875,0.0312v5.2657h-1.125zM1095.64657,362.90622c-0.0937,0.0625 -0.2812,0.1459 -0.5625,0.25c-0.2708,0.0938 -0.5937,0.1407 -0.9687,0.1407c-0.375,0 -0.7292,-0.0573 -1.0625,-0.1719c-0.3334,-0.125 -0.625,-0.3125 -0.875,-0.5625c-0.2396,-0.25 -0.4323,-0.5625 -0.5781,-0.9375c-0.1459,-0.375 -0.2188,-0.8229 -0.2188,-1.3438c0,-0.4583 0.0677,-0.875 0.2031,-1.25c0.1355,-0.3854 0.3334,-0.7135 0.5938,-0.9843c0.2604,-0.2813 0.5781,-0.5 0.9531,-0.6563c0.375,-0.1562 0.8021,-0.2344 1.2813,-0.2344c0.5208,0 0.9739,0.0417 1.3594,0.125c0.3854,0.073 0.7083,0.1407 0.9687,0.2032v5.5625c0,0.9583 -0.25,1.651 -0.75,2.0781c-0.4896,0.4375 -1.2396,0.6563 -2.25,0.6563c-0.3854,0 -0.7552,-0.0313 -1.1094,-0.0938c-0.3437,-0.0625 -0.6458,-0.1354 -0.9062,-0.2187l0.2031,-0.9844c0.2292,0.0937 0.5052,0.1719 0.8281,0.2344c0.323,0.0729 0.6615,0.1093 1.0157,0.1093c0.6666,0 1.1458,-0.1354 1.4375,-0.4062c0.2916,-0.2604 0.4375,-0.6771 0.4375,-1.25zM1095.63097,358.28122c-0.1146,-0.0312 -0.2656,-0.0625 -0.4531,-0.0937c-0.1875,-0.0313 -0.4427,-0.0469 -0.7656,-0.0469c-0.5938,0 -1.0521,0.1979 -1.375,0.5938c-0.3229,0.3854 -0.4844,0.9062 -0.4844,1.5625c0,0.3541 0.0417,0.6614 0.125,0.9218c0.0937,0.25 0.2187,0.4636 0.375,0.6407c0.1562,0.1666 0.3333,0.2916 0.5312,0.375c0.2084,0.0729 0.4219,0.1093 0.6407,0.1093c0.3021,0 0.5729,-0.0416 0.8125,-0.125c0.25,-0.0833 0.4479,-0.1822 0.5937,-0.2968zM1100.71407,364.68752c0.0833,0.0417 0.1927,0.0781 0.3281,0.1094c0.1458,0.0416 0.2865,0.0625 0.4219,0.0625c0.4375,0 0.7812,-0.099 1.0312,-0.2969c0.25,-0.1875 0.474,-0.5052 0.6719,-0.9531c-0.5,-0.9584 -0.9687,-1.974 -1.4062,-3.0469c-0.4375,-1.0729 -0.8021,-2.1615 -1.0938,-3.2656h1.2031c0.0938,0.3541 0.198,0.7396 0.3125,1.1562c0.125,0.4167 0.2657,0.849 0.4219,1.2969c0.1563,0.4375 0.3177,0.875 0.4844,1.3125c0.1771,0.4375 0.3646,0.8594 0.5625,1.2656c0.3021,-0.8333 0.5625,-1.6614 0.7813,-2.4843c0.2291,-0.8334 0.4427,-1.6823 0.6406,-2.5469h1.1562c-0.2916,1.1771 -0.6146,2.3073 -0.9687,3.3906c-0.3438,1.0834 -0.724,2.0938 -1.1406,3.0313c-0.1563,0.3646 -0.3229,0.6771 -0.5,0.9375c-0.1667,0.2604 -0.3542,0.4739 -0.5625,0.6406c-0.2084,0.1667 -0.4427,0.2865 -0.7032,0.3594c-0.2604,0.0833 -0.552,0.125 -0.875,0.125c-0.0937,0 -0.1875,-0.0052 -0.2812,-0.0156c-0.0938,-0.0105 -0.1875,-0.0261 -0.2813,-0.0469c-0.0937,-0.0208 -0.177,-0.0417 -0.25,-0.0625c-0.0729,-0.0208 -0.125,-0.0417 -0.1562,-0.0625zM1112.91247,360.40622c0,0.5 -0.0729,0.9532 -0.2188,1.3594c-0.1458,0.3958 -0.3489,0.7396 -0.6093,1.0313c-0.2604,0.2812 -0.5729,0.5 -0.9375,0.6562c-0.3542,0.1563 -0.7396,0.2344 -1.1563,0.2344c-0.4271,0 -0.8229,-0.0781 -1.1875,-0.2344c-0.3541,-0.1562 -0.6614,-0.375 -0.9218,-0.6562c-0.2604,-0.2917 -0.4636,-0.6355 -0.6094,-1.0313c-0.1458,-0.4062 -0.2188,-0.8594 -0.2188,-1.3594c0,-0.4895 0.073,-0.9322 0.2188,-1.3281c0.1458,-0.4062 0.349,-0.75 0.6094,-1.0312c0.2604,-0.2917 0.5677,-0.5156 0.9219,-0.6719c0.3645,-0.1562 0.7604,-0.2344 1.1875,-0.2344c0.4166,0 0.802,0.0782 1.1562,0.2344c0.3646,0.1563 0.6771,0.3802 0.9375,0.6719c0.2604,0.2812 0.4635,0.625 0.6094,1.0312c0.1458,0.3959 0.2187,0.8386 0.2187,1.3282zM1111.74057,360.40622c0,-0.6979 -0.1562,-1.25 -0.4687,-1.6562c-0.3125,-0.4167 -0.7396,-0.625 -1.2813,-0.625c-0.5521,0 -0.9843,0.2083 -1.2968,0.625c-0.3125,0.4062 -0.4688,0.9583 -0.4688,1.6562c0,0.7084 0.1563,1.2709 0.4688,1.6875c0.3125,0.4063 0.7447,0.6094 1.2968,0.6094c0.5417,0 0.9688,-0.2031 1.2813,-0.6094c0.3125,-0.4166 0.4687,-0.9791 0.4687,-1.6875zM1119.44557,363.34372c-0.25,0.073 -0.5885,0.1407 -1.0156,0.2032c-0.4166,0.0729 -0.901,0.1093 -1.4531,0.1093c-0.4792,0 -0.8854,-0.0677 -1.2187,-0.2031c-0.323,-0.1354 -0.5834,-0.3333 -0.7813,-0.5937c-0.1979,-0.2605 -0.3437,-0.5625 -0.4375,-0.9063c-0.0833,-0.3437 -0.125,-0.7292 -0.125,-1.1562v-3.5h1.1094v3.2656c0,0.75 0.1198,1.2917 0.3594,1.625c0.2396,0.3229 0.6458,0.4844 1.2187,0.4844c0.1146,0 0.2344,0 0.3594,0c0.1354,-0.0104 0.2552,-0.0209 0.3594,-0.0313c0.1146,-0.0104 0.2187,-0.0208 0.3125,-0.0312c0.0937,-0.0209 0.1614,-0.0365 0.2031,-0.0469v-5.2656h1.1094zM1123.67737,357.15622c0.0938,0 0.2032,0.0052 0.3282,0.0157c0.125,0.0104 0.2448,0.026 0.3594,0.0468c0.125,0.0209 0.2343,0.0417 0.3281,0.0625c0.1042,0.0209 0.1823,0.0417 0.2344,0.0625l-0.2031,0.9688c-0.0834,-0.0313 -0.2292,-0.0677 -0.4375,-0.1094c-0.198,-0.0521 -0.4584,-0.0781 -0.7813,-0.0781c-0.2083,0 -0.4167,0.026 -0.625,0.0781c-0.1979,0.0417 -0.3281,0.0677 -0.3906,0.0782v5.25h-1.125v-5.9688c0.2708,-0.1042 0.5989,-0.1979 0.9844,-0.2812c0.3958,-0.0834 0.8385,-0.125 1.3281,-0.125zM1132.69087,362.90622c-0.0938,0.0625 -0.2813,0.1459 -0.5625,0.25c-0.2709,0.0938 -0.5938,0.1407 -0.9688,0.1407c-0.375,0 -0.7291,-0.0573 -1.0625,-0.1719c-0.3333,-0.125 -0.625,-0.3125 -0.875,-0.5625c-0.2396,-0.25 -0.4323,-0.5625 -0.5781,-0.9375c-0.1458,-0.375 -0.2187,-0.8229 -0.2187,-1.3438c0,-0.4583 0.0677,-0.875 0.2031,-1.25c0.1354,-0.3854 0.3333,-0.7135 0.5937,-0.9843c0.2605,-0.2813 0.5782,-0.5 0.9532,-0.6563c0.375,-0.1562 0.8021,-0.2344 1.2812,-0.2344c0.5209,0 0.974,0.0417 1.3594,0.125c0.3854,0.073 0.7083,0.1407 0.9688,0.2032v5.5625c0,0.9583 -0.25,1.651 -0.75,2.0781c-0.4896,0.4375 -1.2396,0.6563 -2.25,0.6563c-0.3855,0 -0.7553,-0.0313 -1.1094,-0.0938c-0.3438,-0.0625 -0.6459,-0.1354 -0.9063,-0.2187l0.2032,-0.9844c0.2291,0.0937 0.5052,0.1719 0.8281,0.2344c0.3229,0.0729 0.6615,0.1093 1.0156,0.1093c0.6667,0 1.1459,-0.1354 1.4375,-0.4062c0.2917,-0.2604 0.4375,-0.6771 0.4375,-1.25zM1132.67527,358.28122c-0.1146,-0.0312 -0.2657,-0.0625 -0.4532,-0.0937c-0.1875,-0.0313 -0.4427,-0.0469 -0.7656,-0.0469c-0.5937,0 -1.0521,0.1979 -1.375,0.5938c-0.3229,0.3854 -0.4844,0.9062 -0.4844,1.5625c0,0.3541 0.0417,0.6614 0.125,0.9218c0.0938,0.25 0.2188,0.4636 0.375,0.6407c0.1563,0.1666 0.3334,0.2916 0.5313,0.375c0.2083,0.0729 0.4219,0.1093 0.6406,0.1093c0.3021,0 0.5729,-0.0416 0.8125,-0.125c0.25,-0.0833 0.4479,-0.1822 0.5938,-0.2968zM1137.82997,362.73442c0.2605,0 0.4896,-0.0052 0.6875,-0.0157c0.2084,-0.0208 0.3802,-0.0468 0.5157,-0.0781v-1.8594c-0.0834,-0.0416 -0.2136,-0.0729 -0.3906,-0.0937c-0.1771,-0.0313 -0.3959,-0.0469 -0.6563,-0.0469c-0.1667,0 -0.3437,0.0157 -0.5312,0.0469c-0.1875,0.0208 -0.3594,0.0677 -0.5157,0.1406c-0.1562,0.073 -0.2864,0.1771 -0.3906,0.3125c-0.1041,0.125 -0.1562,0.2969 -0.1562,0.5157c0,0.4062 0.125,0.6875 0.375,0.8437c0.2604,0.1563 0.6146,0.2344 1.0625,0.2344zM1137.72067,357.14062c0.4479,0 0.8281,0.0573 1.1406,0.1719c0.3125,0.1146 0.5625,0.2812 0.75,0.5c0.1875,0.2083 0.3177,0.4583 0.3906,0.75c0.0834,0.2917 0.125,0.6094 0.125,0.9531v3.9063c-0.0937,0.0208 -0.2291,0.0468 -0.4062,0.0781c-0.1667,0.0208 -0.3594,0.0417 -0.5781,0.0625c-0.2188,0.0312 -0.4532,0.0521 -0.7032,0.0625c-0.25,0.0208 -0.5,0.0312 -0.75,0.0312c-0.3541,0 -0.6771,-0.0364 -0.9687,-0.1093c-0.2917,-0.0625 -0.5469,-0.1719 -0.7656,-0.3281c-0.2188,-0.1563 -0.3907,-0.3594 -0.5157,-0.6094c-0.1145,-0.2604 -0.1718,-0.5729 -0.1718,-0.9375c0,-0.3438 0.0677,-0.6406 0.2031,-0.8906c0.1458,-0.25 0.3385,-0.448 0.5781,-0.5938c0.2396,-0.1562 0.5157,-0.2708 0.8282,-0.3437c0.3229,-0.073 0.6614,-0.1094 1.0156,-0.1094c0.1146,0 0.2292,0.0104 0.3437,0.0312c0.125,0.0105 0.2396,0.0261 0.3438,0.0469c0.1146,0.0104 0.2083,0.0261 0.2812,0.0469c0.0834,0.0208 0.1407,0.0313 0.1719,0.0313v-0.3125c0,-0.1771 -0.0208,-0.3542 -0.0625,-0.5313c-0.0416,-0.1875 -0.1146,-0.349 -0.2187,-0.4844c-0.0938,-0.1458 -0.2344,-0.2604 -0.4219,-0.3437c-0.1771,-0.0833 -0.4115,-0.125 -0.7031,-0.125c-0.3646,0 -0.6875,0.026 -0.9688,0.0781c-0.2708,0.0521 -0.4739,0.1042 -0.6093,0.1563l-0.1407,-0.9219c0.1459,-0.0625 0.3855,-0.1198 0.7188,-0.1719c0.3437,-0.0625 0.7083,-0.0937 1.0937,-0.0937zM1141.96907,357.46872c0.2604,-0.0625 0.5989,-0.1302 1.0156,-0.2031c0.4271,-0.0729 0.9167,-0.1094 1.4688,-0.1094c0.3958,0 0.7291,0.0573 1,0.1719c0.2708,0.1042 0.5,0.2604 0.6875,0.4688c0.052,-0.0417 0.1354,-0.099 0.25,-0.1719c0.125,-0.0729 0.276,-0.1406 0.4531,-0.2031c0.1771,-0.0729 0.375,-0.1354 0.5937,-0.1875c0.2188,-0.0521 0.448,-0.0781 0.6875,-0.0781c0.4896,0 0.8855,0.0729 1.1875,0.2187c0.3021,0.1354 0.5365,0.3333 0.7032,0.5938c0.1771,0.25 0.2916,0.552 0.3437,0.9062c0.0625,0.3542 0.0938,0.7396 0.0938,1.1563v3.5h-1.1094v-3.2657c0,-0.3645 -0.0208,-0.677 -0.0625,-0.9375c-0.0312,-0.2708 -0.099,-0.4948 -0.2031,-0.6718c-0.0938,-0.1771 -0.2292,-0.3073 -0.4063,-0.3907c-0.1666,-0.0833 -0.3854,-0.125 -0.6562,-0.125c-0.375,0 -0.6875,0.0521 -0.9375,0.1563c-0.2396,0.0937 -0.4063,0.1823 -0.5,0.2656c0.0625,0.2084 0.1094,0.4375 0.1406,0.6875c0.0417,0.25 0.0625,0.5104 0.0625,0.7813v3.5h-1.125v-3.2656c0,-0.3646 -0.0208,-0.6771 -0.0625,-0.9375c-0.0312,-0.2709 -0.0989,-0.4948 -0.2031,-0.6719c-0.1042,-0.1771 -0.2448,-0.3073 -0.4219,-0.3906c-0.1666,-0.0834 -0.3802,-0.125 -0.6406,-0.125c-0.1146,0 -0.2344,0.0052 -0.3594,0.0156c-0.125,0.0104 -0.25,0.0208 -0.375,0.0312c-0.1146,0.0105 -0.2187,0.0261 -0.3125,0.0469c-0.0937,0.0104 -0.1562,0.0209 -0.1875,0.0313v5.2656h-1.125zM1151.95737,360.42192c0,-0.5521 0.0782,-1.0313 0.2344,-1.4375c0.1667,-0.4167 0.3802,-0.7605 0.6406,-1.0313c0.2709,-0.2708 0.5782,-0.4739 0.9219,-0.6094c0.3438,-0.1354 0.6927,-0.2031 1.0469,-0.2031c0.8437,0 1.4896,0.2604 1.9375,0.7813c0.4479,0.5208 0.6719,1.3177 0.6719,2.3906c0,0.0521 0,0.1146 0,0.1875c0,0.0729 -0.0052,0.1458 -0.0156,0.2187h-4.2657c0.0417,0.6459 0.224,1.1355 0.5469,1.4688c0.3334,0.3333 0.849,0.5 1.5469,0.5c0.3958,0 0.724,-0.0313 0.9844,-0.0938c0.2708,-0.0729 0.4739,-0.1406 0.6094,-0.2031l0.1562,0.9375c-0.1354,0.0729 -0.375,0.1459 -0.7187,0.2188c-0.3334,0.0833 -0.7188,0.125 -1.1563,0.125c-0.5417,0 -1.0104,-0.0781 -1.4062,-0.2344c-0.3959,-0.1667 -0.724,-0.3958 -0.9844,-0.6875c-0.25,-0.2917 -0.4375,-0.6354 -0.5625,-1.0312c-0.125,-0.3959 -0.1875,-0.8282 -0.1875,-1.2969zM1156.23867,359.81252c0.0104,-0.5 -0.1146,-0.9115 -0.375,-1.2344c-0.2604,-0.3333 -0.6198,-0.5 -1.0781,-0.5c-0.25,0 -0.474,0.0521 -0.6719,0.1563c-0.1979,0.1041 -0.3646,0.2343 -0.5,0.3906c-0.1354,0.1562 -0.2396,0.3385 -0.3125,0.5469c-0.0729,0.2083 -0.125,0.4218 -0.1563,0.6406zM1166.12497,360.42192c0,-0.7292 -0.1823,-1.2865 -0.5468,-1.6719c-0.3542,-0.3958 -0.8334,-0.5938 -1.4375,-0.5938c-0.3334,0 -0.5938,0.0157 -0.7813,0.0469c-0.1875,0.0208 -0.3385,0.0469 -0.4531,0.0781v3.9375c0.1354,0.1042 0.3281,0.2084 0.5781,0.3125c0.2604,0.1042 0.5417,0.1563 0.8438,0.1563c0.3229,0 0.5989,-0.0573 0.8281,-0.1719c0.2292,-0.1146 0.4115,-0.2708 0.5469,-0.4687c0.1458,-0.2084 0.25,-0.4479 0.3125,-0.7188c0.0729,-0.2812 0.1094,-0.5833 0.1094,-0.9062zM1167.28127,360.42192c0,0.4687 -0.0625,0.9062 -0.1875,1.3125c-0.125,0.3958 -0.3073,0.7395 -0.5469,1.0312c-0.2396,0.2813 -0.5365,0.5052 -0.8906,0.6719c-0.3438,0.1562 -0.7396,0.2344 -1.1875,0.2344c-0.3542,0 -0.6719,-0.0469 -0.9531,-0.1407c-0.2709,-0.0937 -0.474,-0.1875 -0.6094,-0.2812v2.5h-1.125v-8.2656c0.2708,-0.0625 0.6042,-0.1302 1,-0.2031c0.3958,-0.0834 0.8542,-0.125 1.375,-0.125c0.4792,0 0.9115,0.0781 1.2969,0.2343c0.3854,0.1459 0.7135,0.3594 0.9844,0.6407c0.2708,0.2812 0.4791,0.625 0.625,1.0312c0.1458,0.4063 0.2187,0.8594 0.2187,1.3594zM1168.50557,360.42192c0,-0.5521 0.0781,-1.0313 0.2344,-1.4375c0.1666,-0.4167 0.3802,-0.7605 0.6406,-1.0313c0.2708,-0.2708 0.5781,-0.4739 0.9219,-0.6094c0.3437,-0.1354 0.6927,-0.2031 1.0469,-0.2031c0.8437,0 1.4895,0.2604 1.9375,0.7813c0.4479,0.5208 0.6718,1.3177 0.6718,2.3906c0,0.0521 0,0.1146 0,0.1875c0,0.0729 -0.0052,0.1458 -0.0156,0.2187h-4.2656c0.0417,0.6459 0.224,1.1355 0.5469,1.4688c0.3333,0.3333 0.8489,0.5 1.5469,0.5c0.3958,0 0.7239,-0.0313 0.9843,-0.0938c0.2709,-0.0729 0.474,-0.1406 0.6094,-0.2031l0.1563,0.9375c-0.1354,0.0729 -0.375,0.1459 -0.7188,0.2188c-0.3333,0.0833 -0.7187,0.125 -1.1562,0.125c-0.5417,0 -1.0104,-0.0781 -1.4063,-0.2344c-0.3958,-0.1667 -0.7239,-0.3958 -0.9844,-0.6875c-0.25,-0.2917 -0.4375,-0.6354 -0.5625,-1.0312c-0.125,-0.3959 -0.1875,-0.8282 -0.1875,-1.2969zM1172.78677,359.81252c0.0104,-0.5 -0.1146,-0.9115 -0.375,-1.2344c-0.2604,-0.3333 -0.6198,-0.5 -1.0781,-0.5c-0.25,0 -0.4739,0.0521 -0.6719,0.1563c-0.1979,0.1041 -0.3645,0.2343 -0.5,0.3906c-0.1354,0.1562 -0.2395,0.3385 -0.3125,0.5469c-0.0729,0.2083 -0.125,0.4218 -0.1562,0.6406zM1177.86987,357.15622c0.0937,0 0.2031,0.0052 0.3281,0.0157c0.125,0.0104 0.2448,0.026 0.3594,0.0468c0.125,0.0209 0.2344,0.0417 0.3281,0.0625c0.1042,0.0209 0.1823,0.0417 0.2344,0.0625l-0.2031,0.9688c-0.0833,-0.0313 -0.2292,-0.0677 -0.4375,-0.1094c-0.1979,-0.0521 -0.4583,-0.0781 -0.7812,-0.0781c-0.2084,0 -0.4167,0.026 -0.625,0.0781c-0.198,0.0417 -0.3282,0.0677 -0.3907,0.0782v5.25h-1.125v-5.9688c0.2709,-0.1042 0.599,-0.1979 0.9844,-0.2812c0.3959,-0.0834 0.8386,-0.125 1.3281,-0.125zM1182.62687,354.21872c0.3333,0 0.6146,0.0261 0.8438,0.0782c0.2395,0.0416 0.4062,0.0833 0.5,0.125l-0.2032,0.9687c-0.0937,-0.0521 -0.2291,-0.0989 -0.4062,-0.1406c-0.1771,-0.0521 -0.3906,-0.0781 -0.6406,-0.0781c-0.5209,0 -0.8854,0.1458 -1.0938,0.4375c-0.2083,0.2812 -0.3125,0.6614 -0.3125,1.1406v0.5469h2.3907v0.9375h-2.3907v5.2969h-1.125v-6.7969c0,-0.8021 0.1979,-1.4219 0.5938,-1.8594c0.3958,-0.4375 1.0104,-0.6562 1.8437,-0.6562zM1190.33707,360.40622c0,0.5 -0.073,0.9532 -0.2188,1.3594c-0.1458,0.3958 -0.349,0.7396 -0.6094,1.0313c-0.2604,0.2812 -0.5729,0.5 -0.9375,0.6562c-0.3541,0.1563 -0.7395,0.2344 -1.1562,0.2344c-0.4271,0 -0.8229,-0.0781 -1.1875,-0.2344c-0.3542,-0.1562 -0.6615,-0.375 -0.9219,-0.6562c-0.2604,-0.2917 -0.4635,-0.6355 -0.6093,-1.0313c-0.1459,-0.4062 -0.2188,-0.8594 -0.2188,-1.3594c0,-0.4895 0.0729,-0.9322 0.2188,-1.3281c0.1458,-0.4062 0.3489,-0.75 0.6093,-1.0312c0.2604,-0.2917 0.5677,-0.5156 0.9219,-0.6719c0.3646,-0.1562 0.7604,-0.2344 1.1875,-0.2344c0.4167,0 0.8021,0.0782 1.1563,0.2344c0.3646,0.1563 0.6771,0.3802 0.9375,0.6719c0.2604,0.2812 0.4635,0.625 0.6093,1.0312c0.1459,0.3959 0.2188,0.8386 0.2188,1.3282zM1189.16517,360.40622c0,-0.6979 -0.1563,-1.25 -0.4688,-1.6562c-0.3125,-0.4167 -0.7396,-0.625 -1.2812,-0.625c-0.5521,0 -0.9844,0.2083 -1.2969,0.625c-0.3125,0.4062 -0.4687,0.9583 -0.4687,1.6562c0,0.7084 0.1562,1.2709 0.4687,1.6875c0.3125,0.4063 0.7448,0.6094 1.2969,0.6094c0.5417,0 0.9687,-0.2031 1.2812,-0.6094c0.3125,-0.4166 0.4688,-0.9791 0.4688,-1.6875zM1194.21387,357.15622c0.0938,0 0.2032,0.0052 0.3282,0.0157c0.125,0.0104 0.2448,0.026 0.3594,0.0468c0.125,0.0209 0.2343,0.0417 0.3281,0.0625c0.1042,0.0209 0.1823,0.0417 0.2344,0.0625l-0.2031,0.9688c-0.0834,-0.0313 -0.2292,-0.0677 -0.4375,-0.1094c-0.198,-0.0521 -0.4584,-0.0781 -0.7813,-0.0781c-0.2083,0 -0.4167,0.026 -0.625,0.0781c-0.1979,0.0417 -0.3281,0.0677 -0.3906,0.0782v5.25h-1.125v-5.9688c0.2708,-0.1042 0.5989,-0.1979 0.9844,-0.2812c0.3958,-0.0834 0.8385,-0.125 1.3281,-0.125zM1196.53347,357.46872c0.2604,-0.0625 0.5989,-0.1302 1.0156,-0.2031c0.4271,-0.0729 0.9167,-0.1094 1.4688,-0.1094c0.3958,0 0.7291,0.0573 1,0.1719c0.2708,0.1042 0.5,0.2604 0.6875,0.4688c0.052,-0.0417 0.1354,-0.099 0.25,-0.1719c0.125,-0.0729 0.276,-0.1406 0.4531,-0.2031c0.1771,-0.0729 0.375,-0.1354 0.5937,-0.1875c0.2188,-0.0521 0.4479,-0.0781 0.6875,-0.0781c0.4896,0 0.8854,0.0729 1.1875,0.2187c0.3021,0.1354 0.5365,0.3333 0.7032,0.5938c0.1771,0.25 0.2916,0.552 0.3437,0.9062c0.0625,0.3542 0.0938,0.7396 0.0938,1.1563v3.5h-1.1094v-3.2657c0,-0.3645 -0.0208,-0.677 -0.0625,-0.9375c-0.0313,-0.2708 -0.099,-0.4948 -0.2031,-0.6718c-0.0938,-0.1771 -0.2292,-0.3073 -0.4063,-0.3907c-0.1666,-0.0833 -0.3854,-0.125 -0.6562,-0.125c-0.375,0 -0.6875,0.0521 -0.9375,0.1563c-0.2396,0.0937 -0.4063,0.1823 -0.5,0.2656c0.0625,0.2084 0.1094,0.4375 0.1406,0.6875c0.0417,0.25 0.0625,0.5104 0.0625,0.7813v3.5h-1.125v-3.2656c0,-0.3646 -0.0208,-0.6771 -0.0625,-0.9375c-0.0312,-0.2709 -0.099,-0.4948 -0.2031,-0.6719c-0.1042,-0.1771 -0.2448,-0.3073 -0.4219,-0.3906c-0.1666,-0.0834 -0.3802,-0.125 -0.6406,-0.125c-0.1146,0 -0.2344,0.0052 -0.3594,0.0156c-0.125,0.0104 -0.25,0.0208 -0.375,0.0312c-0.1146,0.0105 -0.2187,0.0261 -0.3125,0.0469c-0.0937,0.0104 -0.1562,0.0209 -0.1875,0.0313v5.2656h-1.125zM1208.99057,362.73442c0.2604,0 0.4895,-0.0052 0.6875,-0.0157c0.2083,-0.0208 0.3802,-0.0468 0.5156,-0.0781v-1.8594c-0.0833,-0.0416 -0.2135,-0.0729 -0.3906,-0.0937c-0.1771,-0.0313 -0.3959,-0.0469 -0.6563,-0.0469c-0.1666,0 -0.3437,0.0157 -0.5312,0.0469c-0.1875,0.0208 -0.3594,0.0677 -0.5156,0.1406c-0.1563,0.073 -0.2865,0.1771 -0.3907,0.3125c-0.1041,0.125 -0.1562,0.2969 -0.1562,0.5157c0,0.4062 0.125,0.6875 0.375,0.8437c0.2604,0.1563 0.6146,0.2344 1.0625,0.2344zM1208.88117,357.14062c0.4479,0 0.8281,0.0573 1.1406,0.1719c0.3125,0.1146 0.5625,0.2812 0.75,0.5c0.1875,0.2083 0.3177,0.4583 0.3907,0.75c0.0833,0.2917 0.125,0.6094 0.125,0.9531v3.9063c-0.0938,0.0208 -0.2292,0.0468 -0.4063,0.0781c-0.1667,0.0208 -0.3594,0.0417 -0.5781,0.0625c-0.2188,0.0312 -0.4531,0.0521 -0.7031,0.0625c-0.25,0.0208 -0.5,0.0312 -0.75,0.0312c-0.3542,0 -0.6771,-0.0364 -0.9688,-0.1093c-0.2916,-0.0625 -0.5469,-0.1719 -0.7656,-0.3281c-0.2188,-0.1563 -0.3906,-0.3594 -0.5156,-0.6094c-0.1146,-0.2604 -0.1719,-0.5729 -0.1719,-0.9375c0,-0.3438 0.0677,-0.6406 0.2031,-0.8906c0.1459,-0.25 0.3386,-0.448 0.5782,-0.5938c0.2396,-0.1562 0.5156,-0.2708 0.8281,-0.3437c0.3229,-0.073 0.6615,-0.1094 1.0156,-0.1094c0.1146,0 0.2292,0.0104 0.3438,0.0312c0.125,0.0105 0.2396,0.0261 0.3437,0.0469c0.1146,0.0104 0.2084,0.0261 0.2813,0.0469c0.0833,0.0208 0.1406,0.0313 0.1719,0.0313v-0.3125c0,-0.1771 -0.0209,-0.3542 -0.0625,-0.5313c-0.0417,-0.1875 -0.1146,-0.349 -0.2188,-0.4844c-0.0937,-0.1458 -0.2344,-0.2604 -0.4219,-0.3437c-0.1771,-0.0833 -0.4114,-0.125 -0.7031,-0.125c-0.3646,0 -0.6875,0.026 -0.9687,0.0781c-0.2709,0.0521 -0.474,0.1042 -0.6094,0.1563l-0.1406,-0.9219c0.1458,-0.0625 0.3854,-0.1198 0.7187,-0.1719c0.3438,-0.0625 0.7084,-0.0937 1.0938,-0.0937zM1213.12957,357.46872c0.2604,-0.0625 0.599,-0.1302 1.0156,-0.2031c0.4271,-0.0729 0.9167,-0.1094 1.4688,-0.1094c0.5,0 0.9114,0.073 1.2344,0.2188c0.3333,0.1354 0.5989,0.3281 0.7968,0.5781c0.198,0.25 0.3334,0.5521 0.4063,0.9063c0.0833,0.3541 0.125,0.7448 0.125,1.1718v3.5h-1.1094v-3.2656c0,-0.3854 -0.026,-0.7135 -0.0781,-0.9843c-0.0521,-0.2709 -0.1406,-0.4896 -0.2656,-0.6563c-0.1146,-0.1667 -0.2761,-0.2865 -0.4844,-0.3594c-0.1979,-0.0833 -0.4427,-0.125 -0.7344,-0.125c-0.125,0 -0.25,0.0052 -0.375,0.0157c-0.125,0.0104 -0.25,0.0208 -0.375,0.0312c-0.1145,0.0104 -0.2187,0.0261 -0.3125,0.0469c-0.0833,0.0104 -0.1458,0.0208 -0.1875,0.0312v5.2657h-1.125zM1222.73637,363.67192c-0.5,0 -0.9427,-0.0782 -1.3281,-0.2344c-0.375,-0.1667 -0.6927,-0.3906 -0.9531,-0.6719c-0.2604,-0.2917 -0.4584,-0.6354 -0.5938,-1.0312c-0.125,-0.3959 -0.1875,-0.8334 -0.1875,-1.3125c0,-0.4792 0.0677,-0.9167 0.2032,-1.3125c0.1458,-0.4063 0.3437,-0.7552 0.5937,-1.0469c0.2604,-0.2917 0.5781,-0.5156 0.9531,-0.6719c0.375,-0.1666 0.7865,-0.25 1.2344,-0.25c0.2813,0 0.5625,0.0261 0.8438,0.0782c0.2812,0.0416 0.5521,0.1145 0.8125,0.2187l-0.2657,0.9531c-0.1666,-0.0833 -0.3593,-0.1458 -0.5781,-0.1875c-0.2187,-0.052 -0.4531,-0.0781 -0.7031,-0.0781c-0.625,0 -1.1042,0.1979 -1.4375,0.5938c-0.3229,0.3854 -0.4844,0.9531 -0.4844,1.7031c0,0.3333 0.0365,0.6406 0.1094,0.9219c0.0729,0.2812 0.1927,0.526 0.3594,0.7344c0.1667,0.1979 0.375,0.3489 0.625,0.4531c0.2604,0.1042 0.5729,0.1562 0.9375,0.1562c0.3021,0 0.5729,-0.026 0.8125,-0.0781c0.2396,-0.0625 0.4271,-0.125 0.5625,-0.1875l0.1562,0.9375c-0.0625,0.0417 -0.1562,0.0833 -0.2812,0.125c-0.1146,0.0313 -0.25,0.0573 -0.4063,0.0781c-0.1562,0.0313 -0.3229,0.0573 -0.5,0.0782c-0.1666,0.0208 -0.3281,0.0312 -0.4843,0.0312zM1225.25387,360.42192c0,-0.5521 0.0782,-1.0313 0.2344,-1.4375c0.1667,-0.4167 0.3802,-0.7605 0.6406,-1.0313c0.2709,-0.2708 0.5782,-0.4739 0.9219,-0.6094c0.3438,-0.1354 0.6927,-0.2031 1.0469,-0.2031c0.8438,0 1.4896,0.2604 1.9375,0.7813c0.4479,0.5208 0.6719,1.3177 0.6719,2.3906c0,0.0521 0,0.1146 0,0.1875c0,0.0729 -0.0052,0.1458 -0.0156,0.2187h-4.2657c0.0417,0.6459 0.224,1.1355 0.5469,1.4688c0.3334,0.3333 0.849,0.5 1.5469,0.5c0.3958,0 0.724,-0.0313 0.9844,-0.0938c0.2708,-0.0729 0.4739,-0.1406 0.6094,-0.2031l0.1562,0.9375c-0.1354,0.0729 -0.375,0.1459 -0.7187,0.2188c-0.3334,0.0833 -0.7188,0.125 -1.1563,0.125c-0.5416,0 -1.0104,-0.0781 -1.4062,-0.2344c-0.3959,-0.1667 -0.724,-0.3958 -0.9844,-0.6875c-0.25,-0.2917 -0.4375,-0.6354 -0.5625,-1.0312c-0.125,-0.3959 -0.1875,-0.8282 -0.1875,-1.2969zM1229.53517,359.81252c0.0104,-0.5 -0.1146,-0.9115 -0.375,-1.2344c-0.2604,-0.3333 -0.6198,-0.5 -1.0781,-0.5c-0.25,0 -0.474,0.0521 -0.6719,0.1563c-0.1979,0.1041 -0.3646,0.2343 -0.5,0.3906c-0.1354,0.1562 -0.2396,0.3385 -0.3125,0.5469c-0.0729,0.2083 -0.125,0.4218 -0.1563,0.6406zM1233.63387,362.89062c0,0.2083 -0.0729,0.3958 -0.2188,0.5625c-0.1458,0.1563 -0.3437,0.2344 -0.5937,0.2344c-0.2396,0 -0.4323,-0.0781 -0.5781,-0.2344c-0.1459,-0.1667 -0.2188,-0.3542 -0.2188,-0.5625c0,-0.2187 0.0729,-0.4062 0.2188,-0.5625c0.1458,-0.1667 0.3385,-0.25 0.5781,-0.25c0.25,0 0.4479,0.0833 0.5937,0.25c0.1459,0.1563 0.2188,0.3438 0.2188,0.5625z" fill="#ffffff" stroke="none" stroke-width="1" stroke-linecap="square"/></g></g></svg>