<svg xmlns="http://www.w3.org/2000/svg" xmlns:xlink="http://www.w3.org/1999/xlink" version="1.1" width="179.01033" height="14.85976" viewBox="0,0,179.01033,14.85976"><g><g data-paper-data="{&quot;isPaintingLayer&quot;:true}" fill-rule="nonzero" stroke-linejoin="miter" stroke-miterlimit="10" stroke-dasharray="" stroke-dashoffset="0" style="mix-blend-mode: normal"><path d="M 7.05 14.6098 L 7.05 0.25 L 167.3742 0.25 L 167.3932 14.6098 Z " data-paper-data="{&quot;index&quot;:null}" fill="#000000" stroke="#ffffff" stroke-width="0.5" stroke-linecap="butt"/><path d="M 176.3582 14.588 C 173.9902 14.588 165.1251 14.588 165.1251 14.588 L 165.1251 0.263 C 165.1251 0.263 173.9484 0.263 176.3233 0.263 C 177.4312 0.263 178.7603 1.5901 178.7603 2.7134 C 178.7603 3.488 178.7603 9.0516 178.7603 12.2773 C 178.7603 13.6211 177.4532 14.588 176.3582 14.588 Z " data-paper-data="{&quot;index&quot;:null}" fill="#000000" stroke="#ffffff" stroke-width="0.5" stroke-linecap="butt"/><path d="M 0.25 12.2773 C 0.25 9.0516 0.25 3.488 0.25 2.7134 C 0.25 1.5901 1.5792 0.263 2.6871 0.263 C 5.0619 0.263 13.8852 0.263 13.8852 0.263 L 13.8852 14.588 C 13.8852 14.588 5.0202 14.588 2.6522 14.588 C 1.5571 14.588 0.25 13.6211 0.25 12.2773 Z " fill="#000000" stroke="#ffffff" stroke-width="0.5" stroke-linecap="butt"/><path d="M641.42469,366.91301v-13.81491h2.7619v13.81491z" fill="#000000" stroke="none" stroke-width="0" stroke-linecap="butt" transform="matrix(1,0,0,1,-628.6808,-352.57452)"/><path d="M792.11785,366.90747v-13.81491h2.7619v13.81491z" fill="#000000" stroke="none" stroke-width="0" stroke-linecap="butt" transform="matrix(1,0,0,1,-628.6808,-352.57452)"/><path d="M 5.4332 7.211 C 5.4332 5.8152 5.678 4.7422 6.1676 3.9922 C 6.6676 3.2318 7.3551 2.8516 8.2301 2.8516 C 9.0947 2.8516 9.7718 3.2318 10.2613 3.9922 C 10.7613 4.7422 11.0113 5.8152 11.0113 7.211 C 11.0113 8.5964 10.7613 9.6693 10.2613 10.4297 C 9.7718 11.1797 9.0947 11.5547 8.2301 11.5547 C 7.3551 11.5547 6.6676 11.1797 6.1676 10.4297 C 5.678 9.6693 5.4332 8.5964 5.4332 7.211 Z M 9.8238 7.211 C 9.8238 6.7527 9.7978 6.3204 9.7457 5.9141 C 9.7041 5.4974 9.6207 5.1381 9.4957 4.836 C 9.3707 4.5339 9.2041 4.2943 8.9957 4.1172 C 8.7874 3.9297 8.5322 3.836 8.2301 3.836 C 7.9176 3.836 7.6572 3.9297 7.4489 4.1172 C 7.2405 4.2943 7.0739 4.5339 6.9489 4.836 C 6.8343 5.1381 6.7509 5.4975 6.6989 5.9141 C 6.6468 6.3204 6.6207 6.7527 6.6207 7.211 C 6.6207 7.6589 6.6468 8.0912 6.6989 8.5079 C 6.751 8.9141 6.8343 9.2683 6.9489 9.5704 C 7.0739 9.8725 7.2405 10.1173 7.4489 10.3048 C 7.6572 10.4818 7.9176 10.5704 8.2301 10.5704 C 8.5322 10.5704 8.7874 10.4819 8.9957 10.3048 C 9.2041 10.1173 9.3707 9.8725 9.4957 9.5704 C 9.6207 9.2683 9.7041 8.9142 9.7457 8.5079 C 9.7978 8.0912 9.8239 7.6589 9.8239 7.211 Z M 13.8888 10.7266 C 13.8888 10.9349 13.8159 11.1224 13.67 11.2891 C 13.5242 11.4454 13.3263 11.5235 13.0763 11.5235 C 12.8367 11.5235 12.644 11.4454 12.4982 11.2891 C 12.3523 11.1225 12.2794 10.935 12.2794 10.7266 C 12.2794 10.5079 12.3523 10.3204 12.4982 10.1641 C 12.644 9.9975 12.8367 9.9141 13.0763 9.9141 C 13.3263 9.9141 13.5242 9.9975 13.67 10.1641 C 13.8159 10.3204 13.8888 10.5079 13.8888 10.7266 Z M 16.9502 6.2579 C 18.1585 6.2995 19.0439 6.5652 19.6064 7.0547 C 20.1689 7.5339 20.4502 8.185 20.4502 9.0079 C 20.4502 9.3725 20.3877 9.711 20.2627 10.0235 C 20.1377 10.336 19.9502 10.6068 19.7002 10.836 C 19.4502 11.0548 19.1325 11.2318 18.7471 11.3673 C 18.3617 11.4923 17.9033 11.5548 17.3721 11.5548 C 17.1742 11.5548 16.9658 11.5339 16.7471 11.4923 C 16.5283 11.461 16.3252 11.4193 16.1377 11.3673 C 15.9606 11.3256 15.7992 11.2839 15.6533 11.2423 C 15.5075 11.1902 15.4033 11.1485 15.3408 11.1173 L 15.5596 10.1485 C 15.695 10.211 15.9137 10.2943 16.2158 10.3985 C 16.5283 10.5027 16.9085 10.5548 17.3564 10.5548 C 17.721 10.5548 18.0231 10.5131 18.2627 10.4298 C 18.5023 10.3464 18.7002 10.237 18.8564 10.1016 C 19.0127 9.9662 19.1221 9.81 19.1846 9.6329 C 19.2575 9.4558 19.294 9.2683 19.294 9.0704 C 19.294 8.7579 19.2419 8.4871 19.1377 8.2579 C 19.0335 8.0183 18.846 7.8204 18.5752 7.6641 C 18.3148 7.4975 17.9606 7.3725 17.5127 7.2891 C 17.0752 7.2058 16.5231 7.1641 15.8565 7.1641 C 15.9085 6.7787 15.945 6.4141 15.9658 6.0704 C 15.9971 5.7266 16.0231 5.3933 16.044 5.0704 C 16.0752 4.7371 16.0961 4.4089 16.1065 4.086 C 16.1273 3.7527 16.1429 3.4089 16.1533 3.0548 L 20.169 3.0548 L 20.169 3.9923 L 17.1221 3.9923 C 17.1221 4.1173 17.1117 4.2839 17.0909 4.4923 C 17.0804 4.6902 17.0648 4.8985 17.044 5.1173 C 17.0231 5.336 17.0023 5.5496 16.9815 5.7579 C 16.9711 5.9662 16.9606 6.1329 16.9502 6.2579 Z M 26.0151 11.3672 C 25.9318 11.1902 25.8224 10.9974 25.687 10.7891 C 25.562 10.5704 25.4214 10.3464 25.2651 10.1172 C 25.1193 9.8881 24.963 9.6641 24.7964 9.4454 C 24.6401 9.2162 24.4891 9.0027 24.3432 8.8048 C 24.187 9.0027 24.0255 9.2162 23.8589 9.4454 C 23.7026 9.6746 23.5516 9.9037 23.4058 10.1329 C 23.2599 10.3516 23.1193 10.5704 22.9839 10.7891 C 22.8589 11.0079 22.7547 11.2006 22.6714 11.3673 L 21.5151 11.3673 C 21.7964 10.8256 22.1297 10.2735 22.5151 9.711 C 22.911 9.1381 23.3016 8.5964 23.687 8.086 L 21.6089 5.1329 L 22.8745 5.1329 L 24.3589 7.3048 L 25.8589 5.1329 L 27.0464 5.1329 L 25.0308 8.0235 C 25.4162 8.5444 25.812 9.0965 26.2183 9.6798 C 26.6245 10.2527 26.9683 10.8152 27.2495 11.3673 Z M 32.2785 7.7735 C 32.2785 8.8047 32.4244 9.7579 32.716 10.6329 C 33.0181 11.4974 33.4556 12.3047 34.0285 13.0547 L 33.2473 13.586 C 32.6223 12.8256 32.1171 11.9506 31.7317 10.961 C 31.3567 9.9714 31.1692 8.9089 31.1692 7.7735 C 31.1692 6.6381 31.3567 5.5808 31.7317 4.6016 C 32.1171 3.612 32.6223 2.737 33.2473 1.9766 L 34.0286 2.5079 C 33.4556 3.2579 33.0181 4.0704 32.7161 4.9454 C 32.4244 5.81 32.2786 6.7527 32.2786 7.7735 Z M 34.4628 7.211 C 34.4628 6.4922 34.567 5.862 34.7753 5.3204 C 34.9837 4.7787 35.2701 4.3256 35.6347 3.961 C 35.9993 3.5964 36.4212 3.3204 36.9003 3.1329 C 37.3899 2.9454 37.9056 2.8516 38.4472 2.8516 C 38.9889 2.8516 39.4941 2.9454 39.9629 3.1329 C 40.442 3.3204 40.8587 3.5964 41.2129 3.961 C 41.5774 4.3256 41.8639 4.7787 42.0722 5.3204 C 42.291 5.8621 42.4004 6.4923 42.4004 7.211 C 42.4004 7.9193 42.291 8.5443 42.0722 9.086 C 41.8639 9.6277 41.5774 10.0808 41.2129 10.4454 C 40.8587 10.81 40.442 11.086 39.9629 11.2735 C 39.4941 11.461 38.9889 11.5548 38.4472 11.5548 C 37.9056 11.5548 37.39 11.461 36.9004 11.2735 C 36.4212 11.086 35.9993 10.81 35.6348 10.4454 C 35.2702 10.0808 34.9837 9.6277 34.7754 9.086 C 34.567 8.5444 34.4629 7.9194 34.4629 7.211 Z M 35.6816 7.211 C 35.6816 7.711 35.7441 8.1693 35.8691 8.586 C 35.9941 8.9922 36.1764 9.3412 36.416 9.6329 C 36.6556 9.9141 36.942 10.1329 37.2753 10.2891 C 37.6191 10.4454 38.0045 10.5235 38.4316 10.5235 C 38.8483 10.5235 39.2233 10.4454 39.5566 10.2891 C 39.9003 10.1329 40.1868 9.9141 40.416 9.6329 C 40.6556 9.3412 40.8379 8.9923 40.9629 8.586 C 41.0983 8.1693 41.166 7.711 41.166 7.211 C 41.166 6.7006 41.0983 6.2423 40.9629 5.836 C 40.8379 5.4193 40.6556 5.0704 40.416 4.7891 C 40.1868 4.4975 39.9004 4.2735 39.5566 4.1173 C 39.2233 3.961 38.8483 3.8829 38.4316 3.8829 C 38.0045 3.8829 37.6191 3.961 37.2754 4.1173 C 36.942 4.2735 36.6556 4.4975 36.416 4.7892 C 36.1764 5.0704 35.9941 5.4194 35.8691 5.836 C 35.7441 6.2423 35.6816 6.7006 35.6816 7.211 Z M 44.0489 5.3047 C 44.3093 5.2422 44.6479 5.1745 45.0645 5.1016 C 45.4916 5.0287 45.9812 4.9922 46.5333 4.9922 C 47.0333 4.9922 47.4447 5.0652 47.7677 5.211 C 48.101 5.3464 48.3666 5.5391 48.5645 5.7891 C 48.7624 6.0391 48.8979 6.3412 48.9708 6.6954 C 49.0541 7.0495 49.0958 7.4402 49.0958 7.8673 L 49.0958 11.3673 L 47.9864 11.3673 L 47.9864 8.1016 C 47.9864 7.7162 47.9604 7.3881 47.9083 7.1173 C 47.8562 6.8464 47.7677 6.6277 47.6427 6.461 C 47.5281 6.2943 47.3666 6.1746 47.1583 6.1016 C 46.9604 6.0183 46.7156 5.9766 46.4239 5.9766 C 46.2989 5.9766 46.1739 5.9819 46.0489 5.9923 C 45.9239 6.0027 45.7989 6.0131 45.6739 6.0235 C 45.5593 6.0339 45.4552 6.0496 45.3614 6.0704 C 45.2781 6.0808 45.2156 6.0912 45.1739 6.1017 L 45.1739 11.3673 L 44.0489 11.3673 Z M 52.8119 11.4922 C 52.1244 11.4714 51.6348 11.3204 51.3432 11.0391 C 51.0619 10.7579 50.9213 10.3256 50.9213 9.7422 L 50.9213 2.2422 L 52.0307 2.0547 L 52.0307 9.5547 C 52.0307 9.7422 52.0463 9.8985 52.0776 10.0235 C 52.1088 10.1381 52.1609 10.2318 52.2338 10.3047 C 52.3067 10.3777 52.4005 10.4297 52.5151 10.461 C 52.6401 10.4922 52.7911 10.5235 52.9682 10.5547 Z M 53.4942 12.5235 C 53.5775 12.5652 53.6869 12.6016 53.8223 12.6329 C 53.9682 12.6745 54.1088 12.6954 54.2442 12.6954 C 54.6817 12.6954 55.0255 12.5964 55.2755 12.3985 C 55.5255 12.211 55.7494 11.8933 55.9473 11.4454 C 55.4473 10.487 54.9786 9.4714 54.5411 8.3985 C 54.1036 7.3256 53.739 6.237 53.4473 5.1329 L 54.6505 5.1329 C 54.7442 5.4871 54.8484 5.8725 54.963 6.2891 C 55.088 6.7058 55.2286 7.1381 55.3848 7.586 C 55.5411 8.0235 55.7026 8.461 55.8692 8.8985 C 56.0463 9.336 56.2338 9.7579 56.4317 10.1641 C 56.7338 9.3308 56.9942 8.5027 57.213 7.6798 C 57.4421 6.8464 57.6557 5.9975 57.8536 5.1329 L 59.0099 5.1329 C 58.7182 6.31 58.3953 7.4402 58.0411 8.5235 C 57.6974 9.6069 57.3171 10.6173 56.9005 11.5548 C 56.7442 11.9194 56.5776 12.2319 56.4005 12.4923 C 56.2338 12.7527 56.0463 12.9662 55.838 13.1329 C 55.6296 13.2996 55.3953 13.4194 55.1349 13.4923 C 54.8745 13.5756 54.5828 13.6173 54.2599 13.6173 C 54.1661 13.6173 54.0724 13.6121 53.9786 13.6017 C 53.8849 13.5913 53.7911 13.5756 53.6974 13.5548 C 53.6036 13.534 53.5203 13.5131 53.4474 13.4923 C 53.3745 13.4715 53.3224 13.4506 53.2911 13.4298 Z M 65.074 10.5704 C 65.3344 10.5704 65.5636 10.5652 65.7615 10.5547 C 65.9698 10.5339 66.1417 10.5079 66.2771 10.4766 L 66.2771 8.6173 C 66.1938 8.5756 66.0636 8.5443 65.8865 8.5235 C 65.7094 8.4923 65.4907 8.4766 65.2303 8.4766 C 65.0636 8.4766 64.8865 8.4923 64.699 8.5235 C 64.5115 8.5443 64.3396 8.5912 64.1834 8.6641 C 64.0271 8.7371 63.8969 8.8412 63.7928 8.9766 C 63.6886 9.1016 63.6365 9.2735 63.6365 9.4923 C 63.6365 9.8985 63.7615 10.1798 64.0115 10.336 C 64.2719 10.4923 64.6261 10.5704 65.074 10.5704 Z M 64.9646 4.9766 C 65.4125 4.9766 65.7928 5.0339 66.1053 5.1485 C 66.4178 5.2631 66.6678 5.4297 66.8553 5.6485 C 67.0428 5.8568 67.173 6.1068 67.2459 6.3985 C 67.3292 6.6902 67.3709 7.0079 67.3709 7.3516 L 67.3709 11.2579 C 67.2771 11.2787 67.1417 11.3048 66.9646 11.336 C 66.798 11.3568 66.6053 11.3777 66.3865 11.3985 C 66.1678 11.4298 65.9334 11.4506 65.6834 11.461 C 65.4334 11.4818 65.1834 11.4923 64.9334 11.4923 C 64.5792 11.4923 64.2563 11.4558 63.9647 11.3829 C 63.673 11.3204 63.4178 11.211 63.199 11.0548 C 62.9803 10.8985 62.8084 10.6954 62.6834 10.4454 C 62.5688 10.185 62.5115 9.8725 62.5115 9.5079 C 62.5115 9.1641 62.5793 8.8673 62.7147 8.6173 C 62.8605 8.3673 63.0532 8.1694 63.2928 8.0235 C 63.5324 7.8673 63.8084 7.7527 64.1209 7.6798 C 64.4438 7.6069 64.7824 7.5704 65.1366 7.5704 C 65.2511 7.5704 65.3657 7.5808 65.4803 7.6017 C 65.6053 7.6121 65.7199 7.6277 65.8241 7.6485 C 65.9386 7.659 66.0324 7.6746 66.1053 7.6954 C 66.1886 7.7162 66.2459 7.7267 66.2772 7.7267 L 66.2772 7.4142 C 66.2772 7.2371 66.2563 7.06 66.2147 6.8829 C 66.173 6.6954 66.1001 6.534 65.9959 6.3985 C 65.9022 6.2527 65.7616 6.1381 65.5741 6.0548 C 65.397 5.9715 65.1626 5.9298 64.8709 5.9298 C 64.5064 5.9298 64.1834 5.9558 63.9022 6.0079 C 63.6314 6.06 63.4282 6.1121 63.2928 6.1642 L 63.1522 5.2423 C 63.298 5.1798 63.5376 5.1225 63.871 5.0704 C 64.2147 5.0079 64.5793 4.9767 64.9647 4.9767 Z M 73.5568 8.2579 C 73.5568 7.5287 73.3745 6.9714 73.0099 6.586 C 72.6558 6.1902 72.1766 5.9922 71.5724 5.9922 C 71.2391 5.9922 70.9787 6.0079 70.7912 6.0391 C 70.6037 6.06 70.4526 6.086 70.338 6.1173 L 70.338 10.0548 C 70.4735 10.1589 70.6662 10.2631 70.9162 10.3673 C 71.1766 10.4714 71.4578 10.5235 71.7599 10.5235 C 72.0828 10.5235 72.3589 10.4662 72.5881 10.3516 C 72.8172 10.2371 72.9995 10.0808 73.1349 9.8829 C 73.2808 9.6746 73.3849 9.435 73.4474 9.1641 C 73.5203 8.8829 73.5568 8.5808 73.5568 8.2579 Z M 74.713 8.2579 C 74.713 8.7266 74.6505 9.1641 74.5255 9.5704 C 74.4005 9.9662 74.2183 10.3099 73.9787 10.6016 C 73.7391 10.8829 73.4422 11.1068 73.088 11.2735 C 72.7443 11.4297 72.3485 11.5079 71.9005 11.5079 C 71.5464 11.5079 71.2287 11.461 70.9474 11.3673 C 70.6766 11.2735 70.4735 11.1798 70.3381 11.086 L 70.3381 13.586 L 69.2131 13.586 L 69.2131 5.3204 C 69.4839 5.2579 69.8172 5.1902 70.2131 5.1173 C 70.6089 5.0339 71.0672 4.9923 71.5881 4.9923 C 72.0672 4.9923 72.4995 5.0704 72.8849 5.2266 C 73.2703 5.3725 73.5985 5.586 73.8693 5.8673 C 74.1402 6.1485 74.3485 6.4923 74.4943 6.8985 C 74.6402 7.3048 74.7131 7.7579 74.7131 8.2579 Z M 80.6248 8.2579 C 80.6248 7.5287 80.4426 6.9714 80.078 6.586 C 79.7238 6.1902 79.2446 5.9922 78.6405 5.9922 C 78.3071 5.9922 78.0467 6.0079 77.8592 6.0391 C 77.6717 6.06 77.5207 6.086 77.4061 6.1173 L 77.4061 10.0548 C 77.5415 10.1589 77.7342 10.2631 77.9842 10.3673 C 78.2446 10.4714 78.5259 10.5235 78.828 10.5235 C 79.1509 10.5235 79.4269 10.4662 79.6561 10.3516 C 79.8853 10.2371 80.0676 10.0808 80.203 9.8829 C 80.3488 9.6746 80.453 9.435 80.5155 9.1641 C 80.5884 8.8829 80.6249 8.5808 80.6249 8.2579 Z M 81.7811 8.2579 C 81.7811 8.7266 81.7186 9.1641 81.5936 9.5704 C 81.4686 9.9662 81.2863 10.3099 81.0467 10.6016 C 80.8071 10.8829 80.5103 11.1068 80.1561 11.2735 C 79.8124 11.4297 79.4165 11.5079 78.9686 11.5079 C 78.6144 11.5079 78.2967 11.461 78.0155 11.3673 C 77.7446 11.2735 77.5415 11.1798 77.4061 11.086 L 77.4061 13.586 L 76.2811 13.586 L 76.2811 5.3204 C 76.552 5.2579 76.8853 5.1902 77.2811 5.1173 C 77.677 5.0339 78.1353 4.9923 78.6561 4.9923 C 79.1353 4.9923 79.5676 5.0704 79.953 5.2266 C 80.3384 5.3725 80.6665 5.586 80.9374 5.8673 C 81.2082 6.1485 81.4165 6.4923 81.5624 6.8985 C 81.7082 7.3048 81.7811 7.7579 81.7811 8.2579 Z M 85.2242 11.4922 C 84.5367 11.4714 84.0471 11.3204 83.7554 11.0391 C 83.4742 10.7579 83.3335 10.3256 83.3335 9.7422 L 83.3335 2.2422 L 84.4429 2.0547 L 84.4429 9.5547 C 84.4429 9.7422 84.4585 9.8985 84.4898 10.0235 C 84.521 10.1381 84.5731 10.2318 84.646 10.3047 C 84.7189 10.3777 84.8127 10.4297 84.9273 10.461 C 85.0523 10.4922 85.2033 10.5235 85.3804 10.5547 Z M 87.7502 11.3672 L 86.6252 11.3672 L 86.6252 5.1329 L 87.7502 5.1329 Z M 87.1877 3.9922 C 86.9897 3.9922 86.8179 3.9297 86.672 3.8047 C 86.5366 3.6693 86.4689 3.4922 86.4689 3.2735 C 86.4689 3.0443 86.5366 2.8672 86.672 2.7422 C 86.8179 2.6068 86.9898 2.5391 87.1877 2.5391 C 87.3856 2.5391 87.5523 2.6068 87.6877 2.7422 C 87.8335 2.8672 87.9064 3.0443 87.9064 3.2735 C 87.9064 3.4922 87.8335 3.6693 87.6877 3.8047 C 87.5523 3.9297 87.3856 3.9922 87.1877 3.9922 Z M 89.3174 8.2579 C 89.3174 7.7058 89.3956 7.2266 89.5518 6.8204 C 89.7185 6.4037 89.932 6.0599 90.1925 5.7891 C 90.4633 5.5183 90.7706 5.3152 91.1143 5.1797 C 91.4581 5.0443 91.807 4.9766 92.1612 4.9766 C 93.005 4.9766 93.6508 5.237 94.0987 5.7579 C 94.5466 6.2787 94.7706 7.0756 94.7706 8.1485 C 94.7706 8.2006 94.7706 8.2631 94.7706 8.336 C 94.7706 8.4089 94.7654 8.4818 94.755 8.5548 L 90.4893 8.5548 C 90.531 9.2006 90.7133 9.6902 91.0362 10.0235 C 91.3696 10.3568 91.8852 10.5235 92.5831 10.5235 C 92.9789 10.5235 93.3071 10.4923 93.5675 10.4298 C 93.8383 10.3568 94.0414 10.2891 94.1769 10.2266 L 94.3331 11.1641 C 94.1977 11.2371 93.9581 11.31 93.6144 11.3829 C 93.281 11.4662 92.8956 11.5079 92.4581 11.5079 C 91.9165 11.5079 91.4477 11.4298 91.0519 11.2735 C 90.656 11.1068 90.3279 10.8777 90.0675 10.586 C 89.8175 10.2943 89.63 9.9506 89.505 9.5548 C 89.38 9.1589 89.3175 8.7266 89.3175 8.2579 Z M 93.5987 7.6485 C 93.6091 7.1485 93.4841 6.737 93.2237 6.4141 C 92.9633 6.0808 92.6039 5.9141 92.1456 5.9141 C 91.8956 5.9141 91.6716 5.9662 91.4737 6.0704 C 91.2758 6.1745 91.1091 6.3047 90.9737 6.461 C 90.8383 6.6172 90.7341 6.7995 90.6612 7.0079 C 90.5883 7.2162 90.5362 7.4298 90.505 7.6485 Z M 97.8224 10.5704 C 98.2807 10.5704 98.6192 10.5131 98.838 10.3985 C 99.0567 10.2735 99.1661 10.0756 99.1661 9.8047 C 99.1661 9.5339 99.0567 9.3204 98.838 9.1641 C 98.6296 8.9975 98.2755 8.8152 97.7755 8.6173 C 97.5359 8.5235 97.3067 8.4298 97.088 8.336 C 96.8692 8.2318 96.6765 8.112 96.5099 7.9766 C 96.3536 7.8412 96.2286 7.6798 96.1349 7.4923 C 96.0411 7.2943 95.9942 7.0548 95.9942 6.7735 C 95.9942 6.2214 96.1974 5.7839 96.6036 5.461 C 97.0099 5.1381 97.5672 4.9766 98.2755 4.9766 C 98.4526 4.9766 98.6245 4.9871 98.7911 5.0079 C 98.9682 5.0183 99.1349 5.0391 99.2911 5.0704 C 99.4474 5.1016 99.5828 5.1329 99.6974 5.1641 C 99.812 5.1954 99.9005 5.2214 99.963 5.2423 L 99.7599 6.211 C 99.6349 6.1485 99.4422 6.086 99.1818 6.0235 C 98.9318 5.9506 98.6297 5.9142 98.2755 5.9142 C 97.963 5.9142 97.687 5.9767 97.4474 6.1017 C 97.2182 6.2162 97.1037 6.4089 97.1037 6.6798 C 97.1037 6.8152 97.1297 6.935 97.1818 7.0392 C 97.2339 7.1433 97.312 7.2371 97.4162 7.3204 C 97.5308 7.4037 97.6662 7.4819 97.8224 7.5548 C 97.9891 7.6277 98.1818 7.7006 98.4005 7.7735 C 98.7026 7.8881 98.9683 8.0027 99.1974 8.1173 C 99.4266 8.2215 99.6245 8.3465 99.7912 8.4923 C 99.9578 8.6381 100.0828 8.8152 100.1662 9.0235 C 100.2599 9.2215 100.3068 9.4663 100.3068 9.7579 C 100.3068 10.3308 100.0881 10.7683 99.6506 11.0704 C 99.2235 11.3621 98.6141 11.5079 97.8224 11.5079 C 97.2703 11.5079 96.8381 11.4611 96.5256 11.3673 C 96.2131 11.284 96.0047 11.2163 95.9006 11.1642 L 96.1037 10.2111 C 96.2287 10.2527 96.4318 10.3256 96.7131 10.4298 C 96.9943 10.5236 97.3641 10.5704 97.8225 10.5704 Z M 105.5402 5.1329 L 107.9152 5.1329 L 107.9152 6.0704 L 105.5402 6.0704 L 105.5402 8.9454 C 105.5402 9.2579 105.561 9.5183 105.6027 9.7266 C 105.6548 9.9245 105.7277 10.0808 105.8214 10.1954 C 105.9256 10.3099 106.0506 10.3933 106.1964 10.4454 C 106.3423 10.487 106.5089 10.5079 106.6964 10.5079 C 107.0298 10.5079 107.2954 10.4714 107.4933 10.3985 C 107.7016 10.3256 107.8474 10.2735 107.9308 10.2422 L 108.1495 11.1641 C 108.0349 11.2162 107.837 11.2839 107.5558 11.3673 C 107.2745 11.4506 106.9568 11.4923 106.6027 11.4923 C 106.1756 11.4923 105.8214 11.4402 105.5402 11.336 C 105.2693 11.2318 105.0506 11.0704 104.8839 10.8516 C 104.7173 10.6329 104.5975 10.3673 104.5245 10.0548 C 104.462 9.7423 104.4308 9.3777 104.4308 8.961 L 104.4308 3.3829 L 105.5402 3.1954 Z M 114.6649 8.2422 C 114.6649 8.7422 114.592 9.1954 114.4462 9.6016 C 114.3003 9.9974 114.0972 10.3412 113.8368 10.6329 C 113.5764 10.9141 113.2639 11.1329 112.8993 11.2891 C 112.5452 11.4454 112.1597 11.5235 111.7431 11.5235 C 111.316 11.5235 110.9202 11.4454 110.5556 11.2891 C 110.2014 11.1329 109.8941 10.9141 109.6337 10.6329 C 109.3733 10.3412 109.1702 9.9975 109.0243 9.6016 C 108.8785 9.1954 108.8056 8.7423 108.8056 8.2423 C 108.8056 7.7527 108.8785 7.31 109.0243 6.9141 C 109.1702 6.5079 109.3733 6.1641 109.6337 5.8829 C 109.8941 5.5912 110.2014 5.3673 110.5556 5.211 C 110.9202 5.0548 111.316 4.9766 111.7431 4.9766 C 112.1597 4.9766 112.5452 5.0548 112.8993 5.211 C 113.2639 5.3673 113.5764 5.5912 113.8368 5.8829 C 114.0972 6.1642 114.3004 6.5079 114.4462 6.9142 C 114.5921 7.31 114.665 7.7527 114.665 8.2423 Z M 113.4931 8.2422 C 113.4931 7.5443 113.3368 6.9922 113.0243 6.586 C 112.7118 6.1693 112.2847 5.961 111.7431 5.961 C 111.191 5.961 110.7587 6.1693 110.4462 6.586 C 110.1337 6.9922 109.9774 7.5443 109.9774 8.2422 C 109.9774 8.9506 110.1337 9.5131 110.4462 9.9297 C 110.7587 10.336 111.191 10.5391 111.7431 10.5391 C 112.2847 10.5391 112.7118 10.336 113.0243 9.9297 C 113.3368 9.5131 113.4931 8.9506 113.4931 8.2422 Z M 122.9233 10.7422 C 122.8295 10.8047 122.642 10.8881 122.3608 10.9922 C 122.0899 11.086 121.767 11.1329 121.392 11.1329 C 121.017 11.1329 120.6629 11.0756 120.3295 10.961 C 119.9962 10.836 119.7045 10.6485 119.4545 10.3985 C 119.2149 10.1485 119.0222 9.836 118.8764 9.461 C 118.7306 9.086 118.6576 8.6381 118.6576 8.1172 C 118.6576 7.6589 118.7254 7.2422 118.8608 6.8672 C 118.9962 6.4818 119.1941 6.1537 119.4545 5.8829 C 119.7149 5.6016 120.0327 5.3829 120.4077 5.2266 C 120.7827 5.0704 121.2097 4.9923 121.6889 4.9923 C 122.2097 4.9923 122.6629 5.0339 123.0483 5.1173 C 123.4337 5.1902 123.7566 5.2579 124.017 5.3204 L 124.017 10.8829 C 124.017 11.8412 123.767 12.5339 123.267 12.961 C 122.7774 13.3985 122.0274 13.6173 121.017 13.6173 C 120.6316 13.6173 120.2618 13.586 119.9077 13.5235 C 119.5639 13.461 119.2618 13.3881 119.0014 13.3048 L 119.2045 12.3204 C 119.4337 12.4141 119.7098 12.4923 120.0327 12.5548 C 120.3556 12.6277 120.6941 12.6642 121.0483 12.6642 C 121.715 12.6642 122.1941 12.5287 122.4858 12.2579 C 122.7775 11.9975 122.9233 11.5808 122.9233 11.0079 Z M 122.9076 6.1172 C 122.7931 6.086 122.642 6.0547 122.4545 6.0235 C 122.267 5.9922 122.0118 5.9766 121.6889 5.9766 C 121.0952 5.9766 120.6368 6.1745 120.3139 6.5704 C 119.991 6.9558 119.8295 7.4766 119.8295 8.1329 C 119.8295 8.487 119.8712 8.7943 119.9545 9.0547 C 120.0483 9.3047 120.1733 9.5183 120.3295 9.6954 C 120.4858 9.862 120.6629 9.987 120.8608 10.0704 C 121.0691 10.1433 121.2827 10.1798 121.5014 10.1798 C 121.8035 10.1798 122.0743 10.1381 122.3139 10.0548 C 122.5639 9.9714 122.7618 9.8725 122.9077 9.7579 Z M 128.0624 10.5704 C 128.3228 10.5704 128.552 10.5652 128.7499 10.5547 C 128.9583 10.5339 129.1301 10.5079 129.2656 10.4766 L 129.2656 8.6173 C 129.1822 8.5756 129.052 8.5443 128.8749 8.5235 C 128.6979 8.4923 128.4791 8.4766 128.2187 8.4766 C 128.052 8.4766 127.8749 8.4923 127.6874 8.5235 C 127.4999 8.5443 127.3281 8.5912 127.1718 8.6641 C 127.0156 8.7371 126.8854 8.8412 126.7812 8.9766 C 126.677 9.1016 126.625 9.2735 126.625 9.4923 C 126.625 9.8985 126.75 10.1798 127 10.336 C 127.2604 10.4923 127.6145 10.5704 128.0625 10.5704 Z M 127.9531 4.9766 C 128.401 4.9766 128.7812 5.0339 129.0937 5.1485 C 129.4062 5.2631 129.6562 5.4297 129.8437 5.6485 C 130.0312 5.8568 130.1614 6.1068 130.2343 6.3985 C 130.3177 6.6902 130.3593 7.0079 130.3593 7.3516 L 130.3593 11.2579 C 130.2656 11.2787 130.1302 11.3048 129.9531 11.336 C 129.7864 11.3568 129.5937 11.3777 129.375 11.3985 C 129.1562 11.4298 128.9218 11.4506 128.6718 11.461 C 128.4218 11.4818 128.1718 11.4923 127.9218 11.4923 C 127.5677 11.4923 127.2447 11.4558 126.9531 11.3829 C 126.6614 11.3204 126.4062 11.211 126.1875 11.0548 C 125.9687 10.8985 125.7968 10.6954 125.6718 10.4454 C 125.5572 10.185 125.5 9.8725 125.5 9.5079 C 125.5 9.1641 125.5677 8.8673 125.7031 8.6173 C 125.8489 8.3673 126.0416 8.1694 126.2812 8.0235 C 126.5208 7.8673 126.7969 7.7527 127.1094 7.6798 C 127.4323 7.6069 127.7708 7.5704 128.125 7.5704 C 128.2396 7.5704 128.3541 7.5808 128.4687 7.6017 C 128.5937 7.6121 128.7083 7.6277 128.8125 7.6485 C 128.9271 7.659 129.0208 7.6746 129.0937 7.6954 C 129.1771 7.7162 129.2344 7.7267 129.2656 7.7267 L 129.2656 7.4142 C 129.2656 7.2371 129.2448 7.06 129.2031 6.8829 C 129.1615 6.6954 129.0885 6.534 128.9844 6.3985 C 128.8906 6.2527 128.75 6.1381 128.5625 6.0548 C 128.3854 5.9715 128.151 5.9298 127.8594 5.9298 C 127.4948 5.9298 127.1719 5.9558 126.8906 6.0079 C 126.6198 6.06 126.4167 6.1121 126.2813 6.1642 L 126.1406 5.2423 C 126.2865 5.1798 126.526 5.1225 126.8594 5.0704 C 127.2031 5.0079 127.5677 4.9767 127.9531 4.9767 Z M 132.2015 5.3047 C 132.4619 5.2422 132.8004 5.1745 133.2171 5.1016 C 133.6442 5.0287 134.1338 4.9922 134.6858 4.9922 C 135.0817 4.9922 135.415 5.0495 135.6858 5.1641 C 135.9567 5.2683 136.1858 5.4245 136.3733 5.6329 C 136.4254 5.5912 136.5088 5.5339 136.6233 5.461 C 136.7483 5.3881 136.8994 5.3204 137.0765 5.2579 C 137.2536 5.185 137.4515 5.1225 137.6702 5.0704 C 137.889 5.0183 138.1181 4.9923 138.3577 4.9923 C 138.8473 4.9923 139.2431 5.0652 139.5452 5.211 C 139.8473 5.3464 140.0817 5.5443 140.2484 5.8048 C 140.4254 6.0548 140.54 6.3568 140.5921 6.711 C 140.6546 7.0652 140.6859 7.4506 140.6859 7.8673 L 140.6859 11.3673 L 139.5765 11.3673 L 139.5765 8.1016 C 139.5765 7.7371 139.5556 7.4246 139.514 7.1641 C 139.4827 6.8933 139.415 6.6694 139.3109 6.4923 C 139.2171 6.3152 139.0817 6.185 138.9046 6.1017 C 138.738 6.0183 138.5192 5.9767 138.2484 5.9767 C 137.8734 5.9767 137.5609 6.0287 137.3109 6.1329 C 137.0713 6.2267 136.9046 6.3152 136.8109 6.3985 C 136.8734 6.6069 136.9202 6.836 136.9515 7.086 C 136.9932 7.336 137.014 7.5965 137.014 7.8673 L 137.014 11.3673 L 135.889 11.3673 L 135.889 8.1017 C 135.889 7.7371 135.8682 7.4246 135.8265 7.1642 C 135.7952 6.8933 135.7275 6.6694 135.6234 6.4923 C 135.5192 6.3152 135.3786 6.185 135.2015 6.1017 C 135.0348 6.0183 134.8213 5.9767 134.5609 5.9767 C 134.4463 5.9767 134.3265 5.9819 134.2015 5.9923 C 134.0765 6.0027 133.9515 6.0131 133.8265 6.0236 C 133.7119 6.034 133.6078 6.0496 133.514 6.0704 C 133.4203 6.0809 133.3578 6.0913 133.3265 6.1017 L 133.3265 11.3673 L 132.2015 11.3673 Z M 142.1898 8.2579 C 142.1898 7.7058 142.2679 7.2266 142.4242 6.8204 C 142.5909 6.4037 142.8044 6.0599 143.0648 5.7891 C 143.3357 5.5183 143.643 5.3152 143.9867 5.1797 C 144.3305 5.0443 144.6794 4.9766 145.0336 4.9766 C 145.8773 4.9766 146.5232 5.237 146.9711 5.7579 C 147.419 6.2787 147.643 7.0756 147.643 8.1485 C 147.643 8.2006 147.643 8.2631 147.643 8.336 C 147.643 8.4089 147.6377 8.4818 147.6273 8.5548 L 143.3617 8.5548 C 143.4034 9.2006 143.5857 9.6902 143.9086 10.0235 C 144.2419 10.3568 144.7576 10.5235 145.4555 10.5235 C 145.8513 10.5235 146.1794 10.4923 146.4399 10.4298 C 146.7107 10.3568 146.9138 10.2891 147.0492 10.2266 L 147.2055 11.1641 C 147.0701 11.2371 146.8305 11.31 146.4867 11.3829 C 146.1534 11.4662 145.768 11.5079 145.3305 11.5079 C 144.7888 11.5079 144.3201 11.4298 143.9242 11.2735 C 143.5284 11.1068 143.2003 10.8777 142.9399 10.586 C 142.6899 10.2943 142.5024 9.9506 142.3774 9.5548 C 142.2524 9.1589 142.1899 8.7266 142.1899 8.2579 Z M 146.4711 7.6485 C 146.4815 7.1485 146.3565 6.737 146.0961 6.4141 C 145.8357 6.0808 145.4763 5.9141 145.0179 5.9141 C 144.7679 5.9141 144.544 5.9662 144.3461 6.0704 C 144.1482 6.1745 143.9815 6.3047 143.8461 6.461 C 143.7107 6.6172 143.6065 6.7995 143.5336 7.0079 C 143.4607 7.2162 143.4086 7.4298 143.3773 7.6485 Z M 153.5854 8.2579 C 153.5854 7.5287 153.4031 6.9714 153.0385 6.586 C 152.6843 6.1902 152.2051 5.9922 151.601 5.9922 C 151.2676 5.9922 151.0072 6.0079 150.8197 6.0391 C 150.6322 6.06 150.4812 6.086 150.3666 6.1173 L 150.3666 10.0548 C 150.502 10.1589 150.6947 10.2631 150.9447 10.3673 C 151.2052 10.4714 151.4864 10.5235 151.7885 10.5235 C 152.1114 10.5235 152.3875 10.4662 152.6166 10.3516 C 152.8458 10.2371 153.0281 10.0808 153.1635 9.8829 C 153.3093 9.6746 153.4135 9.435 153.476 9.1641 C 153.5489 8.8829 153.5854 8.5808 153.5854 8.2579 Z M 154.7416 8.2579 C 154.7416 8.7266 154.6791 9.1641 154.5541 9.5704 C 154.4291 9.9662 154.2468 10.3099 154.0072 10.6016 C 153.7676 10.8829 153.4708 11.1068 153.1166 11.2735 C 152.7729 11.4297 152.377 11.5079 151.9291 11.5079 C 151.575 11.5079 151.2572 11.461 150.976 11.3673 C 150.7052 11.2735 150.502 11.1798 150.3666 11.086 L 150.3666 13.586 L 149.2416 13.586 L 149.2416 5.3204 C 149.5125 5.2579 149.8458 5.1902 150.2416 5.1173 C 150.6375 5.0339 151.0958 4.9923 151.6166 4.9923 C 152.0958 4.9923 152.5281 5.0704 152.9135 5.2266 C 153.2989 5.3725 153.627 5.586 153.8979 5.8673 C 154.1687 6.1485 154.377 6.4923 154.5229 6.8985 C 154.6687 7.3048 154.7416 7.7579 154.7416 8.2579 Z M 158.1847 11.4922 C 157.4972 11.4714 157.0076 11.3204 156.7159 11.0391 C 156.4347 10.7579 156.294 10.3256 156.294 9.7422 L 156.294 2.2422 L 157.4034 2.0547 L 157.4034 9.5547 C 157.4034 9.7422 157.419 9.8985 157.4503 10.0235 C 157.4815 10.1381 157.5336 10.2318 157.6065 10.3047 C 157.6795 10.3777 157.7732 10.4297 157.8878 10.461 C 158.0128 10.4922 158.1638 10.5235 158.3409 10.5547 Z M 161.7107 10.5704 C 161.9711 10.5704 162.2003 10.5652 162.3982 10.5547 C 162.6065 10.5339 162.7784 10.5079 162.9138 10.4766 L 162.9138 8.6173 C 162.8305 8.5756 162.7003 8.5443 162.5232 8.5235 C 162.3461 8.4923 162.1274 8.4766 161.8669 8.4766 C 161.7003 8.4766 161.5232 8.4923 161.3357 8.5235 C 161.1482 8.5443 160.9763 8.5912 160.8201 8.6641 C 160.6638 8.7371 160.5336 8.8412 160.4295 8.9766 C 160.3253 9.1016 160.2732 9.2735 160.2732 9.4923 C 160.2732 9.8985 160.3982 10.1798 160.6482 10.336 C 160.9086 10.4923 161.2628 10.5704 161.7107 10.5704 Z M 161.6013 4.9766 C 162.0492 4.9766 162.4294 5.0339 162.7419 5.1485 C 163.0544 5.2631 163.3044 5.4297 163.4919 5.6485 C 163.6794 5.8568 163.8097 6.1068 163.8826 6.3985 C 163.9659 6.6902 164.0076 7.0079 164.0076 7.3516 L 164.0076 11.2579 C 163.9138 11.2787 163.7784 11.3048 163.6013 11.336 C 163.4347 11.3568 163.2419 11.3777 163.0232 11.3985 C 162.8044 11.4298 162.5701 11.4506 162.3201 11.461 C 162.0701 11.4818 161.8201 11.4923 161.5701 11.4923 C 161.2159 11.4923 160.893 11.4558 160.6013 11.3829 C 160.3097 11.3204 160.0545 11.211 159.8357 11.0548 C 159.617 10.8985 159.4451 10.6954 159.3201 10.4454 C 159.2055 10.185 159.1482 9.8725 159.1482 9.5079 C 159.1482 9.1641 159.2159 8.8673 159.3513 8.6173 C 159.4972 8.3673 159.6899 8.1694 159.9295 8.0235 C 160.1691 7.8673 160.4451 7.7527 160.7576 7.6798 C 161.0805 7.6069 161.4191 7.5704 161.7732 7.5704 C 161.8878 7.5704 162.0024 7.5808 162.117 7.6017 C 162.242 7.6121 162.3566 7.6277 162.4607 7.6485 C 162.5753 7.659 162.6691 7.6746 162.742 7.6954 C 162.8253 7.7162 162.8826 7.7267 162.9139 7.7267 L 162.9139 7.4142 C 162.9139 7.2371 162.893 7.06 162.8514 6.8829 C 162.8097 6.6954 162.7368 6.534 162.6326 6.3985 C 162.5389 6.2527 162.3982 6.1381 162.2107 6.0548 C 162.0337 5.9715 161.7993 5.9298 161.5076 5.9298 C 161.143 5.9298 160.8201 5.9558 160.5389 6.0079 C 160.268 6.06 160.0649 6.1121 159.9295 6.1642 L 159.7889 5.2423 C 159.9347 5.1798 160.1743 5.1225 160.5076 5.0704 C 160.8514 5.0079 161.216 4.9767 161.6014 4.9767 Z M 164.951 12.5235 C 165.0343 12.5652 165.1437 12.6016 165.2791 12.6329 C 165.425 12.6745 165.5656 12.6954 165.701 12.6954 C 166.1385 12.6954 166.4822 12.5964 166.7322 12.3985 C 166.9822 12.211 167.2062 11.8933 167.4041 11.4454 C 166.9041 10.487 166.4354 9.4714 165.9979 8.3985 C 165.5604 7.3256 165.1958 6.237 164.9041 5.1329 L 166.1073 5.1329 C 166.201 5.4871 166.3052 5.8725 166.4198 6.2891 C 166.5448 6.7058 166.6854 7.1381 166.8416 7.586 C 166.9979 8.0235 167.1593 8.461 167.326 8.8985 C 167.5031 9.336 167.6906 9.7579 167.8885 10.1641 C 168.1906 9.3308 168.451 8.5027 168.6698 7.6798 C 168.8989 6.8464 169.1125 5.9975 169.3104 5.1329 L 170.4666 5.1329 C 170.175 6.31 169.852 7.4402 169.4979 8.5235 C 169.1541 9.6069 168.7739 10.6173 168.3573 11.5548 C 168.201 11.9194 168.0344 12.2319 167.8573 12.4923 C 167.6906 12.7527 167.5031 12.9662 167.2948 13.1329 C 167.0864 13.2996 166.8521 13.4194 166.5916 13.4923 C 166.3312 13.5756 166.0396 13.6173 165.7166 13.6173 C 165.6229 13.6173 165.5291 13.6121 165.4354 13.6017 C 165.3416 13.5913 165.2479 13.5756 165.1541 13.5548 C 165.0604 13.534 164.9771 13.5131 164.9041 13.4923 C 164.8312 13.4715 164.7791 13.4506 164.7479 13.4298 Z M 172.5244 7.7735 C 172.5244 6.7527 172.3733 5.8099 172.0713 4.9454 C 171.7796 4.0704 171.3421 3.2579 170.7588 2.5079 L 171.5556 1.9766 C 172.1806 2.737 172.6806 3.612 173.0556 4.6016 C 173.4411 5.5808 173.6338 6.6381 173.6338 7.7735 C 173.6338 8.9089 173.4411 9.9714 173.0557 10.961 C 172.6807 11.9506 172.1807 12.8256 171.5557 13.586 L 170.7588 13.0547 C 171.3421 12.3047 171.7796 11.4975 172.0713 10.6329 C 172.3734 9.7579 172.5244 8.8048 172.5244 7.7735 Z " fill="#ffffff" stroke="none" stroke-width="1" stroke-linecap="square"/></g></g></svg>