<svg xmlns="http://www.w3.org/2000/svg" xmlns:xlink="http://www.w3.org/1999/xlink" version="1.1" width="336.6137" height="14.85976" viewBox="0,0,336.6137,14.85976"><g><g data-paper-data="{&quot;isPaintingLayer&quot;:true}" fill-rule="nonzero" stroke-linejoin="miter" stroke-miterlimit="10" stroke-dasharray="" stroke-dashoffset="0" style="mix-blend-mode: normal"><path d="M 7.1572 14.6098 L 7.1572 0.25 L 332.3618 0.25 L 332.4004 14.6098 Z " data-paper-data="{&quot;index&quot;:null}" fill="#000000" stroke="#ffffff" stroke-width="0.5" stroke-linecap="butt"/><path d="M 333.9615 14.588 C 331.5935 14.588 322.7285 14.588 322.7285 14.588 L 322.7285 0.2631 C 322.7285 0.2631 331.5518 0.2631 333.9266 0.2631 C 335.0345 0.2631 336.3637 1.5901 336.3637 2.7134 C 336.3637 3.488 336.3637 9.0516 336.3637 12.2773 C 336.3637 13.6211 335.0566 14.588 333.9615 14.588 Z " data-paper-data="{&quot;index&quot;:null}" fill="#000000" stroke="#ffffff" stroke-width="0.5" stroke-linecap="butt"/><path d="M 0.25 12.2773 C 0.25 9.0516 0.25 3.488 0.25 2.7134 C 0.25 1.5901 1.5792 0.2631 2.6871 0.2631 C 5.0619 0.2631 13.8852 0.2631 13.8852 0.2631 L 13.8852 14.588 C 13.8852 14.588 5.0202 14.588 2.6522 14.588 C 1.5571 14.588 0.25 13.6211 0.25 12.2773 Z " fill="#000000" stroke="#ffffff" stroke-width="0.5" stroke-linecap="butt"/><path d="M635.73334,366.9206v-13.84106h21.10476v13.84106z" fill="#000000" stroke="none" stroke-width="0" stroke-linecap="butt" transform="matrix(1,0,0,1,-628.57367,-352.57452)"/><path d="M950.30753,366.9075v-13.81491h2.7619v13.81491z" fill="#000000" stroke="none" stroke-width="0" stroke-linecap="butt" transform="matrix(1,0,0,1,-628.57367,-352.57452)"/><path d="M 7.6119 10.1286 C 8.8203 10.1286 9.4244 9.7119 9.4244 8.8786 C 9.4244 8.6286 9.3723 8.4151 9.2682 8.238 C 9.164 8.0505 9.0182 7.8942 8.8307 7.7692 C 8.6432 7.6338 8.4297 7.5192 8.1901 7.4255 C 7.9609 7.3213 7.7161 7.2224 7.4557 7.1286 C 7.1536 7.0244 6.8619 6.9099 6.5807 6.7849 C 6.3099 6.6494 6.0755 6.4932 5.8776 6.3161 C 5.6797 6.1286 5.5234 5.9151 5.4088 5.6755 C 5.2942 5.4255 5.237 5.1234 5.237 4.7692 C 5.237 4.0401 5.4817 3.4724 5.9713 3.0661 C 6.4713 2.6495 7.1588 2.4411 8.0338 2.4411 C 8.5338 2.4411 8.987 2.4984 9.3932 2.613 C 9.8099 2.7172 10.112 2.837 10.2995 2.9724 L 9.9401 3.9099 C 9.7734 3.8057 9.5234 3.7068 9.1901 3.613 C 8.8568 3.5088 8.4713 3.4568 8.0338 3.4568 C 7.8047 3.4568 7.5911 3.4828 7.3932 3.5349 C 7.2057 3.5766 7.0391 3.6495 6.8932 3.7536 C 6.7578 3.8474 6.6432 3.9672 6.5495 4.113 C 6.4661 4.2589 6.4245 4.4307 6.4245 4.6287 C 6.4245 4.8578 6.4661 5.0505 6.5495 5.2068 C 6.6432 5.3526 6.7682 5.4828 6.9245 5.5974 C 7.0911 5.712 7.2786 5.8214 7.487 5.9255 C 7.7057 6.0193 7.9401 6.113 8.1901 6.2068 C 8.5547 6.3526 8.8828 6.4985 9.1745 6.6443 C 9.4766 6.7797 9.737 6.9516 9.9557 7.1599 C 10.1849 7.3578 10.3568 7.5974 10.4714 7.8787 C 10.5964 8.1495 10.6589 8.4776 10.6589 8.8631 C 10.6589 9.5922 10.3932 10.1547 9.862 10.5506 C 9.3307 10.9464 8.5807 11.1443 7.612 11.1443 C 7.2787 11.1443 6.9714 11.1183 6.6901 11.0662 C 6.4193 11.0245 6.1745 10.9776 5.9558 10.9256 C 5.7474 10.8631 5.5651 10.7954 5.4089 10.7224 C 5.2526 10.6495 5.1276 10.5922 5.0339 10.5506 L 5.3933 9.5818 C 5.5704 9.686 5.8464 9.8058 6.2214 9.9412 C 6.5964 10.0662 7.0599 10.1287 7.612 10.1287 Z M 11.9804 10.9567 L 11.9804 1.8317 L 13.1054 1.6442 L 13.1054 4.8317 C 13.3137 4.7588 13.5325 4.7015 13.7616 4.6599 C 14.0012 4.6078 14.2356 4.5817 14.4647 4.5817 C 14.9647 4.5817 15.3762 4.6547 15.6991 4.8005 C 16.0325 4.9359 16.2981 5.1286 16.496 5.3786 C 16.6939 5.6286 16.8293 5.9307 16.9023 6.2849 C 16.9856 6.639 17.0273 7.0297 17.0273 7.4567 L 17.0273 10.9567 L 15.9179 10.9567 L 15.9179 7.6911 C 15.9179 7.3057 15.8918 6.9776 15.8398 6.7068 C 15.7877 6.4359 15.6991 6.2172 15.5741 6.0505 C 15.4596 5.8838 15.2981 5.764 15.0898 5.6911 C 14.8919 5.6078 14.6471 5.5661 14.3554 5.5661 C 14.2304 5.5661 14.1054 5.5766 13.9804 5.5974 C 13.8554 5.6078 13.7304 5.6234 13.6054 5.6443 C 13.4908 5.6651 13.3867 5.6911 13.2929 5.7224 C 13.2096 5.7432 13.1471 5.7589 13.1054 5.7693 L 13.1054 10.9568 Z M 24.348 7.8317 C 24.348 8.3317 24.2751 8.7849 24.1293 9.1911 C 23.9834 9.5869 23.7803 9.9307 23.5199 10.2224 C 23.2595 10.5036 22.947 10.7224 22.5824 10.8786 C 22.2283 11.0349 21.8428 11.113 21.4262 11.113 C 20.9991 11.113 20.6033 11.0349 20.2387 10.8786 C 19.8845 10.7224 19.5772 10.5036 19.3168 10.2224 C 19.0564 9.9307 18.8533 9.5869 18.7074 9.1911 C 18.5616 8.7849 18.4887 8.3317 18.4887 7.8317 C 18.4887 7.3422 18.5616 6.8995 18.7074 6.5036 C 18.8533 6.0974 19.0564 5.7536 19.3168 5.4724 C 19.5772 5.1807 19.8845 4.9568 20.2387 4.8005 C 20.6033 4.6443 20.9991 4.5661 21.4262 4.5661 C 21.8428 4.5661 22.2283 4.6443 22.5824 4.8005 C 22.947 4.9568 23.2595 5.1807 23.5199 5.4724 C 23.7803 5.7536 23.9835 6.0974 24.1293 6.5036 C 24.2751 6.8995 24.3481 7.3422 24.3481 7.8318 Z M 23.1762 7.8317 C 23.1762 7.1338 23.0199 6.5817 22.7074 6.1755 C 22.3949 5.7588 21.9678 5.5505 21.4262 5.5505 C 20.8741 5.5505 20.4418 5.7588 20.1293 6.1755 C 19.8168 6.5817 19.6605 7.1338 19.6605 7.8317 C 19.6605 8.5401 19.8168 9.1026 20.1293 9.5192 C 20.4418 9.9255 20.8741 10.1286 21.4262 10.1286 C 21.9678 10.1286 22.3949 9.9255 22.7074 9.5192 C 23.0199 9.1026 23.1762 8.5401 23.1762 7.8317 Z M 30.8658 10.9567 C 30.6367 10.3838 30.3971 9.7276 30.1471 8.988 C 29.8971 8.2484 29.6679 7.4776 29.4596 6.6755 C 29.2512 7.4776 29.0221 8.2484 28.7721 8.988 C 28.5221 9.7276 28.2877 10.3838 28.069 10.9567 L 27.1002 10.9567 C 26.7252 10.1338 26.3606 9.1963 26.0065 8.1442 C 25.6627 7.0817 25.3346 5.9411 25.0221 4.7224 L 26.2252 4.7224 C 26.2981 5.0974 26.3919 5.5036 26.5065 5.9411 C 26.6211 6.3786 26.7408 6.8213 26.8658 7.2692 C 26.9908 7.7067 27.1211 8.1286 27.2565 8.5349 C 27.3919 8.9411 27.5169 9.2953 27.6315 9.5974 C 27.7669 9.2224 27.9023 8.8265 28.0377 8.4099 C 28.1731 7.9828 28.2981 7.5557 28.4127 7.1286 C 28.5377 6.7015 28.6523 6.2849 28.7565 5.8786 C 28.8606 5.4619 28.9544 5.0765 29.0377 4.7224 L 29.9596 4.7224 C 30.0325 5.0765 30.1211 5.4619 30.2252 5.8786 C 30.3294 6.2849 30.4388 6.7015 30.5534 7.1286 C 30.6784 7.5557 30.8086 7.9828 30.944 8.4099 C 31.0794 8.8265 31.2148 9.2224 31.3502 9.5974 C 31.4648 9.2953 31.5846 8.9411 31.7096 8.5349 C 31.845 8.1286 31.9753 7.7067 32.1003 7.2692 C 32.2357 6.8213 32.3607 6.3786 32.4753 5.9411 C 32.5898 5.5036 32.6836 5.0974 32.7565 4.7224 L 33.9128 4.7224 C 33.6003 5.9411 33.2669 7.0818 32.9128 8.1443 C 32.5586 9.1963 32.1992 10.1338 31.8346 10.9568 Z M 39.9775 10.1599 C 40.238 10.1599 40.4671 10.1547 40.665 10.1442 C 40.8734 10.1234 41.0453 10.0974 41.1807 10.0661 L 41.1807 8.2067 C 41.0973 8.1651 40.9671 8.1338 40.79 8.113 C 40.613 8.0817 40.3942 8.0661 40.1338 8.0661 C 39.9671 8.0661 39.79 8.0818 39.6025 8.113 C 39.415 8.1338 39.2432 8.1807 39.0869 8.2536 C 38.9307 8.3266 38.8005 8.4307 38.6963 8.5661 C 38.5921 8.6911 38.5401 8.863 38.5401 9.0818 C 38.5401 9.488 38.6651 9.7693 38.9151 9.9255 C 39.1755 10.0818 39.5296 10.1599 39.9776 10.1599 Z M 39.8682 4.5661 C 40.3161 4.5661 40.6963 4.6234 41.0088 4.738 C 41.3213 4.8526 41.5713 5.0192 41.7588 5.238 C 41.9463 5.4463 42.0765 5.6963 42.1494 5.988 C 42.2328 6.2797 42.2744 6.5974 42.2744 6.9411 L 42.2744 10.8474 C 42.1807 10.8682 42.0453 10.8942 41.8682 10.9255 C 41.7015 10.9463 41.5088 10.9672 41.2901 10.988 C 41.0713 11.0192 40.8369 11.0401 40.5869 11.0505 C 40.3369 11.0713 40.0869 11.0817 39.8369 11.0817 C 39.4828 11.0817 39.1599 11.0453 38.8682 10.9724 C 38.5765 10.9099 38.3213 10.8005 38.1026 10.6443 C 37.8838 10.488 37.7119 10.2849 37.5869 10.0349 C 37.4724 9.7745 37.4151 9.462 37.4151 9.0974 C 37.4151 8.7536 37.4828 8.4568 37.6182 8.2068 C 37.764 7.9568 37.9567 7.7588 38.1963 7.613 C 38.4359 7.4568 38.712 7.3422 39.0245 7.2693 C 39.3474 7.1963 39.6859 7.1599 40.0401 7.1599 C 40.1547 7.1599 40.2693 7.1703 40.3838 7.1911 C 40.5088 7.2016 40.6234 7.2172 40.7276 7.238 C 40.8422 7.2484 40.9359 7.2641 41.0088 7.2849 C 41.0922 7.3057 41.1495 7.3162 41.1807 7.3162 L 41.1807 7.0037 C 41.1807 6.8266 41.1599 6.6495 41.1182 6.4724 C 41.0766 6.2849 41.0036 6.1234 40.8995 5.988 C 40.8057 5.8422 40.6651 5.7276 40.4776 5.6443 C 40.3005 5.561 40.0661 5.5193 39.7745 5.5193 C 39.4099 5.5193 39.087 5.5453 38.8057 5.5974 C 38.5349 5.6495 38.3318 5.7016 38.1964 5.7537 L 38.0557 4.8318 C 38.2016 4.7693 38.4412 4.712 38.7745 4.6599 C 39.1182 4.5974 39.4828 4.5662 39.8682 4.5662 Z M 48.3417 10.1599 C 48.8001 10.1599 49.1386 10.1026 49.3574 9.988 C 49.5761 9.863 49.6855 9.6651 49.6855 9.3942 C 49.6855 9.1234 49.5761 8.9099 49.3574 8.7536 C 49.149 8.5869 48.7949 8.4047 48.2949 8.2067 C 48.0553 8.113 47.8261 8.0192 47.6074 7.9255 C 47.3886 7.8213 47.1959 7.7015 47.0292 7.5661 C 46.873 7.4307 46.748 7.2693 46.6542 7.0818 C 46.5605 6.8838 46.5136 6.6443 46.5136 6.363 C 46.5136 5.8109 46.7168 5.3734 47.123 5.0505 C 47.5293 4.7276 48.0865 4.5661 48.7949 4.5661 C 48.972 4.5661 49.1438 4.5766 49.3105 4.5974 C 49.4876 4.6078 49.6543 4.6286 49.8105 4.6599 C 49.9668 4.6911 50.1022 4.7224 50.2168 4.7536 C 50.3313 4.7849 50.4199 4.8109 50.4824 4.8318 L 50.2793 5.8005 C 50.1543 5.738 49.9616 5.6755 49.7012 5.613 C 49.4512 5.5401 49.1491 5.5036 48.7949 5.5036 C 48.4824 5.5036 48.2064 5.5661 47.9668 5.6911 C 47.7376 5.8057 47.623 5.9984 47.623 6.2693 C 47.623 6.4047 47.6491 6.5245 47.7012 6.6287 C 47.7532 6.7328 47.8314 6.8266 47.9355 6.9099 C 48.0501 6.9932 48.1855 7.0714 48.3418 7.1443 C 48.5085 7.2172 48.7012 7.2901 48.9199 7.363 C 49.222 7.4776 49.4876 7.5922 49.7168 7.7068 C 49.946 7.811 50.1439 7.936 50.3106 8.0818 C 50.4772 8.2276 50.6022 8.4047 50.6856 8.613 C 50.7793 8.811 50.8262 9.0557 50.8262 9.3474 C 50.8262 9.9203 50.6074 10.3578 50.1699 10.6599 C 49.7429 10.9516 49.1335 11.0974 48.3418 11.0974 C 47.7897 11.0974 47.3574 11.0505 47.0449 10.9568 C 46.7324 10.8735 46.5241 10.8058 46.4199 10.7537 L 46.6231 9.8006 C 46.7481 9.8422 46.9512 9.9151 47.2325 10.0193 C 47.5137 10.1131 47.8835 10.1599 48.3418 10.1599 Z M 57.2094 10.7692 C 56.9594 10.8422 56.6209 10.9099 56.1938 10.9724 C 55.7771 11.0453 55.2927 11.0817 54.7406 11.0817 C 54.2615 11.0817 53.8552 11.014 53.5219 10.8786 C 53.199 10.7432 52.9386 10.5453 52.7406 10.2849 C 52.5427 10.0244 52.3969 9.7224 52.3031 9.3786 C 52.2198 9.0349 52.1781 8.6494 52.1781 8.2224 L 52.1781 4.7224 L 53.2875 4.7224 L 53.2875 7.988 C 53.2875 8.738 53.4073 9.2797 53.6469 9.613 C 53.8865 9.9359 54.2927 10.0974 54.8657 10.0974 C 54.9802 10.0974 55.1 10.0974 55.225 10.0974 C 55.3604 10.087 55.4802 10.0765 55.5844 10.0661 C 55.699 10.0557 55.8032 10.0453 55.8969 10.0349 C 55.9907 10.014 56.0584 9.9984 56.1 9.988 L 56.1 4.7224 L 57.2094 4.7224 Z M 60.2537 4.988 C 60.3891 4.9047 60.5922 4.8161 60.8631 4.7224 C 61.1443 4.6182 61.462 4.5661 61.8162 4.5661 C 62.2641 4.5661 62.6599 4.6494 63.0037 4.8161 C 63.3579 4.9724 63.6547 5.1963 63.8943 5.488 C 64.1339 5.7692 64.3162 6.113 64.4412 6.5192 C 64.5662 6.9151 64.6287 7.3526 64.6287 7.8317 C 64.6287 8.3422 64.5558 8.8005 64.41 9.2067 C 64.2641 9.6026 64.0558 9.9411 63.785 10.2224 C 63.5141 10.5036 63.186 10.7224 62.8006 10.8786 C 62.4152 11.0244 61.9829 11.0974 61.5037 11.0974 C 60.9829 11.0974 60.5193 11.0609 60.1131 10.988 C 59.7173 10.9151 59.3891 10.8422 59.1287 10.7692 L 59.1287 1.8317 L 60.2537 1.6442 Z M 60.2537 9.988 C 60.3683 10.0192 60.5245 10.0505 60.7224 10.0817 C 60.9308 10.1026 61.186 10.113 61.4881 10.113 C 62.0922 10.113 62.5714 9.9151 62.9256 9.5192 C 63.2902 9.1234 63.4724 8.5609 63.4724 7.8317 C 63.4724 7.5192 63.436 7.2224 63.3631 6.9411 C 63.3006 6.6599 63.1964 6.4203 63.0506 6.2224 C 62.9152 6.014 62.7329 5.8526 62.5037 5.738 C 62.2745 5.613 61.9985 5.5505 61.6756 5.5505 C 61.3735 5.5505 61.0922 5.6026 60.8318 5.7067 C 60.5818 5.8109 60.3891 5.9203 60.2537 6.0349 Z M 67.2436 4.7224 L 69.6186 4.7224 L 69.6186 5.6599 L 67.2436 5.6599 L 67.2436 8.5349 C 67.2436 8.8474 67.2645 9.1078 67.3061 9.3161 C 67.3582 9.514 67.4311 9.6703 67.5249 9.7849 C 67.629 9.8994 67.754 9.9828 67.8999 10.0349 C 68.0457 10.0765 68.2124 10.0974 68.3999 10.0974 C 68.7332 10.0974 68.9988 10.0609 69.1967 9.988 C 69.4051 9.9151 69.5509 9.863 69.6342 9.8317 L 69.853 10.7536 C 69.7384 10.8057 69.5405 10.8734 69.2592 10.9567 C 68.978 11.0401 68.6603 11.0817 68.3061 11.0817 C 67.879 11.0817 67.5249 11.0297 67.2436 10.9255 C 66.9728 10.8213 66.754 10.6599 66.5874 10.4411 C 66.4207 10.2224 66.3009 9.9568 66.228 9.6443 C 66.1655 9.3318 66.1343 8.9672 66.1343 8.5505 L 66.1343 2.9724 L 67.2436 2.7849 Z M 72.8958 11.0817 C 72.2083 11.0609 71.7187 10.9099 71.427 10.6286 C 71.1458 10.3474 71.0052 9.9151 71.0052 9.3317 L 71.0052 1.8317 L 72.1145 1.6442 L 72.1145 9.1442 C 72.1145 9.3317 72.1302 9.488 72.1614 9.613 C 72.1927 9.7276 72.2448 9.8213 72.3177 9.8942 C 72.3906 9.9672 72.4843 10.0192 72.5989 10.0505 C 72.7239 10.0817 72.875 10.113 73.0521 10.1442 Z M 73.953 7.8474 C 73.953 7.2953 74.0312 6.8161 74.1874 6.4099 C 74.3541 5.9932 74.5676 5.6494 74.8281 5.3786 C 75.0989 5.1078 75.4062 4.9047 75.7499 4.7692 C 76.0937 4.6338 76.4426 4.5661 76.7968 4.5661 C 77.6406 4.5661 78.2864 4.8265 78.7343 5.3474 C 79.1822 5.8682 79.4062 6.6651 79.4062 7.738 C 79.4062 7.7901 79.4062 7.8526 79.4062 7.9255 C 79.4062 7.9984 79.401 8.0713 79.3906 8.1442 L 75.125 8.1442 C 75.1666 8.7901 75.3489 9.2797 75.6718 9.613 C 76.0052 9.9463 76.5208 10.113 77.2187 10.113 C 77.6146 10.113 77.9427 10.0817 78.2031 10.0192 C 78.4739 9.9463 78.6771 9.8786 78.8125 9.8161 L 78.9687 10.7536 C 78.8333 10.8265 78.5937 10.8995 78.25 10.9724 C 77.9166 11.0557 77.5312 11.0974 77.0937 11.0974 C 76.5521 11.0974 76.0833 11.0193 75.6875 10.863 C 75.2916 10.6963 74.9635 10.4672 74.7031 10.1755 C 74.4531 9.8838 74.2656 9.5401 74.1406 9.1443 C 74.0156 8.7484 73.9531 8.3161 73.9531 7.8474 Z M 78.2343 7.238 C 78.2447 6.738 78.1197 6.3265 77.8593 6.0036 C 77.5989 5.6703 77.2395 5.5036 76.7812 5.5036 C 76.5312 5.5036 76.3072 5.5557 76.1093 5.6599 C 75.9114 5.764 75.7447 5.8942 75.6093 6.0505 C 75.4739 6.2067 75.3697 6.389 75.2968 6.5974 C 75.2239 6.8057 75.1718 7.0192 75.1406 7.238 Z M 83.855 10.9567 L 83.855 2.6442 L 88.8706 2.6442 L 88.8706 3.6442 L 85.0269 3.6442 L 85.0269 6.1442 L 88.4331 6.1442 L 88.4331 7.1286 L 85.0269 7.1286 L 85.0269 10.9567 Z M 92.5022 2.5505 C 93.6688 2.5505 94.5647 2.7744 95.1897 3.2224 C 95.8251 3.6703 96.1428 4.3317 96.1428 5.2067 C 96.1428 5.6859 96.0543 6.0974 95.8772 6.4411 C 95.7105 6.7744 95.4657 7.0505 95.1428 7.2692 C 94.8199 7.4776 94.424 7.6338 93.9553 7.738 C 93.497 7.8317 92.9761 7.8786 92.3928 7.8786 L 91.4709 7.8786 L 91.4709 10.9568 L 90.2991 10.9568 L 90.2991 2.7536 C 90.6324 2.6807 90.997 2.6286 91.3928 2.5974 C 91.7991 2.5661 92.1688 2.5505 92.5022 2.5505 Z M 92.6115 3.5817 C 92.1115 3.5817 91.7313 3.5922 91.4709 3.613 L 91.4709 6.8786 L 92.3459 6.8786 C 92.7418 6.8786 93.0959 6.8526 93.4084 6.8005 C 93.7313 6.7484 94.0022 6.6599 94.2209 6.5349 C 94.4501 6.4099 94.622 6.2432 94.7365 6.0349 C 94.8615 5.8161 94.924 5.5349 94.924 5.1911 C 94.924 4.8786 94.8615 4.6182 94.7365 4.4099 C 94.6115 4.2015 94.4397 4.0349 94.2209 3.9099 C 94.0126 3.7849 93.7678 3.7015 93.4866 3.6599 C 93.2053 3.6078 92.9136 3.5817 92.6116 3.5817 Z M 99.5326 10.1286 C 100.7409 10.1286 101.3451 9.7119 101.3451 8.8786 C 101.3451 8.6286 101.293 8.4151 101.1888 8.238 C 101.0847 8.0505 100.9388 7.8942 100.7513 7.7692 C 100.5638 7.6338 100.3503 7.5192 100.1107 7.4255 C 99.8816 7.3213 99.6368 7.2224 99.3764 7.1286 C 99.0743 7.0244 98.7826 6.9099 98.5014 6.7849 C 98.2305 6.6494 97.9961 6.4932 97.7982 6.3161 C 97.6003 6.1286 97.4441 5.9151 97.3295 5.6755 C 97.2149 5.4255 97.1576 5.1234 97.1576 4.7692 C 97.1576 4.0401 97.4024 3.4724 97.892 3.0661 C 98.392 2.6495 99.0795 2.4411 99.9545 2.4411 C 100.4545 2.4411 100.9076 2.4984 101.3139 2.613 C 101.7305 2.7172 102.0326 2.837 102.2201 2.9724 L 101.8607 3.9099 C 101.6941 3.8057 101.4441 3.7068 101.1107 3.613 C 100.7774 3.5088 100.392 3.4568 99.9545 3.4568 C 99.7253 3.4568 99.5118 3.4828 99.3139 3.5349 C 99.1264 3.5766 98.9597 3.6495 98.8139 3.7536 C 98.6785 3.8474 98.5639 3.9672 98.4701 4.113 C 98.3868 4.2589 98.3451 4.4307 98.3451 4.6287 C 98.3451 4.8578 98.3868 5.0505 98.4701 5.2068 C 98.5639 5.3526 98.6889 5.4828 98.8451 5.5974 C 99.0118 5.712 99.1993 5.8214 99.4076 5.9255 C 99.6264 6.0193 99.8608 6.113 100.1108 6.2068 C 100.4753 6.3526 100.8035 6.4985 101.0951 6.6443 C 101.3972 6.7797 101.6576 6.9516 101.8764 7.1599 C 102.1055 7.3578 102.2774 7.5974 102.392 7.8787 C 102.517 8.1495 102.5795 8.4776 102.5795 8.8631 C 102.5795 9.5922 102.3139 10.1547 101.7826 10.5506 C 101.2514 10.9464 100.5014 11.1443 99.5326 11.1443 C 99.1993 11.1443 98.892 11.1183 98.6108 11.0662 C 98.3399 11.0245 98.0952 10.9776 97.8764 10.9256 C 97.6681 10.8631 97.4858 10.7954 97.3295 10.7224 C 97.1733 10.6495 97.0483 10.5922 96.9545 10.5506 L 97.3139 9.5818 C 97.491 9.686 97.767 9.8058 98.142 9.9412 C 98.517 10.0662 98.9806 10.1287 99.5327 10.1287 Z M 109.3918 11.0974 C 108.8918 11.0974 108.4491 11.0192 108.0637 10.863 C 107.6887 10.6963 107.3709 10.4724 107.1105 10.1911 C 106.8501 9.8994 106.6522 9.5557 106.5168 9.1599 C 106.3918 8.764 106.3293 8.3265 106.3293 7.8474 C 106.3293 7.3682 106.397 6.9307 106.5324 6.5349 C 106.6783 6.1286 106.8762 5.7797 107.1262 5.488 C 107.3866 5.1963 107.7043 4.9724 108.0793 4.8161 C 108.4543 4.6495 108.8658 4.5661 109.3137 4.5661 C 109.5949 4.5661 109.8762 4.5922 110.1574 4.6443 C 110.4387 4.6859 110.7095 4.7588 110.9699 4.863 L 110.7043 5.8161 C 110.5376 5.7328 110.3449 5.6703 110.1262 5.6286 C 109.9074 5.5766 109.6731 5.5505 109.4231 5.5505 C 108.7981 5.5505 108.3189 5.7484 107.9856 6.1443 C 107.6627 6.5297 107.5012 7.0974 107.5012 7.8474 C 107.5012 8.1807 107.5377 8.488 107.6106 8.7693 C 107.6835 9.0505 107.8033 9.2953 107.97 9.5037 C 108.1366 9.7016 108.345 9.8526 108.595 9.9568 C 108.8554 10.061 109.1679 10.113 109.5325 10.113 C 109.8345 10.113 110.1054 10.087 110.345 10.0349 C 110.5845 9.9724 110.772 9.9099 110.9075 9.8474 L 111.0637 10.7849 C 111.0012 10.8266 110.9075 10.8682 110.7825 10.9099 C 110.6679 10.9412 110.5325 10.9672 110.3762 10.988 C 110.22 11.0193 110.0533 11.0453 109.8762 11.0662 C 109.7095 11.087 109.5481 11.0974 109.3918 11.0974 Z M 117.6127 7.8317 C 117.6127 8.3317 117.5398 8.7849 117.3939 9.1911 C 117.2481 9.5869 117.045 9.9307 116.7846 10.2224 C 116.5241 10.5036 116.2116 10.7224 115.8471 10.8786 C 115.4929 11.0349 115.1075 11.113 114.6908 11.113 C 114.2637 11.113 113.8679 11.0349 113.5033 10.8786 C 113.1491 10.7224 112.8418 10.5036 112.5814 10.2224 C 112.321 9.9307 112.1179 9.5869 111.9721 9.1911 C 111.8262 8.7849 111.7533 8.3317 111.7533 7.8317 C 111.7533 7.3422 111.8262 6.8995 111.9721 6.5036 C 112.1179 6.0974 112.321 5.7536 112.5814 5.4724 C 112.8419 5.1807 113.1492 4.9568 113.5033 4.8005 C 113.8679 4.6443 114.2637 4.5661 114.6908 4.5661 C 115.1075 4.5661 115.4929 4.6443 115.8471 4.8005 C 116.2117 4.9568 116.5242 5.1807 116.7846 5.4724 C 117.045 5.7536 117.2481 6.0974 117.394 6.5036 C 117.5398 6.8995 117.6127 7.3422 117.6127 7.8318 Z M 116.4408 7.8317 C 116.4408 7.1338 116.2846 6.5817 115.9721 6.1755 C 115.6596 5.7588 115.2325 5.5505 114.6908 5.5505 C 114.1387 5.5505 113.7064 5.7588 113.3939 6.1755 C 113.0814 6.5817 112.9252 7.1338 112.9252 7.8317 C 112.9252 8.5401 113.0814 9.1026 113.3939 9.5192 C 113.7064 9.9255 114.1387 10.1286 114.6908 10.1286 C 115.2325 10.1286 115.6596 9.9255 115.9721 9.5192 C 116.2846 9.1026 116.4408 8.5401 116.4408 7.8317 Z M 124.1459 10.7692 C 123.8959 10.8422 123.5573 10.9099 123.1302 10.9724 C 122.7136 11.0453 122.2292 11.0817 121.6771 11.0817 C 121.198 11.0817 120.7917 11.014 120.4584 10.8786 C 120.1355 10.7432 119.875 10.5453 119.6771 10.2849 C 119.4792 10.0244 119.3334 9.7224 119.2396 9.3786 C 119.1563 9.0349 119.1146 8.6494 119.1146 8.2224 L 119.1146 4.7224 L 120.224 4.7224 L 120.224 7.988 C 120.224 8.738 120.3438 9.2797 120.5834 9.613 C 120.823 9.9359 121.2292 10.0974 121.8021 10.0974 C 121.9167 10.0974 122.0365 10.0974 122.1615 10.0974 C 122.2969 10.087 122.4167 10.0765 122.5209 10.0661 C 122.6355 10.0557 122.7396 10.0453 122.8334 10.0349 C 122.9271 10.014 122.9948 9.9984 123.0365 9.988 L 123.0365 4.7224 L 124.1459 4.7224 Z M 126.0652 4.8942 C 126.3256 4.8317 126.6641 4.764 127.0808 4.6911 C 127.5079 4.6182 127.9974 4.5817 128.5495 4.5817 C 129.0495 4.5817 129.461 4.6547 129.7839 4.8005 C 130.1172 4.9359 130.3829 5.1286 130.5808 5.3786 C 130.7787 5.6286 130.9141 5.9307 130.987 6.2849 C 131.0704 6.639 131.112 7.0297 131.112 7.4567 L 131.112 10.9567 L 130.0027 10.9567 L 130.0027 7.6911 C 130.0027 7.3057 129.9766 6.9776 129.9245 6.7068 C 129.8725 6.4359 129.7839 6.2172 129.6589 6.0505 C 129.5443 5.8838 129.3829 5.764 129.1746 5.6911 C 128.9766 5.6078 128.7318 5.5661 128.4402 5.5661 C 128.3152 5.5661 128.1902 5.5713 128.0652 5.5818 C 127.9402 5.5922 127.8152 5.6026 127.6902 5.613 C 127.5756 5.6234 127.4714 5.6391 127.3777 5.6599 C 127.2944 5.6703 127.2319 5.6807 127.1902 5.6911 L 127.1902 10.9568 L 126.0652 10.9568 Z M 134.0001 4.7224 L 136.3751 4.7224 L 136.3751 5.6599 L 134.0001 5.6599 L 134.0001 8.5349 C 134.0001 8.8474 134.0209 9.1078 134.0626 9.3161 C 134.1147 9.514 134.1876 9.6703 134.2813 9.7849 C 134.3855 9.8994 134.5105 9.9828 134.6563 10.0349 C 134.8022 10.0765 134.9688 10.0974 135.1563 10.0974 C 135.4897 10.0974 135.7553 10.0609 135.9532 9.988 C 136.1615 9.9151 136.3074 9.863 136.3907 9.8317 L 136.6095 10.7536 C 136.4949 10.8057 136.297 10.8734 136.0157 10.9567 C 135.7345 11.0401 135.4167 11.0817 135.0626 11.0817 C 134.6355 11.0817 134.2813 11.0297 134.0001 10.9255 C 133.7292 10.8213 133.5105 10.6599 133.3438 10.4411 C 133.1772 10.2224 133.0574 9.9568 132.9845 9.6443 C 132.922 9.3318 132.8907 8.9672 132.8907 8.5505 L 132.8907 2.9724 L 134.0001 2.7849 Z M 137.3135 7.8474 C 137.3135 7.2953 137.3916 6.8161 137.5479 6.4099 C 137.7145 5.9932 137.9281 5.6494 138.1885 5.3786 C 138.4593 5.1078 138.7666 4.9047 139.1104 4.7692 C 139.4541 4.6338 139.8031 4.5661 140.1573 4.5661 C 141.001 4.5661 141.6468 4.8265 142.0948 5.3474 C 142.5427 5.8682 142.7666 6.6651 142.7666 7.738 C 142.7666 7.7901 142.7666 7.8526 142.7666 7.9255 C 142.7666 7.9984 142.7614 8.0713 142.751 8.1442 L 138.4854 8.1442 C 138.5271 8.7901 138.7094 9.2797 139.0323 9.613 C 139.3656 9.9463 139.8812 10.113 140.5792 10.113 C 140.975 10.113 141.3031 10.0817 141.5635 10.0192 C 141.8344 9.9463 142.0375 9.8786 142.1729 9.8161 L 142.3292 10.7536 C 142.1937 10.8265 141.9542 10.8995 141.6104 10.9724 C 141.2771 11.0557 140.8917 11.0974 140.4542 11.0974 C 139.9125 11.0974 139.4437 11.0193 139.0479 10.863 C 138.6521 10.6963 138.324 10.4672 138.0635 10.1755 C 137.8135 9.8838 137.626 9.5401 137.501 9.1443 C 137.376 8.7484 137.3135 8.3161 137.3135 7.8474 Z M 141.5947 7.238 C 141.6052 6.738 141.4802 6.3265 141.2197 6.0036 C 140.9593 5.6703 140.6 5.5036 140.1416 5.5036 C 139.8916 5.5036 139.6677 5.5557 139.4697 5.6599 C 139.2718 5.764 139.1052 5.8942 138.9697 6.0505 C 138.8343 6.2067 138.7302 6.389 138.6572 6.5974 C 138.5843 6.8057 138.5322 7.0192 138.501 7.238 Z M 146.6778 4.5817 C 146.7715 4.5817 146.8809 4.5869 147.0059 4.5974 C 147.1309 4.6078 147.2507 4.6234 147.3653 4.6442 C 147.4903 4.6651 147.5997 4.6859 147.6934 4.7067 C 147.7976 4.7276 147.8757 4.7484 147.9278 4.7692 L 147.7247 5.738 C 147.6414 5.7067 147.4955 5.6703 147.2872 5.6286 C 147.0893 5.5765 146.8289 5.5505 146.5059 5.5505 C 146.2976 5.5505 146.0893 5.5765 145.8809 5.6286 C 145.683 5.6703 145.5528 5.6963 145.4903 5.7068 L 145.4903 10.9568 L 144.3653 10.9568 L 144.3653 4.988 C 144.6362 4.8838 144.9643 4.7901 145.3497 4.7068 C 145.7455 4.6234 146.1882 4.5818 146.6778 4.5818 Z M 152.8943 10.9567 L 151.7693 10.9567 L 151.7693 4.7224 L 152.8943 4.7224 Z M 152.3318 3.5817 C 152.1339 3.5817 151.9621 3.5192 151.8162 3.3942 C 151.6808 3.2588 151.6131 3.0817 151.6131 2.863 C 151.6131 2.6338 151.6808 2.4567 151.8162 2.3317 C 151.9621 2.1963 152.1339 2.1286 152.3319 2.1286 C 152.5298 2.1286 152.6965 2.1963 152.8319 2.3317 C 152.9777 2.4567 153.0506 2.6338 153.0506 2.863 C 153.0506 3.0817 152.9777 3.2588 152.8319 3.3942 C 152.6965 3.5192 152.5298 3.5817 152.3319 3.5817 Z M 154.8054 4.8942 C 155.0658 4.8317 155.4043 4.764 155.821 4.6911 C 156.2481 4.6182 156.7377 4.5817 157.2898 4.5817 C 157.7898 4.5817 158.2012 4.6547 158.5241 4.8005 C 158.8575 4.9359 159.1231 5.1286 159.321 5.3786 C 159.5189 5.6286 159.6543 5.9307 159.7273 6.2849 C 159.8106 6.639 159.8523 7.0297 159.8523 7.4567 L 159.8523 10.9567 L 158.7429 10.9567 L 158.7429 7.6911 C 158.7429 7.3057 158.7169 6.9776 158.6648 6.7068 C 158.6127 6.4359 158.5241 6.2172 158.3991 6.0505 C 158.2846 5.8838 158.1231 5.764 157.9148 5.6911 C 157.7169 5.6078 157.4721 5.5661 157.1804 5.5661 C 157.0554 5.5661 156.9304 5.5713 156.8054 5.5818 C 156.6804 5.5922 156.5554 5.6026 156.4304 5.613 C 156.3158 5.6234 156.2117 5.6391 156.1179 5.6599 C 156.0346 5.6703 155.9721 5.6807 155.9304 5.6911 L 155.9304 10.9568 L 154.8054 10.9568 Z M 165.5123 4.7224 L 167.8873 4.7224 L 167.8873 5.6599 L 165.5123 5.6599 L 165.5123 8.5349 C 165.5123 8.8474 165.5331 9.1078 165.5748 9.3161 C 165.6269 9.514 165.6998 9.6703 165.7936 9.7849 C 165.8977 9.8994 166.0227 9.9828 166.1686 10.0349 C 166.3144 10.0765 166.4811 10.0974 166.6686 10.0974 C 167.0019 10.0974 167.2675 10.0609 167.4654 9.988 C 167.6738 9.9151 167.8196 9.863 167.9029 9.8317 L 168.1217 10.7536 C 168.0071 10.8057 167.8092 10.8734 167.5279 10.9567 C 167.2467 11.0401 166.929 11.0817 166.5748 11.0817 C 166.1477 11.0817 165.7936 11.0297 165.5123 10.9255 C 165.2415 10.8213 165.0227 10.6599 164.8561 10.4411 C 164.6894 10.2224 164.5696 9.9568 164.4967 9.6443 C 164.4342 9.3318 164.4029 8.9672 164.4029 8.5505 L 164.4029 2.9724 L 165.5123 2.7849 Z M 169.2895 10.9567 L 169.2895 1.8317 L 170.4145 1.6442 L 170.4145 4.8317 C 170.6228 4.7588 170.8416 4.7015 171.0707 4.6599 C 171.3103 4.6078 171.5447 4.5817 171.7739 4.5817 C 172.2739 4.5817 172.6853 4.6547 173.0082 4.8005 C 173.3416 4.9359 173.6072 5.1286 173.8051 5.3786 C 174.003 5.6286 174.1385 5.9307 174.2114 6.2849 C 174.2947 6.639 174.3364 7.0297 174.3364 7.4567 L 174.3364 10.9567 L 173.227 10.9567 L 173.227 7.6911 C 173.227 7.3057 173.201 6.9776 173.1489 6.7068 C 173.0968 6.4359 173.0082 6.2172 172.8832 6.0505 C 172.7687 5.8838 172.6072 5.764 172.3989 5.6911 C 172.201 5.6078 171.9562 5.5661 171.6645 5.5661 C 171.5395 5.5661 171.4145 5.5766 171.2895 5.5974 C 171.1645 5.6078 171.0395 5.6234 170.9145 5.6443 C 170.7999 5.6651 170.6958 5.6911 170.602 5.7224 C 170.5187 5.7432 170.4562 5.7589 170.4145 5.7693 L 170.4145 10.9568 Z M 175.7978 7.8474 C 175.7978 7.2953 175.8759 6.8161 176.0322 6.4099 C 176.1988 5.9932 176.4124 5.6494 176.6728 5.3786 C 176.9436 5.1078 177.2509 4.9047 177.5947 4.7692 C 177.9384 4.6338 178.2874 4.5661 178.6415 4.5661 C 179.4853 4.5661 180.1311 4.8265 180.579 5.3474 C 181.027 5.8682 181.2509 6.6651 181.2509 7.738 C 181.2509 7.7901 181.2509 7.8526 181.2509 7.9255 C 181.2509 7.9984 181.2457 8.0713 181.2353 8.1442 L 176.9697 8.1442 C 177.0113 8.7901 177.1936 9.2797 177.5166 9.613 C 177.8499 9.9463 178.3655 10.113 179.0634 10.113 C 179.4593 10.113 179.7874 10.0817 180.0478 10.0192 C 180.3186 9.9463 180.5218 9.8786 180.6572 9.8161 L 180.8134 10.7536 C 180.678 10.8265 180.4384 10.8995 180.0947 10.9724 C 179.7614 11.0557 179.3759 11.0974 178.9384 11.0974 C 178.3968 11.0974 177.928 11.0193 177.5322 10.863 C 177.1364 10.6963 176.8082 10.4672 176.5478 10.1755 C 176.2978 9.8838 176.1103 9.5401 175.9853 9.1443 C 175.8603 8.7484 175.7978 8.3161 175.7978 7.8474 Z M 180.079 7.238 C 180.0894 6.738 179.9644 6.3265 179.704 6.0036 C 179.4436 5.6703 179.0842 5.5036 178.6259 5.5036 C 178.3759 5.5036 178.1519 5.5557 177.954 5.6599 C 177.7561 5.764 177.5894 5.8942 177.454 6.0505 C 177.3186 6.2067 177.2144 6.389 177.1415 6.5974 C 177.0686 6.8057 177.0165 7.0192 176.9853 7.238 Z M 186.7466 4.988 C 186.882 4.9047 187.0851 4.8161 187.356 4.7224 C 187.6372 4.6182 187.9549 4.5661 188.3091 4.5661 C 188.757 4.5661 189.1529 4.6494 189.4966 4.8161 C 189.8508 4.9724 190.1476 5.1963 190.3872 5.488 C 190.6268 5.7692 190.8091 6.113 190.9341 6.5192 C 191.0591 6.9151 191.1216 7.3526 191.1216 7.8317 C 191.1216 8.3422 191.0487 8.8005 190.9029 9.2067 C 190.757 9.6026 190.5487 9.9411 190.2779 10.2224 C 190.007 10.5036 189.6789 10.7224 189.2935 10.8786 C 188.9081 11.0244 188.4758 11.0974 187.9966 11.0974 C 187.4758 11.0974 187.0123 11.0609 186.606 10.988 C 186.2102 10.9151 185.882 10.8422 185.6216 10.7692 L 185.6216 1.8317 L 186.7466 1.6442 Z M 186.7466 9.988 C 186.8612 10.0192 187.0174 10.0505 187.2154 10.0817 C 187.4237 10.1026 187.6789 10.113 187.981 10.113 C 188.5851 10.113 189.0643 9.9151 189.4185 9.5192 C 189.7831 9.1234 189.9654 8.5609 189.9654 7.8317 C 189.9654 7.5192 189.9289 7.2224 189.856 6.9411 C 189.7935 6.6599 189.6893 6.4203 189.5435 6.2224 C 189.4081 6.014 189.2258 5.8526 188.9966 5.738 C 188.7675 5.613 188.4914 5.5505 188.1685 5.5505 C 187.8664 5.5505 187.5852 5.6026 187.3247 5.7067 C 187.0747 5.8109 186.882 5.9203 186.7466 6.0349 Z M 198.2053 7.8317 C 198.2053 8.3317 198.1324 8.7849 197.9865 9.1911 C 197.8407 9.5869 197.6376 9.9307 197.3772 10.2224 C 197.1167 10.5036 196.8042 10.7224 196.4397 10.8786 C 196.0855 11.0349 195.7001 11.113 195.2834 11.113 C 194.8563 11.113 194.4605 11.0349 194.0959 10.8786 C 193.7417 10.7224 193.4344 10.5036 193.174 10.2224 C 192.9136 9.9307 192.7105 9.5869 192.5647 9.1911 C 192.4188 8.7849 192.3459 8.3317 192.3459 7.8317 C 192.3459 7.3422 192.4188 6.8995 192.5647 6.5036 C 192.7105 6.0974 192.9136 5.7536 193.174 5.4724 C 193.4345 5.1807 193.7418 4.9568 194.0959 4.8005 C 194.4605 4.6443 194.8563 4.5661 195.2834 4.5661 C 195.7001 4.5661 196.0855 4.6443 196.4397 4.8005 C 196.8043 4.9568 197.1168 5.1807 197.3772 5.4724 C 197.6376 5.7536 197.8407 6.0974 197.9865 6.5036 C 198.1324 6.8995 198.2053 7.3422 198.2053 7.8318 Z M 197.0334 7.8317 C 197.0334 7.1338 196.8772 6.5817 196.5647 6.1755 C 196.2522 5.7588 195.8251 5.5505 195.2834 5.5505 C 194.7313 5.5505 194.299 5.7588 193.9865 6.1755 C 193.674 6.5817 193.5178 7.1338 193.5178 7.8317 C 193.5178 8.5401 193.674 9.1026 193.9865 9.5192 C 194.299 9.9255 194.7313 10.1286 195.2834 10.1286 C 195.8251 10.1286 196.2522 9.9255 196.5647 9.5192 C 196.8772 9.1026 197.0334 8.5401 197.0334 7.8317 Z M 200.8166 4.7224 L 203.1916 4.7224 L 203.1916 5.6599 L 200.8166 5.6599 L 200.8166 8.5349 C 200.8166 8.8474 200.8374 9.1078 200.8791 9.3161 C 200.9312 9.514 201.0041 9.6703 201.0978 9.7849 C 201.202 9.8994 201.327 9.9828 201.4728 10.0349 C 201.6187 10.0765 201.7853 10.0974 201.9728 10.0974 C 202.3062 10.0974 202.5718 10.0609 202.7697 9.988 C 202.978 9.9151 203.1239 9.863 203.2072 9.8317 L 203.4259 10.7536 C 203.3114 10.8057 203.1134 10.8734 202.8322 10.9567 C 202.5509 11.0401 202.2332 11.0817 201.8791 11.0817 C 201.452 11.0817 201.0978 11.0297 200.8166 10.9255 C 200.5457 10.8213 200.327 10.6599 200.1603 10.4411 C 199.9937 10.2224 199.8739 9.9568 199.801 9.6443 C 199.7385 9.3318 199.7072 8.9672 199.7072 8.5505 L 199.7072 2.9724 L 200.8166 2.7849 Z M 205.6406 4.7224 L 208.0156 4.7224 L 208.0156 5.6599 L 205.6406 5.6599 L 205.6406 8.5349 C 205.6406 8.8474 205.6615 9.1078 205.7031 9.3161 C 205.7552 9.514 205.8281 9.6703 205.9219 9.7849 C 206.026 9.8994 206.151 9.9828 206.2969 10.0349 C 206.4427 10.0765 206.6094 10.0974 206.7969 10.0974 C 207.1302 10.0974 207.3958 10.0609 207.5937 9.988 C 207.8021 9.9151 207.9479 9.863 208.0312 9.8317 L 208.25 10.7536 C 208.1354 10.8057 207.9375 10.8734 207.6562 10.9567 C 207.375 11.0401 207.0573 11.0817 206.7031 11.0817 C 206.276 11.0817 205.9219 11.0297 205.6406 10.9255 C 205.3698 10.8213 205.151 10.6599 204.9844 10.4411 C 204.8177 10.2224 204.6979 9.9568 204.625 9.6443 C 204.5625 9.3318 204.5313 8.9672 204.5313 8.5505 L 204.5313 2.9724 L 205.6406 2.7849 Z M 214.7654 7.8317 C 214.7654 8.3317 214.6925 8.7849 214.5466 9.1911 C 214.4008 9.5869 214.1977 9.9307 213.9373 10.2224 C 213.6769 10.5036 213.3644 10.7224 212.9998 10.8786 C 212.6456 11.0349 212.2602 11.113 211.8435 11.113 C 211.4164 11.113 211.0206 11.0349 210.656 10.8786 C 210.3019 10.7224 209.9946 10.5036 209.7341 10.2224 C 209.4737 9.9307 209.2706 9.5869 209.1248 9.1911 C 208.9789 8.7849 208.906 8.3317 208.906 7.8317 C 208.906 7.3422 208.9789 6.8995 209.1248 6.5036 C 209.2706 6.0974 209.4737 5.7536 209.7342 5.4724 C 209.9946 5.1807 210.3019 4.9568 210.656 4.8005 C 211.0206 4.6443 211.4164 4.5661 211.8435 4.5661 C 212.2602 4.5661 212.6456 4.6443 212.9998 4.8005 C 213.3644 4.9568 213.6769 5.1807 213.9373 5.4724 C 214.1977 5.7536 214.4008 6.0974 214.5467 6.5036 C 214.6925 6.8995 214.7654 7.3422 214.7654 7.8318 Z M 213.5935 7.8317 C 213.5935 7.1338 213.4373 6.5817 213.1248 6.1755 C 212.8123 5.7588 212.3852 5.5505 211.8435 5.5505 C 211.2914 5.5505 210.8591 5.7588 210.5466 6.1755 C 210.2341 6.5817 210.0779 7.1338 210.0779 7.8317 C 210.0779 8.5401 210.2341 9.1026 210.5466 9.5192 C 210.8591 9.9255 211.2914 10.1286 211.8435 10.1286 C 212.3852 10.1286 212.8123 9.9255 213.1248 9.5192 C 213.4373 9.1026 213.5935 8.5401 213.5935 7.8317 Z M 216.3298 4.8942 C 216.5902 4.8317 216.9288 4.764 217.3455 4.6911 C 217.7725 4.6182 218.2621 4.5817 218.8142 4.5817 C 219.21 4.5817 219.5434 4.639 219.8142 4.7536 C 220.085 4.8578 220.3142 5.014 220.5017 5.2224 C 220.5538 5.1807 220.6371 5.1234 220.7517 5.0505 C 220.8767 4.9776 221.0277 4.9099 221.2048 4.8474 C 221.3819 4.7745 221.5798 4.712 221.7986 4.6599 C 222.0173 4.6078 222.2465 4.5818 222.4861 4.5818 C 222.9757 4.5818 223.3715 4.6547 223.6736 4.8005 C 223.9757 4.9359 224.21 5.1338 224.3767 5.3943 C 224.5538 5.6443 224.6684 5.9463 224.7205 6.3005 C 224.783 6.6547 224.8142 7.0401 224.8142 7.4568 L 224.8142 10.9568 L 223.7048 10.9568 L 223.7048 7.6911 C 223.7048 7.3266 223.684 7.0141 223.6423 6.7536 C 223.6111 6.4828 223.5434 6.2588 223.4392 6.0818 C 223.3455 5.9047 223.2101 5.7745 223.033 5.6911 C 222.8663 5.6078 222.6476 5.5661 222.3767 5.5661 C 222.0017 5.5661 221.6892 5.6182 221.4392 5.7224 C 221.1996 5.8161 221.033 5.9047 220.9392 5.988 C 221.0017 6.1964 221.0486 6.4255 221.0798 6.6755 C 221.1215 6.9255 221.1423 7.1859 221.1423 7.4568 L 221.1423 10.9568 L 220.0173 10.9568 L 220.0173 7.6912 C 220.0173 7.3266 219.9965 7.0141 219.9548 6.7537 C 219.9236 6.4828 219.8559 6.2589 219.7517 6.0818 C 219.6476 5.9047 219.5069 5.7745 219.3299 5.6912 C 219.1632 5.6078 218.9496 5.5662 218.6892 5.5662 C 218.5746 5.5662 218.4549 5.5714 218.3299 5.5818 C 218.2049 5.5922 218.0799 5.6026 217.9549 5.613 C 217.8403 5.6235 217.7361 5.6391 217.6424 5.6599 C 217.5486 5.6703 217.4861 5.6808 217.4549 5.6912 L 217.4549 10.9568 L 216.3299 10.9568 Z M 231.7464 4.5817 C 231.8402 4.5817 231.9495 4.5869 232.0745 4.5974 C 232.1995 4.6078 232.3193 4.6234 232.4339 4.6442 C 232.5589 4.6651 232.6683 4.6859 232.762 4.7067 C 232.8662 4.7276 232.9443 4.7484 232.9964 4.7692 L 232.7933 5.738 C 232.71 5.7067 232.5641 5.6703 232.3558 5.6286 C 232.1579 5.5765 231.8975 5.5505 231.5746 5.5505 C 231.3662 5.5505 231.1579 5.5765 230.9496 5.6286 C 230.7516 5.6703 230.6214 5.6963 230.5589 5.7068 L 230.5589 10.9568 L 229.4339 10.9568 L 229.4339 4.988 C 229.7048 4.8838 230.0329 4.7901 230.4183 4.7068 C 230.8142 4.6234 231.2569 4.5818 231.7464 4.5818 Z M 235.1909 10.9567 L 234.0659 10.9567 L 234.0659 4.7224 L 235.1909 4.7224 Z M 234.6284 3.5817 C 234.4305 3.5817 234.2586 3.5192 234.1128 3.3942 C 233.9774 3.2588 233.9097 3.0817 233.9097 2.863 C 233.9097 2.6338 233.9774 2.4567 234.1128 2.3317 C 234.2587 2.1963 234.4305 2.1286 234.6284 2.1286 C 234.8264 2.1286 234.993 2.1963 235.1284 2.3317 C 235.2743 2.4567 235.3472 2.6338 235.3472 2.863 C 235.3472 3.0817 235.2743 3.2588 235.1284 3.3942 C 234.993 3.5192 234.8264 3.5817 234.6284 3.5817 Z M 241.0239 10.3317 C 240.9301 10.3942 240.7426 10.4776 240.4614 10.5817 C 240.1905 10.6755 239.8676 10.7224 239.4926 10.7224 C 239.1176 10.7224 238.7634 10.6651 238.4301 10.5505 C 238.0968 10.4255 237.8051 10.238 237.5551 9.988 C 237.3155 9.738 237.1228 9.4255 236.977 9.0505 C 236.8311 8.6755 236.7582 8.2276 236.7582 7.7067 C 236.7582 7.2484 236.8259 6.8317 236.9614 6.4567 C 237.0968 6.0713 237.2947 5.7432 237.5551 5.4724 C 237.8155 5.1911 238.1332 4.9724 238.5082 4.8161 C 238.8832 4.6599 239.3103 4.5817 239.7895 4.5817 C 240.3103 4.5817 240.7635 4.6234 241.1489 4.7067 C 241.5343 4.7797 241.8572 4.8474 242.1176 4.9099 L 242.1176 10.4724 C 242.1176 11.4307 241.8676 12.1234 241.3676 12.5505 C 240.878 12.988 240.128 13.2068 239.1176 13.2068 C 238.7322 13.2068 238.3624 13.1755 238.0082 13.113 C 237.6645 13.0505 237.3624 12.9776 237.102 12.8943 L 237.3051 11.9099 C 237.5343 12.0036 237.8103 12.0818 238.1333 12.1443 C 238.4562 12.2172 238.7947 12.2536 239.1489 12.2536 C 239.8155 12.2536 240.2947 12.1182 240.5864 11.8474 C 240.878 11.587 241.0239 11.1703 241.0239 10.5974 Z M 241.0082 5.7067 C 240.8936 5.6755 240.7426 5.6442 240.5551 5.613 C 240.3676 5.5817 240.1124 5.5661 239.7895 5.5661 C 239.1957 5.5661 238.7374 5.764 238.4145 6.1599 C 238.0916 6.5453 237.9301 7.0661 237.9301 7.7224 C 237.9301 8.0765 237.9718 8.3838 238.0551 8.6442 C 238.1489 8.8942 238.2739 9.1078 238.4301 9.2849 C 238.5864 9.4515 238.7635 9.5765 238.9614 9.6599 C 239.1697 9.7328 239.3832 9.7692 239.602 9.7692 C 239.9041 9.7692 240.1749 9.7276 240.4145 9.6442 C 240.6645 9.5609 240.8624 9.462 241.0082 9.3474 Z M 244.038 10.9567 L 244.038 1.8317 L 245.163 1.6442 L 245.163 4.8317 C 245.3714 4.7588 245.5901 4.7015 245.8193 4.6599 C 246.0589 4.6078 246.2932 4.5817 246.5224 4.5817 C 247.0224 4.5817 247.4339 4.6547 247.7568 4.8005 C 248.0901 4.9359 248.3557 5.1286 248.5536 5.3786 C 248.7516 5.6286 248.887 5.9307 248.9599 6.2849 C 249.0432 6.639 249.0849 7.0297 249.0849 7.4567 L 249.0849 10.9567 L 247.9755 10.9567 L 247.9755 7.6911 C 247.9755 7.3057 247.9495 6.9776 247.8974 6.7068 C 247.8453 6.4359 247.7568 6.2172 247.6318 6.0505 C 247.5172 5.8838 247.3557 5.764 247.1474 5.6911 C 246.9495 5.6078 246.7047 5.5661 246.413 5.5661 C 246.288 5.5661 246.163 5.5766 246.038 5.5974 C 245.913 5.6078 245.788 5.6234 245.663 5.6443 C 245.5485 5.6651 245.4443 5.6911 245.3505 5.7224 C 245.2672 5.7432 245.2047 5.7589 245.163 5.7693 L 245.163 10.9568 Z M 251.937 4.7224 L 254.312 4.7224 L 254.312 5.6599 L 251.937 5.6599 L 251.937 8.5349 C 251.937 8.8474 251.9578 9.1078 251.9995 9.3161 C 252.0516 9.514 252.1245 9.6703 252.2182 9.7849 C 252.3224 9.8994 252.4474 9.9828 252.5932 10.0349 C 252.7391 10.0765 252.9057 10.0974 253.0932 10.0974 C 253.4266 10.0974 253.6922 10.0609 253.8901 9.988 C 254.0984 9.9151 254.2442 9.863 254.3276 9.8317 L 254.5463 10.7536 C 254.4317 10.8057 254.2338 10.8734 253.9526 10.9567 C 253.6713 11.0401 253.3536 11.0817 252.9995 11.0817 C 252.5724 11.0817 252.2182 11.0297 251.937 10.9255 C 251.6661 10.8213 251.4474 10.6599 251.2807 10.4411 C 251.114 10.2224 250.9942 9.9568 250.9213 9.6443 C 250.8588 9.3318 250.8276 8.9672 250.8276 8.5505 L 250.8276 2.9724 L 251.937 2.7849 Z M 264.0018 7.8317 C 264.0018 8.3317 263.9288 8.7849 263.783 9.1911 C 263.6372 9.5869 263.434 9.9307 263.1736 10.2224 C 262.9132 10.5036 262.6007 10.7224 262.2361 10.8786 C 261.882 11.0349 261.4965 11.113 261.0799 11.113 C 260.6528 11.113 260.257 11.0349 259.8924 10.8786 C 259.5382 10.7224 259.2309 10.5036 258.9705 10.2224 C 258.7101 9.9307 258.507 9.5869 258.3611 9.1911 C 258.2153 8.7849 258.1424 8.3317 258.1424 7.8317 C 258.1424 7.3422 258.2153 6.8995 258.3611 6.5036 C 258.507 6.0974 258.7101 5.7536 258.9705 5.4724 C 259.2309 5.1807 259.5382 4.9568 259.8924 4.8005 C 260.257 4.6443 260.6528 4.5661 261.0799 4.5661 C 261.4966 4.5661 261.882 4.6443 262.2361 4.8005 C 262.6007 4.9568 262.9132 5.1807 263.1736 5.4724 C 263.4341 5.7536 263.6372 6.0974 263.783 6.5036 C 263.9289 6.8995 264.0018 7.3422 264.0018 7.8318 Z M 262.8299 7.8317 C 262.8299 7.1338 262.6736 6.5817 262.3611 6.1755 C 262.0486 5.7588 261.6215 5.5505 261.0799 5.5505 C 260.5278 5.5505 260.0955 5.7588 259.783 6.1755 C 259.4705 6.5817 259.3143 7.1338 259.3143 7.8317 C 259.3143 8.5401 259.4705 9.1026 259.783 9.5192 C 260.0955 9.9255 260.5278 10.1286 261.0799 10.1286 C 261.6215 10.1286 262.0486 9.9255 262.3611 9.5192 C 262.6736 9.1026 262.8299 8.5401 262.8299 7.8317 Z M 268.0037 1.6442 C 268.337 1.6442 268.6183 1.6703 268.8474 1.7224 C 269.087 1.764 269.2537 1.8057 269.3474 1.8474 L 269.1443 2.8161 C 269.0506 2.764 268.9151 2.7172 268.7381 2.6755 C 268.561 2.6234 268.3474 2.5974 268.0974 2.5974 C 267.5766 2.5974 267.212 2.7432 267.0037 3.0349 C 266.7953 3.3161 266.6912 3.6963 266.6912 4.1755 L 266.6912 4.7224 L 269.0818 4.7224 L 269.0818 5.6599 L 266.6912 5.6599 L 266.6912 10.9568 L 265.5662 10.9568 L 265.5662 4.1599 C 265.5662 3.3578 265.7641 2.738 266.1599 2.3005 C 266.5558 1.863 267.1703 1.6443 268.0037 1.6443 Z M 274.0171 4.7224 L 276.3921 4.7224 L 276.3921 5.6599 L 274.0171 5.6599 L 274.0171 8.5349 C 274.0171 8.8474 274.0379 9.1078 274.0796 9.3161 C 274.1317 9.514 274.2046 9.6703 274.2984 9.7849 C 274.4025 9.8994 274.5275 9.9828 274.6734 10.0349 C 274.8192 10.0765 274.9859 10.0974 275.1734 10.0974 C 275.5067 10.0974 275.7723 10.0609 275.9702 9.988 C 276.1786 9.9151 276.3244 9.863 276.4077 9.8317 L 276.6265 10.7536 C 276.5119 10.8057 276.314 10.8734 276.0327 10.9567 C 275.7515 11.0401 275.4338 11.0817 275.0796 11.0817 C 274.6525 11.0817 274.2984 11.0297 274.0171 10.9255 C 273.7463 10.8213 273.5275 10.6599 273.3609 10.4411 C 273.1942 10.2224 273.0744 9.9568 273.0015 9.6443 C 272.939 9.3318 272.9077 8.9672 272.9077 8.5505 L 272.9077 2.9724 L 274.0171 2.7849 Z M 277.7943 10.9567 L 277.7943 1.8317 L 278.9193 1.6442 L 278.9193 4.8317 C 279.1276 4.7588 279.3464 4.7015 279.5755 4.6599 C 279.8151 4.6078 280.0495 4.5817 280.2786 4.5817 C 280.7786 4.5817 281.1901 4.6547 281.513 4.8005 C 281.8464 4.9359 282.112 5.1286 282.3099 5.3786 C 282.5078 5.6286 282.6432 5.9307 282.7161 6.2849 C 282.7995 6.639 282.8411 7.0297 282.8411 7.4567 L 282.8411 10.9567 L 281.7318 10.9567 L 281.7318 7.6911 C 281.7318 7.3057 281.7057 6.9776 281.6537 6.7068 C 281.6016 6.4359 281.513 6.2172 281.388 6.0505 C 281.2734 5.8838 281.112 5.764 280.9037 5.6911 C 280.7058 5.6078 280.461 5.5661 280.1693 5.5661 C 280.0443 5.5661 279.9193 5.5766 279.7943 5.5974 C 279.6693 5.6078 279.5443 5.6234 279.4193 5.6443 C 279.3047 5.6651 279.2005 5.6911 279.1068 5.7224 C 279.0235 5.7432 278.961 5.7589 278.9193 5.7693 L 278.9193 10.9568 Z M 284.3026 7.8474 C 284.3026 7.2953 284.3807 6.8161 284.5369 6.4099 C 284.7036 5.9932 284.9171 5.6494 285.1776 5.3786 C 285.4484 5.1078 285.7557 4.9047 286.0994 4.7692 C 286.4432 4.6338 286.7922 4.5661 287.1463 4.5661 C 287.9901 4.5661 288.6359 4.8265 289.0838 5.3474 C 289.5317 5.8682 289.7557 6.6651 289.7557 7.738 C 289.7557 7.7901 289.7557 7.8526 289.7557 7.9255 C 289.7557 7.9984 289.7505 8.0713 289.7401 8.1442 L 285.4745 8.1442 C 285.5161 8.7901 285.6984 9.2797 286.0213 9.613 C 286.3547 9.9463 286.8703 10.113 287.5682 10.113 C 287.9641 10.113 288.2922 10.0817 288.5526 10.0192 C 288.8234 9.9463 289.0266 9.8786 289.162 9.8161 L 289.3182 10.7536 C 289.1828 10.8265 288.9432 10.8995 288.5995 10.9724 C 288.2661 11.0557 287.8807 11.0974 287.4432 11.0974 C 286.9016 11.0974 286.4328 11.0193 286.037 10.863 C 285.6411 10.6963 285.313 10.4672 285.0526 10.1755 C 284.8026 9.8838 284.6151 9.5401 284.4901 9.1443 C 284.3651 8.7484 284.3026 8.3161 284.3026 7.8474 Z M 288.5838 7.238 C 288.5942 6.738 288.4692 6.3265 288.2088 6.0036 C 287.9484 5.6703 287.589 5.5036 287.1307 5.5036 C 286.8807 5.5036 286.6567 5.5557 286.4588 5.6599 C 286.2609 5.764 286.0942 5.8942 285.9588 6.0505 C 285.8234 6.2067 285.7192 6.389 285.6463 6.5974 C 285.5734 6.8057 285.5213 7.0192 285.4901 7.238 Z M 295.5795 10.1599 C 296.0379 10.1599 296.3764 10.1026 296.5952 9.988 C 296.8139 9.863 296.9233 9.6651 296.9233 9.3942 C 296.9233 9.1234 296.8139 8.9099 296.5952 8.7536 C 296.3868 8.5869 296.0327 8.4047 295.5327 8.2067 C 295.2931 8.113 295.0639 8.0192 294.8452 7.9255 C 294.6264 7.8213 294.4337 7.7015 294.2671 7.5661 C 294.1108 7.4307 293.9858 7.2693 293.8921 7.0818 C 293.7983 6.8838 293.7514 6.6443 293.7514 6.363 C 293.7514 5.8109 293.9546 5.3734 294.3608 5.0505 C 294.7671 4.7276 295.3244 4.5661 296.0327 4.5661 C 296.2098 4.5661 296.3817 4.5766 296.5483 4.5974 C 296.7254 4.6078 296.8921 4.6286 297.0483 4.6599 C 297.2046 4.6911 297.34 4.7224 297.4546 4.7536 C 297.5692 4.7849 297.6577 4.8109 297.7202 4.8318 L 297.5171 5.8005 C 297.3921 5.738 297.1994 5.6755 296.939 5.613 C 296.689 5.5401 296.3869 5.5036 296.0327 5.5036 C 295.7202 5.5036 295.4442 5.5661 295.2046 5.6911 C 294.9754 5.8057 294.8608 5.9984 294.8608 6.2693 C 294.8608 6.4047 294.8869 6.5245 294.939 6.6287 C 294.9911 6.7328 295.0692 6.8266 295.1734 6.9099 C 295.2879 6.9932 295.4234 7.0714 295.5796 7.1443 C 295.7463 7.2172 295.939 7.2901 296.1577 7.363 C 296.4598 7.4776 296.7254 7.5922 296.9546 7.7068 C 297.1838 7.811 297.3817 7.936 297.5484 8.0818 C 297.715 8.2276 297.84 8.4047 297.9234 8.613 C 298.0171 8.811 298.064 9.0557 298.064 9.3474 C 298.064 9.9203 297.8452 10.3578 297.4077 10.6599 C 296.9807 10.9516 296.3713 11.0974 295.5796 11.0974 C 295.0275 11.0974 294.5953 11.0505 294.2828 10.9568 C 293.9703 10.8735 293.7619 10.8058 293.6578 10.7537 L 293.8609 9.8006 C 293.9859 9.8422 294.189 9.9151 294.4703 10.0193 C 294.7515 10.1131 295.1213 10.1599 295.5796 10.1599 Z M 302.1972 11.0974 C 301.6972 11.0974 301.2545 11.0192 300.8691 10.863 C 300.4941 10.6963 300.1764 10.4724 299.916 10.1911 C 299.6556 9.8994 299.4576 9.5557 299.3222 9.1599 C 299.1972 8.764 299.1347 8.3265 299.1347 7.8474 C 299.1347 7.3682 299.2024 6.9307 299.3379 6.5349 C 299.4837 6.1286 299.6816 5.7797 299.9316 5.488 C 300.192 5.1963 300.5097 4.9724 300.8847 4.8161 C 301.2597 4.6495 301.6712 4.5661 302.1191 4.5661 C 302.4004 4.5661 302.6816 4.5922 302.9629 4.6443 C 303.2441 4.6859 303.515 4.7588 303.7754 4.863 L 303.5097 5.8161 C 303.3431 5.7328 303.1504 5.6703 302.9316 5.6286 C 302.7129 5.5766 302.4785 5.5505 302.2285 5.5505 C 301.6035 5.5505 301.1243 5.7484 300.791 6.1443 C 300.4681 6.5297 300.3066 7.0974 300.3066 7.8474 C 300.3066 8.1807 300.3431 8.488 300.416 8.7693 C 300.4889 9.0505 300.6087 9.2953 300.7754 9.5037 C 300.9421 9.7016 301.1504 9.8526 301.4004 9.9568 C 301.6608 10.061 301.9733 10.113 302.3379 10.113 C 302.64 10.113 302.9108 10.087 303.1504 10.0349 C 303.39 9.9724 303.5775 9.9099 303.7129 9.8474 L 303.8691 10.7849 C 303.8066 10.8266 303.7129 10.8682 303.5879 10.9099 C 303.4733 10.9412 303.3379 10.9672 303.1816 10.988 C 303.0254 11.0193 302.8587 11.0453 302.6816 11.0662 C 302.515 11.087 302.3535 11.0974 302.1973 11.0974 Z M 307.371 4.5817 C 307.4647 4.5817 307.5741 4.5869 307.6991 4.5974 C 307.8241 4.6078 307.9439 4.6234 308.0585 4.6442 C 308.1835 4.6651 308.2929 4.6859 308.3866 4.7067 C 308.4908 4.7276 308.5689 4.7484 308.621 4.7692 L 308.4179 5.738 C 308.3345 5.7067 308.1887 5.6703 307.9804 5.6286 C 307.7825 5.5765 307.522 5.5505 307.1991 5.5505 C 306.9908 5.5505 306.7825 5.5765 306.5741 5.6286 C 306.3762 5.6703 306.246 5.6963 306.1835 5.7068 L 306.1835 10.9568 L 305.0585 10.9568 L 305.0585 4.988 C 305.3293 4.8838 305.6575 4.7901 306.0429 4.7068 C 306.4387 4.6234 306.8814 4.5818 307.371 4.5818 Z M 309.3468 7.8474 C 309.3468 7.2953 309.4249 6.8161 309.5811 6.4099 C 309.7478 5.9932 309.9613 5.6494 310.2218 5.3786 C 310.4926 5.1078 310.7999 4.9047 311.1436 4.7692 C 311.4874 4.6338 311.8364 4.5661 312.1905 4.5661 C 313.0343 4.5661 313.6801 4.8265 314.128 5.3474 C 314.5759 5.8682 314.7999 6.6651 314.7999 7.738 C 314.7999 7.7901 314.7999 7.8526 314.7999 7.9255 C 314.7999 7.9984 314.7947 8.0713 314.7843 8.1442 L 310.5187 8.1442 C 310.5603 8.7901 310.7426 9.2797 311.0655 9.613 C 311.3989 9.9463 311.9145 10.113 312.6124 10.113 C 313.0083 10.113 313.3364 10.0817 313.5968 10.0192 C 313.8676 9.9463 314.0708 9.8786 314.2062 9.8161 L 314.3624 10.7536 C 314.227 10.8265 313.9874 10.8995 313.6437 10.9724 C 313.3103 11.0557 312.9249 11.0974 312.4874 11.0974 C 311.9458 11.0974 311.477 11.0193 311.0812 10.863 C 310.6853 10.6963 310.3572 10.4672 310.0968 10.1755 C 309.8468 9.8838 309.6593 9.5401 309.5343 9.1443 C 309.4093 8.7484 309.3468 8.3161 309.3468 7.8474 Z M 313.628 7.238 C 313.6384 6.738 313.5134 6.3265 313.253 6.0036 C 312.9926 5.6703 312.6332 5.5036 312.1749 5.5036 C 311.9249 5.5036 311.7009 5.5557 311.503 5.6599 C 311.3051 5.764 311.1384 5.8942 311.003 6.0505 C 310.8676 6.2067 310.7634 6.389 310.6905 6.5974 C 310.6176 6.8057 310.5655 7.0192 310.5343 7.238 Z M 316.0548 7.8474 C 316.0548 7.2953 316.133 6.8161 316.2892 6.4099 C 316.4559 5.9932 316.6694 5.6494 316.9298 5.3786 C 317.2007 5.1078 317.508 4.9047 317.8517 4.7692 C 318.1955 4.6338 318.5444 4.5661 318.8986 4.5661 C 319.7423 4.5661 320.3882 4.8265 320.8361 5.3474 C 321.284 5.8682 321.508 6.6651 321.508 7.738 C 321.508 7.7901 321.508 7.8526 321.508 7.9255 C 321.508 7.9984 321.5028 8.0713 321.4923 8.1442 L 317.2267 8.1442 C 317.2684 8.7901 317.4507 9.2797 317.7736 9.613 C 318.1069 9.9463 318.6226 10.113 319.3205 10.113 C 319.7163 10.113 320.0444 10.0817 320.3049 10.0192 C 320.5757 9.9463 320.7788 9.8786 320.9142 9.8161 L 321.0705 10.7536 C 320.9351 10.8265 320.6955 10.8995 320.3517 10.9724 C 320.0184 11.0557 319.633 11.0974 319.1955 11.0974 C 318.6538 11.0974 318.1851 11.0193 317.7892 10.863 C 317.3934 10.6963 317.0653 10.4672 316.8049 10.1755 C 316.5549 9.8838 316.3674 9.5401 316.2424 9.1443 C 316.1174 8.7484 316.0549 8.3161 316.0549 7.8474 Z M 320.3361 7.238 C 320.3465 6.738 320.2215 6.3265 319.9611 6.0036 C 319.7007 5.6703 319.3413 5.5036 318.883 5.5036 C 318.633 5.5036 318.409 5.5557 318.2111 5.6599 C 318.0132 5.764 317.8465 5.8942 317.7111 6.0505 C 317.5757 6.2067 317.4715 6.389 317.3986 6.5974 C 317.3257 6.8057 317.2736 7.0192 317.2423 7.238 Z M 323.1066 4.8942 C 323.367 4.8317 323.7056 4.764 324.1223 4.6911 C 324.5494 4.6182 325.0389 4.5817 325.591 4.5817 C 326.091 4.5817 326.5025 4.6547 326.8254 4.8005 C 327.1587 4.9359 327.4244 5.1286 327.6223 5.3786 C 327.8202 5.6286 327.9556 5.9307 328.0285 6.2849 C 328.1119 6.639 328.1535 7.0297 328.1535 7.4567 L 328.1535 10.9567 L 327.0442 10.9567 L 327.0442 7.6911 C 327.0442 7.3057 327.0181 6.9776 326.966 6.7068 C 326.9139 6.4359 326.8254 6.2172 326.7004 6.0505 C 326.5858 5.8838 326.4244 5.764 326.216 5.6911 C 326.0181 5.6078 325.7733 5.5661 325.4817 5.5661 C 325.3567 5.5661 325.2317 5.5713 325.1067 5.5818 C 324.9817 5.5922 324.8567 5.6026 324.7317 5.613 C 324.6171 5.6234 324.5129 5.6391 324.4192 5.6599 C 324.3358 5.6703 324.2733 5.6807 324.2317 5.6911 L 324.2317 10.9568 L 323.1067 10.9568 Z M 331.3228 10.3161 C 331.3228 10.5244 331.2499 10.7119 331.1041 10.8786 C 330.9582 11.0349 330.7603 11.113 330.5103 11.113 C 330.2707 11.113 330.078 11.0349 329.9322 10.8786 C 329.7864 10.7119 329.7135 10.5244 329.7135 10.3161 C 329.7135 10.0974 329.7864 9.9099 329.9322 9.7536 C 330.078 9.5869 330.2707 9.5036 330.5103 9.5036 C 330.7603 9.5036 330.9582 9.5869 331.1041 9.7536 C 331.2499 9.9099 331.3228 10.0974 331.3228 10.3161 Z " fill="#ffffff" stroke="none" stroke-width="1" stroke-linecap="square"/></g></g></svg>