<svg version="1.1" xmlns="http://www.w3.org/2000/svg" xmlns:xlink="http://www.w3.org/1999/xlink" width="208.16735" height="54.24776" viewBox="0,0,208.16735,54.24776"><g transform="translate(-535.91633,-332.87612)"><g data-paper-data="{&quot;isPaintingLayer&quot;:true}" fill="#ffffff" fill-rule="nonzero" stroke="none" stroke-width="1" stroke-linecap="square" stroke-linejoin="miter" stroke-miterlimit="10" stroke-dasharray="" stroke-dashoffset="0" style="mix-blend-mode: normal"><path d="M535.91633,355.80807c0,-3.5179 0.52608,-6.60843 1.57824,-9.27135c1.05193,-2.66316 2.46573,-4.88234 4.24117,-6.65778c1.77521,-1.80819 3.84655,-3.15626 6.21381,-4.04375c2.4,-0.9207 4.93147,-1.38082 7.59463,-1.38082c2.63018,0 5.11229,0.46012 7.44679,1.38082c2.33427,0.88749 4.37264,2.23556 6.11509,4.04375c1.77544,1.77544 3.18901,3.99462 4.24117,6.65778c1.05193,2.66293 1.57801,5.75346 1.57801,9.27135c0,3.48492 -0.52585,6.55907 -1.57801,9.22223c-1.05216,2.66293 -2.46573,4.89849 -4.24117,6.70691c-1.74246,1.77544 -3.78082,3.12328 -6.11509,4.04398c-2.33427,0.88749 -4.81661,1.33146 -7.44679,1.33146c-2.66316,0 -5.19462,-0.44374 -7.59463,-1.33146c-2.36725,-0.9207 -4.4386,-2.26854 -6.21381,-4.04398c-1.77544,-1.80819 -3.18924,-4.04398 -4.24117,-6.70691c-1.05216,-2.66316 -1.57824,-5.73708 -1.57824,-9.22223zM541.93294,355.80807c0,2.46573 0.31228,4.7179 0.93685,6.75626c0.62479,2.00561 1.51251,3.71509 2.66316,5.12889c1.18363,1.4138 2.59743,2.49871 4.24117,3.25497c1.67673,0.75603 3.55088,1.13427 5.62199,1.13427c2.1041,0 3.97825,-0.37824 5.62199,-1.13427c1.64398,-0.75626 3.04117,-1.84117 4.19182,-3.25497c1.15088,-1.41357 2.0386,-3.12328 2.66316,-5.12889c0.65754,-2.03836 0.98643,-4.2903 0.98643,-6.75626c0,-2.49871 -0.32889,-4.75065 -0.98643,-6.75626c-0.62456,-2.03836 -1.51228,-3.74807 -2.66316,-5.12889c-1.15065,-1.41357 -2.54784,-2.49871 -4.19182,-3.25474c-1.64375,-0.78901 -3.51767,-1.18363 -5.62199,-1.18363c-2.07111,0 -3.94527,0.39462 -5.62199,1.18363c-1.64375,0.75603 -3.05755,1.84117 -4.24117,3.25474c-1.15065,1.38082 -2.03836,3.09053 -2.66293,5.12889c-0.62479,2.00561 -0.93708,4.25778 -0.93708,6.75626zM604.31432,360.98632c0,-3.58363 -0.88772,-6.32889 -2.66316,-8.2358c-1.77544,-1.93988 -4.12609,-2.90971 -7.05217,-2.90971c-1.67673,0 -2.97544,0.06573 -3.89591,0.19719c-0.92047,0.09871 -1.64375,0.23018 -2.16983,0.39462v19.33194c0.65754,0.52608 1.611,1.05193 2.86035,1.57801c1.24936,0.4931 2.63018,0.73988 4.14246,0.73988c1.54526,0 2.87673,-0.27953 3.99462,-0.83836c1.11789,-0.55906 2.02199,-1.33146 2.71228,-2.3179c0.72328,-1.01918 1.24936,-2.20281 1.57824,-3.55065c0.32866,-1.34807 0.4931,-2.811 0.4931,-4.38924zM609.98567,360.98632c0,2.30129 -0.31251,4.43837 -0.93708,6.411c-0.59181,1.97263 -1.47953,3.66574 -2.66316,5.07954c-1.15065,1.4138 -2.58082,2.51509 -4.2903,3.3041c-1.70971,0.75626 -3.66597,1.1345 -5.86877,1.1345c-1.77521,0 -3.33685,-0.23018 -4.68492,-0.69053c-1.34784,-0.46035 -2.35065,-0.90409 -3.00819,-1.33146v12.23042h-5.47416v-40.58716c1.28234,-0.29591 2.89333,-0.62456 4.83299,-0.9862c1.93988,-0.39462 4.19182,-0.59181 6.75626,-0.59181c2.33427,0 4.4386,0.37801 6.31252,1.13427c1.9069,0.72328 3.5179,1.77521 4.83299,3.15626c1.34784,1.38082 2.38363,3.07392 3.1069,5.07954c0.72328,1.97263 1.08491,4.19182 1.08491,6.65755zM622.82105,345.59964h11.63861v4.58644h-11.63861v14.1537c0,1.51228 0.11509,2.77802 0.34503,3.79743c0.26316,0.9862 0.62479,1.77521 1.08514,2.36702c0.46012,0.55906 1.03556,0.95345 1.72608,1.18363c0.72328,0.23018 1.56164,0.34526 2.51509,0.34526c1.64375,0 2.95883,-0.18082 3.94527,-0.54246c1.01918,-0.36164 1.72608,-0.62479 2.12047,-0.78901l1.03579,4.53708c-0.52608,0.26293 -1.47953,0.59181 -2.86035,0.9862c-1.38082,0.42737 -2.95907,0.64117 -4.73427,0.64117c-2.07135,0 -3.78105,-0.26293 -5.12889,-0.78901c-1.34807,-0.52608 -2.43298,-1.31509 -3.25497,-2.36725c-0.82199,-1.08491 -1.41357,-2.4 -1.77521,-3.94527c-0.32889,-1.54526 -0.49333,-3.33708 -0.49333,-5.37544v-27.32096l5.47416,-0.93708zM646.88657,376.22493h-5.47416v-30.62529h5.47416zM644.07558,340.07636c-0.95345,0 -1.77544,-0.32889 -2.46573,-0.98643c-0.69053,-0.65754 -1.03579,-1.52866 -1.03579,-2.6138c0,-1.08491 0.34526,-1.95603 1.03579,-2.61357c0.69029,-0.65754 1.51228,-0.98643 2.46573,-0.98643c0.9862,0 1.82456,0.32889 2.51509,0.98643c0.69029,0.65754 1.03556,1.52866 1.03556,2.61357c0,1.08514 -0.34503,1.95626 -1.03556,2.6138c-0.69029,0.65754 -1.52866,0.98643 -2.51509,0.98643zM683.3352,360.93696c0,2.43298 -0.36164,4.63556 -1.08491,6.60819c-0.69053,1.93988 -1.67696,3.61661 -2.95907,5.03041c-1.28234,1.41357 -2.811,2.51509 -4.58644,3.3041c-1.74246,0.75626 -3.66574,1.13427 -5.76983,1.13427c-2.07135,0 -3.99462,-0.37801 -5.77006,-1.13427c-1.77544,-0.78901 -3.3041,-1.8903 -4.58644,-3.3041c-1.24913,-1.4138 -2.23556,-3.09053 -2.95883,-5.03018c-0.69053,-1.97263 -1.03579,-4.17544 -1.03579,-6.60843c0,-2.4 0.34526,-4.58644 1.03579,-6.55907c0.72328,-2.00538 1.70971,-3.71509 2.95883,-5.12866c1.28234,-1.4138 2.811,-2.49871 4.58644,-3.25497c1.77544,-0.75626 3.69872,-1.13427 5.77006,-1.13427c2.1041,0 4.02737,0.37801 5.77006,1.13427c1.77521,0.75626 3.3041,1.84117 4.58644,3.25497c1.28211,1.41357 2.26854,3.12328 2.95883,5.12889c0.72328,1.97263 1.08491,4.15884 1.08491,6.55884zM677.61449,360.93696c0,-3.48492 -0.78901,-6.23018 -2.36725,-8.2358c-1.54526,-2.00561 -3.64936,-3.00819 -6.31229,-3.00819c-2.66316,0 -4.76725,1.00258 -6.31252,3.00819c-1.54526,2.00561 -2.3179,4.75088 -2.3179,8.2358c0,3.45217 0.77263,6.19743 2.3179,8.2358c1.54526,2.00561 3.64936,3.00819 6.31252,3.00819c2.66293,0 4.76725,-1.00258 6.31229,-3.00819c1.57824,-2.03836 2.36725,-4.78363 2.36725,-8.2358zM691.05114,346.48736c1.24936,-0.32889 2.90971,-0.65754 4.98082,-0.98643c2.07135,-0.36164 4.47135,-0.54246 7.20024,-0.54246c2.43298,0 4.45474,0.34526 6.06597,1.03579c1.611,0.69029 2.8931,1.66035 3.84655,2.90971c0.95345,1.21638 1.62737,2.69591 2.02199,4.43837c0.39462,1.70948 0.59181,3.6 0.59181,5.67135v17.21124h-5.47416v-16.02762c0,-1.87415 -0.13146,-3.46854 -0.39439,-4.78363c-0.26316,-1.34807 -0.69053,-2.43298 -1.28234,-3.25497c-0.55883,-0.82176 -1.33146,-1.41357 -2.3179,-1.77521c-0.9862,-0.39462 -2.20281,-0.59181 -3.64936,-0.59181c-0.59181,0 -1.2,0.01638 -1.82456,0.04936c-0.62479,0.03275 -1.23298,0.08211 -1.8248,0.14784c-0.55883,0.06573 -1.06854,0.14807 -1.52866,0.24655c-0.42737,0.06573 -0.73988,0.11509 -0.93708,0.14807v25.84143h-5.47392zM731.95174,372.27966c2.23556,0 3.89591,-0.29591 4.98082,-0.88772c1.08491,-0.59181 1.6276,-1.52889 1.6276,-2.811c0,-1.34784 -0.54269,-2.41638 -1.6276,-3.20562c-1.05193,-0.78901 -2.79439,-1.66012 -5.22737,-2.61357c-1.18363,-0.4931 -2.3179,-0.98643 -3.40281,-1.47953c-1.05216,-0.4931 -1.97263,-1.06854 -2.76164,-1.72608c-0.78924,-0.65754 -1.43018,-1.46293 -1.92328,-2.41638c-0.46035,-0.95345 -0.69053,-2.10433 -0.69053,-3.45217c0,-2.72889 1.00281,-4.88234 3.00819,-6.46036c2.00561,-1.57824 4.7345,-2.36725 8.18667,-2.36725c0.85474,0 1.70948,0.04936 2.56445,0.14807c0.88749,0.09848 1.6931,0.21357 2.41638,0.34526c0.75626,0.13146 1.4138,0.2793 1.97263,0.44374c0.59181,0.13146 1.05216,0.26316 1.38082,0.39462l-1.03556,4.73427c-0.59181,-0.32889 -1.51228,-0.65754 -2.76164,-0.98643c-1.24936,-0.32866 -2.76187,-0.4931 -4.53708,-0.4931c-1.51251,0 -2.84398,0.31228 -3.99462,0.93708c-1.15065,0.59181 -1.72608,1.52889 -1.72608,2.811c0,0.65754 0.13146,1.24936 0.39462,1.77544c0.26293,0.4931 0.65731,0.95345 1.1834,1.38082c0.52608,0.42737 1.18363,0.82199 1.97263,1.18363c0.78924,0.32866 1.72608,0.69029 2.81123,1.08491c1.44655,0.55883 2.74503,1.10129 3.89591,1.62737c1.15065,0.52608 2.12047,1.15065 2.90971,1.87415c0.82176,0.69029 1.44655,1.54503 1.87392,2.56445c0.42737,0.9862 0.64117,2.20258 0.64117,3.64936c0,2.82737 -1.05216,4.96445 -3.15626,6.411c-2.1041,1.44655 -5.09591,2.16983 -8.97545,2.16983c-2.69614,0 -4.81661,-0.23018 -6.36187,-0.69029c-1.54526,-0.42737 -2.58082,-0.75626 -3.1069,-0.98643l0.98643,-4.73427c0.62456,0.23018 1.62737,0.59181 3.00819,1.08491c1.38082,0.46035 3.20562,0.69053 5.47416,0.69053z"/></g></g></svg>