<svg xmlns="http://www.w3.org/2000/svg" xmlns:xlink="http://www.w3.org/1999/xlink" version="1.1" width="240.27397" height="14.85976" viewBox="0,0,240.27397,14.85976"><g><g data-paper-data="{&quot;isPaintingLayer&quot;:true}" fill-rule="nonzero" stroke-linejoin="miter" stroke-miterlimit="10" stroke-dasharray="" stroke-dashoffset="0" style="mix-blend-mode: normal"><path d="M 7.1572 14.6098 L 7.1572 0.25 L 230.4739 0.25 L 230.5004 14.6098 Z " data-paper-data="{&quot;index&quot;:null}" fill="#000000" stroke="#ffffff" stroke-width="0.5" stroke-linecap="butt"/><path d="M 237.6218 14.588 C 235.2538 14.588 226.3887 14.588 226.3887 14.588 L 226.3887 0.2631 C 226.3887 0.2631 235.2121 0.2631 237.5869 0.2631 C 238.6948 0.2631 240.024 1.5901 240.024 2.7134 C 240.024 3.488 240.024 9.0516 240.024 12.2773 C 240.024 13.6211 238.7169 14.588 237.6218 14.588 Z " data-paper-data="{&quot;index&quot;:null}" fill="#000000" stroke="#ffffff" stroke-width="0.5" stroke-linecap="butt"/><path d="M 0.25 12.2773 C 0.25 9.0516 0.25 3.488 0.25 2.7134 C 0.25 1.5901 1.5792 0.2631 2.6871 0.2631 C 5.0619 0.2631 13.8852 0.2631 13.8852 0.2631 L 13.8852 14.588 C 13.8852 14.588 5.0202 14.588 2.6522 14.588 C 1.5571 14.588 0.25 13.6211 0.25 12.2773 Z " fill="#000000" stroke="#ffffff" stroke-width="0.5" stroke-linecap="butt"/><path d="M635.73333,366.9206v-13.84106h21.10476v13.84106z" fill="#000000" stroke="none" stroke-width="0" stroke-linecap="butt" transform="matrix(1,0,0,1,-628.57366,-352.57452)"/><path d="M853.74296,366.9075v-13.81491h2.7619v13.81491z" fill="#000000" stroke="none" stroke-width="0" stroke-linecap="butt" transform="matrix(1,0,0,1,-628.57366,-352.57452)"/><path d="M 11.5575 2.6442 L 11.5575 3.6442 L 8.9325 3.6442 L 8.9325 10.9567 L 7.7763 10.9567 L 7.7763 3.6442 L 5.1513 3.6442 L 5.1513 2.6442 Z M 12.6969 10.9567 L 12.6969 1.8317 L 13.8219 1.6442 L 13.8219 4.8317 C 14.0303 4.7588 14.249 4.7015 14.4782 4.6599 C 14.7178 4.6078 14.9521 4.5817 15.1813 4.5817 C 15.6813 4.5817 16.0928 4.6546 16.4157 4.8005 C 16.749 4.9359 17.0147 5.1286 17.2126 5.3786 C 17.4105 5.6286 17.5459 5.9307 17.6188 6.2849 C 17.7022 6.639 17.7438 7.0297 17.7438 7.4567 L 17.7438 10.9567 L 16.6345 10.9567 L 16.6345 7.6911 C 16.6345 7.3057 16.6084 6.9776 16.5563 6.7068 C 16.5042 6.4359 16.4157 6.2172 16.2907 6.0505 C 16.1761 5.8838 16.0147 5.764 15.8063 5.6911 C 15.6084 5.6078 15.3636 5.5661 15.072 5.5661 C 14.947 5.5661 14.822 5.5765 14.697 5.5974 C 14.572 5.6078 14.447 5.6234 14.322 5.6443 C 14.2074 5.6651 14.1032 5.6911 14.0095 5.7224 C 13.9261 5.7432 13.8636 5.7589 13.822 5.7693 L 13.822 10.9568 Z M 19.2052 7.8474 C 19.2052 7.2953 19.2834 6.8161 19.4396 6.4099 C 19.6063 5.9932 19.8198 5.6495 20.0802 5.3786 C 20.3511 5.1078 20.6584 4.9047 21.0021 4.7692 C 21.3459 4.6338 21.6948 4.5661 22.049 4.5661 C 22.8928 4.5661 23.5386 4.8265 23.9865 5.3474 C 24.4344 5.8682 24.6584 6.6651 24.6584 7.738 C 24.6584 7.7901 24.6584 7.8526 24.6584 7.9255 C 24.6584 7.9984 24.6532 8.0713 24.6428 8.1442 L 20.3771 8.1442 C 20.4188 8.7901 20.6011 9.2797 20.924 9.613 C 21.2574 9.9463 21.773 10.113 22.4709 10.113 C 22.8667 10.113 23.1949 10.0817 23.4553 10.0192 C 23.7261 9.9463 23.9292 9.8786 24.0647 9.8161 L 24.2209 10.7536 C 24.0855 10.8265 23.8459 10.8995 23.5022 10.9724 C 23.1688 11.0557 22.7834 11.0974 22.3459 11.0974 C 21.8043 11.0974 21.3355 11.0193 20.9397 10.863 C 20.5438 10.6963 20.2157 10.4672 19.9553 10.1755 C 19.7053 9.8838 19.5178 9.5401 19.3928 9.1443 C 19.2678 8.7484 19.2053 8.3161 19.2053 7.8474 Z M 23.4865 7.238 C 23.4969 6.738 23.3719 6.3265 23.1115 6.0036 C 22.8511 5.6703 22.4917 5.5036 22.0334 5.5036 C 21.7834 5.5036 21.5594 5.5557 21.3615 5.6599 C 21.1636 5.764 20.9969 5.8942 20.8615 6.0505 C 20.7261 6.2067 20.6219 6.389 20.549 6.5974 C 20.4761 6.8057 20.424 7.0192 20.3927 7.238 Z M 31.7478 11.0974 C 31.2478 11.0974 30.8051 11.0192 30.4197 10.863 C 30.0447 10.6963 29.727 10.4724 29.4666 10.1911 C 29.2061 9.8995 29.0082 9.5557 28.8728 9.1599 C 28.7478 8.764 28.6853 8.3265 28.6853 7.8474 C 28.6853 7.3682 28.753 6.9307 28.8884 6.5349 C 29.0343 6.1286 29.2322 5.7797 29.4822 5.488 C 29.7426 5.1963 30.0603 4.9724 30.4353 4.8161 C 30.8103 4.6495 31.2218 4.5661 31.6697 4.5661 C 31.9509 4.5661 32.2322 4.5922 32.5134 4.6443 C 32.7947 4.6859 33.0655 4.7588 33.3259 4.863 L 33.0603 5.8161 C 32.8936 5.7328 32.7009 5.6703 32.4822 5.6286 C 32.2634 5.5765 32.0291 5.5505 31.7791 5.5505 C 31.1541 5.5505 30.6749 5.7484 30.3416 6.1443 C 30.0187 6.5297 29.8572 7.0974 29.8572 7.8474 C 29.8572 8.1807 29.8937 8.488 29.9666 8.7693 C 30.0395 9.0505 30.1593 9.2953 30.326 9.5037 C 30.4926 9.7016 30.701 9.8526 30.951 9.9568 C 31.2114 10.0609 31.5239 10.113 31.8885 10.113 C 32.1905 10.113 32.4614 10.087 32.701 10.0349 C 32.9405 9.9724 33.128 9.9099 33.2635 9.8474 L 33.4197 10.7849 C 33.3572 10.8266 33.2635 10.8683 33.1385 10.9099 C 33.0239 10.9412 32.8885 10.9672 32.7322 10.988 C 32.576 11.0193 32.4093 11.0453 32.2322 11.0662 C 32.0655 11.087 31.9041 11.0974 31.7478 11.0974 Z M 39.5779 10.7692 C 39.3279 10.8421 38.9893 10.9099 38.5622 10.9724 C 38.1456 11.0453 37.6612 11.0817 37.1091 11.0817 C 36.63 11.0817 36.2237 11.014 35.8904 10.8786 C 35.5675 10.7432 35.307 10.5453 35.1091 10.2849 C 34.9112 10.0245 34.7654 9.7224 34.6716 9.3786 C 34.5883 9.0349 34.5466 8.6495 34.5466 8.2224 L 34.5466 4.7224 L 35.656 4.7224 L 35.656 7.988 C 35.656 8.738 35.7758 9.2797 36.0154 9.613 C 36.255 9.9359 36.6612 10.0974 37.2341 10.0974 C 37.3487 10.0974 37.4685 10.0974 37.5935 10.0974 C 37.7289 10.087 37.8487 10.0765 37.9529 10.0661 C 38.0675 10.0557 38.1716 10.0453 38.2654 10.0349 C 38.3591 10.014 38.4268 9.9984 38.4685 9.988 L 38.4685 4.7224 L 39.5779 4.7224 Z M 43.8096 4.5817 C 43.9034 4.5817 44.0128 4.5869 44.1378 4.5974 C 44.2628 4.6078 44.3825 4.6234 44.4971 4.6442 C 44.6221 4.6651 44.7315 4.6859 44.8253 4.7067 C 44.9294 4.7276 45.0076 4.7484 45.0596 4.7692 L 44.8565 5.738 C 44.7732 5.7067 44.6274 5.6703 44.419 5.6286 C 44.2211 5.5765 43.9607 5.5505 43.6378 5.5505 C 43.4294 5.5505 43.2211 5.5765 43.0128 5.6286 C 42.8149 5.6703 42.6847 5.6963 42.6222 5.7068 L 42.6222 10.9568 L 41.4972 10.9568 L 41.4972 4.988 C 41.768 4.8838 42.0961 4.7901 42.4815 4.7068 C 42.8774 4.6234 43.3201 4.5818 43.8097 4.5818 Z M 47.5823 10.1599 C 48.0406 10.1599 48.3792 10.1026 48.5979 9.988 C 48.8167 9.863 48.9261 9.6651 48.9261 9.3942 C 48.9261 9.1234 48.8167 8.9099 48.5979 8.7536 C 48.3896 8.587 48.0354 8.4047 47.5354 8.2067 C 47.2958 8.113 47.0667 8.0192 46.8479 7.9255 C 46.6292 7.8213 46.4365 7.7015 46.2698 7.5661 C 46.1136 7.4307 45.9886 7.2693 45.8948 7.0818 C 45.8011 6.8838 45.7542 6.6443 45.7542 6.363 C 45.7542 5.8109 45.9573 5.3734 46.3636 5.0505 C 46.7698 4.7276 47.3271 4.5661 48.0355 4.5661 C 48.2125 4.5661 48.3844 4.5765 48.5511 4.5974 C 48.7282 4.6078 48.8948 4.6286 49.0511 4.6599 C 49.2073 4.6911 49.3427 4.7224 49.4573 4.7536 C 49.5719 4.7849 49.6605 4.8109 49.723 4.8318 L 49.5198 5.8005 C 49.3948 5.738 49.2021 5.6755 48.9417 5.613 C 48.6917 5.5401 48.3896 5.5036 48.0355 5.5036 C 47.723 5.5036 47.4469 5.5661 47.2074 5.6911 C 46.9782 5.8057 46.8636 5.9984 46.8636 6.2693 C 46.8636 6.4047 46.8896 6.5245 46.9417 6.6287 C 46.9938 6.7328 47.0719 6.8266 47.1761 6.9099 C 47.2907 6.9932 47.4261 7.0714 47.5824 7.1443 C 47.749 7.2172 47.9417 7.2901 48.1605 7.363 C 48.4626 7.4776 48.7282 7.5922 48.9574 7.7068 C 49.1865 7.8109 49.3845 7.9359 49.5511 8.0818 C 49.7178 8.2276 49.8428 8.4047 49.9261 8.613 C 50.0199 8.8109 50.0668 9.0557 50.0668 9.3474 C 50.0668 9.9203 49.848 10.3578 49.4105 10.6599 C 48.9834 10.9516 48.374 11.0974 47.5824 11.0974 C 47.0303 11.0974 46.598 11.0505 46.2855 10.9568 C 45.973 10.8735 45.7647 10.8058 45.6605 10.7537 L 45.8636 9.8006 C 45.9886 9.8422 46.1918 9.9151 46.473 10.0193 C 46.7543 10.1131 47.1241 10.1599 47.5824 10.1599 Z M 56.9968 7.8317 C 56.9968 8.3317 56.9239 8.7849 56.7781 9.1911 C 56.6322 9.587 56.4291 9.9307 56.1687 10.2224 C 55.9083 10.5036 55.5958 10.7224 55.2312 10.8786 C 54.877 11.0349 54.4916 11.113 54.0749 11.113 C 53.6479 11.113 53.252 11.0349 52.8874 10.8786 C 52.5333 10.7224 52.226 10.5036 51.9656 10.2224 C 51.7052 9.9307 51.502 9.587 51.3562 9.1911 C 51.2104 8.7849 51.1375 8.3317 51.1375 7.8317 C 51.1375 7.3422 51.2104 6.8995 51.3562 6.5036 C 51.502 6.0974 51.7052 5.7536 51.9656 5.4724 C 52.226 5.1807 52.5333 4.9568 52.8875 4.8005 C 53.252 4.6443 53.6479 4.5661 54.075 4.5661 C 54.4916 4.5661 54.877 4.6443 55.2312 4.8005 C 55.5958 4.9568 55.9083 5.1807 56.1687 5.4724 C 56.4291 5.7536 56.6323 6.0974 56.7781 6.5036 C 56.9239 6.8995 56.9968 7.3422 56.9968 7.8318 Z M 55.8249 7.8317 C 55.8249 7.1338 55.6687 6.5817 55.3562 6.1755 C 55.0437 5.7588 54.6166 5.5505 54.0749 5.5505 C 53.5229 5.5505 53.0906 5.7588 52.7781 6.1755 C 52.4656 6.5817 52.3093 7.1338 52.3093 7.8317 C 52.3093 8.5401 52.4656 9.1026 52.7781 9.5192 C 53.0906 9.9255 53.5229 10.1286 54.075 10.1286 C 54.6166 10.1286 55.0437 9.9255 55.3562 9.5192 C 55.6687 9.1026 55.825 8.5401 55.825 7.8317 Z M 60.8737 4.5817 C 60.9675 4.5817 61.0769 4.5869 61.2019 4.5974 C 61.3269 4.6078 61.4467 4.6234 61.5613 4.6442 C 61.6863 4.6651 61.7956 4.6859 61.8894 4.7067 C 61.9935 4.7276 62.0717 4.7484 62.1238 4.7692 L 61.9206 5.738 C 61.8373 5.7067 61.6915 5.6703 61.4831 5.6286 C 61.2852 5.5765 61.0248 5.5505 60.7019 5.5505 C 60.4936 5.5505 60.2852 5.5765 60.0769 5.6286 C 59.879 5.6703 59.7488 5.6963 59.6863 5.7068 L 59.6863 10.9568 L 58.5613 10.9568 L 58.5613 4.988 C 58.8321 4.8838 59.1602 4.7901 59.5457 4.7068 C 59.9415 4.6234 60.3842 4.5818 60.8738 4.5818 Z M 71.0747 10.9567 C 70.8455 10.3838 70.6059 9.7276 70.3559 8.988 C 70.1059 8.2484 69.8768 7.4776 69.6684 6.6755 C 69.4601 7.4776 69.2309 8.2484 68.9809 8.988 C 68.7309 9.7276 68.4966 10.3838 68.2778 10.9567 L 67.3091 10.9567 C 66.9341 10.1338 66.5695 9.1963 66.2153 8.1442 C 65.8716 7.0817 65.5434 5.9411 65.2309 4.7224 L 66.4341 4.7224 C 66.507 5.0974 66.6007 5.5036 66.7153 5.9411 C 66.8299 6.3786 66.9497 6.8213 67.0747 7.2692 C 67.1997 7.7067 67.3299 8.1286 67.4653 8.5349 C 67.6007 8.9411 67.7257 9.2953 67.8403 9.5974 C 67.9757 9.2224 68.1112 8.8265 68.2466 8.4099 C 68.382 7.9828 68.507 7.5557 68.6216 7.1286 C 68.7466 6.7015 68.8612 6.2849 68.9653 5.8786 C 69.0695 5.462 69.1632 5.0765 69.2466 4.7224 L 70.1685 4.7224 C 70.2414 5.0765 70.3299 5.462 70.4341 5.8786 C 70.5382 6.2849 70.6476 6.7015 70.7622 7.1286 C 70.8872 7.5557 71.0174 7.9828 71.1528 8.4099 C 71.2883 8.8265 71.4237 9.2224 71.5591 9.5974 C 71.6737 9.2953 71.7935 8.9411 71.9185 8.5349 C 72.0539 8.1286 72.1841 7.7067 72.3091 7.2692 C 72.4445 6.8213 72.5695 6.3786 72.6841 5.9411 C 72.7987 5.5036 72.8924 5.0974 72.9654 4.7224 L 74.1216 4.7224 C 73.8091 5.9411 73.4758 7.0818 73.1216 8.1443 C 72.7674 9.1963 72.4081 10.1338 72.0435 10.9568 Z M 76.4144 10.9567 L 75.2894 10.9567 L 75.2894 4.7224 L 76.4144 4.7224 Z M 75.8519 3.5817 C 75.654 3.5817 75.4821 3.5192 75.3362 3.3942 C 75.2008 3.2588 75.1331 3.0817 75.1331 2.863 C 75.1331 2.6338 75.2008 2.4567 75.3363 2.3317 C 75.4821 2.1963 75.654 2.1286 75.8519 2.1286 C 76.0498 2.1286 76.2165 2.1963 76.3519 2.3317 C 76.4977 2.4567 76.5706 2.6338 76.5706 2.863 C 76.5706 3.0817 76.4977 3.2588 76.3519 3.3942 C 76.2165 3.5192 76.0498 3.5817 75.8519 3.5817 Z M 80.2004 11.0817 C 79.5129 11.0609 79.0233 10.9099 78.7317 10.6286 C 78.4504 10.3474 78.3098 9.9151 78.3098 9.3317 L 78.3098 1.8317 L 79.4192 1.6442 L 79.4192 9.1442 C 79.4192 9.3317 79.4348 9.488 79.466 9.613 C 79.4973 9.7276 79.5494 9.8213 79.6223 9.8942 C 79.6952 9.9671 79.789 10.0192 79.9035 10.0505 C 80.0285 10.0817 80.1796 10.113 80.3567 10.1442 Z M 83.4764 11.0817 C 82.7889 11.0609 82.2993 10.9099 82.0077 10.6286 C 81.7264 10.3474 81.5858 9.9151 81.5858 9.3317 L 81.5858 1.8317 L 82.6952 1.6442 L 82.6952 9.1442 C 82.6952 9.3317 82.7108 9.488 82.742 9.613 C 82.7733 9.7276 82.8254 9.8213 82.8983 9.8942 C 82.9712 9.9671 83.065 10.0192 83.1795 10.0505 C 83.3045 10.0817 83.4556 10.113 83.6327 10.1442 Z M 89.9619 4.5817 C 90.0557 4.5817 90.1651 4.5869 90.2901 4.5974 C 90.4151 4.6078 90.5349 4.6234 90.6495 4.6442 C 90.7745 4.6651 90.8838 4.6859 90.9776 4.7067 C 91.0817 4.7276 91.1599 4.7484 91.212 4.7692 L 91.0088 5.738 C 90.9255 5.7067 90.7797 5.6703 90.5713 5.6286 C 90.3734 5.5765 90.113 5.5505 89.7901 5.5505 C 89.5817 5.5505 89.3734 5.5765 89.1651 5.6286 C 88.9672 5.6703 88.837 5.6963 88.7745 5.7068 L 88.7745 10.9568 L 87.6495 10.9568 L 87.6495 4.988 C 87.9203 4.8838 88.2484 4.7901 88.6338 4.7068 C 89.0297 4.6234 89.4724 4.5818 89.962 4.5818 Z M 93.4065 10.9567 L 92.2815 10.9567 L 92.2815 4.7224 L 93.4065 4.7224 Z M 92.844 3.5817 C 92.6461 3.5817 92.4742 3.5192 92.3284 3.3942 C 92.193 3.2588 92.1252 3.0817 92.1252 2.863 C 92.1252 2.6338 92.193 2.4567 92.3284 2.3317 C 92.4742 2.1963 92.6461 2.1286 92.844 2.1286 C 93.0419 2.1286 93.2086 2.1963 93.344 2.3317 C 93.4898 2.4567 93.5628 2.6338 93.5628 2.863 C 93.5628 3.0817 93.4898 3.2588 93.344 3.3942 C 93.2086 3.5192 93.0419 3.5817 92.844 3.5817 Z M 99.6612 7.8474 C 99.6612 7.1182 99.479 6.5609 99.1144 6.1755 C 98.7602 5.7796 98.281 5.5817 97.6769 5.5817 C 97.3435 5.5817 97.0831 5.5974 96.8956 5.6286 C 96.7081 5.6495 96.5571 5.6755 96.4425 5.7067 L 96.4425 9.6442 C 96.5779 9.7484 96.7706 9.8526 97.0206 9.9567 C 97.281 10.0609 97.5623 10.113 97.8644 10.113 C 98.1873 10.113 98.4633 10.0557 98.6925 9.9411 C 98.9217 9.8265 99.104 9.6703 99.2394 9.4724 C 99.3852 9.264 99.4894 9.0245 99.5519 8.7536 C 99.6248 8.4724 99.6613 8.1703 99.6613 7.8474 Z M 100.8175 7.8474 C 100.8175 8.3161 100.755 8.7536 100.63 9.1599 C 100.505 9.5557 100.3227 9.8995 100.0831 10.1911 C 99.8435 10.4724 99.5467 10.6963 99.1925 10.863 C 98.8488 11.0192 98.4529 11.0974 98.005 11.0974 C 97.6508 11.0974 97.3331 11.0505 97.0519 10.9567 C 96.781 10.863 96.5779 10.7692 96.4425 10.6755 L 96.4425 13.1755 L 95.3175 13.1755 L 95.3175 4.9099 C 95.5884 4.8474 95.9217 4.7797 96.3175 4.7068 C 96.7134 4.6234 97.1717 4.5818 97.6925 4.5818 C 98.1717 4.5818 98.604 4.6599 98.9894 4.8161 C 99.3748 4.962 99.7029 5.1755 99.9738 5.4568 C 100.2446 5.738 100.4529 6.0818 100.5988 6.488 C 100.7446 6.8943 100.8175 7.3474 100.8175 7.8474 Z M 106.7293 7.8474 C 106.7293 7.1182 106.547 6.5609 106.1824 6.1755 C 105.8283 5.7796 105.3491 5.5817 104.7449 5.5817 C 104.4116 5.5817 104.1512 5.5974 103.9637 5.6286 C 103.7762 5.6495 103.6251 5.6755 103.5106 5.7067 L 103.5106 9.6442 C 103.646 9.7484 103.8387 9.8526 104.0887 9.9567 C 104.3491 10.0609 104.6304 10.113 104.9324 10.113 C 105.2554 10.113 105.5314 10.0557 105.7606 9.9411 C 105.9897 9.8265 106.172 9.6703 106.3075 9.4724 C 106.4533 9.264 106.5575 9.0245 106.62 8.7536 C 106.6929 8.4724 106.7293 8.1703 106.7293 7.8474 Z M 107.8856 7.8474 C 107.8856 8.3161 107.8231 8.7536 107.6981 9.1599 C 107.5731 9.5557 107.3908 9.8995 107.1512 10.1911 C 106.9116 10.4724 106.6147 10.6963 106.2606 10.863 C 105.9168 11.0192 105.521 11.0974 105.0731 11.0974 C 104.7189 11.0974 104.4012 11.0505 104.1199 10.9567 C 103.8491 10.863 103.646 10.7692 103.5106 10.6755 L 103.5106 13.1755 L 102.3856 13.1755 L 102.3856 4.9099 C 102.6564 4.8474 102.9897 4.7797 103.3856 4.7068 C 103.7814 4.6234 104.2397 4.5818 104.7606 4.5818 C 105.2397 4.5818 105.672 4.6599 106.0575 4.8161 C 106.4429 4.962 106.771 5.1755 107.0418 5.4568 C 107.3127 5.738 107.521 6.0818 107.6668 6.488 C 107.8127 6.8943 107.8856 7.3474 107.8856 7.8474 Z M 111.3286 11.0817 C 110.6411 11.0609 110.1515 10.9099 109.8599 10.6286 C 109.5786 10.3474 109.438 9.9151 109.438 9.3317 L 109.438 1.8317 L 110.5474 1.6442 L 110.5474 9.1442 C 110.5474 9.3317 110.563 9.488 110.5942 9.613 C 110.6255 9.7276 110.6776 9.8213 110.7505 9.8942 C 110.8234 9.9671 110.9172 10.0192 111.0317 10.0505 C 111.1567 10.0817 111.3078 10.113 111.4849 10.1442 Z M 112.3859 7.8474 C 112.3859 7.2953 112.464 6.8161 112.6203 6.4099 C 112.7869 5.9932 113.0005 5.6495 113.2609 5.3786 C 113.5317 5.1078 113.839 4.9047 114.1828 4.7692 C 114.5265 4.6338 114.8755 4.5661 115.2297 4.5661 C 116.0734 4.5661 116.7192 4.8265 117.1672 5.3474 C 117.6151 5.8682 117.839 6.6651 117.839 7.738 C 117.839 7.7901 117.839 7.8526 117.839 7.9255 C 117.839 7.9984 117.8338 8.0713 117.8234 8.1442 L 113.5578 8.1442 C 113.5995 8.7901 113.7818 9.2797 114.1047 9.613 C 114.438 9.9463 114.9536 10.113 115.6516 10.113 C 116.0474 10.113 116.3755 10.0817 116.6359 10.0192 C 116.9068 9.9463 117.1099 9.8786 117.2453 9.8161 L 117.4016 10.7536 C 117.2662 10.8265 117.0266 10.8995 116.6828 10.9724 C 116.3495 11.0557 115.9641 11.0974 115.5266 11.0974 C 114.9849 11.0974 114.5162 11.0193 114.1203 10.863 C 113.7245 10.6963 113.3964 10.4672 113.1359 10.1755 C 112.8859 9.8838 112.6984 9.5401 112.5734 9.1443 C 112.4484 8.7484 112.3859 8.3161 112.3859 7.8474 Z M 116.6671 7.238 C 116.6775 6.738 116.5525 6.3265 116.2921 6.0036 C 116.0317 5.6703 115.6724 5.5036 115.214 5.5036 C 114.964 5.5036 114.7401 5.5557 114.5421 5.6599 C 114.3442 5.764 114.1776 5.8942 114.0421 6.0505 C 113.9067 6.2067 113.8026 6.389 113.7296 6.5974 C 113.6567 6.8057 113.6046 7.0192 113.5734 7.238 Z M 127.7253 7.8317 C 127.7253 8.3317 127.6524 8.7849 127.5066 9.1911 C 127.3607 9.587 127.1576 9.9307 126.8972 10.2224 C 126.6368 10.5036 126.3243 10.7224 125.9597 10.8786 C 125.6056 11.0349 125.2201 11.113 124.8035 11.113 C 124.3764 11.113 123.9806 11.0349 123.616 10.8786 C 123.2618 10.7224 122.9545 10.5036 122.6941 10.2224 C 122.4337 9.9307 122.2306 9.587 122.0847 9.1911 C 121.9389 8.7849 121.866 8.3317 121.866 7.8317 C 121.866 7.3422 121.9389 6.8995 122.0847 6.5036 C 122.2306 6.0974 122.4337 5.7536 122.6941 5.4724 C 122.9545 5.1807 123.2618 4.9568 123.616 4.8005 C 123.9806 4.6443 124.3764 4.5661 124.8035 4.5661 C 125.2201 4.5661 125.6056 4.6443 125.9597 4.8005 C 126.3243 4.9568 126.6368 5.1807 126.8972 5.4724 C 127.1576 5.7536 127.3608 6.0974 127.5066 6.5036 C 127.6525 6.8995 127.7254 7.3422 127.7254 7.8318 Z M 126.5535 7.8317 C 126.5535 7.1338 126.3972 6.5817 126.0847 6.1755 C 125.7722 5.7588 125.3451 5.5505 124.8035 5.5505 C 124.2514 5.5505 123.8191 5.7588 123.5066 6.1755 C 123.1941 6.5817 123.0378 7.1338 123.0378 7.8317 C 123.0378 8.5401 123.1941 9.1026 123.5066 9.5192 C 123.8191 9.9255 124.2514 10.1286 124.8035 10.1286 C 125.3451 10.1286 125.7722 9.9255 126.0847 9.5192 C 126.3972 9.1026 126.5535 8.5401 126.5535 7.8317 Z M 134.2585 10.7692 C 134.0085 10.8421 133.67 10.9099 133.2429 10.9724 C 132.8262 11.0453 132.3419 11.0817 131.7898 11.0817 C 131.3106 11.0817 130.9044 11.014 130.571 10.8786 C 130.2481 10.7432 129.9877 10.5453 129.7898 10.2849 C 129.5919 10.0245 129.446 9.7224 129.3523 9.3786 C 129.2689 9.0349 129.2273 8.6495 129.2273 8.2224 L 129.2273 4.7224 L 130.3366 4.7224 L 130.3366 7.988 C 130.3366 8.738 130.4564 9.2797 130.696 9.613 C 130.9356 9.9359 131.3419 10.0974 131.9148 10.0974 C 132.0294 10.0974 132.1492 10.0974 132.2742 10.0974 C 132.4096 10.087 132.5294 10.0765 132.6335 10.0661 C 132.7481 10.0557 132.8523 10.0453 132.946 10.0349 C 133.0398 10.014 133.1075 9.9984 133.1492 9.988 L 133.1492 4.7224 L 134.2585 4.7224 Z M 137.2247 4.7224 L 139.5997 4.7224 L 139.5997 5.6599 L 137.2247 5.6599 L 137.2247 8.5349 C 137.2247 8.8474 137.2455 9.1078 137.2872 9.3161 C 137.3393 9.514 137.4122 9.6703 137.5059 9.7849 C 137.6101 9.8995 137.7351 9.9828 137.8809 10.0349 C 138.0268 10.0765 138.1934 10.0974 138.3809 10.0974 C 138.7143 10.0974 138.9799 10.0609 139.1778 9.988 C 139.3861 9.9151 139.532 9.863 139.6153 9.8317 L 139.834 10.7536 C 139.7195 10.8057 139.5215 10.8734 139.2403 10.9567 C 138.959 11.0401 138.6413 11.0817 138.2872 11.0817 C 137.8601 11.0817 137.5059 11.0297 137.2247 10.9255 C 136.9538 10.8213 136.7351 10.6599 136.5684 10.4411 C 136.4018 10.2224 136.282 9.9568 136.2091 9.6443 C 136.1466 9.3318 136.1153 8.9672 136.1153 8.5505 L 136.1153 2.9724 L 137.2247 2.7849 Z M 146.1112 10.9567 C 145.882 10.3838 145.6424 9.7276 145.3924 8.988 C 145.1424 8.2484 144.9133 7.4776 144.7049 6.6755 C 144.4966 7.4776 144.2674 8.2484 144.0174 8.988 C 143.7674 9.7276 143.5331 10.3838 143.3143 10.9567 L 142.3456 10.9567 C 141.9706 10.1338 141.606 9.1963 141.2518 8.1442 C 140.9081 7.0817 140.58 5.9411 140.2675 4.7224 L 141.4706 4.7224 C 141.5435 5.0974 141.6372 5.5036 141.7518 5.9411 C 141.8664 6.3786 141.9862 6.8213 142.1112 7.2692 C 142.2362 7.7067 142.3664 8.1286 142.5018 8.5349 C 142.6373 8.9411 142.7623 9.2953 142.8768 9.5974 C 143.0123 9.2224 143.1477 8.8265 143.2831 8.4099 C 143.4185 7.9828 143.5435 7.5557 143.6581 7.1286 C 143.7831 6.7015 143.8977 6.2849 144.0018 5.8786 C 144.106 5.462 144.1998 5.0765 144.2831 4.7224 L 145.205 4.7224 C 145.2779 5.0765 145.3664 5.462 145.4706 5.8786 C 145.5748 6.2849 145.6841 6.7015 145.7987 7.1286 C 145.9237 7.5557 146.0539 7.9828 146.1894 8.4099 C 146.3248 8.8265 146.4602 9.2224 146.5956 9.5974 C 146.7102 9.2953 146.83 8.9411 146.955 8.5349 C 147.0904 8.1286 147.2206 7.7067 147.3456 7.2692 C 147.481 6.8213 147.606 6.3786 147.7206 5.9411 C 147.8352 5.5036 147.929 5.0974 148.0019 4.7224 L 149.1581 4.7224 C 148.8456 5.9411 148.5123 7.0818 148.1581 8.1443 C 147.804 9.1963 147.4446 10.1338 147.08 10.9568 Z M 152.4509 10.1599 C 152.7113 10.1599 152.9405 10.1547 153.1384 10.1442 C 153.3467 10.1234 153.5186 10.0974 153.654 10.0661 L 153.654 8.2067 C 153.5707 8.1651 153.4405 8.1338 153.2634 8.113 C 153.0863 8.0817 152.8676 8.0661 152.6072 8.0661 C 152.4405 8.0661 152.2634 8.0818 152.0759 8.113 C 151.8884 8.1338 151.7165 8.1807 151.5603 8.2536 C 151.404 8.3265 151.2738 8.4307 151.1697 8.5661 C 151.0655 8.6911 151.0134 8.863 151.0134 9.0818 C 151.0134 9.488 151.1384 9.7693 151.3884 9.9255 C 151.6488 10.0818 152.003 10.1599 152.4509 10.1599 Z M 152.3415 4.5661 C 152.7894 4.5661 153.1696 4.6234 153.4821 4.738 C 153.7946 4.8526 154.0446 5.0192 154.2321 5.238 C 154.4196 5.4463 154.5499 5.6963 154.6228 5.988 C 154.7061 6.2796 154.7478 6.5974 154.7478 6.9411 L 154.7478 10.8474 C 154.654 10.8682 154.5186 10.8942 154.3415 10.9255 C 154.1749 10.9463 153.9822 10.9672 153.7634 10.988 C 153.5447 11.0192 153.3103 11.0401 153.0603 11.0505 C 152.8103 11.0713 152.5603 11.0817 152.3103 11.0817 C 151.9561 11.0817 151.6332 11.0453 151.3415 10.9724 C 151.0499 10.9099 150.7947 10.8005 150.5759 10.6443 C 150.3572 10.488 150.1853 10.2849 150.0603 10.0349 C 149.9457 9.7745 149.8884 9.462 149.8884 9.0974 C 149.8884 8.7536 149.9561 8.4568 150.0916 8.2068 C 150.2374 7.9568 150.4301 7.7589 150.6697 7.613 C 150.9093 7.4568 151.1853 7.3422 151.4978 7.2693 C 151.8207 7.1964 152.1593 7.1599 152.5134 7.1599 C 152.628 7.1599 152.7426 7.1703 152.8572 7.1911 C 152.9822 7.2016 153.0968 7.2172 153.2009 7.238 C 153.3155 7.2484 153.4093 7.2641 153.4822 7.2849 C 153.5655 7.3057 153.6228 7.3162 153.6541 7.3162 L 153.6541 7.0037 C 153.6541 6.8266 153.6332 6.6495 153.5916 6.4724 C 153.5499 6.2849 153.477 6.1234 153.3728 5.988 C 153.2791 5.8422 153.1385 5.7276 152.951 5.6443 C 152.7739 5.5609 152.5395 5.5193 152.2478 5.5193 C 151.8832 5.5193 151.5603 5.5453 151.2791 5.5974 C 151.0082 5.6495 150.8051 5.7016 150.6697 5.7537 L 150.5291 4.8318 C 150.6749 4.7693 150.9145 4.712 151.2478 4.6599 C 151.5916 4.5974 151.9562 4.5662 152.3416 4.5662 Z M 158.9024 4.5817 C 158.9962 4.5817 159.1056 4.5869 159.2306 4.5974 C 159.3556 4.6078 159.4753 4.6234 159.5899 4.6442 C 159.7149 4.6651 159.8243 4.6859 159.9181 4.7067 C 160.0222 4.7276 160.1004 4.7484 160.1524 4.7692 L 159.9493 5.738 C 159.866 5.7067 159.7202 5.6703 159.5118 5.6286 C 159.3139 5.5765 159.0535 5.5505 158.7306 5.5505 C 158.5222 5.5505 158.3139 5.5765 158.1056 5.6286 C 157.9077 5.6703 157.7775 5.6963 157.715 5.7068 L 157.715 10.9568 L 156.59 10.9568 L 156.59 4.988 C 156.8608 4.8838 157.1889 4.7901 157.5743 4.7068 C 157.9702 4.6234 158.4129 4.5818 158.9025 4.5818 Z M 165.2532 6.0349 C 165.1178 5.9203 164.9199 5.8109 164.6595 5.7067 C 164.4095 5.6026 164.1334 5.5505 163.8314 5.5505 C 163.5085 5.5505 163.2324 5.613 163.0032 5.738 C 162.7845 5.8526 162.6022 6.014 162.4564 6.2224 C 162.3105 6.4203 162.2064 6.6599 162.1439 6.9411 C 162.0814 7.2224 162.0501 7.5192 162.0501 7.8317 C 162.0501 8.5609 162.2272 9.1234 162.5814 9.5192 C 162.946 9.9151 163.4251 10.113 164.0189 10.113 C 164.3314 10.113 164.5866 10.1026 164.7845 10.0817 C 164.9928 10.0505 165.1491 10.0192 165.2532 9.988 Z M 165.2532 1.8317 L 166.3782 1.6442 L 166.3782 10.7692 C 166.1178 10.8421 165.7897 10.9151 165.3939 10.988 C 164.998 11.0609 164.5397 11.0974 164.0189 11.0974 C 163.5397 11.0974 163.1074 11.0245 162.722 10.8786 C 162.3366 10.7224 162.0085 10.5036 161.7376 10.2224 C 161.4668 9.9411 161.2532 9.6026 161.097 9.2067 C 160.9512 8.8005 160.8782 8.3421 160.8782 7.8317 C 160.8782 7.3526 160.9407 6.9151 161.0657 6.5192 C 161.1907 6.113 161.373 5.7692 161.6126 5.488 C 161.8522 5.1963 162.1439 4.9724 162.4876 4.8161 C 162.8418 4.6495 163.2428 4.5661 163.6908 4.5661 C 164.0449 4.5661 164.3574 4.6182 164.6283 4.7224 C 164.9095 4.8161 165.1178 4.9047 165.2533 4.988 Z M 169.7432 10.1599 C 170.2015 10.1599 170.54 10.1026 170.7588 9.988 C 170.9775 9.863 171.0869 9.6651 171.0869 9.3942 C 171.0869 9.1234 170.9775 8.9099 170.7588 8.7536 C 170.5505 8.587 170.1963 8.4047 169.6963 8.2067 C 169.4567 8.113 169.2275 8.0192 169.0088 7.9255 C 168.79 7.8213 168.5973 7.7015 168.4307 7.5661 C 168.2744 7.4307 168.1494 7.2693 168.0557 7.0818 C 167.9619 6.8838 167.9151 6.6443 167.9151 6.363 C 167.9151 5.8109 168.1182 5.3734 168.5244 5.0505 C 168.9307 4.7276 169.488 4.5661 170.1963 4.5661 C 170.3734 4.5661 170.5453 4.5765 170.7119 4.5974 C 170.889 4.6078 171.0557 4.6286 171.2119 4.6599 C 171.3682 4.6911 171.5036 4.7224 171.6182 4.7536 C 171.7328 4.7849 171.8213 4.8109 171.8838 4.8318 L 171.6807 5.8005 C 171.5557 5.738 171.363 5.6755 171.1026 5.613 C 170.8526 5.5401 170.5505 5.5036 170.1963 5.5036 C 169.8838 5.5036 169.6078 5.5661 169.3682 5.6911 C 169.1391 5.8057 169.0245 5.9984 169.0245 6.2693 C 169.0245 6.4047 169.0505 6.5245 169.1026 6.6287 C 169.1547 6.7328 169.2328 6.8266 169.337 6.9099 C 169.4516 6.9932 169.587 7.0714 169.7432 7.1443 C 169.9099 7.2172 170.1026 7.2901 170.3214 7.363 C 170.6234 7.4776 170.8891 7.5922 171.1182 7.7068 C 171.3474 7.8109 171.5453 7.9359 171.712 8.0818 C 171.8786 8.2276 172.0036 8.4047 172.087 8.613 C 172.1807 8.8109 172.2276 9.0557 172.2276 9.3474 C 172.2276 9.9203 172.0089 10.3578 171.5714 10.6599 C 171.1443 10.9516 170.5349 11.0974 169.7432 11.0974 C 169.1912 11.0974 168.7589 11.0505 168.4464 10.9568 C 168.1339 10.8735 167.9255 10.8058 167.8214 10.7537 L 168.0245 9.8006 C 168.1495 9.8422 168.3526 9.9151 168.6339 10.0193 C 168.9151 10.1131 169.2849 10.1599 169.7433 10.1599 Z M 181.9297 7.8317 C 181.9297 8.3317 181.8568 8.7849 181.711 9.1911 C 181.5651 9.587 181.362 9.9307 181.1016 10.2224 C 180.8412 10.5036 180.5287 10.7224 180.1641 10.8786 C 179.8099 11.0349 179.4245 11.113 179.0078 11.113 C 178.5808 11.113 178.1849 11.0349 177.8203 10.8786 C 177.4662 10.7224 177.1589 10.5036 176.8985 10.2224 C 176.6381 9.9307 176.4349 9.587 176.2891 9.1911 C 176.1433 8.7849 176.0704 8.3317 176.0704 7.8317 C 176.0704 7.3422 176.1433 6.8995 176.2891 6.5036 C 176.4349 6.0974 176.6381 5.7536 176.8985 5.4724 C 177.1589 5.1807 177.4662 4.9568 177.8204 4.8005 C 178.185 4.6443 178.5808 4.5661 179.0079 4.5661 C 179.4245 4.5661 179.81 4.6443 180.1641 4.8005 C 180.5287 4.9568 180.8412 5.1807 181.1016 5.4724 C 181.362 5.7536 181.5652 6.0974 181.711 6.5036 C 181.8568 6.8995 181.9297 7.3422 181.9297 7.8318 Z M 180.7578 7.8317 C 180.7578 7.1338 180.6016 6.5817 180.2891 6.1755 C 179.9766 5.7588 179.5495 5.5505 179.0078 5.5505 C 178.4557 5.5505 178.0235 5.7588 177.711 6.1755 C 177.3985 6.5817 177.2422 7.1338 177.2422 7.8317 C 177.2422 8.5401 177.3985 9.1026 177.711 9.5192 C 178.0235 9.9255 178.4558 10.1286 179.0078 10.1286 C 179.5495 10.1286 179.9766 9.9255 180.2891 9.5192 C 180.6016 9.1026 180.7578 8.5401 180.7578 7.8317 Z M 183.4941 4.8942 C 183.7545 4.8317 184.0931 4.764 184.5098 4.6911 C 184.9369 4.6182 185.4264 4.5817 185.9785 4.5817 C 186.4785 4.5817 186.89 4.6546 187.2129 4.8005 C 187.5462 4.9359 187.8119 5.1286 188.0098 5.3786 C 188.2077 5.6286 188.3431 5.9307 188.416 6.2849 C 188.4994 6.639 188.541 7.0297 188.541 7.4567 L 188.541 10.9567 L 187.4317 10.9567 L 187.4317 7.6911 C 187.4317 7.3057 187.4056 6.9776 187.3535 6.7068 C 187.3014 6.4359 187.2129 6.2172 187.0879 6.0505 C 186.9733 5.8838 186.8119 5.764 186.6035 5.6911 C 186.4056 5.6078 186.1608 5.5661 185.8692 5.5661 C 185.7442 5.5661 185.6192 5.5713 185.4942 5.5818 C 185.3692 5.5922 185.2442 5.6026 185.1192 5.613 C 185.0046 5.6234 184.9004 5.6391 184.8067 5.6599 C 184.7233 5.6703 184.6608 5.6807 184.6192 5.6911 L 184.6192 10.9568 L 183.4942 10.9568 Z M 195.8729 11.0974 C 195.3729 11.0974 194.9302 11.0192 194.5448 10.863 C 194.1698 10.6963 193.8521 10.4724 193.5917 10.1911 C 193.3313 9.8995 193.1334 9.5557 192.998 9.1599 C 192.873 8.764 192.8105 8.3265 192.8105 7.8474 C 192.8105 7.3682 192.8782 6.9307 193.0136 6.5349 C 193.1594 6.1286 193.3573 5.7797 193.6073 5.488 C 193.8677 5.1963 194.1855 4.9724 194.5605 4.8161 C 194.9355 4.6495 195.3469 4.5661 195.7948 4.5661 C 196.0761 4.5661 196.3573 4.5922 196.6386 4.6443 C 196.9198 4.6859 197.1907 4.7588 197.4511 4.863 L 197.1855 5.8161 C 197.0188 5.7328 196.8261 5.6703 196.6074 5.6286 C 196.3886 5.5765 196.1542 5.5505 195.9042 5.5505 C 195.2792 5.5505 194.8001 5.7484 194.4667 6.1443 C 194.1438 6.5297 193.9824 7.0974 193.9824 7.8474 C 193.9824 8.1807 194.0188 8.488 194.0917 8.7693 C 194.1647 9.0505 194.2845 9.2953 194.4511 9.5037 C 194.6178 9.7016 194.8261 9.8526 195.0761 9.9568 C 195.3365 10.0609 195.649 10.113 196.0136 10.113 C 196.3157 10.113 196.5865 10.087 196.8261 10.0349 C 197.0657 9.9724 197.2532 9.9099 197.3886 9.8474 L 197.5449 10.7849 C 197.4824 10.8266 197.3886 10.8683 197.2636 10.9099 C 197.149 10.9412 197.0136 10.9672 196.8574 10.988 C 196.7011 11.0193 196.5345 11.0453 196.3574 11.0662 C 196.1907 11.087 196.0293 11.0974 195.873 11.0974 Z M 200.6092 11.0817 C 199.9217 11.0609 199.4321 10.9099 199.1405 10.6286 C 198.8592 10.3474 198.7186 9.9151 198.7186 9.3317 L 198.7186 1.8317 L 199.828 1.6442 L 199.828 9.1442 C 199.828 9.3317 199.8436 9.488 199.8749 9.613 C 199.9061 9.7276 199.9582 9.8213 200.0311 9.8942 C 200.104 9.9671 200.1978 10.0192 200.3124 10.0505 C 200.4374 10.0817 200.5884 10.113 200.7655 10.1442 Z M 203.1352 10.9567 L 202.0102 10.9567 L 202.0102 4.7224 L 203.1352 4.7224 Z M 202.5727 3.5817 C 202.3748 3.5817 202.203 3.5192 202.0571 3.3942 C 201.9217 3.2588 201.854 3.0817 201.854 2.863 C 201.854 2.6338 201.9217 2.4567 202.0571 2.3317 C 202.203 2.1963 202.3748 2.1286 202.5728 2.1286 C 202.7707 2.1286 202.9374 2.1963 203.0728 2.3317 C 203.2186 2.4567 203.2915 2.6338 203.2915 2.863 C 203.2915 3.0817 203.2186 3.2588 203.0728 3.3942 C 202.9374 3.5192 202.7707 3.5817 202.5728 3.5817 Z M 207.765 11.0974 C 207.265 11.0974 206.8223 11.0192 206.4369 10.863 C 206.0619 10.6963 205.7442 10.4724 205.4838 10.1911 C 205.2234 9.8995 205.0254 9.5557 204.89 9.1599 C 204.765 8.764 204.7025 8.3265 204.7025 7.8474 C 204.7025 7.3682 204.7702 6.9307 204.9056 6.5349 C 205.0515 6.1286 205.2494 5.7797 205.4994 5.488 C 205.7598 5.1963 206.0775 4.9724 206.4525 4.8161 C 206.8275 4.6495 207.239 4.5661 207.6869 4.5661 C 207.9682 4.5661 208.2494 4.5922 208.5307 4.6443 C 208.8119 4.6859 209.0827 4.7588 209.3432 4.863 L 209.0775 5.8161 C 208.9109 5.7328 208.7182 5.6703 208.4994 5.6286 C 208.2807 5.5765 208.0463 5.5505 207.7963 5.5505 C 207.1713 5.5505 206.6921 5.7484 206.3588 6.1443 C 206.0359 6.5297 205.8744 7.0974 205.8744 7.8474 C 205.8744 8.1807 205.9109 8.488 205.9838 8.7693 C 206.0567 9.0505 206.1765 9.2953 206.3432 9.5037 C 206.5098 9.7016 206.7182 9.8526 206.9682 9.9568 C 207.2286 10.0609 207.5411 10.113 207.9057 10.113 C 208.2078 10.113 208.4786 10.087 208.7182 10.0349 C 208.9578 9.9724 209.1453 9.9099 209.2807 9.8474 L 209.4369 10.7849 C 209.3744 10.8266 209.2807 10.8683 209.1557 10.9099 C 209.0411 10.9412 208.9057 10.9672 208.7494 10.988 C 208.5932 11.0193 208.4265 11.0453 208.2494 11.0662 C 208.0828 11.087 207.9213 11.0974 207.7651 11.0974 Z M 212.8919 7.5192 C 213.1315 7.7067 213.3815 7.9359 213.6419 8.2067 C 213.9128 8.4776 214.1784 8.7744 214.4388 9.0974 C 214.6992 9.4099 214.944 9.7276 215.1732 10.0505 C 215.4128 10.3734 215.6107 10.6755 215.7669 10.9567 L 214.4544 10.9567 C 214.2878 10.6755 214.0951 10.389 213.8763 10.0974 C 213.6576 9.8057 213.4284 9.5297 213.1888 9.2692 C 212.9492 8.9984 212.7045 8.7536 212.4545 8.5349 C 212.2045 8.3057 211.9701 8.113 211.7513 7.9568 L 211.7513 10.9568 L 210.6263 10.9568 L 210.6263 1.8318 L 211.7513 1.6443 L 211.7513 7.3318 C 211.9388 7.1443 212.1472 6.9359 212.3763 6.7068 C 212.6159 6.4672 212.8451 6.2276 213.0638 5.988 C 213.293 5.7484 213.5065 5.5193 213.7045 5.3005 C 213.9024 5.0818 214.0743 4.889 214.2201 4.7224 L 215.5326 4.7224 C 215.3451 4.9203 215.142 5.139 214.9232 5.3786 C 214.7149 5.6182 214.4909 5.863 214.2514 6.113 C 214.0222 6.3526 213.7878 6.5974 213.5482 6.8474 C 213.3191 7.087 213.1003 7.3109 212.892 7.5193 Z M 218.0154 10.9567 L 216.8904 10.9567 L 216.8904 4.7224 L 218.0154 4.7224 Z M 217.4529 3.5817 C 217.2549 3.5817 217.0831 3.5192 216.9372 3.3942 C 216.8018 3.2588 216.7341 3.0817 216.7341 2.863 C 216.7341 2.6338 216.8018 2.4567 216.9372 2.3317 C 217.0831 2.1963 217.255 2.1286 217.4529 2.1286 C 217.6508 2.1286 217.8175 2.1963 217.9529 2.3317 C 218.0987 2.4567 218.1716 2.6338 218.1716 2.863 C 218.1716 3.0817 218.0987 3.2588 217.9529 3.3942 C 217.8175 3.5192 217.6508 3.5817 217.4529 3.5817 Z M 219.9264 4.8942 C 220.1868 4.8317 220.5253 4.764 220.942 4.6911 C 221.3691 4.6182 221.8586 4.5817 222.4107 4.5817 C 222.9107 4.5817 223.3222 4.6546 223.6451 4.8005 C 223.9785 4.9359 224.2441 5.1286 224.442 5.3786 C 224.6399 5.6286 224.7753 5.9307 224.8482 6.2849 C 224.9316 6.639 224.9732 7.0297 224.9732 7.4567 L 224.9732 10.9567 L 223.8639 10.9567 L 223.8639 7.6911 C 223.8639 7.3057 223.8378 6.9776 223.7858 6.7068 C 223.7337 6.4359 223.6451 6.2172 223.5201 6.0505 C 223.4055 5.8838 223.2441 5.764 223.0358 5.6911 C 222.8379 5.6078 222.5931 5.5661 222.3014 5.5661 C 222.1764 5.5661 222.0514 5.5713 221.9264 5.5818 C 221.8014 5.5922 221.6764 5.6026 221.5514 5.613 C 221.4368 5.6234 221.3326 5.6391 221.2389 5.6599 C 221.1556 5.6703 221.0931 5.6807 221.0514 5.6911 L 221.0514 10.9568 L 219.9264 10.9568 Z M 230.7363 10.3317 C 230.6426 10.3942 230.4551 10.4776 230.1738 10.5817 C 229.903 10.6755 229.5801 10.7224 229.2051 10.7224 C 228.8301 10.7224 228.4759 10.6651 228.1426 10.5505 C 227.8092 10.4255 227.5176 10.238 227.2676 9.988 C 227.028 9.738 226.8353 9.4255 226.6894 9.0505 C 226.5436 8.6755 226.4707 8.2276 226.4707 7.7067 C 226.4707 7.2484 226.5384 6.8317 226.6738 6.4567 C 226.8092 6.0713 227.0072 5.7432 227.2676 5.4724 C 227.528 5.1911 227.8457 4.9724 228.2207 4.8161 C 228.5957 4.6599 229.0228 4.5817 229.5019 4.5817 C 230.0228 4.5817 230.4759 4.6234 230.8613 4.7067 C 231.2467 4.7797 231.5697 4.8474 231.8301 4.9099 L 231.8301 10.4724 C 231.8301 11.4307 231.5801 12.1234 231.0801 12.5505 C 230.5905 12.988 229.8405 13.2068 228.8301 13.2068 C 228.4447 13.2068 228.0749 13.1755 227.7207 13.113 C 227.3769 13.0505 227.0749 12.9776 226.8144 12.8943 L 227.0176 11.9099 C 227.2467 12.0036 227.5228 12.0818 227.8457 12.1443 C 228.1686 12.2172 228.5072 12.2536 228.8613 12.2536 C 229.528 12.2536 230.0072 12.1182 230.2988 11.8474 C 230.5905 11.587 230.7363 11.1703 230.7363 10.5974 Z M 230.7207 5.7067 C 230.6061 5.6755 230.455 5.6442 230.2675 5.613 C 230.08 5.5817 229.8248 5.5661 229.5019 5.5661 C 228.9082 5.5661 228.4498 5.764 228.1269 6.1599 C 227.804 6.5453 227.6426 7.0661 227.6426 7.7224 C 227.6426 8.0765 227.6842 8.3838 227.7676 8.6442 C 227.8613 8.8942 227.9863 9.1078 228.1426 9.2849 C 228.2988 9.4515 228.4759 9.5765 228.6738 9.6599 C 228.8821 9.7328 229.0957 9.7692 229.3144 9.7692 C 229.6165 9.7692 229.8873 9.7276 230.1269 9.6442 C 230.3769 9.5609 230.5748 9.462 230.7207 9.3474 Z M 235.0786 10.3161 C 235.0786 10.5245 235.0057 10.712 234.8598 10.8786 C 234.714 11.0349 234.5161 11.113 234.2661 11.113 C 234.0265 11.113 233.8338 11.0349 233.688 10.8786 C 233.5421 10.712 233.4692 10.5245 233.4692 10.3161 C 233.4692 10.0974 233.5421 9.9099 233.688 9.7536 C 233.8338 9.587 234.0265 9.5036 234.2661 9.5036 C 234.5161 9.5036 234.714 9.587 234.8598 9.7536 C 235.0057 9.9099 235.0786 10.0974 235.0786 10.3161 Z " fill="#ffffff" stroke="none" stroke-width="1" stroke-linecap="square"/></g></g></svg>