<svg xmlns="http://www.w3.org/2000/svg" xmlns:xlink="http://www.w3.org/1999/xlink" version="1.1" width="379.90785" height="83.92592" viewBox="0,0,379.90785,83.92592"><g><g data-paper-data="{&quot;isPaintingLayer&quot;:true}" fill-rule="nonzero" stroke-linejoin="miter" stroke-miterlimit="10" stroke-dasharray="" stroke-dashoffset="0" style="mix-blend-mode: normal"><path d="M478.04725,385.91679l-0.02192,-83.8767h313.98147l-14.80212,83.92592z" fill="#ea3896" stroke-width="0" stroke-linecap="butt" stroke="none" transform="matrix(1,0,0,1,-412.09895,-302.04009)"/><path d="M 288.8798 38.1784 C 289.2592 37.9129 289.8377 37.6473 290.6154 37.3818 C 291.3931 37.1162 292.294 36.9835 293.3183 36.9835 C 294.5891 36.9835 295.7177 37.2111 296.704 37.6663 C 297.6903 38.1215 298.5154 38.7569 299.1793 39.5726 C 299.8622 40.3882 300.3743 41.365 300.7157 42.5031 C 301.0761 43.6222 301.2563 44.8646 301.2563 46.2302 C 301.2563 47.6528 301.0476 48.9331 300.6303 50.0712 C 300.2131 51.2092 299.6156 52.1766 298.8379 52.9732 C 298.0792 53.7699 297.1498 54.3863 296.0496 54.8226 C 294.9685 55.2399 293.7546 55.4485 292.4078 55.4485 C 290.9284 55.4485 289.6196 55.3442 288.4815 55.1356 C 287.3624 54.9459 286.4425 54.7467 285.7217 54.5381 L 285.7217 29.2446 L 288.8799 28.6756 Z M 288.8798 52.2904 C 289.1833 52.3853 289.6196 52.4706 290.1886 52.5465 C 290.7766 52.6223 291.5069 52.6603 292.3794 52.6603 C 294.0675 52.6603 295.4237 52.1007 296.448 50.9817 C 297.4722 49.8625 297.9844 48.2788 297.9844 46.2302 C 297.9844 45.3198 297.8895 44.4662 297.6998 43.6696 C 297.5102 42.873 297.2067 42.1901 296.7894 41.6211 C 296.3911 41.0331 295.8694 40.5779 295.2245 40.2554 C 294.5796 39.933 293.8115 39.7717 292.92 39.7717 C 292.0475 39.7717 291.2508 39.9235 290.53 40.227 C 289.8093 40.5115 289.2592 40.8055 288.8799 41.109 Z M 311.7056 52.7741 C 312.4453 52.7741 313.0997 52.7551 313.6687 52.7172 C 314.2567 52.6792 314.7404 52.6223 315.1198 52.5465 L 315.1198 47.2829 C 314.8922 47.1691 314.5223 47.0743 314.0102 46.9984 C 313.517 46.9036 312.9006 46.8562 312.1608 46.8562 C 311.6866 46.8562 311.184 46.8941 310.6529 46.97 C 310.1218 47.0269 309.6381 47.1691 309.2019 47.3967 C 308.7656 47.6054 308.3957 47.8994 308.0922 48.2788 C 307.8077 48.6391 307.6655 49.1323 307.6655 49.7582 C 307.6655 50.8773 308.0259 51.6645 308.7466 52.1197 C 309.4674 52.556 310.4537 52.7741 311.7056 52.7741 Z M 311.4211 36.955 C 312.6919 36.955 313.7636 37.1162 314.6361 37.4387 C 315.5086 37.7612 316.2104 38.2259 316.7415 38.8328 C 317.2726 39.4398 317.6519 40.1606 317.8796 40.9952 C 318.1072 41.8108 318.221 42.7117 318.221 43.6981 L 318.221 54.7373 C 317.9554 54.7942 317.5761 54.8606 317.0829 54.9364 C 316.5898 55.0123 316.0397 55.0787 315.4327 55.1356 C 314.8258 55.2115 314.1619 55.2778 313.4411 55.3347 C 312.7393 55.3917 312.0375 55.4201 311.3357 55.4201 C 310.3304 55.4201 309.4105 55.3158 308.5759 55.1071 C 307.7413 54.9175 307.0111 54.6045 306.3851 54.1682 C 305.7782 53.713 305.304 53.125 304.9626 52.4042 C 304.6211 51.6835 304.4504 50.811 304.4504 49.7867 C 304.4504 48.8193 304.6496 47.9848 305.0479 47.283 C 305.4462 46.5812 305.9868 46.0121 306.6696 45.5759 C 307.3525 45.1396 308.1396 44.8266 309.0311 44.637 C 309.9416 44.4283 310.8994 44.324 311.9047 44.324 C 312.2272 44.324 312.5496 44.343 312.8721 44.3809 C 313.2135 44.3999 313.536 44.4378 313.8394 44.4947 C 314.1619 44.5516 314.4274 44.6085 314.6361 44.6654 C 314.8637 44.7034 315.0249 44.7318 315.1198 44.7508 L 315.1198 43.8688 C 315.1198 43.3566 315.0629 42.8445 314.9491 42.3324 C 314.8353 41.8202 314.6266 41.365 314.3231 40.9667 C 314.0386 40.5684 313.6403 40.2554 313.1282 40.0278 C 312.635 39.7812 311.9806 39.6579 311.165 39.6579 C 310.1218 39.6579 309.2018 39.7338 308.4052 39.8856 C 307.6275 40.0373 307.049 40.189 306.6696 40.3408 L 306.2998 37.7232 C 306.6981 37.5525 307.3715 37.3818 308.3198 37.2111 C 309.2872 37.0404 310.3209 36.955 311.4211 36.955 Z M 331.1172 55.4485 C 329.6946 55.4485 328.4427 55.2304 327.3616 54.7942 C 326.2994 54.3389 325.3984 53.7035 324.6587 52.8879 C 323.919 52.0723 323.3689 51.1049 323.0085 49.9858 C 322.6481 48.8478 322.4679 47.6054 322.4679 46.2587 C 322.4679 44.893 322.6671 43.6506 323.0654 42.5315 C 323.4637 41.3935 324.0233 40.4167 324.744 39.601 C 325.4648 38.7665 326.3468 38.1216 327.39 37.6663 C 328.4522 37.1921 329.6282 36.955 330.918 36.955 C 331.7147 36.955 332.5113 37.0214 333.308 37.1542 C 334.1046 37.287 334.8633 37.4956 335.5841 37.7801 L 334.8728 40.483 C 334.3986 40.2554 333.8485 40.0752 333.2226 39.9424 C 332.5967 39.8097 331.9328 39.7433 331.231 39.7433 C 329.467 39.7433 328.1108 40.3028 327.1624 41.4219 C 326.233 42.522 325.7683 44.1343 325.7683 46.2587 C 325.7683 47.2071 325.8726 48.0796 326.0813 48.8762 C 326.2899 49.6539 326.6218 50.3273 327.0771 50.8963 C 327.5513 51.4653 328.1488 51.9016 328.8695 52.2051 C 329.6093 52.5086 330.5008 52.6603 331.544 52.6603 C 332.3786 52.6603 333.1373 52.5844 333.8201 52.4327 C 334.5029 52.281 335.034 52.1102 335.4134 51.9206 L 335.8402 54.5666 C 335.6694 54.6804 335.4134 54.7942 335.072 54.908 C 334.7305 55.0028 334.3417 55.0882 333.9055 55.164 C 333.4882 55.2399 333.0329 55.3063 332.5398 55.3632 C 332.0466 55.4201 331.5724 55.4486 331.1172 55.4486 Z M 345.6335 45.3482 C 346.3163 45.8604 347.0371 46.5053 347.7958 47.2829 C 348.5545 48.0417 349.2942 48.8667 350.015 49.7582 C 350.7548 50.6497 351.4566 51.5602 352.1204 52.4896 C 352.7843 53.4 353.3439 54.2536 353.7991 55.0502 L 350.0719 55.0502 C 349.5977 54.2536 349.0477 53.4475 348.4217 52.6318 C 347.8148 51.7973 347.1699 51.0006 346.487 50.2419 C 345.8042 49.4832 345.1119 48.7909 344.4101 48.165 C 343.7083 47.5201 343.0444 46.9795 342.4185 46.5432 L 342.4185 55.0502 L 339.2603 55.0502 L 339.2603 29.2447 L 342.4185 28.6756 L 342.4185 44.7792 C 342.9495 44.2481 343.5376 43.6601 344.1825 43.0152 C 344.8463 42.3513 345.4912 41.678 346.1172 40.9951 C 346.7621 40.3123 347.369 39.6579 347.9381 39.032 C 348.5071 38.4061 349.0003 37.856 349.4175 37.3818 L 353.1163 37.3818 C 352.5852 37.9508 352.0161 38.5768 351.4092 39.2596 C 350.8022 39.9424 350.1668 40.6253 349.5029 41.3081 C 348.839 41.9909 348.1752 42.6833 347.5113 43.3851 C 346.8474 44.0679 346.2215 44.7223 345.6335 45.3482 Z " fill="#ffffff" stroke-width="1" stroke-linecap="square" stroke="none"/><path d="M412.19132,302.20676h211.14882l-16.02088,83.69289l-195.2203,-0.01658z" fill="#c0137b" stroke-width="0" stroke-linecap="butt" stroke="none" transform="matrix(1,0,0,1,-412.09895,-302.04009)"/></g></g></svg>