<svg xmlns="http://www.w3.org/2000/svg" xmlns:xlink="http://www.w3.org/1999/xlink" version="1.1" width="89.27172" height="21.30997" viewBox="0,0,89.27172,21.30997"><g><g data-paper-data="{&quot;isPaintingLayer&quot;:true}" fill-rule="nonzero" stroke-linecap="square" stroke-linejoin="miter" stroke-miterlimit="10" stroke-dasharray="" stroke-dashoffset="0" style="mix-blend-mode: normal"><path d="M 15.9147 20.8665 C 15.5698 19.9796 15.2495 19.1092 14.9539 18.2551 C 14.6583 17.4011 14.3545 16.5389 14.0424 15.6684 L 4.804 15.6684 L 2.9563 20.8665 L 0 20.8665 C 0.7719 18.715 1.5028 16.7195 2.1926 14.88 C 2.8824 13.0406 3.5558 11.2996 4.2127 9.6572 C 4.8697 8.0149 5.5184 6.4464 6.159 4.9518 C 6.8159 3.4408 7.4975 1.9545 8.2037 0.4927 L 10.8151 0.4927 C 11.5213 1.9545 12.1947 3.4408 12.8353 4.9518 C 13.4922 6.4464 14.1492 8.0148 14.8061 9.6572 C 15.4631 11.2996 16.1282 13.0406 16.8016 14.88 C 17.4914 16.7195 18.2305 18.715 19.0188 20.8665 Z M 13.2294 13.3033 C 12.6053 11.5953 11.9812 9.9447 11.3571 8.3515 C 10.733 6.7584 10.0925 5.2228 9.4355 3.7446 C 8.7457 5.2228 8.0888 6.7584 7.4647 8.3515 C 6.857 9.9447 6.2493 11.5953 5.6416 13.3033 Z M 29.0869 21.31 C 27.7566 21.31 26.5987 21.1047 25.6132 20.6941 C 24.6278 20.2835 23.823 19.7251 23.1989 19.0188 C 22.5748 18.2962 22.1067 17.4422 21.7947 16.4567 C 21.4991 15.4713 21.3512 14.4119 21.3512 13.2787 L 21.3512 0.4927 L 24.209 0.4927 L 24.209 12.9584 C 24.209 14.995 24.6524 16.4731 25.5393 17.3929 C 26.4426 18.3126 27.6252 18.7725 29.0869 18.7725 C 29.8095 18.7725 30.4665 18.6657 31.0577 18.4522 C 31.6654 18.2223 32.1828 17.8692 32.6098 17.3929 C 33.0368 16.9166 33.3653 16.3171 33.5952 15.5944 C 33.8416 14.8554 33.9648 13.9767 33.9648 12.9584 L 33.9648 0.4927 L 36.8225 0.4927 L 36.8225 13.2787 C 36.8225 14.4119 36.6665 15.4713 36.3544 16.4567 C 36.0588 17.4421 35.5907 18.2962 34.9502 19.0188 C 34.3097 19.725 33.5049 20.2835 32.5359 20.6941 C 31.5669 21.1046 30.4172 21.3099 29.0869 21.3099 Z M 58.4644 10.6673 C 58.4644 12.4247 58.1852 13.9603 57.6268 15.2742 C 57.0848 16.5717 56.3129 17.6475 55.311 18.5015 C 54.3092 19.3555 53.1102 19.9961 51.7142 20.4231 C 50.3346 20.8337 48.8072 21.039 47.1319 21.039 C 46.3107 21.039 45.4074 21.0061 44.422 20.9404 C 43.4366 20.8747 42.5415 20.7433 41.7367 20.5463 L 41.7367 0.7637 C 42.5415 0.583 43.4366 0.4599 44.422 0.3942 C 45.4074 0.3121 46.3107 0.271 47.1319 0.271 C 48.8072 0.271 50.3346 0.4845 51.7142 0.9115 C 53.1102 1.3385 54.3092 1.9791 55.311 2.8331 C 56.3129 3.6707 57.0848 4.7465 57.6268 6.0604 C 58.1852 7.3579 58.4644 8.8935 58.4644 10.6673 Z M 47.3783 18.5508 C 50.0882 18.5508 52.1084 17.861 53.4387 16.4814 C 54.769 15.0853 55.4342 13.1473 55.4342 10.6673 C 55.4342 8.1709 54.769 6.2329 53.4387 4.8533 C 52.1084 3.4737 50.0882 2.7838 47.3783 2.7838 C 46.5735 2.7838 45.9494 2.7921 45.506 2.8085 C 45.0625 2.8249 44.7587 2.8413 44.5945 2.8577 L 44.5945 18.4522 C 44.7587 18.4686 45.0625 18.4933 45.506 18.5261 C 45.9494 18.5425 46.5735 18.5508 47.3783 18.5508 Z M 62.7097 0.4927 L 65.5675 0.4927 L 65.5675 20.8665 L 62.7097 20.8665 Z M 69.7848 10.6673 C 69.7848 8.91 70.0476 7.3661 70.5731 6.0358 C 71.0987 4.7055 71.8049 3.5968 72.6918 2.71 C 73.5787 1.8066 74.6134 1.1333 75.7959 0.6898 C 76.9949 0.2299 78.2595 0 79.5898 0 C 80.9037 0 82.1437 0.23 83.3098 0.6898 C 84.476 1.1333 85.4942 1.8066 86.3647 2.71 C 87.2516 3.5968 87.9578 4.7055 88.4834 6.0358 C 89.0089 7.3661 89.2717 8.91 89.2717 10.6673 C 89.2717 12.4082 89.0089 13.9439 88.4834 15.2742 C 87.9578 16.6045 87.2516 17.7214 86.3647 18.6247 C 85.4942 19.5116 84.476 20.1849 83.3098 20.6448 C 82.1437 21.0883 80.9038 21.31 79.5898 21.31 C 78.2595 21.31 76.9949 21.0883 75.7959 20.6448 C 74.6134 20.1849 73.5787 19.5116 72.6918 18.6247 C 71.8049 17.7214 71.0987 16.6045 70.5731 15.2742 C 70.0476 13.9439 69.7848 12.4082 69.7848 10.6673 Z M 72.7904 10.6673 C 72.7904 11.8991 72.9464 13.0241 73.2584 14.0424 C 73.5705 15.0443 74.0139 15.8983 74.5888 16.6045 C 75.18 17.3107 75.8862 17.8527 76.7074 18.2305 C 77.5451 18.6082 78.4812 18.7971 79.5159 18.7971 C 80.567 18.7971 81.5032 18.6082 82.3244 18.2305 C 83.1456 17.8527 83.8436 17.3108 84.4185 16.6045 C 84.9933 15.8983 85.4367 15.0443 85.7488 14.0424 C 86.0773 13.0241 86.2415 11.8991 86.2415 10.6673 C 86.2415 9.4191 86.0773 8.2941 85.7488 7.2922 C 85.4367 6.2739 84.9933 5.4199 84.4185 4.7301 C 83.8436 4.0239 83.1456 3.4819 82.3244 3.1041 C 81.5032 2.71 80.5671 2.5129 79.5159 2.5129 C 78.4812 2.5129 77.5451 2.71 76.7074 3.1041 C 75.8863 3.4819 75.18 4.0239 74.5888 4.7301 C 74.0139 5.4199 73.5705 6.2739 73.2584 7.2922 C 72.9464 8.2941 72.7904 9.4191 72.7904 10.6673 Z " stroke-width="1" fill="#8ac7da" stroke="none"/></g></g></svg>