<svg xmlns="http://www.w3.org/2000/svg" xmlns:xlink="http://www.w3.org/1999/xlink" version="1.1" width="81.51404" height="21.15362" viewBox="0,0,81.51404,21.15362"><g><g data-paper-data="{&quot;isPaintingLayer&quot;:true}" fill-rule="nonzero" stroke-linecap="square" stroke-linejoin="miter" stroke-miterlimit="10" stroke-dasharray="" stroke-dashoffset="0" style="mix-blend-mode: normal"><path d="M 0 0.2229 L 2.8733 0.2229 L 2.8733 20.7077 L 0 20.7077 Z M 22.0003 20.7077 C 21.571 19.9811 21.0756 19.1637 20.5141 18.2555 C 19.9527 17.3472 19.3417 16.406 18.6811 15.4317 C 18.0371 14.4574 17.3601 13.4666 16.65 12.4593 C 15.9564 11.452 15.2629 10.486 14.5693 9.5612 C 13.8758 8.62 13.207 7.7365 12.563 6.9108 C 11.9189 6.0687 11.3162 5.3338 10.7548 4.7063 L 10.7548 20.7077 L 7.9558 20.7077 L 7.9558 0.223 L 10.2346 0.223 C 11.1593 1.1972 12.1419 2.3449 13.1822 3.666 C 14.2391 4.9705 15.2877 6.3164 16.328 7.7035 C 17.3684 9.0906 18.3426 10.4612 19.2509 11.8153 C 20.1756 13.1529 20.9518 14.3418 21.5793 15.3822 L 21.5793 0.223 L 24.403 0.223 L 24.403 20.7077 Z M 34.9112 0 C 37.8011 0 40.0139 0.5532 41.5496 1.6596 C 43.1019 2.7495 43.878 4.376 43.878 6.5393 C 43.878 7.7282 43.6633 8.7438 43.234 9.586 C 42.8211 10.4117 42.2101 11.0887 41.401 11.6171 C 40.6083 12.129 39.6423 12.5088 38.5029 12.7565 C 37.3635 12.9877 36.0672 13.1033 34.614 13.1033 L 32.36 13.1033 L 32.36 20.7077 L 29.4866 20.7077 L 29.4866 0.4954 C 30.2958 0.3138 31.1958 0.1899 32.1866 0.1239 C 33.1774 0.0413 34.0856 0 34.9113 0 Z M 35.1589 2.5265 C 33.937 2.5265 33.004 2.5513 32.3599 2.6009 L 32.3599 10.6511 L 34.5149 10.6511 C 35.4892 10.6511 36.3727 10.5933 37.1653 10.4777 C 37.958 10.3456 38.6268 10.1309 39.1717 9.8337 C 39.7166 9.5199 40.1295 9.0988 40.4102 8.5704 C 40.7074 8.0255 40.8561 7.3402 40.8561 6.5145 C 40.8561 5.7219 40.6992 5.0696 40.3854 4.5577 C 40.0882 4.0458 39.6754 3.6412 39.1469 3.344 C 38.635 3.0302 38.0323 2.8156 37.3387 2.7 C 36.6452 2.5844 35.9186 2.5266 35.159 2.5266 Z M 55.0976 21.1535 C 53.76 21.1535 52.5958 20.9471 51.605 20.5343 C 50.6142 20.1215 49.805 19.56 49.1775 18.8499 C 48.55 18.1234 48.0794 17.2647 47.7657 16.2739 C 47.4684 15.2831 47.3198 14.218 47.3198 13.0785 L 47.3198 0.2229 L 50.1931 0.2229 L 50.1931 12.7565 C 50.1931 14.8042 50.639 16.2904 51.5307 17.2151 C 52.4389 18.1399 53.6279 18.6023 55.0976 18.6023 C 55.8241 18.6023 56.4847 18.4949 57.0792 18.2803 C 57.6902 18.0491 58.2103 17.694 58.6397 17.2152 C 59.069 16.7363 59.3993 16.1335 59.6305 15.407 C 59.8782 14.6639 60.002 13.7804 60.002 12.7566 L 60.002 0.223 L 62.8754 0.223 L 62.8754 13.0786 C 62.8754 14.218 62.7185 15.2831 62.4047 16.2739 C 62.1075 17.2647 61.6369 18.1234 60.9929 18.85 C 60.3488 19.5601 59.5397 20.1215 58.5654 20.5344 C 57.5911 20.9472 56.4352 21.1536 55.0976 21.1536 Z M 81.514 0.2229 L 81.514 2.6999 L 75.0491 2.6999 L 75.0491 20.7077 L 72.1758 20.7077 L 72.1758 2.6999 L 65.7356 2.6999 L 65.7356 0.2229 Z " stroke-width="1" fill="#8ac7da" stroke="none"/></g></g></svg>