<svg version="1.1" xmlns="http://www.w3.org/2000/svg" xmlns:xlink="http://www.w3.org/1999/xlink" width="178.98224" height="21.01534" viewBox="0,0,178.98224,21.01534"><g transform="translate(-550.50888,-349.49233)"><g data-paper-data="{&quot;isPaintingLayer&quot;:true}" fill="#79a2bf" fill-rule="nonzero" stroke="none" stroke-width="0" stroke-linecap="butt" stroke-linejoin="miter" stroke-miterlimit="10" stroke-dasharray="" stroke-dashoffset="0" style="mix-blend-mode: normal"><path d="M553.43887,370.47708v-20.98475h173.02012v20.98475z"/><path d="M550.50888,370.50767v-17.94043h178.98224v17.94043z"/><path d="M556.48974,352.5215c0,1.66183 -1.33515,3.00901 -2.98214,3.00901c-1.64699,0 -2.98214,-1.34718 -2.98214,-3.00901c0,-1.66183 1.33515,-3.00901 2.98214,-3.00901c1.64699,0 2.98214,1.34718 2.98214,3.00901z"/><path d="M729.47851,352.50411c0,1.66183 -1.33515,3.00901 -2.98214,3.00901c-1.64699,0 -2.98214,-1.34718 -2.98214,-3.00901c0,-1.66183 1.33515,-3.00901 2.98214,-3.00901c1.64699,0 2.98214,1.34718 2.98214,3.00901z"/></g></g></svg>