<svg version="1.1" xmlns="http://www.w3.org/2000/svg" xmlns:xlink="http://www.w3.org/1999/xlink" width="179.0103" height="14.8598" viewBox="0,0,179.0103,14.8598"><g transform="translate(-628.4808,-352.57452)"><g data-paper-data="{&quot;isPaintingLayer&quot;:true}" fill-rule="nonzero" stroke-linejoin="miter" stroke-miterlimit="10" stroke-dasharray="" stroke-dashoffset="0" style="mix-blend-mode: normal"><path d="M635.7308,367.18432v-14.3598h160.3242l0.019,14.3598z" data-paper-data="{&quot;index&quot;:null}" fill="#000000" stroke="#ffffff" stroke-width="0.5" stroke-linecap="butt"/><path d="M628.7308,364.85182c0,-3.2257 0,-8.7893 0,-9.564c0,-1.1232 1.3292,-2.4503 2.4371,-2.4503c2.3748,0 11.1981,0 11.1981,0v14.325c0,0 -8.865,0 -11.233,0c-1.0951,0 -2.4022,-0.9669 -2.4022,-2.3107z" fill="#000000" stroke="#ffffff" stroke-width="0.5" stroke-linecap="butt"/><path d="M634.24762,366.92055v-13.84106h21.10476v13.84106z" fill="#000000" stroke="none" stroke-width="0" stroke-linecap="butt"/><path d="M628.7308,364.85182c0,-3.2258 0,-8.7893 0,-9.564c0,-1.1232 1.3292,-2.4503 2.4371,-2.4503c2.3748,0 11.1981,0 11.1981,0v14.325c0,0 -8.865,0 -11.233,0c-1.0951,0 -2.4022,-0.9669 -2.4022,-2.3107z" fill="#000000" stroke="#ffffff" stroke-width="0.5" stroke-linecap="butt"/><path d="M804.839,367.16252c-2.368,0 -11.2331,0 -11.2331,0v-14.325c0,0 8.8233,0 11.1982,0c1.1079,0 2.437,1.3271 2.437,2.4504c0,0.7746 0,6.3382 0,9.5639c0,1.3438 -1.3071,2.3107 -2.4021,2.3107z" data-paper-data="{&quot;index&quot;:null}" fill="#000000" stroke="#ffffff" stroke-width="0.5" stroke-linecap="butt"/><path d="M641.22469,366.913v-13.81491h2.7619v13.81491z" fill="#000000" stroke="none" stroke-width="0" stroke-linecap="butt"/><path d="M634.1854,357.46872c0.4583,-0.177 0.901,-0.401 1.3281,-0.6718c0.4375,-0.2813 0.8385,-0.6302 1.2031,-1.0469h0.7813v8.3125h-1.1094v-6.7656c-0.0937,0.0833 -0.2135,0.1771 -0.3594,0.2812c-0.1354,0.0938 -0.2864,0.1875 -0.4531,0.2813c-0.1667,0.0833 -0.3385,0.1666 -0.5156,0.25c-0.1771,0.0729 -0.349,0.1354 -0.5156,0.1875zM642.1253,363.42192c0,0.2083 -0.0729,0.3958 -0.2188,0.5625c-0.1458,0.1562 -0.3437,0.2343 -0.5937,0.2343c-0.2396,0 -0.4323,-0.0781 -0.5781,-0.2343c-0.1459,-0.1667 -0.2188,-0.3542 -0.2188,-0.5625c0,-0.2188 0.0729,-0.4063 0.2188,-0.5625c0.1458,-0.1667 0.3385,-0.25 0.5781,-0.25c0.25,0 0.4479,0.0833 0.5937,0.25c0.1459,0.1562 0.2188,0.3437 0.2188,0.5625zM645.1867,358.95312c1.2083,0.0417 2.0937,0.3073 2.6562,0.7969c0.5625,0.4792 0.8438,1.1302 0.8438,1.9531c0,0.3646 -0.0625,0.7031 -0.1875,1.0156c-0.125,0.3125 -0.3125,0.5834 -0.5625,0.8125c-0.25,0.2188 -0.5677,0.3959 -0.9531,0.5313c-0.3855,0.125 -0.8438,0.1875 -1.375,0.1875c-0.198,0 -0.4063,-0.0208 -0.625,-0.0625c-0.2188,-0.0313 -0.4219,-0.0729 -0.6094,-0.125c-0.1771,-0.0417 -0.3385,-0.0833 -0.4844,-0.125c-0.1458,-0.0521 -0.25,-0.0938 -0.3125,-0.125l0.2188,-0.9688c0.1354,0.0625 0.3541,0.1459 0.6562,0.25c0.3125,0.1042 0.6927,0.1563 1.1407,0.1563c0.3645,0 0.6666,-0.0417 0.9062,-0.125c0.2396,-0.0833 0.4375,-0.1927 0.5938,-0.3281c0.1562,-0.1354 0.2656,-0.2917 0.3281,-0.4688c0.0729,-0.1771 0.1094,-0.3646 0.1094,-0.5625c0,-0.3125 -0.0521,-0.5833 -0.1563,-0.8125c-0.1042,-0.2396 -0.2917,-0.4375 -0.5625,-0.5937c-0.2604,-0.1667 -0.6146,-0.2917 -1.0625,-0.375c-0.4375,-0.0834 -0.9896,-0.125 -1.6562,-0.125c0.052,-0.3854 0.0885,-0.75 0.1093,-1.0938c0.0313,-0.3437 0.0573,-0.6771 0.0782,-1c0.0312,-0.3333 0.0521,-0.6614 0.0625,-0.9843c0.0208,-0.3334 0.0364,-0.6771 0.0469,-1.0313h4.0156v0.9375h-3.0469c0,0.125 -0.0104,0.2917 -0.0312,0.5c-0.0105,0.1979 -0.0261,0.4063 -0.0469,0.625c-0.0208,0.2188 -0.0417,0.4323 -0.0625,0.6406c-0.0104,0.2084 -0.0208,0.375 -0.0313,0.5zM654.2516,364.06252c-0.0833,-0.1771 -0.1927,-0.3698 -0.3281,-0.5781c-0.125,-0.2188 -0.2656,-0.4427 -0.4219,-0.6719c-0.1458,-0.2292 -0.3021,-0.4531 -0.4687,-0.6719c-0.1563,-0.2291 -0.3073,-0.4427 -0.4531,-0.6406c-0.1563,0.1979 -0.3178,0.4115 -0.4844,0.6406c-0.1563,0.2292 -0.3073,0.4584 -0.4531,0.6875c-0.1459,0.2188 -0.2865,0.4375 -0.4219,0.6563c-0.125,0.2187 -0.2292,0.4114 -0.3125,0.5781h-1.1563c0.2813,-0.5417 0.6146,-1.0937 1,-1.6562c0.3959,-0.573 0.7865,-1.1146 1.1719,-1.625l-2.0781,-2.9532h1.2656l1.4844,2.1719l1.5,-2.1718h1.1875l-2.0156,2.8906c0.3854,0.5208 0.7812,1.0729 1.1875,1.6562c0.4062,0.573 0.75,1.1355 1.0312,1.6875z" fill="#ffffff" stroke="none" stroke-width="1" stroke-linecap="square"/><path d="M791.91785,366.90747v-13.81491h2.7619v13.81491z" fill="#000000" stroke="none" stroke-width="0" stroke-linecap="butt"/><path d="M660.7593,360.34802c0,1.0312 0.1459,1.9844 0.4375,2.8594c0.3021,0.8645 0.7396,1.6718 1.3125,2.4218l-0.7812,0.5313c-0.625,-0.7604 -1.1302,-1.6354 -1.5156,-2.625c-0.375,-0.9896 -0.5625,-2.0521 -0.5625,-3.1875c0,-1.1354 0.1875,-2.1927 0.5625,-3.1719c0.3854,-0.9896 0.8906,-1.8646 1.5156,-2.625l0.7813,0.5313c-0.573,0.75 -1.0105,1.5625 -1.3125,2.4375c-0.2917,0.8645 -0.4375,1.8073 -0.4375,2.8281zM662.9436,359.78552c0,-0.7188 0.1042,-1.349 0.3125,-1.8906c0.2084,-0.5417 0.4948,-0.9948 0.8594,-1.3594c0.3646,-0.3646 0.7865,-0.6406 1.2656,-0.8281c0.4896,-0.1875 1.0052,-0.2813 1.5469,-0.2813c0.5417,0 1.0469,0.0938 1.5156,0.2813c0.4792,0.1875 0.8959,0.4635 1.25,0.8281c0.3646,0.3646 0.6511,0.8177 0.8594,1.3594c0.2188,0.5416 0.3282,1.1719 0.3282,1.8906c0,0.7083 -0.1094,1.3333 -0.3282,1.875c-0.2083,0.5417 -0.4948,0.9948 -0.8593,1.3594c-0.3542,0.3646 -0.7709,0.6406 -1.25,0.8281c-0.4688,0.1875 -0.974,0.2813 -1.5157,0.2813c-0.5416,0 -1.0572,-0.0938 -1.5468,-0.2813c-0.4792,-0.1875 -0.9011,-0.4635 -1.2656,-0.8281c-0.3646,-0.3646 -0.6511,-0.8177 -0.8594,-1.3594c-0.2084,-0.5416 -0.3125,-1.1666 -0.3125,-1.875zM664.1624,359.78552c0,0.5 0.0625,0.9583 0.1875,1.375c0.125,0.4062 0.3073,0.7552 0.5469,1.0469c0.2395,0.2812 0.526,0.5 0.8593,0.6562c0.3438,0.1563 0.7292,0.2344 1.1563,0.2344c0.4166,0 0.7916,-0.0781 1.125,-0.2344c0.3437,-0.1562 0.6302,-0.375 0.8594,-0.6562c0.2396,-0.2917 0.4218,-0.6407 0.5468,-1.0469c0.1355,-0.4167 0.2032,-0.875 0.2032,-1.375c0,-0.5104 -0.0677,-0.9688 -0.2031,-1.375c-0.125,-0.4167 -0.3073,-0.7656 -0.5469,-1.0469c-0.2292,-0.2916 -0.5156,-0.5156 -0.8594,-0.6718c-0.3333,-0.1563 -0.7083,-0.2344 -1.125,-0.2344c-0.4271,0 -0.8125,0.0781 -1.1562,0.2344c-0.3334,0.1562 -0.6198,0.3802 -0.8594,0.6718c-0.2396,0.2813 -0.4219,0.6303 -0.5469,1.0469c-0.125,0.4063 -0.1875,0.8646 -0.1875,1.375zM672.5297,357.87922c0.2604,-0.0625 0.5989,-0.1302 1.0156,-0.2031c0.4271,-0.0729 0.9167,-0.1094 1.4688,-0.1094c0.5,0 0.9114,0.073 1.2343,0.2188c0.3334,0.1354 0.599,0.3281 0.7969,0.5781c0.1979,0.25 0.3334,0.5521 0.4063,0.9063c0.0833,0.3541 0.125,0.7448 0.125,1.1718v3.5h-1.1094v-3.2656c0,-0.3854 -0.026,-0.7135 -0.0781,-0.9843c-0.0521,-0.2709 -0.1406,-0.4896 -0.2656,-0.6563c-0.1146,-0.1667 -0.2761,-0.2865 -0.4844,-0.3594c-0.1979,-0.0833 -0.4427,-0.125 -0.7344,-0.125c-0.125,0 -0.25,0.0052 -0.375,0.0157c-0.125,0.0104 -0.25,0.0208 -0.375,0.0312c-0.1146,0.0104 -0.2187,0.0261 -0.3125,0.0469c-0.0833,0.0104 -0.1458,0.0208 -0.1875,0.0312v5.2657h-1.125zM681.2927,364.06672c-0.6875,-0.0208 -1.1771,-0.1718 -1.4687,-0.4531c-0.2813,-0.2812 -0.4219,-0.7135 -0.4219,-1.2969v-7.5l1.1094,-0.1875v7.5c0,0.1875 0.0156,0.3438 0.0469,0.4688c0.0312,0.1146 0.0833,0.2083 0.1562,0.2812c0.0729,0.073 0.1667,0.125 0.2813,0.1563c0.125,0.0312 0.276,0.0625 0.4531,0.0937zM681.975,365.09802c0.0833,0.0417 0.1927,0.0781 0.3281,0.1094c0.1459,0.0416 0.2865,0.0625 0.4219,0.0625c0.4375,0 0.7813,-0.099 1.0313,-0.2969c0.25,-0.1875 0.4739,-0.5052 0.6718,-0.9531c-0.5,-0.9584 -0.9687,-1.974 -1.4062,-3.0469c-0.4375,-1.0729 -0.8021,-2.1615 -1.0938,-3.2656h1.2032c0.0937,0.3541 0.1979,0.7396 0.3125,1.1562c0.125,0.4167 0.2656,0.849 0.4218,1.2969c0.1563,0.4375 0.3178,0.875 0.4844,1.3125c0.1771,0.4375 0.3646,0.8594 0.5625,1.2656c0.3021,-0.8333 0.5625,-1.6614 0.7813,-2.4843c0.2291,-0.8334 0.4427,-1.6823 0.6406,-2.5469h1.1563c-0.2917,1.1771 -0.6146,2.3073 -0.9688,3.3906c-0.3437,1.0834 -0.724,2.0938 -1.1406,3.0313c-0.1563,0.3646 -0.3229,0.6771 -0.5,0.9375c-0.1667,0.2604 -0.3542,0.4739 -0.5625,0.6406c-0.2084,0.1667 -0.4427,0.2865 -0.7031,0.3594c-0.2604,0.0833 -0.5521,0.125 -0.875,0.125c-0.0938,0 -0.1875,-0.0052 -0.2813,-0.0156c-0.0937,-0.0105 -0.1875,-0.0261 -0.2812,-0.0469c-0.0938,-0.0208 -0.1771,-0.0417 -0.25,-0.0625c-0.0729,-0.0208 -0.125,-0.0417 -0.1563,-0.0625zM693.5548,363.14492c0.2604,0 0.4896,-0.0052 0.6875,-0.0157c0.2083,-0.0208 0.3802,-0.0468 0.5156,-0.0781v-1.8594c-0.0833,-0.0416 -0.2135,-0.0729 -0.3906,-0.0937c-0.1771,-0.0313 -0.3958,-0.0469 -0.6562,-0.0469c-0.1667,0 -0.3438,0.0157 -0.5313,0.0469c-0.1875,0.0208 -0.3594,0.0677 -0.5156,0.1406c-0.1563,0.073 -0.2865,0.1771 -0.3906,0.3125c-0.1042,0.125 -0.1563,0.2969 -0.1563,0.5157c0,0.4062 0.125,0.6875 0.375,0.8437c0.2604,0.1563 0.6146,0.2344 1.0625,0.2344zM693.4454,357.55112c0.4479,0 0.8282,0.0573 1.1407,0.1719c0.3125,0.1146 0.5625,0.2812 0.75,0.5c0.1875,0.2083 0.3177,0.4583 0.3906,0.75c0.0833,0.2917 0.125,0.6094 0.125,0.9531v3.9063c-0.0938,0.0208 -0.2292,0.0468 -0.4063,0.0781c-0.1666,0.0208 -0.3593,0.0417 -0.5781,0.0625c-0.2187,0.0312 -0.4531,0.0521 -0.7031,0.0625c-0.25,0.0208 -0.5,0.0312 -0.75,0.0312c-0.3542,0 -0.6771,-0.0364 -0.9688,-0.1093c-0.2916,-0.0625 -0.5468,-0.1719 -0.7656,-0.3281c-0.2187,-0.1563 -0.3906,-0.3594 -0.5156,-0.6094c-0.1146,-0.2604 -0.1719,-0.5729 -0.1719,-0.9375c0,-0.3438 0.0677,-0.6406 0.2032,-0.8906c0.1458,-0.25 0.3385,-0.448 0.5781,-0.5938c0.2396,-0.1562 0.5156,-0.2708 0.8281,-0.3437c0.3229,-0.073 0.6615,-0.1094 1.0157,-0.1094c0.1145,0 0.2291,0.0104 0.3437,0.0312c0.125,0.0105 0.2396,0.0261 0.3438,0.0469c0.1145,0.0104 0.2083,0.0261 0.2812,0.0469c0.0833,0.0208 0.1406,0.0313 0.1719,0.0313v-0.3125c0,-0.1771 -0.0209,-0.3542 -0.0625,-0.5313c-0.0417,-0.1875 -0.1146,-0.349 -0.2188,-0.4844c-0.0937,-0.1458 -0.2343,-0.2604 -0.4218,-0.3437c-0.1771,-0.0833 -0.4115,-0.125 -0.7032,-0.125c-0.3645,0 -0.6875,0.026 -0.9687,0.0781c-0.2708,0.0521 -0.474,0.1042 -0.6094,0.1563l-0.1406,-0.9219c0.1458,-0.0625 0.3854,-0.1198 0.7188,-0.1719c0.3437,-0.0625 0.7083,-0.0937 1.0937,-0.0937zM702.0376,360.83242c0,-0.7292 -0.1823,-1.2865 -0.5469,-1.6719c-0.3541,-0.3958 -0.8333,-0.5938 -1.4375,-0.5938c-0.3333,0 -0.5937,0.0157 -0.7812,0.0469c-0.1875,0.0208 -0.3386,0.0469 -0.4532,0.0781v3.9375c0.1355,0.1042 0.3282,0.2084 0.5782,0.3125c0.2604,0.1042 0.5416,0.1563 0.8437,0.1563c0.3229,0 0.599,-0.0573 0.8282,-0.1719c0.2291,-0.1146 0.4114,-0.2708 0.5468,-0.4687c0.1459,-0.2084 0.25,-0.4479 0.3125,-0.7188c0.0729,-0.2812 0.1094,-0.5833 0.1094,-0.9062zM703.1938,360.83242c0,0.4687 -0.0625,0.9062 -0.1875,1.3125c-0.125,0.3958 -0.3072,0.7395 -0.5468,1.0312c-0.2396,0.2813 -0.5365,0.5052 -0.8907,0.6719c-0.3437,0.1562 -0.7395,0.2344 -1.1875,0.2344c-0.3541,0 -0.6718,-0.0469 -0.9531,-0.1407c-0.2708,-0.0937 -0.4739,-0.1875 -0.6093,-0.2812v2.5h-1.125v-8.2656c0.2708,-0.0625 0.6041,-0.1302 1,-0.2031c0.3958,-0.0834 0.8541,-0.125 1.375,-0.125c0.4791,0 0.9114,0.0781 1.2968,0.2343c0.3854,0.1459 0.7136,0.3594 0.9844,0.6407c0.2709,0.2812 0.4792,0.625 0.625,1.0312c0.1459,0.4063 0.2188,0.8594 0.2188,1.3594zM709.1056,360.83242c0,-0.7292 -0.1823,-1.2865 -0.5468,-1.6719c-0.3542,-0.3958 -0.8334,-0.5938 -1.4375,-0.5938c-0.3334,0 -0.5938,0.0157 -0.7813,0.0469c-0.1875,0.0208 -0.3385,0.0469 -0.4531,0.0781v3.9375c0.1354,0.1042 0.3281,0.2084 0.5781,0.3125c0.2604,0.1042 0.5417,0.1563 0.8438,0.1563c0.3229,0 0.5989,-0.0573 0.8281,-0.1719c0.2292,-0.1146 0.4115,-0.2708 0.5469,-0.4687c0.1458,-0.2084 0.25,-0.4479 0.3125,-0.7188c0.0729,-0.2812 0.1094,-0.5833 0.1094,-0.9062zM710.2619,360.83242c0,0.4687 -0.0625,0.9062 -0.1875,1.3125c-0.125,0.3958 -0.3073,0.7395 -0.5469,1.0312c-0.2396,0.2813 -0.5364,0.5052 -0.8906,0.6719c-0.3438,0.1562 -0.7396,0.2344 -1.1875,0.2344c-0.3542,0 -0.6719,-0.0469 -0.9531,-0.1407c-0.2709,-0.0937 -0.474,-0.1875 -0.6094,-0.2812v2.5h-1.125v-8.2656c0.2708,-0.0625 0.6042,-0.1302 1,-0.2031c0.3958,-0.0834 0.8542,-0.125 1.375,-0.125c0.4792,0 0.9115,0.0781 1.2969,0.2343c0.3854,0.1459 0.7135,0.3594 0.9844,0.6407c0.2708,0.2812 0.4791,0.625 0.625,1.0312c0.1458,0.4063 0.2187,0.8594 0.2187,1.3594zM713.705,364.06672c-0.6875,-0.0208 -1.1771,-0.1718 -1.4688,-0.4531c-0.2812,-0.2812 -0.4219,-0.7135 -0.4219,-1.2969v-7.5l1.1094,-0.1875v7.5c0,0.1875 0.0156,0.3438 0.0469,0.4688c0.0312,0.1146 0.0833,0.2083 0.1562,0.2812c0.0729,0.073 0.1667,0.125 0.2813,0.1563c0.125,0.0312 0.276,0.0625 0.4531,0.0937zM716.2309,363.94172h-1.125v-6.2343h1.125zM715.6684,356.56672c-0.1979,0 -0.3697,-0.0625 -0.5156,-0.1875c-0.1354,-0.1354 -0.2031,-0.3125 -0.2031,-0.5312c0,-0.2292 0.0677,-0.4063 0.2031,-0.5313c0.1459,-0.1354 0.3177,-0.2031 0.5157,-0.2031c0.1979,0 0.3646,0.0677 0.5,0.2031c0.1458,0.125 0.2187,0.3021 0.2187,0.5313c0,0.2187 -0.0729,0.3958 -0.2187,0.5312c-0.1354,0.125 -0.3021,0.1875 -0.5,0.1875zM717.7982,360.83242c0,-0.5521 0.0782,-1.0313 0.2344,-1.4375c0.1667,-0.4167 0.3802,-0.7605 0.6406,-1.0313c0.2709,-0.2708 0.5782,-0.4739 0.9219,-0.6094c0.3438,-0.1354 0.6927,-0.2031 1.0469,-0.2031c0.8438,0 1.4896,0.2604 1.9375,0.7813c0.4479,0.5208 0.6719,1.3177 0.6719,2.3906c0,0.0521 0,0.1146 0,0.1875c0,0.0729 -0.0052,0.1458 -0.0156,0.2187h-4.2657c0.0417,0.6459 0.224,1.1355 0.5469,1.4688c0.3334,0.3333 0.849,0.5 1.5469,0.5c0.3958,0 0.724,-0.0313 0.9844,-0.0938c0.2708,-0.0729 0.4739,-0.1406 0.6094,-0.2031l0.1562,0.9375c-0.1354,0.0729 -0.375,0.1459 -0.7187,0.2188c-0.3334,0.0833 -0.7188,0.125 -1.1563,0.125c-0.5416,0 -1.0104,-0.0781 -1.4062,-0.2344c-0.3959,-0.1667 -0.724,-0.3958 -0.9844,-0.6875c-0.25,-0.2917 -0.4375,-0.6354 -0.5625,-1.0312c-0.125,-0.3959 -0.1875,-0.8282 -0.1875,-1.2969zM722.0795,360.22302c0.0104,-0.5 -0.1146,-0.9115 -0.375,-1.2344c-0.2604,-0.3333 -0.6198,-0.5 -1.0781,-0.5c-0.25,0 -0.474,0.0521 -0.6719,0.1563c-0.1979,0.1041 -0.3646,0.2343 -0.5,0.3906c-0.1354,0.1562 -0.2396,0.3385 -0.3125,0.5469c-0.0729,0.2083 -0.125,0.4218 -0.1563,0.6406zM726.3031,363.14492c0.4584,0 0.7969,-0.0573 1.0157,-0.1719c0.2187,-0.125 0.3281,-0.3229 0.3281,-0.5938c0,-0.2708 -0.1094,-0.4843 -0.3281,-0.6406c-0.2084,-0.1667 -0.5625,-0.3489 -1.0625,-0.5469c-0.2396,-0.0937 -0.4688,-0.1875 -0.6875,-0.2812c-0.2188,-0.1042 -0.4115,-0.224 -0.5781,-0.3594c-0.1563,-0.1354 -0.2813,-0.2968 -0.375,-0.4843c-0.0938,-0.198 -0.1407,-0.4375 -0.1407,-0.7188c0,-0.5521 0.2032,-0.9896 0.6094,-1.3125c0.4063,-0.3229 0.9636,-0.4844 1.6719,-0.4844c0.1771,0 0.349,0.0105 0.5156,0.0313c0.1771,0.0104 0.3438,0.0312 0.5,0.0625c0.1563,0.0312 0.2917,0.0625 0.4063,0.0937c0.1146,0.0313 0.2031,0.0573 0.2656,0.0782l-0.2031,0.9687c-0.125,-0.0625 -0.3177,-0.125 -0.5781,-0.1875c-0.25,-0.0729 -0.5521,-0.1094 -0.9063,-0.1094c-0.3125,0 -0.5885,0.0625 -0.8281,0.1875c-0.2292,0.1146 -0.3437,0.3073 -0.3437,0.5782c0,0.1354 0.026,0.2552 0.0781,0.3594c0.0521,0.1041 0.1302,0.1979 0.2344,0.2812c0.1146,0.0833 0.25,0.1615 0.4062,0.2344c0.1667,0.0729 0.3594,0.1458 0.5781,0.2187c0.3021,0.1146 0.5678,0.2292 0.7969,0.3438c0.2292,0.1042 0.4271,0.2292 0.5938,0.375c0.1666,0.1458 0.2916,0.3229 0.375,0.5312c0.0937,0.198 0.1406,0.4427 0.1406,0.7344c0,0.5729 -0.2187,1.0104 -0.6562,1.3125c-0.4271,0.2917 -1.0365,0.4375 -1.8282,0.4375c-0.5521,0 -0.9843,-0.0469 -1.2968,-0.1406c-0.3125,-0.0833 -0.5209,-0.151 -0.625,-0.2031l0.2031,-0.9531c0.125,0.0416 0.3281,0.1145 0.6094,0.2187c0.2812,0.0938 0.651,0.1406 1.1094,0.1406zM734.021,357.70742h2.375v0.9375h-2.375v2.875c0,0.3125 0.0208,0.5729 0.0625,0.7812c0.052,0.1979 0.125,0.3542 0.2187,0.4688c0.1042,0.1145 0.2292,0.1979 0.375,0.25c0.1458,0.0416 0.3125,0.0625 0.5,0.0625c0.3333,0 0.599,-0.0365 0.7969,-0.1094c0.2083,-0.0729 0.3541,-0.125 0.4375,-0.1563l0.2187,0.9219c-0.1146,0.0521 -0.3125,0.1198 -0.5937,0.2031c-0.2813,0.0834 -0.599,0.125 -0.9531,0.125c-0.4271,0 -0.7813,-0.052 -1.0625,-0.1562c-0.2709,-0.1042 -0.4896,-0.2656 -0.6563,-0.4844c-0.1666,-0.2187 -0.2864,-0.4843 -0.3594,-0.7968c-0.0625,-0.3125 -0.0937,-0.6771 -0.0937,-1.0938v-5.5781l1.1094,-0.1875zM743.1457,360.81672c0,0.5 -0.0729,0.9532 -0.2187,1.3594c-0.1459,0.3958 -0.349,0.7396 -0.6094,1.0313c-0.2604,0.2812 -0.5729,0.5 -0.9375,0.6562c-0.3541,0.1563 -0.7396,0.2344 -1.1562,0.2344c-0.4271,0 -0.8229,-0.0781 -1.1875,-0.2344c-0.3542,-0.1562 -0.6615,-0.375 -0.9219,-0.6562c-0.2604,-0.2917 -0.4635,-0.6355 -0.6094,-1.0313c-0.1458,-0.4062 -0.2187,-0.8594 -0.2187,-1.3594c0,-0.4895 0.0729,-0.9322 0.2187,-1.3281c0.1459,-0.4062 0.349,-0.75 0.6094,-1.0312c0.2604,-0.2917 0.5677,-0.5156 0.9219,-0.6719c0.3646,-0.1562 0.7604,-0.2344 1.1875,-0.2344c0.4166,0 0.8021,0.0782 1.1562,0.2344c0.3646,0.1563 0.6771,0.3802 0.9375,0.6719c0.2604,0.2812 0.4636,0.625 0.6094,1.0312c0.1459,0.3959 0.2188,0.8386 0.2188,1.3282zM741.9739,360.81672c0,-0.6979 -0.1563,-1.25 -0.4688,-1.6562c-0.3125,-0.4167 -0.7396,-0.625 -1.2812,-0.625c-0.5521,0 -0.9844,0.2083 -1.2969,0.625c-0.3125,0.4062 -0.4688,0.9583 -0.4688,1.6562c0,0.7084 0.1563,1.2709 0.4688,1.6875c0.3125,0.4063 0.7448,0.6094 1.2969,0.6094c0.5416,0 0.9687,-0.2031 1.2812,-0.6094c0.3125,-0.4166 0.4688,-0.9791 0.4688,-1.6875zM751.4041,363.31672c-0.0938,0.0625 -0.2813,0.1459 -0.5625,0.25c-0.2709,0.0938 -0.5938,0.1407 -0.9688,0.1407c-0.375,0 -0.7291,-0.0573 -1.0625,-0.1719c-0.3333,-0.125 -0.625,-0.3125 -0.875,-0.5625c-0.2396,-0.25 -0.4323,-0.5625 -0.5781,-0.9375c-0.1458,-0.375 -0.2188,-0.8229 -0.2188,-1.3438c0,-0.4583 0.0678,-0.875 0.2032,-1.25c0.1354,-0.3854 0.3333,-0.7135 0.5937,-0.9843c0.2604,-0.2813 0.5782,-0.5 0.9532,-0.6563c0.375,-0.1562 0.802,-0.2344 1.2812,-0.2344c0.5208,0 0.974,0.0417 1.3594,0.125c0.3854,0.073 0.7083,0.1407 0.9687,0.2032v5.5625c0,0.9583 -0.25,1.651 -0.75,2.0781c-0.4896,0.4375 -1.2396,0.6563 -2.25,0.6563c-0.3854,0 -0.7552,-0.0313 -1.1093,-0.0938c-0.3438,-0.0625 -0.6459,-0.1354 -0.9063,-0.2187l0.2031,-0.9844c0.2292,0.0937 0.5053,0.1719 0.8282,0.2344c0.3229,0.0729 0.6614,0.1093 1.0156,0.1093c0.6667,0 1.1458,-0.1354 1.4375,-0.4062c0.2917,-0.2604 0.4375,-0.6771 0.4375,-1.25zM751.3884,358.69172c-0.1145,-0.0312 -0.2656,-0.0625 -0.4531,-0.0937c-0.1875,-0.0313 -0.4427,-0.0469 -0.7656,-0.0469c-0.5937,0 -1.0521,0.1979 -1.375,0.5938c-0.3229,0.3854 -0.4844,0.9062 -0.4844,1.5625c0,0.3541 0.0417,0.6614 0.125,0.9218c0.0938,0.25 0.2188,0.4636 0.375,0.6407c0.1563,0.1666 0.3334,0.2916 0.5313,0.375c0.2083,0.0729 0.4219,0.1093 0.6406,0.1093c0.3021,0 0.5729,-0.0416 0.8125,-0.125c0.25,-0.0833 0.4479,-0.1822 0.5938,-0.2968zM756.5432,363.14492c0.2604,0 0.4896,-0.0052 0.6875,-0.0157c0.2084,-0.0208 0.3802,-0.0468 0.5157,-0.0781v-1.8594c-0.0834,-0.0416 -0.2136,-0.0729 -0.3907,-0.0937c-0.1771,-0.0313 -0.3958,-0.0469 -0.6562,-0.0469c-0.1667,0 -0.3438,0.0157 -0.5313,0.0469c-0.1875,0.0208 -0.3593,0.0677 -0.5156,0.1406c-0.1562,0.073 -0.2864,0.1771 -0.3906,0.3125c-0.1042,0.125 -0.1563,0.2969 -0.1563,0.5157c0,0.4062 0.125,0.6875 0.375,0.8437c0.2605,0.1563 0.6146,0.2344 1.0625,0.2344zM756.4339,357.55112c0.4479,0 0.8281,0.0573 1.1406,0.1719c0.3125,0.1146 0.5625,0.2812 0.75,0.5c0.1875,0.2083 0.3177,0.4583 0.3906,0.75c0.0834,0.2917 0.125,0.6094 0.125,0.9531v3.9063c-0.0937,0.0208 -0.2291,0.0468 -0.4062,0.0781c-0.1667,0.0208 -0.3594,0.0417 -0.5782,0.0625c-0.2187,0.0312 -0.4531,0.0521 -0.7031,0.0625c-0.25,0.0208 -0.5,0.0312 -0.75,0.0312c-0.3541,0 -0.6771,-0.0364 -0.9687,-0.1093c-0.2917,-0.0625 -0.5469,-0.1719 -0.7656,-0.3281c-0.2188,-0.1563 -0.3907,-0.3594 -0.5157,-0.6094c-0.1146,-0.2604 -0.1718,-0.5729 -0.1718,-0.9375c0,-0.3438 0.0677,-0.6406 0.2031,-0.8906c0.1458,-0.25 0.3385,-0.448 0.5781,-0.5938c0.2396,-0.1562 0.5157,-0.2708 0.8282,-0.3437c0.3229,-0.073 0.6614,-0.1094 1.0156,-0.1094c0.1146,0 0.2291,0.0104 0.3437,0.0312c0.125,0.0105 0.2396,0.0261 0.3438,0.0469c0.1146,0.0104 0.2083,0.0261 0.2812,0.0469c0.0834,0.0208 0.1407,0.0313 0.1719,0.0313v-0.3125c0,-0.1771 -0.0208,-0.3542 -0.0625,-0.5313c-0.0416,-0.1875 -0.1146,-0.349 -0.2187,-0.4844c-0.0938,-0.1458 -0.2344,-0.2604 -0.4219,-0.3437c-0.1771,-0.0833 -0.4115,-0.125 -0.7031,-0.125c-0.3646,0 -0.6875,0.026 -0.9688,0.0781c-0.2708,0.0521 -0.4739,0.1042 -0.6093,0.1563l-0.1407,-0.9219c0.1459,-0.0625 0.3854,-0.1198 0.7188,-0.1719c0.3437,-0.0625 0.7083,-0.0937 1.0937,-0.0937zM760.6823,357.87922c0.2604,-0.0625 0.5989,-0.1302 1.0156,-0.2031c0.4271,-0.0729 0.9167,-0.1094 1.4687,-0.1094c0.3959,0 0.7292,0.0573 1,0.1719c0.2709,0.1042 0.5,0.2604 0.6875,0.4688c0.0521,-0.0417 0.1355,-0.099 0.25,-0.1719c0.125,-0.0729 0.2761,-0.1406 0.4532,-0.2031c0.1771,-0.0729 0.375,-0.1354 0.5937,-0.1875c0.2188,-0.0521 0.4479,-0.0781 0.6875,-0.0781c0.4896,0 0.8854,0.0729 1.1875,0.2187c0.3021,0.1354 0.5365,0.3333 0.7032,0.5938c0.177,0.25 0.2916,0.552 0.3437,0.9062c0.0625,0.3542 0.0938,0.7396 0.0938,1.1563v3.5h-1.1094v-3.2657c0,-0.3645 -0.0209,-0.677 -0.0625,-0.9375c-0.0313,-0.2708 -0.099,-0.4948 -0.2031,-0.6718c-0.0938,-0.1771 -0.2292,-0.3073 -0.4063,-0.3907c-0.1666,-0.0833 -0.3854,-0.125 -0.6562,-0.125c-0.375,0 -0.6875,0.0521 -0.9375,0.1563c-0.2396,0.0937 -0.4063,0.1823 -0.5,0.2656c0.0625,0.2084 0.1093,0.4375 0.1406,0.6875c0.0417,0.25 0.0625,0.5104 0.0625,0.7813v3.5h-1.125v-3.2656c0,-0.3646 -0.0208,-0.6771 -0.0625,-0.9375c-0.0313,-0.2709 -0.099,-0.4948 -0.2031,-0.6719c-0.1042,-0.1771 -0.2448,-0.3073 -0.4219,-0.3906c-0.1667,-0.0834 -0.3802,-0.125 -0.6406,-0.125c-0.1146,0 -0.2344,0.0052 -0.3594,0.0156c-0.125,0.0104 -0.25,0.0208 -0.375,0.0312c-0.1146,0.0105 -0.2187,0.0261 -0.3125,0.0469c-0.0937,0.0104 -0.1562,0.0209 -0.1875,0.0313v5.2656h-1.125zM770.6706,360.83242c0,-0.5521 0.0781,-1.0313 0.2344,-1.4375c0.1666,-0.4167 0.3802,-0.7605 0.6406,-1.0313c0.2709,-0.2708 0.5781,-0.4739 0.9219,-0.6094c0.3437,-0.1354 0.6927,-0.2031 1.0469,-0.2031c0.8437,0 1.4896,0.2604 1.9375,0.7813c0.4479,0.5208 0.6719,1.3177 0.6719,2.3906c0,0.0521 0,0.1146 0,0.1875c0,0.0729 -0.0053,0.1458 -0.0157,0.2187h-4.2656c0.0417,0.6459 0.224,1.1355 0.5469,1.4688c0.3333,0.3333 0.849,0.5 1.5469,0.5c0.3958,0 0.7239,-0.0313 0.9844,-0.0938c0.2708,-0.0729 0.4739,-0.1406 0.6093,-0.2031l0.1563,0.9375c-0.1354,0.0729 -0.375,0.1459 -0.7188,0.2188c-0.3333,0.0833 -0.7187,0.125 -1.1562,0.125c-0.5417,0 -1.0104,-0.0781 -1.4063,-0.2344c-0.3958,-0.1667 -0.7239,-0.3958 -0.9843,-0.6875c-0.25,-0.2917 -0.4375,-0.6354 -0.5625,-1.0312c-0.125,-0.3959 -0.1875,-0.8282 -0.1875,-1.2969zM774.9519,360.22302c0.0104,-0.5 -0.1146,-0.9115 -0.375,-1.2344c-0.2605,-0.3333 -0.6198,-0.5 -1.0782,-0.5c-0.25,0 -0.4739,0.0521 -0.6718,0.1563c-0.1979,0.1041 -0.3646,0.2343 -0.5,0.3906c-0.1354,0.1562 -0.2396,0.3385 -0.3125,0.5469c-0.0729,0.2083 -0.125,0.4218 -0.1563,0.6406zM782.0661,360.83242c0,-0.7292 -0.1822,-1.2865 -0.5468,-1.6719c-0.3542,-0.3958 -0.8334,-0.5938 -1.4375,-0.5938c-0.3334,0 -0.5938,0.0157 -0.7813,0.0469c-0.1875,0.0208 -0.3385,0.0469 -0.4531,0.0781v3.9375c0.1354,0.1042 0.3281,0.2084 0.5781,0.3125c0.2604,0.1042 0.5417,0.1563 0.8438,0.1563c0.3229,0 0.5989,-0.0573 0.8281,-0.1719c0.2292,-0.1146 0.4115,-0.2708 0.5469,-0.4687c0.1458,-0.2084 0.25,-0.4479 0.3125,-0.7188c0.0729,-0.2812 0.1094,-0.5833 0.1094,-0.9062zM783.2224,360.83242c0,0.4687 -0.0625,0.9062 -0.1875,1.3125c-0.125,0.3958 -0.3073,0.7395 -0.5469,1.0312c-0.2396,0.2813 -0.5364,0.5052 -0.8906,0.6719c-0.3437,0.1562 -0.7396,0.2344 -1.1875,0.2344c-0.3542,0 -0.6719,-0.0469 -0.9531,-0.1407c-0.2709,-0.0937 -0.474,-0.1875 -0.6094,-0.2812v2.5h-1.125v-8.2656c0.2709,-0.0625 0.6042,-0.1302 1,-0.2031c0.3959,-0.0834 0.8542,-0.125 1.375,-0.125c0.4792,0 0.9115,0.0781 1.2969,0.2343c0.3854,0.1459 0.7135,0.3594 0.9844,0.6407c0.2708,0.2812 0.4791,0.625 0.625,1.0312c0.1458,0.4063 0.2187,0.8594 0.2187,1.3594zM786.6655,364.06672c-0.6875,-0.0208 -1.1771,-0.1718 -1.4688,-0.4531c-0.2812,-0.2812 -0.4219,-0.7135 -0.4219,-1.2969v-7.5l1.1094,-0.1875v7.5c0,0.1875 0.0156,0.3438 0.0469,0.4688c0.0312,0.1146 0.0833,0.2083 0.1562,0.2812c0.073,0.073 0.1667,0.125 0.2813,0.1563c0.125,0.0312 0.276,0.0625 0.4531,0.0937zM790.1915,363.14492c0.2604,0 0.4896,-0.0052 0.6875,-0.0157c0.2083,-0.0208 0.3802,-0.0468 0.5156,-0.0781v-1.8594c-0.0833,-0.0416 -0.2135,-0.0729 -0.3906,-0.0937c-0.1771,-0.0313 -0.3958,-0.0469 -0.6563,-0.0469c-0.1666,0 -0.3437,0.0157 -0.5312,0.0469c-0.1875,0.0208 -0.3594,0.0677 -0.5156,0.1406c-0.1563,0.073 -0.2865,0.1771 -0.3906,0.3125c-0.1042,0.125 -0.1563,0.2969 -0.1563,0.5157c0,0.4062 0.125,0.6875 0.375,0.8437c0.2604,0.1563 0.6146,0.2344 1.0625,0.2344zM790.0821,357.55112c0.4479,0 0.8281,0.0573 1.1406,0.1719c0.3125,0.1146 0.5625,0.2812 0.75,0.5c0.1875,0.2083 0.3177,0.4583 0.3907,0.75c0.0833,0.2917 0.125,0.6094 0.125,0.9531v3.9063c-0.0938,0.0208 -0.2292,0.0468 -0.4063,0.0781c-0.1666,0.0208 -0.3594,0.0417 -0.5781,0.0625c-0.2188,0.0312 -0.4531,0.0521 -0.7031,0.0625c-0.25,0.0208 -0.5,0.0312 -0.75,0.0312c-0.3542,0 -0.6771,-0.0364 -0.9688,-0.1093c-0.2916,-0.0625 -0.5468,-0.1719 -0.7656,-0.3281c-0.2187,-0.1563 -0.3906,-0.3594 -0.5156,-0.6094c-0.1146,-0.2604 -0.1719,-0.5729 -0.1719,-0.9375c0,-0.3438 0.0677,-0.6406 0.2031,-0.8906c0.1459,-0.25 0.3386,-0.448 0.5782,-0.5938c0.2396,-0.1562 0.5156,-0.2708 0.8281,-0.3437c0.3229,-0.073 0.6615,-0.1094 1.0156,-0.1094c0.1146,0 0.2292,0.0104 0.3438,0.0312c0.125,0.0105 0.2396,0.0261 0.3437,0.0469c0.1146,0.0104 0.2084,0.0261 0.2813,0.0469c0.0833,0.0208 0.1406,0.0313 0.1719,0.0313v-0.3125c0,-0.1771 -0.0209,-0.3542 -0.0625,-0.5313c-0.0417,-0.1875 -0.1146,-0.349 -0.2188,-0.4844c-0.0937,-0.1458 -0.2344,-0.2604 -0.4219,-0.3437c-0.177,-0.0833 -0.4114,-0.125 -0.7031,-0.125c-0.3646,0 -0.6875,0.026 -0.9687,0.0781c-0.2709,0.0521 -0.474,0.1042 -0.6094,0.1563l-0.1406,-0.9219c0.1458,-0.0625 0.3854,-0.1198 0.7187,-0.1719c0.3438,-0.0625 0.7084,-0.0937 1.0938,-0.0937zM793.4318,365.09802c0.0833,0.0417 0.1927,0.0781 0.3281,0.1094c0.1458,0.0416 0.2865,0.0625 0.4219,0.0625c0.4375,0 0.7812,-0.099 1.0312,-0.2969c0.25,-0.1875 0.474,-0.5052 0.6719,-0.9531c-0.5,-0.9584 -0.9687,-1.974 -1.4062,-3.0469c-0.4375,-1.0729 -0.8021,-2.1615 -1.0938,-3.2656h1.2031c0.0938,0.3541 0.198,0.7396 0.3125,1.1562c0.125,0.4167 0.2657,0.849 0.4219,1.2969c0.1563,0.4375 0.3177,0.875 0.4844,1.3125c0.1771,0.4375 0.3646,0.8594 0.5625,1.2656c0.3021,-0.8333 0.5625,-1.6614 0.7813,-2.4843c0.2291,-0.8334 0.4427,-1.6823 0.6406,-2.5469h1.1562c-0.2916,1.1771 -0.6146,2.3073 -0.9687,3.3906c-0.3438,1.0834 -0.724,2.0938 -1.1406,3.0313c-0.1563,0.3646 -0.3229,0.6771 -0.5,0.9375c-0.1667,0.2604 -0.3542,0.4739 -0.5625,0.6406c-0.2084,0.1667 -0.4427,0.2865 -0.7032,0.3594c-0.2604,0.0833 -0.552,0.125 -0.875,0.125c-0.0937,0 -0.1875,-0.0052 -0.2812,-0.0156c-0.0938,-0.0105 -0.1875,-0.0261 -0.2813,-0.0469c-0.0937,-0.0208 -0.177,-0.0417 -0.25,-0.0625c-0.0729,-0.0208 -0.125,-0.0417 -0.1562,-0.0625zM801.0052,360.34802c0,-1.0208 -0.1511,-1.9636 -0.4531,-2.8281c-0.2917,-0.875 -0.7292,-1.6875 -1.3125,-2.4375l0.7968,-0.5313c0.625,0.7604 1.125,1.6354 1.5,2.625c0.3854,0.9792 0.5782,2.0365 0.5782,3.1719c0,1.1354 -0.1927,2.1979 -0.5782,3.1875c-0.375,0.9896 -0.875,1.8646 -1.5,2.625l-0.7968,-0.5313c0.5833,-0.75 1.0208,-1.5573 1.3125,-2.4218c0.3021,-0.875 0.4531,-1.8282 0.4531,-2.8594z" fill="#ffffff" stroke="none" stroke-width="1" stroke-linecap="square"/></g></g></svg>