<svg xmlns="http://www.w3.org/2000/svg" xmlns:xlink="http://www.w3.org/1999/xlink" version="1.1" width="135.30803" height="21.09389" viewBox="0,0,135.30803,21.09389"><g><g data-paper-data="{&quot;isPaintingLayer&quot;:true}" fill-rule="nonzero" stroke-linecap="square" stroke-linejoin="miter" stroke-miterlimit="10" stroke-dasharray="" stroke-dashoffset="0" style="mix-blend-mode: normal"><path d="M 13.144 10.7298 L 15.9728 10.7298 L 15.9728 20.1672 C 15.7289 20.2322 15.3875 20.3135 14.9486 20.4111 C 14.5259 20.5086 14.0219 20.6062 13.4367 20.7037 C 12.8676 20.8012 12.2417 20.8825 11.5589 20.9476 C 10.8761 21.0288 10.1852 21.0695 9.4861 21.0695 C 8.0717 21.0695 6.7793 20.8338 5.6088 20.3623 C 4.4545 19.8908 3.4547 19.2161 2.6093 18.3383 C 1.7802 17.4441 1.138 16.3467 0.6828 15.0461 C 0.2276 13.7456 0 12.2499 0 10.5591 C 0 8.8684 0.2601 7.3727 0.7803 6.0721 C 1.3006 4.7553 1.9915 3.6498 2.8532 2.7556 C 3.731 1.8615 4.7553 1.1787 5.9258 0.7072 C 7.0963 0.2357 8.3562 0 9.7056 0 C 10.616 0 11.4208 0.065 12.1198 0.1951 C 12.8351 0.3089 13.4448 0.4471 13.9488 0.6096 C 14.4527 0.756 14.8673 0.9104 15.1925 1.073 C 15.5176 1.2193 15.7371 1.3331 15.8509 1.4144 L 14.9486 3.7554 C 14.3796 3.3978 13.6318 3.097 12.7051 2.8531 C 11.7784 2.6093 10.8274 2.4874 9.8519 2.4874 C 8.8277 2.4874 7.8929 2.6743 7.0476 3.0482 C 6.2022 3.4059 5.4787 3.9342 4.8772 4.6333 C 4.292 5.3324 3.8286 6.1859 3.4872 7.1938 C 3.1621 8.1855 2.9995 9.3073 2.9995 10.5591 C 2.9995 11.7622 3.1377 12.8595 3.4141 13.8512 C 3.7067 14.8266 4.1375 15.672 4.7065 16.3874 C 5.2755 17.1027 5.9827 17.6554 6.8281 18.0456 C 7.6735 18.4195 8.6733 18.6065 9.8276 18.6065 C 10.6404 18.6065 11.3314 18.5658 11.9004 18.4845 C 12.4694 18.4033 12.8839 18.322 13.1441 18.2407 Z M 30.2476 12.2174 C 30.5727 12.6076 30.971 13.1197 31.4425 13.7537 C 31.914 14.3715 32.4017 15.0706 32.9057 15.8509 C 33.4096 16.615 33.9055 17.4116 34.3932 18.2407 C 34.8972 19.0698 35.328 19.8746 35.6857 20.6549 L 32.5887 20.6549 C 32.1985 19.9234 31.7758 19.1755 31.3206 18.4114 C 30.8654 17.6473 30.4021 16.9239 29.9306 16.2411 C 29.4754 15.5583 29.0202 14.9161 28.565 14.3146 C 28.1098 13.7131 27.6952 13.1847 27.3213 12.7295 C 27.0612 12.7458 26.8011 12.7539 26.5409 12.7539 C 26.2808 12.7539 26.0126 12.7539 25.7362 12.7539 L 23.2245 12.7539 L 23.2245 20.6549 L 20.3957 20.6549 L 20.3957 0.756 C 21.1923 0.5772 22.0783 0.4552 23.0538 0.3902 C 24.0292 0.3089 24.9233 0.2683 25.7362 0.2683 C 28.5812 0.2683 30.7435 0.8048 32.2229 1.8778 C 33.7023 2.9507 34.442 4.544 34.442 6.6574 C 34.442 7.9905 34.0843 9.1366 33.369 10.0958 C 32.67 11.0388 31.6295 11.746 30.2476 12.2174 Z M 25.98 2.7556 C 24.777 2.7556 23.8584 2.78 23.2244 2.8288 L 23.2244 10.4372 L 25.2241 10.4372 C 26.1995 10.4372 27.0693 10.3885 27.8334 10.2909 C 28.6137 10.1934 29.2721 10.0145 29.8086 9.7544 C 30.3451 9.478 30.7597 9.096 31.0523 8.6083 C 31.3449 8.1043 31.4913 7.4377 31.4913 6.6086 C 31.4913 5.8608 31.3449 5.2349 31.0523 4.7309 C 30.7597 4.2269 30.3614 3.8286 29.8574 3.536 C 29.3697 3.2433 28.7844 3.0401 28.1016 2.9263 C 27.4351 2.8125 26.7279 2.7556 25.98 2.7556 Z M 53.0113 20.6549 C 52.6699 19.777 52.3529 18.9154 52.0603 18.07 C 51.7676 17.2247 51.4669 16.3711 51.158 15.5095 L 42.0132 15.5095 L 40.1843 20.6549 L 37.258 20.6549 C 38.0221 18.5252 38.7455 16.55 39.4283 14.7291 C 40.1111 12.9083 40.7777 11.185 41.428 9.5593 C 42.0783 7.9336 42.7205 6.381 43.3545 4.9016 C 44.0048 3.4059 44.6795 1.9347 45.3785 0.4877 L 47.9634 0.4877 C 48.6625 1.9347 49.3291 3.4059 49.9631 4.9016 C 50.6134 6.381 51.2637 7.9336 51.914 9.5593 C 52.5643 11.1851 53.2227 12.9083 53.8892 14.7291 C 54.572 16.55 55.3036 18.5252 56.084 20.6549 Z M 50.3532 13.1684 C 49.7354 11.4777 49.1177 9.8438 48.4999 8.2669 C 47.8821 6.6899 47.2481 5.1698 46.5978 3.7067 C 45.915 5.1698 45.2647 6.6899 44.6469 8.2669 C 44.0454 9.8438 43.4439 11.4777 42.8423 13.1684 Z M 64.1709 0.2683 C 67.0159 0.2683 69.1944 0.8129 70.7063 1.9021 C 72.2345 2.9751 72.9986 4.5765 72.9986 6.7062 C 72.9986 7.8767 72.7872 8.8765 72.3645 9.7056 C 71.9581 10.5185 71.3566 11.185 70.56 11.7053 C 69.7796 12.2092 68.8286 12.5832 67.7068 12.827 C 66.5851 13.0546 65.3089 13.1684 63.8782 13.1684 L 61.6591 13.1684 L 61.6591 20.6549 L 58.8303 20.6549 L 58.8303 0.756 C 59.6269 0.5771 60.513 0.4552 61.4884 0.3902 C 62.4638 0.3089 63.358 0.2683 64.1709 0.2683 Z M 64.4147 2.7556 C 63.2117 2.7556 62.2931 2.78 61.6591 2.8288 L 61.6591 10.7542 L 63.7807 10.7542 C 64.7399 10.7542 65.6096 10.6973 66.39 10.5835 C 67.1703 10.4535 67.8288 10.2421 68.3652 9.9495 C 68.9017 9.6406 69.3082 9.2261 69.5845 8.7058 C 69.8772 8.1693 70.0235 7.4946 70.0235 6.6818 C 70.0235 5.9014 69.869 5.2593 69.5602 4.7553 C 69.2675 4.2513 68.8611 3.853 68.3409 3.5604 C 67.8369 3.2515 67.2435 3.0401 66.5607 2.9263 C 65.8779 2.8125 65.1626 2.7556 64.4147 2.7556 Z M 89.2141 0.4877 L 92.0428 0.4877 L 92.0428 20.6549 L 89.2141 20.6549 L 89.2141 11.3395 L 79.3621 11.3395 L 79.3621 20.6549 L 76.5334 20.6549 L 76.5334 0.4877 L 79.3621 0.4877 L 79.3621 8.9009 L 89.2141 8.9009 Z M 97.0608 0.4877 L 99.8895 0.4877 L 99.8895 20.6549 L 97.0608 20.6549 Z M 113.5502 21.0939 C 112.1358 21.0939 110.8434 20.8663 109.6728 20.4111 C 108.5186 19.9396 107.5187 19.2568 106.6734 18.3627 C 105.8443 17.4685 105.2021 16.3712 104.7469 15.0706 C 104.2917 13.7537 104.0641 12.2499 104.0641 10.5592 C 104.0641 8.8684 104.3242 7.3727 104.8444 6.0721 C 105.3647 4.7553 106.0556 3.6498 106.9172 2.7556 C 107.7951 1.8615 108.8112 1.1787 109.9655 0.7072 C 111.136 0.2358 112.3797 0 113.6965 0 C 114.5419 0 115.2979 0.0651 115.9644 0.1951 C 116.631 0.3089 117.2081 0.4471 117.6958 0.6097 C 118.1998 0.756 118.6063 0.9104 118.9151 1.073 C 119.224 1.2193 119.4354 1.3331 119.5492 1.4144 L 118.7444 3.7311 C 118.5656 3.6173 118.3136 3.4953 117.9885 3.3653 C 117.6633 3.219 117.2894 3.0808 116.8667 2.9507 C 116.444 2.8207 115.9807 2.715 115.4767 2.6337 C 114.989 2.5362 114.4932 2.4874 113.9892 2.4874 C 112.9325 2.4874 111.9733 2.6743 111.1116 3.0483 C 110.2663 3.4059 109.5428 3.9343 108.9413 4.6333 C 108.3398 5.3324 107.8764 6.1859 107.5513 7.1939 C 107.2261 8.1856 107.0636 9.3073 107.0636 10.5591 C 107.0636 11.7622 107.2018 12.8595 107.4781 13.8512 C 107.7708 14.8267 108.1935 15.6721 108.7462 16.3874 C 109.3152 17.1027 110.0224 17.6555 110.8678 18.0456 C 111.7132 18.4196 112.6967 18.6065 113.8185 18.6065 C 115.1191 18.6065 116.192 18.4764 117.0374 18.2163 C 117.8991 17.94 118.5494 17.6961 118.9883 17.4848 L 119.6955 19.8014 C 119.5654 19.899 119.3216 20.0209 118.9639 20.1672 C 118.6225 20.3135 118.1917 20.4598 117.6714 20.6062 C 117.1512 20.7362 116.5416 20.85 115.8425 20.9476 C 115.1434 21.0451 114.3793 21.0939 113.5502 21.0939 Z M 127.9191 18.6553 C 130.8617 18.6553 132.3329 17.6392 132.3329 15.607 C 132.3329 14.9893 132.2029 14.4609 131.9428 14.022 C 131.6827 13.583 131.325 13.2091 130.8698 12.9002 C 130.4308 12.575 129.9269 12.2987 129.3579 12.0711 C 128.7888 11.8272 128.1792 11.5915 127.5289 11.3639 C 126.7973 11.12 126.0983 10.8355 125.4317 10.5104 C 124.7814 10.1852 124.2124 9.8032 123.7247 9.3642 C 123.237 8.9253 122.8549 8.4051 122.5785 7.8035 C 122.3022 7.202 122.164 6.4786 122.164 5.6332 C 122.164 3.8611 122.7655 2.4793 123.9685 1.4876 C 125.1716 0.4959 126.8298 0 128.9433 0 C 130.1626 0 131.2681 0.1382 132.2598 0.4146 C 133.2677 0.6747 134.0074 0.9592 134.4789 1.2681 L 133.5766 3.5604 C 133.1539 3.3165 132.5362 3.0727 131.7233 2.8288 C 130.9267 2.5849 130 2.463 128.9433 2.463 C 128.3905 2.463 127.8784 2.5199 127.407 2.6337 C 126.9518 2.7475 126.5453 2.9263 126.1877 3.1702 C 125.8463 3.3978 125.5699 3.6904 125.3585 4.0481 C 125.1635 4.4057 125.0659 4.8284 125.0659 5.3162 C 125.0659 5.8526 125.1716 6.3078 125.3829 6.6818 C 125.5943 7.0557 125.895 7.3808 126.2852 7.6572 C 126.6754 7.9336 127.1225 8.1937 127.6264 8.4376 C 128.1467 8.6652 128.7157 8.8928 129.3335 9.1204 C 130.2114 9.478 131.0161 9.8357 131.7477 10.1933 C 132.4793 10.5347 133.1052 10.9493 133.6254 11.437 C 134.1619 11.9085 134.5764 12.4856 134.8691 13.1684 C 135.1617 13.835 135.308 14.6397 135.308 15.5826 C 135.308 17.3547 134.6577 18.7203 133.3572 19.6795 C 132.0728 20.6224 130.2601 21.0939 127.9191 21.0939 C 127.1225 21.0939 126.3909 21.037 125.7243 20.9232 C 125.0578 20.8256 124.4563 20.7037 123.9198 20.5574 C 123.3996 20.4111 122.9525 20.2566 122.5786 20.0941 C 122.2046 19.9315 121.9039 19.7852 121.6763 19.6551 L 122.5298 17.3384 C 122.9687 17.5823 123.6434 17.8668 124.5538 18.1919 C 125.4805 18.5008 126.6022 18.6553 127.9191 18.6553 Z " stroke-width="1" fill="#8ac7da" stroke="none"/></g></g></svg>