<svg xmlns="http://www.w3.org/2000/svg" xmlns:xlink="http://www.w3.org/1999/xlink" version="1.1" width="59.16452" height="21.01384" viewBox="0,0,59.16452,21.01384"><g><g data-paper-data="{&quot;isPaintingLayer&quot;:true}" fill-rule="nonzero" stroke-linecap="square" stroke-linejoin="miter" stroke-miterlimit="10" stroke-dasharray="" stroke-dashoffset="0" style="mix-blend-mode: normal"><path d="M 6.219 18.5844 C 9.1504 18.5844 10.6161 17.5721 10.6161 15.5477 C 10.6161 14.9323 10.4865 14.4059 10.2274 13.9686 C 9.9683 13.5314 9.612 13.1589 9.1585 12.8511 C 8.7212 12.5272 8.2191 12.2519 7.6523 12.0252 C 7.0855 11.7822 6.4781 11.5474 5.8303 11.3207 C 5.1015 11.0777 4.4051 10.7943 3.7411 10.4704 C 3.0932 10.1465 2.5264 9.7659 2.0405 9.3286 C 1.5547 8.8914 1.1741 8.3731 0.8988 7.7739 C 0.6234 7.1746 0.4858 6.4539 0.4858 5.6118 C 0.4858 3.8464 1.085 2.4698 2.2835 1.4819 C 3.482 0.494 5.1339 0 7.2393 0 C 8.454 0 9.5553 0.1377 10.5432 0.413 C 11.5474 0.6721 12.2843 0.9556 12.7539 1.2633 L 11.8551 3.5469 C 11.434 3.3039 10.8186 3.061 10.0088 2.8181 C 9.2152 2.5751 8.292 2.4537 7.2393 2.4537 C 6.6887 2.4537 6.1785 2.5104 5.7089 2.6237 C 5.2554 2.7371 4.8505 2.9152 4.4942 3.1582 C 4.1541 3.3849 3.8788 3.6764 3.6682 4.0327 C 3.4739 4.389 3.3767 4.8101 3.3767 5.296 C 3.3767 5.8304 3.482 6.2839 3.6925 6.6564 C 3.9031 7.0289 4.2027 7.3528 4.5914 7.6282 C 4.9801 7.9035 5.4255 8.1626 5.9275 8.4055 C 6.4458 8.6323 7.0126 8.859 7.6281 9.0858 C 8.5026 9.4421 9.3043 9.7984 10.0331 10.1547 C 10.7619 10.4948 11.3855 10.9078 11.9037 11.3936 C 12.4382 11.8633 12.8512 12.4383 13.1427 13.1185 C 13.4342 13.7825 13.58 14.5842 13.58 15.5235 C 13.58 17.2888 12.9321 18.6493 11.6365 19.6048 C 10.357 20.5442 8.5513 21.0138 6.2191 21.0138 C 5.4255 21.0138 4.6967 20.9571 4.0327 20.8438 C 3.3687 20.7466 2.7694 20.6252 2.235 20.4794 C 1.7167 20.3336 1.2713 20.1798 0.8988 20.0178 C 0.5264 19.8559 0.2267 19.7101 0 19.5805 L 0.8503 17.2727 C 1.2876 17.5156 1.9597 17.799 2.8666 18.123 C 3.7898 18.4307 4.9073 18.5845 6.2191 18.5845 Z M 31.8536 0.4858 C 31.2543 1.1336 30.5741 1.8624 29.8129 2.6722 C 29.0679 3.4658 28.2825 4.2837 27.4565 5.1258 C 26.6467 5.968 25.8288 6.794 25.0029 7.6038 C 24.1931 8.4135 23.4319 9.1666 22.7193 9.8631 C 23.5452 10.4461 24.4198 11.1668 25.343 12.0252 C 26.2823 12.8674 27.1974 13.7743 28.0881 14.746 C 28.9789 15.7178 29.813 16.7057 30.5904 17.7098 C 31.3839 18.714 32.0399 19.6695 32.5581 20.5765 L 29.2542 20.5765 C 28.6712 19.6695 27.9991 18.7545 27.2379 17.8313 C 26.4929 16.9082 25.6993 16.0336 24.8571 15.2076 C 24.0149 14.3655 23.1647 13.5881 22.3063 12.8755 C 21.448 12.1467 20.6139 11.5312 19.8041 11.0292 L 19.8041 20.5765 L 16.9861 20.5765 L 16.9861 0.4859 L 19.8041 0.4859 L 19.8041 9.353 C 20.4681 8.7213 21.205 8.0006 22.0148 7.1909 C 22.8408 6.3811 23.6425 5.5713 24.4199 4.7615 C 25.2135 3.9517 25.9665 3.1744 26.6792 2.4294 C 27.3918 1.6844 27.991 1.0365 28.4769 0.4859 Z M 35.231 0.4858 L 38.049 0.4858 L 38.049 20.5764 L 35.231 20.5764 Z M 56.808 20.5764 C 56.387 19.8638 55.9011 19.0621 55.3504 18.1714 C 54.7998 17.2806 54.2006 16.3575 53.5527 15.4019 C 52.9211 14.4464 52.2571 13.4747 51.5607 12.4867 C 50.8804 11.4988 50.2002 10.5514 49.52 9.6444 C 48.8398 8.7213 48.1839 7.8548 47.5523 7.045 C 46.9206 6.2191 46.3295 5.4984 45.7788 4.8829 L 45.7788 20.5765 L 43.0337 20.5765 L 43.0337 0.4858 L 45.2687 0.4858 C 46.1757 1.4414 47.1393 2.567 48.1596 3.8626 C 49.1961 5.1421 50.2246 6.462 51.2449 7.8225 C 52.2652 9.1829 53.2208 10.5271 54.1115 11.8552 C 55.0185 13.167 55.7797 14.3331 56.3951 15.3534 L 56.3951 0.4859 L 59.1645 0.4859 L 59.1645 20.5765 Z " stroke-width="1" fill="#8ac7da" stroke="none"/></g></g></svg>