<svg xmlns="http://www.w3.org/2000/svg" xmlns:xlink="http://www.w3.org/1999/xlink" version="1.1" width="179.0252" height="21.0072" viewBox="0,0,179.0252,21.0072"><g><g data-paper-data="{&quot;isPaintingLayer&quot;:true}" fill-rule="nonzero" stroke-linecap="butt" stroke-linejoin="miter" stroke-miterlimit="10" stroke-dasharray="" stroke-dashoffset="0" style="mix-blend-mode: normal"><g><g data-paper-data="{&quot;index&quot;:null}"><path d="M550.4874,362.73792c0,0 0,-8.59405 0,-11.0213c0,-1.43793 0.88798,-2.20396 2.27,-2.2065c2.05829,-0.0036 8.88074,-0.01372 8.88074,-0.01372v13.24152z" stroke-width="0" fill="#79a2bf" stroke="none" transform="matrix(1,0,0,1,-550.4874,-349.4964)"/><path d="M561.63814,357.26209v13.24151c0,0 -6.82245,-0.01001 -8.88074,-0.01371c-1.38202,-0.00252 -2.27,-0.76847 -2.27,-2.2065c0,-2.42725 0,-11.0213 0,-11.0213z" data-paper-data="{&quot;index&quot;:null}" stroke-width="0" fill="#79a2bf" stroke="none" transform="matrix(1,0,0,1,-550.4874,-349.4964)"/></g><g data-paper-data="{&quot;index&quot;:null}"><path d="M551.63961,362.384c0,0 0,-7.52684 0,-9.65278c0,-1.25939 0.77773,-1.9303 1.98814,-1.93243c1.80271,-0.00322 7.77802,-0.01211 7.77802,-0.01211v11.59733z" stroke-width="0" fill="#000000" stroke="none" transform="matrix(1,0,0,1,-550.4874,-349.4964)"/><path d="M561.40577,357.5881v11.59733c0,0 -5.97532,-0.00877 -7.77802,-0.01201c-1.21041,-0.00221 -1.98814,-0.67304 -1.98814,-1.93252c0,-2.12587 0,-9.65279 0,-9.65279z" data-paper-data="{&quot;index&quot;:null}" stroke-width="0" fill="#000000" stroke="none" transform="matrix(1,0,0,1,-550.4874,-349.4964)"/></g></g><g><path d="M718.3766,362.7293v-13.224c0,0 6.81343,0.0101 8.869,0.01369c1.38019,0.00252 2.267,0.76755 2.267,2.20358c0,2.42404 0,11.00673 0,11.00673z" stroke-width="0" fill="#79a2bf" stroke="none" transform="matrix(1,0,0,1,-550.4874,-349.4964)"/><path d="M729.5126,357.2607c0,0 0,8.58269 0,11.00673c0,1.43613 -0.88681,2.20105 -2.267,2.20358c-2.05557,0.00369 -8.869,0.0137 -8.869,0.0137v-13.22401z" data-paper-data="{&quot;index&quot;:null}" stroke-width="0" fill="#79a2bf" stroke="none" transform="matrix(1,0,0,1,-550.4874,-349.4964)"/></g><path d="M557.3902,370.48743v-20.98475h163.0403v20.98475z" fill="#79a2bf" stroke-width="0" stroke="none" transform="matrix(1,0,0,1,-550.4874,-349.4964)"/><path d="M556.16769,369.16793v-18.37918h164.05364v18.37918z" fill="#000000" stroke-width="0" stroke="none" transform="matrix(1,0,0,1,-550.4874,-349.4964)"/><g data-paper-data="{&quot;index&quot;:null}"><path d="M718.60866,362.37585v-11.58199c0,0 5.96742,0.00886 7.76774,0.01209c1.20881,0.00212 1.98551,0.67215 1.98551,1.92987c0,2.12313 0,9.64002 0,9.64002z" stroke-width="0" fill="#000000" stroke="none" transform="matrix(1,0,0,1,-550.4874,-349.4964)"/><path d="M728.36192,357.58629c0,0 0,7.51697 0,9.64002c0,1.25781 -0.7767,1.92775 -1.98551,1.92996c-1.80033,0.00324 -7.76774,0.012 -7.76774,0.012v-11.58199z" data-paper-data="{&quot;index&quot;:null}" stroke-width="0" fill="#000000" stroke="none" transform="matrix(1,0,0,1,-550.4874,-349.4964)"/></g><path d="M 164.0263 14.7169 L 158.0533 8.7439 C 157.6405 8.3311 157.6405 7.6635 158.0533 7.2551 L 159.0459 6.2625 C 159.4587 5.8496 160.1263 5.8496 160.5348 6.2625 L 164.7686 10.4963 L 169.0024 6.2625 C 169.4152 5.8496 170.0828 5.8496 170.4913 6.2625 L 171.4838 7.2551 C 171.8967 7.6679 171.8967 8.3355 171.4838 8.7439 L 165.5108 14.7169 C 165.1068 15.1298 164.4392 15.1298 164.0263 14.7169 Z " fill="#ffffff" stroke-width="1" stroke="none"/></g></g></svg>