<svg xmlns="http://www.w3.org/2000/svg" xmlns:xlink="http://www.w3.org/1999/xlink" version="1.1" width="146.67463" height="21.0158" viewBox="0,0,146.67463,21.0158"><g><g data-paper-data="{&quot;isPaintingLayer&quot;:true}" fill-rule="nonzero" stroke-linecap="square" stroke-linejoin="miter" stroke-miterlimit="10" stroke-dasharray="" stroke-dashoffset="0" style="mix-blend-mode: normal"><path d="M 13.1105 10.7025 L 15.9321 10.7025 L 15.9321 20.1158 C 15.6889 20.1807 15.3483 20.2618 14.9105 20.3591 C 14.4889 20.4564 13.9862 20.5537 13.4024 20.651 C 12.8349 20.7483 12.2106 20.8293 11.5295 20.8942 C 10.8484 20.9753 10.1592 21.0158 9.462 21.0158 C 8.0512 21.0158 6.762 20.7807 5.5945 20.3104 C 4.4431 19.8402 3.4459 19.1672 2.6026 18.2915 C 1.7756 17.3997 1.1351 16.3051 0.6811 15.0078 C 0.227 13.7105 0 12.2187 0 10.5322 C 0 8.8458 0.2595 7.3539 0.7784 6.0566 C 1.2973 4.7431 1.9864 3.6405 2.8459 2.7486 C 3.7216 1.8567 4.7432 1.1757 5.9107 0.7054 C 7.0783 0.2351 8.335 0 9.6809 0 C 10.589 0 11.3917 0.0649 12.089 0.1946 C 12.8025 0.3081 13.4106 0.4459 13.9133 0.6081 C 14.4159 0.754 14.8295 0.9081 15.1538 1.0703 C 15.4781 1.2162 15.697 1.3297 15.8105 1.4108 L 14.9105 3.7459 C 14.343 3.3891 13.597 3.0891 12.6727 2.8459 C 11.7484 2.6027 10.7998 2.481 9.8268 2.481 C 8.8052 2.481 7.8728 2.6675 7.0296 3.0405 C 6.1864 3.3972 5.4648 3.9243 4.8648 4.6215 C 4.281 5.3188 3.8188 6.1702 3.4783 7.1755 C 3.154 8.1647 2.9918 9.2836 2.9918 10.5322 C 2.9918 11.7322 3.1297 12.8268 3.4053 13.816 C 3.6972 14.7889 4.127 15.6321 4.6945 16.3456 C 5.2621 17.0591 5.9675 17.6105 6.8107 17.9997 C 7.6539 18.3726 8.6512 18.5591 9.8025 18.5591 C 10.6133 18.5591 11.3025 18.5186 11.87 18.4375 C 12.4376 18.3564 12.8511 18.2753 13.1106 18.1942 Z M 33.7948 20.6023 C 33.4543 19.7266 33.1381 18.8672 32.8462 18.024 C 32.5543 17.1808 32.2543 16.3294 31.9462 15.47 L 22.8247 15.47 L 21.0005 20.6023 L 18.0816 20.6023 C 18.8438 18.478 19.5654 16.5078 20.2464 14.6916 C 20.9275 12.8754 21.5923 11.1565 22.241 9.5349 C 22.8896 7.9133 23.5301 6.3647 24.1626 4.8891 C 24.8112 3.3972 25.4842 1.9297 26.1814 0.4864 L 28.7598 0.4864 C 29.457 1.9297 30.1219 3.3972 30.7543 4.8891 C 31.403 6.3647 32.0516 7.9133 32.7002 9.5349 C 33.3489 11.1565 34.0056 12.8754 34.6705 14.6916 C 35.3515 16.5078 36.0812 18.478 36.8596 20.6023 Z M 31.1435 13.1349 C 30.5273 11.4484 29.9111 9.8187 29.2949 8.2458 C 28.6787 6.6728 28.0463 5.1567 27.3976 3.6972 C 26.7166 5.1567 26.0679 6.6728 25.4517 8.2458 C 24.8517 9.8187 24.2518 11.4484 23.6518 13.1349 Z M 48.6232 17.8051 C 48.4286 17.351 48.1691 16.7672 47.8448 16.0537 C 47.5367 15.324 47.1962 14.5457 46.8232 13.7187 C 46.4502 12.8916 46.0529 12.0403 45.6313 11.1646 C 45.2259 10.2728 44.8367 9.4377 44.4638 8.6593 C 44.107 7.8647 43.7665 7.1593 43.4422 6.5431 C 43.1179 5.9269 42.8584 5.4566 42.6638 5.1323 C 42.453 7.4026 42.2746 9.8755 42.1287 12.5511 C 41.999 15.2105 41.8855 17.8942 41.7882 20.6023 L 39.0396 20.6023 C 39.1206 18.8672 39.2098 17.1159 39.3071 15.3484 C 39.4044 13.5646 39.5098 11.8214 39.6233 10.1187 C 39.7531 8.3998 39.8909 6.7296 40.0368 5.108 C 40.1828 3.4702 40.3449 1.9297 40.5233 0.4865 L 42.98 0.4865 C 43.5152 1.3297 44.0827 2.3351 44.6827 3.5026 C 45.2827 4.654 45.8827 5.8702 46.4827 7.1512 C 47.0827 8.4161 47.6583 9.6809 48.2097 10.9457 C 48.7772 12.2106 49.2961 13.37 49.7664 14.424 C 50.2204 13.37 50.7231 12.2106 51.2745 10.9457 C 51.842 9.6809 52.4258 8.4161 53.0258 7.1512 C 53.642 5.8702 54.2501 4.654 54.8501 3.5026 C 55.4501 2.3351 56.0095 1.3297 56.5284 0.4865 L 58.9851 0.4865 C 59.65 6.9728 60.1446 13.6781 60.4689 20.6023 L 57.7203 20.6023 C 57.623 17.8942 57.5014 15.2105 57.3554 12.5511 C 57.2257 9.8755 57.0554 7.4026 56.8446 5.1323 C 56.6501 5.4566 56.3906 5.9269 56.0663 6.5431 C 55.7582 7.1593 55.4177 7.8647 55.0447 8.6593 C 54.6717 9.4376 54.2744 10.2728 53.8528 11.1646 C 53.4474 12.0403 53.0582 12.8916 52.6853 13.7187 C 52.3123 14.5457 51.9637 15.324 51.6393 16.0537 C 51.3312 16.7672 51.0799 17.351 50.8853 17.8051 Z M 64.8952 20.6023 L 64.8952 0.4865 L 77.1788 0.4865 L 77.1788 2.8945 L 67.7168 2.8945 L 67.7168 8.8782 L 76.1328 8.8782 L 76.1328 11.2133 L 67.7168 11.2133 L 67.7168 18.1942 L 77.9085 18.1942 L 77.9085 20.6023 Z M 86.8055 0.2676 C 89.6433 0.2676 91.8162 0.8108 93.3243 1.8973 C 94.8486 2.9675 95.6107 4.5648 95.6107 6.6891 C 95.6107 7.8566 95.3999 8.8539 94.9783 9.6809 C 94.5729 10.4917 93.9729 11.1565 93.1784 11.6755 C 92.4 12.1781 91.4514 12.5511 90.3325 12.7944 C 89.2136 13.0214 87.9406 13.1349 86.5136 13.1349 L 84.3001 13.1349 L 84.3001 20.6023 L 81.4786 20.6023 L 81.4786 0.754 C 82.2732 0.5756 83.1569 0.454 84.1299 0.3892 C 85.1028 0.3081 85.9947 0.2675 86.8055 0.2675 Z M 87.0488 2.7486 C 85.8488 2.7486 84.9326 2.7729 84.3002 2.8216 L 84.3002 10.7268 L 86.4163 10.7268 C 87.3731 10.7268 88.2406 10.6701 89.019 10.5565 C 89.7974 10.4268 90.4541 10.216 90.9892 9.9241 C 91.5244 9.616 91.9298 9.2025 92.2054 8.6836 C 92.4973 8.1485 92.6432 7.4755 92.6432 6.6647 C 92.6432 5.8864 92.4892 5.2458 92.1811 4.7431 C 91.8892 4.2404 91.4838 3.8432 90.9649 3.5513 C 90.4622 3.2432 89.8703 3.0324 89.1893 2.9188 C 88.5082 2.8053 87.7947 2.7486 87.0488 2.7486 Z M 111.2498 18.1699 L 111.2498 20.6023 L 99.1365 20.6023 L 99.1365 0.4865 L 101.9581 0.4865 L 101.9581 18.1699 Z M 128.4745 20.6023 C 128.1339 19.7266 127.8177 18.8672 127.5258 18.024 C 127.2339 17.1808 126.9339 16.3294 126.6258 15.47 L 117.5044 15.47 L 115.6801 20.6023 L 112.7612 20.6023 C 113.5234 18.478 114.245 16.5078 114.9261 14.6916 C 115.6071 12.8754 116.272 11.1565 116.9206 9.5349 C 117.5693 7.9133 118.2098 6.3647 118.8422 4.8891 C 119.4908 3.3972 120.1638 1.9297 120.8611 0.4864 L 123.4394 0.4864 C 124.1367 1.9297 124.8015 3.3972 125.434 4.8891 C 126.0826 6.3647 126.7312 7.9133 127.3799 9.5349 C 128.0285 11.1565 128.6853 12.8754 129.3501 14.6916 C 130.0312 16.5078 130.7609 18.478 131.5393 20.6023 Z M 125.8232 13.1349 C 125.2069 11.4484 124.5907 9.8187 123.9745 8.2458 C 123.3583 6.6728 122.7259 5.1567 122.0773 3.6972 C 121.3962 5.1567 120.7476 6.6728 120.1314 8.2458 C 119.5314 9.8187 118.9314 11.4484 118.3314 13.1349 Z M 136.7748 20.6023 L 136.7748 12.5268 C 135.4289 10.4511 134.1641 8.4079 132.9803 6.3972 C 131.8128 4.3864 130.702 2.4162 129.6479 0.4865 L 132.956 0.4865 C 133.7019 2.0594 134.5289 3.6648 135.437 5.3026 C 136.3451 6.9404 137.2856 8.5133 138.2586 10.0214 C 139.1991 8.5133 140.1234 6.9404 141.0315 5.3026 C 141.9396 3.6648 142.7747 2.0594 143.5369 0.4865 L 146.6746 0.4865 C 145.6206 2.4162 144.5017 4.3864 143.318 6.3972 C 142.1504 8.3917 140.9099 10.4187 139.5964 12.4781 L 139.5964 20.6023 Z " stroke-width="1" fill="#8ac7da" stroke="none"/></g></g></svg>