<svg xmlns="http://www.w3.org/2000/svg" xmlns:xlink="http://www.w3.org/1999/xlink" version="1.1" width="101.51703" height="21.02145" viewBox="0,0,101.51703,21.02145"><g><g data-paper-data="{&quot;isPaintingLayer&quot;:true}" fill-rule="nonzero" stroke-linecap="square" stroke-linejoin="miter" stroke-miterlimit="10" stroke-dasharray="" stroke-dashoffset="0" style="mix-blend-mode: normal"><path d="M 0 10.5229 C 0 8.7893 0.2592 7.2663 0.7777 5.954 C 1.2961 4.6417 1.9928 3.5481 2.8677 2.6732 C 3.7425 1.7821 4.7632 1.1179 5.9297 0.6805 C 7.1124 0.2268 8.36 0 9.6723 0 C 10.9684 0 12.1916 0.2268 13.3419 0.6805 C 14.4922 1.1179 15.4967 1.7822 16.3554 2.6732 C 17.2303 3.5481 17.927 4.6417 18.4454 5.954 C 18.9638 7.2664 19.2231 8.7893 19.2231 10.5229 C 19.2231 12.2402 18.9638 13.7551 18.4454 15.0674 C 17.927 16.3797 17.2303 17.4814 16.3554 18.3725 C 15.4967 19.2474 14.4922 19.9116 13.3419 20.3653 C 12.1916 20.8027 10.9684 21.0214 9.6723 21.0214 C 8.36 21.0214 7.1125 20.8027 5.9298 20.3653 C 4.7632 19.9116 3.7426 19.2474 2.8677 18.3725 C 1.9928 17.4814 1.2961 16.3797 0.7777 15.0674 C 0.2592 13.7551 0 12.2403 0 10.5229 Z M 2.9649 10.5229 C 2.9649 11.738 3.1188 12.8478 3.4266 13.8523 C 3.7344 14.8406 4.1719 15.683 4.7389 16.3797 C 5.3222 17.0764 6.0189 17.611 6.8289 17.9836 C 7.6552 18.3563 8.5787 18.5426 9.5994 18.5426 C 10.6363 18.5426 11.5598 18.3563 12.3698 17.9837 C 13.1799 17.611 13.8685 17.0764 14.4355 16.3797 C 15.0026 15.683 15.44 14.8406 15.7479 13.8523 C 16.0719 12.8478 16.2339 11.738 16.2339 10.5229 C 16.2339 9.2916 16.0719 8.1818 15.7479 7.1935 C 15.44 6.189 15.0026 5.3465 14.4355 4.666 C 13.8685 3.9694 13.1799 3.4347 12.3699 3.0621 C 11.5598 2.6733 10.6363 2.4788 9.5994 2.4788 C 8.5787 2.4788 7.6552 2.6733 6.8289 3.0621 C 6.0189 3.4347 5.3222 3.9694 4.739 4.666 C 4.1719 5.3465 3.7345 6.189 3.4266 7.1935 C 3.1188 8.1818 2.9649 9.2916 2.9649 10.5229 Z M 37.1808 20.584 C 36.7596 19.8711 36.2735 19.0691 35.7227 18.1781 C 35.1718 17.287 34.5724 16.3635 33.9243 15.4076 C 33.2925 14.4517 32.6282 13.4796 31.9315 12.4913 C 31.2511 11.503 30.5706 10.5553 29.8901 9.648 C 29.2097 8.7245 28.5535 7.8577 27.9217 7.0477 C 27.2898 6.2214 26.6984 5.5004 26.1476 4.8848 L 26.1476 20.584 L 23.4015 20.584 L 23.4015 0.4861 L 25.6373 0.4861 C 26.5446 1.442 27.5086 2.568 28.5292 3.8641 C 29.5661 5.144 30.5949 6.4644 31.6156 7.8254 C 32.6363 9.1863 33.5922 10.531 34.4833 11.8595 C 35.3906 13.1719 36.1521 14.3384 36.7677 15.3591 L 36.7677 0.4861 L 39.5382 0.4861 L 39.5382 20.5841 Z M 56.6282 18.1538 L 56.6282 20.584 L 44.5257 20.584 L 44.5257 0.486 L 47.3447 0.486 L 47.3447 18.1538 Z M 59.5855 0.486 L 62.4045 0.486 L 62.4045 20.584 L 59.5855 20.584 Z M 81.1704 20.584 C 80.7492 19.8711 80.2631 19.0691 79.7123 18.1781 C 79.1614 17.287 78.562 16.3635 77.9139 15.4076 C 77.2821 14.4517 76.6178 13.4796 75.9212 12.4913 C 75.2407 11.503 74.5602 10.5553 73.8798 9.648 C 73.1993 8.7245 72.5431 7.8577 71.9113 7.0477 C 71.2794 6.2214 70.6881 5.5004 70.1372 4.8848 L 70.1372 20.584 L 67.3911 20.584 L 67.3911 0.4861 L 69.6269 0.4861 C 70.5342 1.442 71.4982 2.568 72.5189 3.8641 C 73.5558 5.144 74.5846 6.4644 75.6053 7.8254 C 76.6259 9.1863 77.5818 10.531 78.4729 11.8595 C 79.3802 13.1719 80.1417 14.3384 80.7573 15.3591 L 80.7573 0.4861 L 83.5278 0.4861 L 83.5278 20.5841 Z M 88.5153 20.584 L 88.5153 0.486 L 100.7879 0.486 L 100.7879 2.892 L 91.3344 2.892 L 91.3344 8.8703 L 99.7429 8.8703 L 99.7429 11.2033 L 91.3344 11.2033 L 91.3344 18.1781 L 101.517 18.1781 L 101.517 20.584 Z " stroke-width="1" fill="#8ac7da" stroke="none"/></g></g></svg>