<svg xmlns="http://www.w3.org/2000/svg" xmlns:xlink="http://www.w3.org/1999/xlink" version="1.1" width="238.02181" height="113.38556" viewBox="0,0,238.02181,113.38556"><g><g data-paper-data="{&quot;isPaintingLayer&quot;:true}" fill-rule="nonzero" stroke-linejoin="miter" stroke-miterlimit="10" stroke-dasharray="" stroke-dashoffset="0" style="mix-blend-mode: normal"><path d="M 75.3561 9.9429 C 75.3561 8.4176 75.5842 7.0776 76.0404 5.923 C 76.4965 4.7683 77.1095 3.8061 77.8793 3.0363 C 78.649 2.2523 79.5471 1.6678 80.5735 1.283 C 81.6141 0.8838 82.7117 0.6843 83.8664 0.6843 C 85.0068 0.6843 86.083 0.8838 87.0952 1.283 C 88.1073 1.6678 88.9911 2.2523 89.7466 3.0363 C 90.5164 3.8061 91.1293 4.7683 91.5855 5.923 C 92.0416 7.0776 92.2697 8.4176 92.2697 9.9429 C 92.2697 11.4539 92.0417 12.7868 91.5855 13.9415 C 91.1293 15.0961 90.5164 16.0654 89.7466 16.8495 C 88.9911 17.6193 88.1073 18.2037 87.0952 18.6029 C 86.0831 18.9877 85.0068 19.1802 83.8664 19.1802 C 82.7117 19.1802 81.6141 18.9878 80.5735 18.6029 C 79.5471 18.2037 78.649 17.6193 77.8793 16.8495 C 77.1095 16.0655 76.4965 15.0961 76.0404 13.9415 C 75.5842 12.7868 75.3561 11.454 75.3561 9.9429 Z M 77.9648 9.9429 C 77.9648 11.012 78.1002 11.9885 78.371 12.8723 C 78.6419 13.7419 79.0268 14.4831 79.5257 15.0961 C 80.0389 15.7091 80.6519 16.1795 81.3646 16.5074 C 82.0916 16.8352 82.9042 16.9992 83.8022 16.9992 C 84.7145 16.9992 85.5271 16.8352 86.2398 16.5074 C 86.9526 16.1795 87.5584 15.7091 88.0573 15.0961 C 88.5563 14.4832 88.9412 13.7419 89.212 12.8723 C 89.4971 11.9885 89.6397 11.0121 89.6397 9.9429 C 89.6397 8.8595 89.4971 7.8831 89.212 7.0135 C 88.9412 6.1297 88.5563 5.3884 88.0573 4.7897 C 87.5584 4.1768 86.9526 3.7063 86.2398 3.3785 C 85.5271 3.0364 84.7146 2.8653 83.8022 2.8653 C 82.9042 2.8653 82.0916 3.0364 81.3646 3.3785 C 80.6519 3.7063 80.0389 4.1768 79.5257 4.7897 C 79.0268 5.3884 78.6419 6.1297 78.3711 7.0135 C 78.1002 7.8831 77.9648 8.8596 77.9648 9.9429 Z M 105.0123 12.1881 C 105.0123 10.6343 104.6274 9.444 103.8576 8.6172 C 103.0878 7.7761 102.0686 7.3556 100.7999 7.3556 C 100.0729 7.3556 99.5098 7.3841 99.1107 7.4411 C 98.7116 7.4839 98.398 7.5409 98.1699 7.6122 L 98.1699 15.9942 C 98.455 16.2223 98.8684 16.4503 99.4101 16.6784 C 99.9518 16.8922 100.5505 16.9992 101.2062 16.9992 C 101.8762 16.9992 102.4535 16.878 102.9382 16.6357 C 103.4229 16.3933 103.8149 16.0584 104.1142 15.6307 C 104.4278 15.1888 104.6559 14.6756 104.7985 14.0912 C 104.941 13.5067 105.0123 12.8724 105.0123 12.1881 Z M 107.4713 12.1881 C 107.4713 13.1859 107.3358 14.1125 107.065 14.9678 C 106.8084 15.8231 106.4235 16.5572 105.9103 17.1702 C 105.4114 17.7832 104.7913 18.2607 104.0501 18.6028 C 103.3088 18.9307 102.4606 19.0947 101.5055 19.0947 C 100.7358 19.0947 100.0587 18.9949 99.4742 18.7953 C 98.8898 18.5957 98.455 18.4033 98.1699 18.218 L 98.1699 23.5209 L 95.7964 23.5209 L 95.7964 5.923 C 96.3524 5.7947 97.0509 5.6522 97.8919 5.4954 C 98.733 5.3243 99.7094 5.2388 100.8213 5.2388 C 101.8334 5.2388 102.7458 5.4027 103.5583 5.7306 C 104.3851 6.0442 105.0836 6.5003 105.6538 7.0991 C 106.2382 7.6978 106.6873 8.4319 107.0009 9.3015 C 107.3145 10.1568 107.4713 11.119 107.4713 12.1881 Z M 113.0365 5.5167 L 118.0828 5.5167 L 118.0828 7.5053 L 113.0365 7.5053 L 113.0365 13.6421 C 113.0365 14.2978 113.0864 14.8466 113.1861 15.2886 C 113.3002 15.7162 113.457 16.0583 113.6566 16.3149 C 113.8561 16.5573 114.1056 16.7283 114.405 16.8281 C 114.7186 16.9279 115.0821 16.9778 115.4955 16.9778 C 116.2082 16.9778 116.7784 16.8994 117.2061 16.7426 C 117.648 16.5858 117.9545 16.4717 118.1255 16.4005 L 118.5746 18.3677 C 118.3465 18.4817 117.9331 18.6243 117.3344 18.7953 C 116.7357 18.9806 116.0514 19.0733 115.2817 19.0733 C 114.3836 19.0733 113.6423 18.9593 113.0579 18.7312 C 112.4734 18.5031 112.003 18.161 111.6466 17.7048 C 111.2902 17.2344 111.0337 16.6642 110.8769 15.9942 C 110.7343 15.3242 110.663 14.5473 110.663 13.6635 L 110.663 1.8176 L 113.0365 1.4113 Z M 123.4709 18.7953 L 121.0974 18.7953 L 121.0974 5.5167 L 123.4709 5.5167 Z M 122.2521 3.1219 C 121.8387 3.1219 121.4823 2.9793 121.183 2.6942 C 120.8836 2.4091 120.7339 2.0314 120.7339 1.5609 C 120.7339 1.0905 120.8836 0.7128 121.183 0.4277 C 121.4823 0.1426 121.8387 0 122.2521 0 C 122.6797 0 123.0432 0.1426 123.3426 0.4277 C 123.6419 0.7128 123.7916 1.0905 123.7916 1.5609 C 123.7916 2.0314 123.642 2.4091 123.3426 2.6942 C 123.0433 2.9793 122.6798 3.1219 122.2521 3.1219 Z M 139.2744 12.1667 C 139.2744 13.2216 139.1176 14.1766 138.804 15.0319 C 138.5046 15.873 138.0769 16.6 137.521 17.213 C 136.965 17.8259 136.3022 18.3035 135.5324 18.6456 C 134.7769 18.9735 133.943 19.1374 133.0307 19.1374 C 132.1326 19.1374 131.2987 18.9735 130.5289 18.6456 C 129.7591 18.3035 129.0963 17.826 128.5403 17.213 C 127.9987 16.6 127.571 15.873 127.2574 15.032 C 126.958 14.1767 126.8083 13.2216 126.8083 12.1667 C 126.8083 11.1261 126.958 10.1781 127.2574 9.3228 C 127.571 8.4533 127.9987 7.712 128.5403 7.0991 C 129.0963 6.4861 129.7591 6.0157 130.5289 5.6878 C 131.2987 5.3599 132.1326 5.196 133.0307 5.196 C 133.943 5.196 134.7769 5.3599 135.5325 5.6878 C 136.3022 6.0157 136.9651 6.4861 137.5211 7.0991 C 138.077 7.712 138.5047 8.4533 138.804 9.3229 C 139.1176 10.1782 139.2744 11.1261 139.2744 12.1667 Z M 136.794 12.1667 C 136.794 10.6557 136.4519 9.4654 135.7676 8.5958 C 135.0976 7.7262 134.1853 7.2915 133.0307 7.2915 C 131.876 7.2915 130.9637 7.7262 130.2937 8.5958 C 129.6237 9.4654 129.2887 10.6557 129.2887 12.1667 C 129.2887 13.6635 129.6237 14.8538 130.2937 15.7376 C 130.9637 16.6072 131.876 17.0419 133.0307 17.0419 C 134.1853 17.0419 135.0977 16.6072 135.7676 15.7376 C 136.4519 14.8538 136.794 13.6635 136.794 12.1667 Z M 142.6199 5.9016 C 143.1616 5.759 143.8815 5.6165 144.7795 5.4739 C 145.6776 5.3171 146.7182 5.2387 147.9014 5.2387 C 148.9563 5.2387 149.8329 5.3884 150.5315 5.6878 C 151.23 5.9871 151.7859 6.4077 152.1993 6.9494 C 152.6127 7.4768 152.9049 8.1183 153.076 8.8738 C 153.2471 9.615 153.3326 10.4347 153.3326 11.3328 L 153.3326 18.7953 L 150.9591 18.7953 L 150.9591 11.846 C 150.9591 11.0334 150.9021 10.3421 150.7881 9.7719 C 150.674 9.1874 150.4887 8.717 150.2321 8.3606 C 149.9898 8.0043 149.6548 7.7477 149.2271 7.5909 C 148.7995 7.4198 148.272 7.3343 147.6448 7.3343 C 147.3882 7.3343 147.1245 7.3414 146.8537 7.3557 C 146.5828 7.3699 146.3191 7.3913 146.0625 7.4198 C 145.8202 7.4483 145.5992 7.484 145.3997 7.5267 C 145.2144 7.5552 145.0789 7.5766 144.9934 7.5909 L 144.9934 18.7953 L 142.62 18.7953 Z M 160.3537 17.0847 C 161.323 17.0847 162.0429 16.9564 162.5133 16.6998 C 162.9837 16.4432 163.219 16.0369 163.219 15.481 C 163.219 14.8966 162.9837 14.4333 162.5133 14.0911 C 162.0572 13.749 161.3017 13.3713 160.2468 12.9579 C 159.7336 12.7441 159.2418 12.5302 158.7714 12.3164 C 158.3152 12.1026 157.9161 11.8531 157.574 11.568 C 157.2318 11.2829 156.9539 10.9337 156.7401 10.5203 C 156.5405 10.1069 156.4407 9.6079 156.4407 9.0235 C 156.4407 7.8403 156.8755 6.9066 157.745 6.2224 C 158.6146 5.5381 159.7978 5.196 161.2946 5.196 C 161.6652 5.196 162.0358 5.2174 162.4065 5.2602 C 162.7913 5.3029 163.1406 5.3528 163.4542 5.4099 C 163.7821 5.4669 164.0672 5.531 164.3095 5.6023 C 164.5661 5.6593 164.7657 5.7164 164.9082 5.7734 L 164.4592 7.8261 C 164.2026 7.6835 163.8035 7.541 163.2618 7.3984 C 162.7201 7.2559 162.0643 7.1846 161.2946 7.1846 C 160.6388 7.1846 160.0615 7.32 159.5626 7.5909 C 159.0637 7.8475 158.8142 8.2538 158.8142 8.8097 C 158.8142 9.0948 158.8712 9.3514 158.9853 9.5795 C 159.0993 9.7933 159.2703 9.9929 159.4984 10.1782 C 159.7265 10.3635 160.0116 10.5346 160.3537 10.6914 C 160.6959 10.8339 161.1021 10.9907 161.5726 11.1618 C 162.1998 11.4041 162.7628 11.6393 163.2618 11.8674 C 163.7607 12.0955 164.1812 12.3663 164.5234 12.68 C 164.8797 12.9793 165.1506 13.3499 165.3359 13.7919 C 165.5212 14.2195 165.6139 14.7469 165.6139 15.3742 C 165.6139 16.6001 165.1577 17.5267 164.2454 18.1539 C 163.3331 18.7811 162.0359 19.0947 160.3538 19.0947 C 159.1848 19.0947 158.2654 18.9949 157.5954 18.7954 C 156.9254 18.6101 156.4764 18.4675 156.2483 18.3677 L 156.676 16.315 C 156.9468 16.4148 157.3816 16.5716 157.9803 16.7854 C 158.579 16.985 159.3702 17.0848 160.3538 17.0848 Z " fill="#ffffff" stroke="none" stroke-width="1" stroke-linecap="square"/><path d="M 5.8885 41.7412 C 5.0105 41.7412 4.2082 41.6 3.4816 41.3174 C 2.7651 41.0247 2.1445 40.6009 1.6197 40.0458 C 1.105 39.4908 0.7064 38.8096 0.4239 38.0023 C 0.1413 37.1849 0 36.2514 0 35.2019 C 0 34.1523 0.1615 33.2239 0.4844 32.4166 C 0.8073 31.5992 1.2362 30.9129 1.7711 30.3579 C 2.316 29.8029 2.9468 29.379 3.6633 29.0864 C 4.3899 28.7937 5.1619 28.6474 5.9793 28.6474 C 6.5041 28.6474 6.9733 28.6877 7.3871 28.7685 C 7.8008 28.8391 8.1591 28.9249 8.4618 29.0258 C 8.7747 29.1166 9.027 29.2125 9.2187 29.3134 C 9.4105 29.4043 9.5416 29.4749 9.6123 29.5254 L 9.1128 30.9634 C 9.0017 30.8928 8.8453 30.8171 8.6435 30.7364 C 8.4417 30.6455 8.2096 30.5598 7.9472 30.479 C 7.6848 30.3983 7.3972 30.3327 7.0843 30.2822 C 6.7816 30.2217 6.4738 30.1914 6.161 30.1914 C 5.505 30.1914 4.9096 30.3075 4.3748 30.5396 C 3.85 30.7616 3.4009 31.0896 3.0275 31.5235 C 2.6541 31.9575 2.3665 32.4873 2.1647 33.113 C 1.9629 33.7285 1.862 34.4249 1.862 35.2019 C 1.862 35.9487 1.9477 36.6299 2.1193 37.2455 C 2.3009 37.851 2.5633 38.3757 2.9064 38.8198 C 3.2597 39.2638 3.6986 39.6069 4.2234 39.8491 C 4.7482 40.0812 5.3587 40.1973 6.055 40.1973 C 6.8624 40.1973 7.5284 40.1165 8.0532 39.9551 C 8.588 39.7835 8.9917 39.6322 9.2642 39.501 L 9.7032 40.939 C 9.6224 40.9996 9.4711 41.0753 9.249 41.1661 C 9.0371 41.2569 8.7697 41.3477 8.4468 41.4386 C 8.1238 41.5193 7.7454 41.5899 7.3115 41.6505 C 6.8775 41.711 6.4032 41.7413 5.8885 41.7413 Z M 11.6146 41.4688 L 11.6146 27.7391 L 13.2949 27.4364 L 13.2949 32.2501 C 13.6078 32.129 13.9408 32.0381 14.294 31.9776 C 14.6472 31.9069 15.0004 31.8716 15.3536 31.8716 C 16.1004 31.8716 16.721 31.9776 17.2155 32.1895 C 17.71 32.4014 18.1036 32.6991 18.3962 33.0826 C 18.6889 33.456 18.8958 33.9101 19.0169 34.445 C 19.138 34.9698 19.1985 35.55 19.1985 36.1858 L 19.1985 41.4688 L 17.5183 41.4688 L 17.5183 36.5491 C 17.5183 35.9739 17.4779 35.4845 17.3972 35.0808 C 17.3164 34.667 17.1852 34.334 17.0036 34.0817 C 16.832 33.8294 16.5949 33.6478 16.2921 33.5368 C 15.9894 33.4157 15.616 33.3551 15.172 33.3551 C 14.9903 33.3551 14.8036 33.3703 14.6119 33.4005 C 14.4201 33.4207 14.2334 33.446 14.0518 33.4762 C 13.8802 33.5065 13.7238 33.5418 13.5825 33.5822 C 13.4514 33.6125 13.3555 33.6377 13.2949 33.6579 L 13.2949 41.4688 Z M 25.1138 40.2578 C 25.5074 40.2578 25.8555 40.2477 26.1583 40.2275 C 26.4711 40.2073 26.7285 40.177 26.9303 40.1367 L 26.9303 37.3362 C 26.8092 37.2757 26.6124 37.2252 26.34 37.1849 C 26.0776 37.1344 25.7496 37.1092 25.356 37.1092 C 25.1037 37.1092 24.8363 37.1294 24.5537 37.1697 C 24.2712 37.2 24.0138 37.2757 23.7817 37.3968 C 23.5496 37.5078 23.3528 37.6642 23.1914 37.8661 C 23.04 38.0578 22.9643 38.3202 22.9643 38.6532 C 22.9643 39.2486 23.1561 39.6674 23.5395 39.9096 C 23.923 40.1417 24.4478 40.2578 25.1138 40.2578 Z M 24.9624 31.8413 C 25.6386 31.8413 26.2087 31.9271 26.673 32.0987 C 27.1372 32.2702 27.5105 32.5175 27.7931 32.8404 C 28.0757 33.1633 28.2775 33.5468 28.3986 33.9909 C 28.5197 34.4248 28.5803 34.9042 28.5803 35.4289 L 28.5803 41.3022 C 28.439 41.3325 28.2372 41.3678 27.9748 41.4082 C 27.7124 41.4486 27.4197 41.4839 27.0968 41.5142 C 26.7739 41.5545 26.4207 41.5899 26.0372 41.6201 C 25.6638 41.6504 25.2904 41.6655 24.917 41.6655 C 24.3822 41.6655 23.8927 41.61 23.4487 41.499 C 23.0046 41.3981 22.6161 41.2316 22.2831 40.9995 C 21.9602 40.7573 21.7079 40.4445 21.5262 40.061 C 21.3446 39.6775 21.2538 39.2133 21.2538 38.6683 C 21.2538 38.1537 21.3597 37.7096 21.5716 37.3362 C 21.7836 36.9628 22.0712 36.6601 22.4345 36.428 C 22.7978 36.1959 23.2166 36.0294 23.6909 35.9285 C 24.1753 35.8175 24.6849 35.762 25.2198 35.762 C 25.3913 35.762 25.5629 35.7721 25.7345 35.7922 C 25.9161 35.8023 26.0877 35.8225 26.2491 35.8528 C 26.4207 35.8831 26.562 35.9133 26.673 35.9436 C 26.7941 35.9638 26.8799 35.9789 26.9303 35.989 L 26.9303 35.5198 C 26.9303 35.2473 26.9001 34.9748 26.8395 34.7023 C 26.779 34.4299 26.668 34.1877 26.5065 33.9757 C 26.3551 33.7638 26.1432 33.5973 25.8707 33.4762 C 25.6083 33.345 25.2602 33.2794 24.8262 33.2794 C 24.2712 33.2794 23.7818 33.3198 23.3579 33.4005 C 22.9442 33.4813 22.6364 33.562 22.4345 33.6427 L 22.2378 32.2501 C 22.4497 32.1593 22.8079 32.0684 23.3125 31.9776 C 23.8272 31.8868 24.3772 31.8414 24.9625 31.8414 Z M 31.3696 32.3409 C 31.7531 32.24 32.2627 32.139 32.8985 32.0381 C 33.5343 31.9271 34.271 31.8716 35.1086 31.8716 C 35.8554 31.8716 36.476 31.9776 36.9705 32.1895 C 37.465 32.4014 37.8586 32.6991 38.1512 33.0826 C 38.4439 33.456 38.6508 33.9101 38.7718 34.445 C 38.8929 34.9698 38.9535 35.55 38.9535 36.1858 L 38.9535 41.4688 L 37.2732 41.4688 L 37.2732 36.5491 C 37.2732 35.9739 37.2329 35.4844 37.1522 35.0808 C 37.0714 34.667 36.9402 34.334 36.7586 34.0817 C 36.587 33.8294 36.3499 33.6478 36.0471 33.5368 C 35.7444 33.4157 35.371 33.3551 34.927 33.3551 C 34.7453 33.3551 34.5586 33.3602 34.3669 33.3702 C 34.1751 33.3804 33.9884 33.3955 33.8068 33.4157 C 33.6352 33.4358 33.4788 33.4611 33.3375 33.4914 C 33.2063 33.5115 33.1105 33.5267 33.0499 33.5368 L 33.0499 41.4688 L 31.3697 41.4688 Z M 47.6326 40.5302 C 47.4812 40.621 47.1987 40.7422 46.7849 40.8935 C 46.3712 41.0449 45.8868 41.1206 45.3317 41.1206 C 44.7666 41.1206 44.2318 41.0298 43.7272 40.8481 C 43.2327 40.6665 42.7987 40.3889 42.4254 40.0156 C 42.052 39.6321 41.7543 39.1578 41.5322 38.5926 C 41.3203 38.0275 41.2144 37.3514 41.2144 36.5642 C 41.2144 35.878 41.3153 35.2523 41.5171 34.6872 C 41.7189 34.112 42.0167 33.6175 42.4102 33.2037 C 42.8038 32.79 43.2832 32.467 43.8483 32.2349 C 44.4134 31.9927 45.0542 31.8716 45.7707 31.8716 C 46.5478 31.8716 47.229 31.9322 47.8143 32.0533 C 48.3996 32.1643 48.8941 32.2652 49.2978 32.356 L 49.2978 40.7422 C 49.2978 42.1954 48.9244 43.2449 48.1776 43.8908 C 47.4308 44.5366 46.2955 44.8596 44.7717 44.8596 C 44.1864 44.8596 43.6313 44.8091 43.1066 44.7082 C 42.5818 44.6174 42.1277 44.5064 41.7442 44.3752 L 42.0469 42.922 C 42.38 43.0532 42.7887 43.1692 43.2731 43.2701 C 43.7676 43.371 44.2822 43.4215 44.8171 43.4215 C 45.8162 43.4215 46.5327 43.2197 46.9666 42.816 C 47.4106 42.4224 47.6326 41.7917 47.6326 40.9238 Z M 47.6175 33.5519 C 47.4459 33.5014 47.2189 33.456 46.9363 33.4156 C 46.6537 33.3753 46.2703 33.3551 45.7859 33.3551 C 44.8776 33.3551 44.1813 33.6528 43.6969 34.2482 C 43.2125 34.8335 42.9703 35.6156 42.9703 36.5945 C 42.9703 37.1293 43.0359 37.5936 43.1671 37.9871 C 43.3084 38.3706 43.4951 38.6885 43.7272 38.9408 C 43.9694 39.1931 44.2419 39.3798 44.5446 39.5009 C 44.8575 39.622 45.1753 39.6825 45.4983 39.6825 C 45.9423 39.6825 46.351 39.622 46.7244 39.5009 C 47.0978 39.3697 47.3955 39.2183 47.6175 39.0468 Z M 51.6612 36.7913 C 51.6612 35.9537 51.7823 35.2271 52.0245 34.6115 C 52.2667 33.9858 52.5846 33.4711 52.9781 33.0675 C 53.3717 32.6537 53.8258 32.3459 54.3405 32.1441 C 54.8653 31.9423 55.4001 31.8414 55.9451 31.8414 C 57.2065 31.8414 58.1753 32.2349 58.8515 33.0221 C 59.5276 33.8092 59.8657 35.0101 59.8657 36.6248 C 59.8657 36.6954 59.8657 36.7913 59.8657 36.9124 C 59.8657 37.0234 59.8606 37.1243 59.8505 37.2151 L 53.4171 37.2151 C 53.4878 38.194 53.7703 38.9358 54.2648 39.4404 C 54.7593 39.9449 55.5313 40.1972 56.5809 40.1972 C 57.1662 40.1972 57.6607 40.1468 58.0643 40.0458 C 58.468 39.9449 58.7707 39.8491 58.9726 39.7582 L 59.2148 41.166 C 59.0129 41.267 58.6547 41.378 58.14 41.4991 C 57.6253 41.6202 57.0451 41.6807 56.3992 41.6807 C 55.5818 41.6807 54.8703 41.5596 54.2648 41.3174 C 53.6694 41.0651 53.18 40.722 52.7965 40.2881 C 52.413 39.8541 52.1254 39.3394 51.9337 38.744 C 51.752 38.1486 51.6612 37.4977 51.6612 36.7913 Z M 58.1097 35.8679 C 58.1198 35.111 57.9281 34.4904 57.5345 34.006 C 57.151 33.5115 56.6162 33.2643 55.9299 33.2643 C 55.5364 33.2643 55.1932 33.34 54.9006 33.4913 C 54.6079 33.6427 54.3556 33.8395 54.1437 34.0817 C 53.9419 34.3239 53.7855 34.6014 53.6744 34.9143 C 53.5634 35.2271 53.4877 35.545 53.4474 35.8679 Z M 68.0287 32.0684 L 71.6011 32.0684 L 71.6011 33.4762 L 68.0287 33.4762 L 68.0287 37.8206 C 68.0287 38.2849 68.064 38.6734 68.1346 38.9862 C 68.2154 39.289 68.3264 39.5312 68.4676 39.7128 C 68.6089 39.8844 68.7855 40.0055 68.9975 40.0761 C 69.2195 40.1468 69.4768 40.1821 69.7695 40.1821 C 70.2741 40.1821 70.6777 40.1266 70.9805 40.0156 C 71.2933 39.9046 71.5103 39.8238 71.6314 39.7734 L 71.9493 41.166 C 71.7878 41.2467 71.4951 41.3477 71.0713 41.4688 C 70.6474 41.6 70.163 41.6656 69.6181 41.6656 C 68.9823 41.6656 68.4576 41.5848 68.0438 41.4234 C 67.6301 41.2619 67.297 41.0197 67.0447 40.6968 C 66.7924 40.3637 66.6108 39.9601 66.4998 39.4858 C 66.3989 39.0115 66.3484 38.4615 66.3484 37.8358 L 66.3484 29.4497 L 68.0287 29.1621 Z M 73.7353 41.4688 L 73.7353 27.7391 L 75.4156 27.4364 L 75.4156 32.2501 C 75.7284 32.129 76.0614 32.0381 76.4146 31.9776 C 76.7678 31.9069 77.121 31.8716 77.4742 31.8716 C 78.221 31.8716 78.8417 31.9776 79.3361 32.1895 C 79.8306 32.4014 80.2242 32.6991 80.5169 33.0826 C 80.8095 33.456 81.0164 33.9101 81.1375 34.445 C 81.2586 34.9698 81.3192 35.55 81.3192 36.1858 L 81.3192 41.4688 L 79.6389 41.4688 L 79.6389 36.5491 C 79.6389 35.9739 79.5985 35.4845 79.5178 35.0808 C 79.4371 34.667 79.3059 34.334 79.1242 34.0817 C 78.9527 33.8294 78.7155 33.6478 78.4128 33.5368 C 78.11 33.4157 77.7366 33.3551 77.2926 33.3551 C 77.111 33.3551 76.9243 33.3703 76.7325 33.4005 C 76.5408 33.4207 76.3541 33.446 76.1725 33.4762 C 76.0009 33.5065 75.8445 33.5418 75.7032 33.5822 C 75.572 33.6125 75.4761 33.6377 75.4156 33.6579 L 75.4156 41.4688 Z M 83.5258 36.7913 C 83.5258 35.9537 83.6469 35.2271 83.8891 34.6115 C 84.1313 33.9858 84.4492 33.4711 84.8428 33.0675 C 85.2363 32.6537 85.6905 32.3459 86.2051 32.1441 C 86.7299 31.9423 87.2648 31.8414 87.8097 31.8414 C 89.0711 31.8414 90.0399 32.2349 90.7161 33.0221 C 91.3922 33.8092 91.7303 35.0101 91.7303 36.6248 C 91.7303 36.6954 91.7303 36.7913 91.7303 36.9124 C 91.7303 37.0234 91.7252 37.1243 91.7152 37.2151 L 85.2818 37.2151 C 85.3524 38.194 85.635 38.9358 86.1295 39.4404 C 86.624 39.9449 87.396 40.1972 88.4455 40.1972 C 89.0308 40.1972 89.5253 40.1468 89.929 40.0458 C 90.3326 39.9449 90.6354 39.8491 90.8372 39.7582 L 91.0794 41.166 C 90.8776 41.267 90.5193 41.378 90.0047 41.4991 C 89.49 41.6202 88.9097 41.6807 88.2639 41.6807 C 87.4464 41.6807 86.735 41.5596 86.1295 41.3174 C 85.5341 41.0651 85.0446 40.722 84.6612 40.2881 C 84.2777 39.8541 83.9901 39.3394 83.7983 38.744 C 83.6167 38.1486 83.5259 37.4977 83.5259 36.7913 Z M 89.9743 35.8679 C 89.9844 35.111 89.7927 34.4904 89.3991 34.006 C 89.0156 33.5115 88.4808 33.2643 87.7946 33.2643 C 87.401 33.2643 87.0579 33.34 86.7652 33.4913 C 86.4726 33.6427 86.2203 33.8395 86.0083 34.0817 C 85.8065 34.3239 85.6501 34.6014 85.5391 34.9143 C 85.4281 35.2271 85.3524 35.545 85.312 35.8679 Z M 106.0088 41.4688 C 105.6758 40.6009 105.3175 39.6119 104.934 38.5018 C 104.5506 37.3816 104.2024 36.2211 103.8896 35.0202 C 103.5767 36.2211 103.2336 37.3816 102.8602 38.5018 C 102.4868 39.6119 102.1336 40.6009 101.8006 41.4688 L 100.3323 41.4688 C 99.7772 40.2275 99.2323 38.8147 98.6974 37.2303 C 98.1727 35.6358 97.6731 33.9152 97.1988 32.0684 L 99.0153 32.0684 C 99.1364 32.6335 99.2777 33.2491 99.4392 33.9152 C 99.6107 34.5812 99.7873 35.2473 99.969 35.9133 C 100.1607 36.5693 100.3575 37.205 100.5593 37.8206 C 100.7713 38.4362 100.9681 38.9711 101.1497 39.4252 C 101.3515 38.8601 101.5483 38.2647 101.7401 37.639 C 101.9419 37.0032 102.1336 36.3624 102.3153 35.7165 C 102.4969 35.0707 102.6685 34.44 102.83 33.8244 C 103.0015 33.1987 103.1428 32.6134 103.2538 32.0684 L 104.6465 32.0684 C 104.7575 32.6134 104.8887 33.1987 105.04 33.8244 C 105.2015 34.44 105.3731 35.0707 105.5547 35.7165 C 105.7364 36.3624 105.9231 37.0032 106.1148 37.639 C 106.3166 38.2647 106.5235 38.8601 106.7354 39.4252 C 106.9171 38.9711 107.1038 38.4362 107.2955 37.8206 C 107.4973 37.2051 107.6941 36.5693 107.8859 35.9133 C 108.0776 35.2473 108.2593 34.5812 108.4308 33.9152 C 108.6024 33.2491 108.7487 32.6335 108.8698 32.0684 L 110.5955 32.0684 C 110.1313 33.9152 109.6317 35.6358 109.0969 37.2303 C 108.5721 38.8147 108.0322 40.2275 107.4772 41.4688 Z M 115.5565 40.2578 C 115.9501 40.2578 116.2983 40.2477 116.601 40.2275 C 116.9139 40.2073 117.1712 40.177 117.3731 40.1367 L 117.3731 37.3362 C 117.252 37.2757 117.0552 37.2252 116.7827 37.1849 C 116.5203 37.1344 116.1924 37.1092 115.7988 37.1092 C 115.5465 37.1092 115.2791 37.1294 114.9965 37.1697 C 114.7139 37.2 114.4566 37.2757 114.2245 37.3968 C 113.9924 37.5078 113.7956 37.6642 113.6341 37.8661 C 113.4828 38.0578 113.4071 38.3202 113.4071 38.6532 C 113.4071 39.2486 113.5988 39.6674 113.9823 39.9096 C 114.3658 40.1417 114.8905 40.2578 115.5566 40.2578 Z M 115.4052 31.8413 C 116.0813 31.8413 116.6515 31.9271 117.1157 32.0987 C 117.5799 32.2702 117.9533 32.5175 118.2359 32.8404 C 118.5185 33.1633 118.7203 33.5468 118.8414 33.9909 C 118.9625 34.4248 119.023 34.9042 119.023 35.4289 L 119.023 41.3022 C 118.8818 41.3325 118.6799 41.3678 118.4176 41.4082 C 118.1552 41.4486 117.8625 41.4839 117.5396 41.5142 C 117.2166 41.5545 116.8634 41.5899 116.48 41.6201 C 116.1066 41.6504 115.7332 41.6655 115.3598 41.6655 C 114.8249 41.6655 114.3355 41.61 113.8915 41.499 C 113.4474 41.3981 113.0589 41.2316 112.7259 40.9995 C 112.403 40.7573 112.1507 40.4445 111.969 40.061 C 111.7874 39.6775 111.6966 39.2133 111.6966 38.6683 C 111.6966 38.1537 111.8025 37.7096 112.0144 37.3362 C 112.2264 36.9628 112.514 36.6601 112.8773 36.428 C 113.2406 36.1959 113.6594 36.0294 114.1337 35.9285 C 114.6181 35.8175 115.1277 35.762 115.6626 35.762 C 115.8341 35.762 116.0057 35.7721 116.1772 35.7922 C 116.3589 35.8023 116.5304 35.8225 116.6919 35.8528 C 116.8635 35.8831 117.0048 35.9133 117.1158 35.9436 C 117.2369 35.9638 117.3226 35.9789 117.3731 35.989 L 117.3731 35.5198 C 117.3731 35.2473 117.3428 34.9748 117.2823 34.7023 C 117.2217 34.4299 117.1107 34.1877 116.9493 33.9757 C 116.7979 33.7638 116.586 33.5973 116.3135 33.4762 C 116.0511 33.345 115.7029 33.2794 115.269 33.2794 C 114.714 33.2794 114.2245 33.3198 113.8007 33.4005 C 113.3869 33.4813 113.0791 33.562 112.8773 33.6427 L 112.6805 32.2501 C 112.8925 32.1593 113.2507 32.0684 113.7553 31.9776 C 114.27 31.8868 114.82 31.8414 115.4053 31.8414 Z M 120.4361 43.2247 C 120.5673 43.2852 120.7388 43.3407 120.9508 43.3912 C 121.1627 43.4518 121.3696 43.482 121.5714 43.482 C 122.2375 43.482 122.7572 43.3306 123.1306 43.0279 C 123.504 42.7353 123.837 42.2559 124.1296 41.5899 C 123.3728 40.1467 122.6664 38.6179 122.0104 37.0032 C 121.3545 35.3785 120.8095 33.7335 120.3756 32.0684 L 122.1921 32.0684 C 122.3232 32.6134 122.4797 33.1987 122.6613 33.8244 C 122.8531 34.45 123.06 35.0959 123.282 35.7619 C 123.5141 36.4179 123.7613 37.0789 124.0237 37.745 C 124.2962 38.411 124.5737 39.0518 124.8563 39.6674 C 125.3205 38.3959 125.7191 37.1395 126.0521 35.8982 C 126.3852 34.6569 126.703 33.3803 127.0058 32.0684 L 128.7466 32.0684 C 128.3127 33.8445 127.8283 35.55 127.2934 37.1849 C 126.7686 38.8096 126.1985 40.3335 125.5829 41.7564 C 125.3407 42.3013 125.0884 42.7655 124.826 43.149 C 124.5737 43.5426 124.2912 43.8655 123.9783 44.1178 C 123.6655 44.3802 123.3123 44.5669 122.9187 44.6779 C 122.5251 44.799 122.0811 44.8596 121.5866 44.8596 C 121.4554 44.8596 121.3141 44.8495 121.1628 44.8293 C 121.0215 44.8192 120.8802 44.799 120.7389 44.7687 C 120.6077 44.7385 120.4816 44.7031 120.3605 44.6628 C 120.2495 44.6325 120.1688 44.6022 120.1183 44.572 Z M 142.9944 36.7761 C 142.9944 37.5229 142.8834 38.1991 142.6614 38.8046 C 142.4494 39.4 142.1467 39.9146 141.7531 40.3486 C 141.3596 40.7825 140.8903 41.1206 140.3453 41.3628 C 139.8105 41.5949 139.2201 41.711 138.5743 41.711 C 137.9385 41.711 137.3481 41.5949 136.8032 41.3628 C 136.2583 41.1206 135.789 40.7825 135.3954 40.3486 C 135.0119 39.9147 134.7092 39.4 134.4872 38.8046 C 134.2753 38.1991 134.1693 37.5229 134.1693 36.7762 C 134.1693 36.0395 134.2753 35.3684 134.4872 34.7629 C 134.7092 34.1473 135.012 33.6226 135.3954 33.1886 C 135.789 32.7547 136.2583 32.4217 136.8032 32.1895 C 137.3482 31.9574 137.9385 31.8414 138.5743 31.8414 C 139.2202 31.8414 139.8105 31.9574 140.3454 32.1895 C 140.8903 32.4217 141.3596 32.7547 141.7532 33.1886 C 142.1467 33.6226 142.4495 34.1473 142.6614 34.7629 C 142.8834 35.3684 142.9944 36.0395 142.9944 36.7762 Z M 141.2385 36.7761 C 141.2385 35.7064 140.9963 34.8638 140.5119 34.2482 C 140.0376 33.6326 139.3917 33.3248 138.5743 33.3248 C 137.7569 33.3248 137.111 33.6326 136.6367 34.2482 C 136.1624 34.8638 135.9252 35.7064 135.9252 36.7762 C 135.9252 37.8358 136.1624 38.6784 136.6367 39.3041 C 137.111 39.9197 137.7569 40.2275 138.5743 40.2275 C 139.3917 40.2275 140.0376 39.9197 140.5119 39.3041 C 140.9963 38.6785 141.2385 37.8358 141.2385 36.7762 Z M 147.5426 40.2578 C 148.2288 40.2578 148.7384 40.1669 149.0715 39.9853 C 149.4045 39.8036 149.571 39.516 149.571 39.1224 C 149.571 38.7087 149.4045 38.3807 149.0715 38.1385 C 148.7485 37.8963 148.2137 37.6289 147.4669 37.3362 C 147.1036 37.1849 146.7554 37.0335 146.4224 36.8821 C 146.0995 36.7307 145.8169 36.5542 145.5747 36.3523 C 145.3325 36.1505 145.1357 35.9032 144.9844 35.6106 C 144.8431 35.3179 144.7724 34.9647 144.7724 34.551 C 144.7724 33.7134 145.0802 33.0524 145.6958 32.568 C 146.3114 32.0836 147.149 31.8414 148.2086 31.8414 C 148.471 31.8414 148.7334 31.8565 148.9958 31.8868 C 149.2683 31.9171 149.5155 31.9524 149.7375 31.9928 C 149.9696 32.0331 150.1715 32.0785 150.343 32.129 C 150.5247 32.1694 150.666 32.2097 150.7669 32.2501 L 150.449 33.7033 C 150.2674 33.6024 149.9848 33.5015 149.6013 33.4005 C 149.2178 33.2996 148.7536 33.2492 148.2087 33.2492 C 147.7445 33.2492 147.3357 33.345 146.9825 33.5368 C 146.6293 33.7184 146.4527 34.006 146.4527 34.3996 C 146.4527 34.6014 146.4931 34.7831 146.5738 34.9446 C 146.6546 35.0959 146.7756 35.2372 146.9371 35.3684 C 147.0986 35.4996 147.3004 35.6207 147.5426 35.7317 C 147.7848 35.8326 148.0724 35.9436 148.4055 36.0647 C 148.8495 36.2363 149.2481 36.4028 149.6013 36.5643 C 149.9545 36.7257 150.2522 36.9175 150.4944 37.1395 C 150.7467 37.3514 150.9385 37.6138 151.0696 37.9266 C 151.2008 38.2294 151.2664 38.6028 151.2664 39.0468 C 151.2664 39.9147 150.9435 40.5706 150.2976 41.0147 C 149.6518 41.4587 148.7335 41.6807 147.5426 41.6807 C 146.7151 41.6807 146.0642 41.6101 145.5899 41.4688 C 145.1156 41.3376 144.7977 41.2367 144.6363 41.166 L 144.939 39.7128 C 145.1308 39.7835 145.4385 39.8945 145.8624 40.0459 C 146.2862 40.1871 146.8463 40.2578 147.5427 40.2578 Z M 160.9017 41.1963 C 160.5182 41.2972 160.0086 41.3981 159.3728 41.499 C 158.7371 41.61 158.0054 41.6655 157.1779 41.6655 C 156.4513 41.6655 155.8408 41.5596 155.3463 41.3477 C 154.8518 41.1357 154.4532 40.838 154.1505 40.4546 C 153.8578 40.0711 153.6408 39.617 153.4995 39.0922 C 153.3684 38.5674 153.3028 37.9872 153.3028 37.3514 L 153.3028 32.0684 L 154.983 32.0684 L 154.983 36.9881 C 154.983 38.1285 155.1647 38.9459 155.528 39.4404 C 155.8913 39.9349 156.5018 40.1821 157.3596 40.1821 C 157.5413 40.1821 157.728 40.1771 157.9197 40.167 C 158.1114 40.1569 158.288 40.1417 158.4495 40.1216 C 158.6211 40.1014 158.7775 40.0862 158.9188 40.0762 C 159.0601 40.056 159.161 40.0307 159.2215 40.0005 L 159.2215 32.0685 L 160.9018 32.0685 Z M 165.7359 32.3409 C 165.7359 33.35 165.7006 34.2684 165.63 35.0959 C 165.5593 35.9234 165.4685 36.7459 165.3575 37.5633 L 164.313 37.5633 C 164.202 36.7459 164.1112 35.9234 164.0406 35.0959 C 163.9699 34.2684 163.9346 33.35 163.9346 32.3409 L 163.9346 28.9501 L 165.736 28.9501 Z M 166.0538 40.5 C 166.0538 40.8229 165.9428 41.1055 165.7208 41.3476 C 165.5089 41.5899 165.2162 41.7109 164.8428 41.7109 C 164.4694 41.7109 164.1717 41.5898 163.9497 41.3476 C 163.7378 41.1054 163.6319 40.8229 163.6319 40.5 C 163.6319 40.1669 163.7378 39.8844 163.9497 39.6523 C 164.1718 39.4101 164.4695 39.289 164.8429 39.289 C 165.2163 39.289 165.5089 39.4101 165.7208 39.6523 C 165.9428 39.8844 166.0539 40.1669 166.0539 40.5 Z M 174.6422 32.4923 C 174.844 32.351 175.1518 32.2097 175.5656 32.0684 C 175.9793 31.9271 176.4587 31.8565 177.0036 31.8565 C 177.6798 31.8565 178.2802 31.9776 178.805 32.2198 C 179.3298 32.462 179.7687 32.8 180.1219 33.234 C 180.4852 33.6679 180.7577 34.1877 180.9394 34.7932 C 181.1311 35.3886 181.227 36.0496 181.227 36.7762 C 181.227 37.533 181.116 38.2142 180.894 38.8197 C 180.6719 39.4252 180.3541 39.9399 179.9403 40.3637 C 179.5366 40.7876 179.0421 41.1156 178.4568 41.3477 C 177.8816 41.5697 177.2357 41.6807 176.5192 41.6807 C 175.7321 41.6807 175.0358 41.6252 174.4303 41.5142 C 173.8349 41.4133 173.3454 41.3073 172.962 41.1963 L 172.962 27.7391 L 174.6422 27.4364 Z M 174.6422 40.0004 C 174.8037 40.0509 175.0358 40.0963 175.3385 40.1367 C 175.6514 40.177 176.0399 40.1972 176.5041 40.1972 C 177.4022 40.1972 178.1238 39.8995 178.6688 39.3041 C 179.2137 38.7087 179.4862 37.866 179.4862 36.7761 C 179.4862 36.2917 179.4357 35.8376 179.3348 35.4138 C 179.2339 34.9899 179.0724 34.6266 178.8504 34.3239 C 178.6385 34.0111 178.361 33.7688 178.0179 33.5973 C 177.6747 33.4257 177.266 33.34 176.7917 33.34 C 176.3275 33.34 175.9037 33.4207 175.5202 33.5822 C 175.1367 33.7335 174.844 33.89 174.6422 34.0514 Z M 183.0778 36.7913 C 183.0778 35.9537 183.1988 35.2271 183.4411 34.6115 C 183.6833 33.9858 184.0011 33.4711 184.3947 33.0675 C 184.7883 32.6537 185.2424 32.3459 185.7571 32.1441 C 186.2819 31.9423 186.8167 31.8414 187.3617 31.8414 C 188.6231 31.8414 189.5919 32.2349 190.268 33.0221 C 190.9442 33.8092 191.2823 35.0101 191.2823 36.6248 C 191.2823 36.6954 191.2823 36.7913 191.2823 36.9124 C 191.2823 37.0234 191.2772 37.1243 191.2671 37.2151 L 184.8337 37.2151 C 184.9044 38.194 185.1869 38.9358 185.6814 39.4404 C 186.1759 39.9449 186.9479 40.1972 187.9974 40.1972 C 188.5828 40.1972 189.0772 40.1468 189.4809 40.0458 C 189.8846 39.9449 190.1873 39.8491 190.3892 39.7582 L 190.6314 41.166 C 190.4295 41.267 190.0713 41.378 189.5566 41.4991 C 189.0419 41.6202 188.4617 41.6807 187.8158 41.6807 C 186.9984 41.6807 186.2869 41.5596 185.6814 41.3174 C 185.086 41.0651 184.5966 40.722 184.2131 40.2881 C 183.8296 39.8541 183.542 39.3394 183.3503 38.744 C 183.1686 38.1486 183.0778 37.4977 183.0778 36.7913 Z M 189.5263 35.8679 C 189.5364 35.111 189.3446 34.4904 188.9511 34.006 C 188.5676 33.5115 188.0327 33.2643 187.3465 33.2643 C 186.9529 33.2643 186.6098 33.34 186.3172 33.4913 C 186.0245 33.6427 185.7722 33.8395 185.5603 34.0817 C 185.3585 34.3239 185.202 34.6014 185.091 34.9143 C 184.98 35.2271 184.9043 35.545 184.864 35.8679 Z M 193.711 41.4688 L 193.711 27.7391 L 195.3912 27.4364 L 195.3912 32.2501 C 195.7041 32.129 196.0371 32.0381 196.3903 31.9776 C 196.7435 31.9069 197.0967 31.8716 197.4499 31.8716 C 198.1967 31.8716 198.8174 31.9776 199.3118 32.1895 C 199.8063 32.4014 200.1999 32.6991 200.4926 33.0826 C 200.7852 33.456 200.9921 33.9101 201.1132 34.445 C 201.2343 34.9698 201.2948 35.55 201.2948 36.1858 L 201.2948 41.4688 L 199.6146 41.4688 L 199.6146 36.5491 C 199.6146 35.9739 199.5742 35.4845 199.4935 35.0808 C 199.4128 34.667 199.2816 34.334 199.0999 34.0817 C 198.9284 33.8294 198.6912 33.6478 198.3885 33.5368 C 198.0857 33.4157 197.7123 33.3551 197.2683 33.3551 C 197.0866 33.3551 196.8999 33.3703 196.7082 33.4005 C 196.5165 33.4207 196.3298 33.446 196.1481 33.4762 C 195.9766 33.5065 195.8202 33.5418 195.6789 33.5822 C 195.5477 33.6125 195.4518 33.6377 195.3913 33.6579 L 195.3913 41.4688 Z M 207.2101 40.2578 C 207.6037 40.2578 207.9519 40.2477 208.2546 40.2275 C 208.5675 40.2073 208.8248 40.177 209.0267 40.1367 L 209.0267 37.3362 C 208.9056 37.2757 208.7088 37.2252 208.4363 37.1849 C 208.1739 37.1344 207.846 37.1092 207.4524 37.1092 C 207.2001 37.1092 206.9327 37.1294 206.6501 37.1697 C 206.3675 37.2 206.1102 37.2757 205.8781 37.3968 C 205.646 37.5078 205.4492 37.6642 205.2877 37.8661 C 205.1364 38.0578 205.0607 38.3202 205.0607 38.6532 C 205.0607 39.2486 205.2524 39.6674 205.6359 39.9096 C 206.0194 40.1417 206.5442 40.2578 207.2102 40.2578 Z M 207.0588 31.8413 C 207.7349 31.8413 208.3051 31.9271 208.7693 32.0987 C 209.2335 32.2702 209.6069 32.5175 209.8895 32.8404 C 210.1721 33.1633 210.3739 33.5468 210.495 33.9909 C 210.6161 34.4248 210.6766 34.9042 210.6766 35.4289 L 210.6766 41.3022 C 210.5353 41.3325 210.3335 41.3678 210.0711 41.4082 C 209.8088 41.4486 209.5161 41.4839 209.1932 41.5142 C 208.8702 41.5545 208.517 41.5899 208.1335 41.6201 C 207.7601 41.6504 207.3868 41.6655 207.0134 41.6655 C 206.4785 41.6655 205.9891 41.61 205.5451 41.499 C 205.101 41.3981 204.7125 41.2316 204.3795 40.9995 C 204.0565 40.7573 203.8043 40.4445 203.6226 40.061 C 203.441 39.6775 203.3501 39.2133 203.3501 38.6683 C 203.3501 38.1537 203.4561 37.7096 203.668 37.3362 C 203.88 36.9628 204.1676 36.6601 204.5309 36.428 C 204.8942 36.1959 205.313 36.0294 205.7873 35.9285 C 206.2717 35.8175 206.7813 35.762 207.3162 35.762 C 207.4877 35.762 207.6593 35.7721 207.8308 35.7922 C 208.0125 35.8023 208.184 35.8225 208.3455 35.8528 C 208.5171 35.8831 208.6584 35.9133 208.7694 35.9436 C 208.8905 35.9638 208.9762 35.9789 209.0267 35.989 L 209.0267 35.5198 C 209.0267 35.2473 208.9964 34.9748 208.9359 34.7023 C 208.8753 34.4299 208.7643 34.1877 208.6029 33.9757 C 208.4515 33.7638 208.2396 33.5973 207.9671 33.4762 C 207.7047 33.345 207.3565 33.2794 206.9226 33.2794 C 206.3676 33.2794 205.8781 33.3198 205.4543 33.4005 C 205.0405 33.4813 204.7327 33.562 204.5309 33.6427 L 204.3341 32.2501 C 204.5461 32.1593 204.9043 32.0684 205.4089 31.9776 C 205.9236 31.8868 206.4736 31.8414 207.0589 31.8414 Z M 220.5212 32.0684 C 220.057 33.8243 219.507 35.5096 218.8713 37.1243 C 218.2355 38.739 217.625 40.1871 217.0396 41.4688 L 215.5259 41.4688 C 214.9305 40.1871 214.3149 38.739 213.6791 37.1243 C 213.0535 35.5097 212.5035 33.8244 212.0292 32.0684 L 213.8457 32.0684 C 213.9869 32.6638 214.1534 33.2946 214.3452 33.9606 C 214.547 34.6266 214.759 35.2876 214.981 35.9436 C 215.203 36.5996 215.43 37.2353 215.6622 37.8509 C 215.8943 38.4665 216.1112 39.0165 216.3131 39.5009 C 216.5149 39.0165 216.7319 38.4665 216.964 37.8509 C 217.1961 37.2353 217.4232 36.5996 217.6452 35.9436 C 217.8672 35.2877 218.0741 34.6267 218.2658 33.9606 C 218.4676 33.2946 218.6443 32.6639 218.7956 32.0685 Z M 221.4849 36.7913 C 221.4849 35.9537 221.606 35.2271 221.8482 34.6115 C 222.0904 33.9858 222.4083 33.4711 222.8019 33.0675 C 223.1954 32.6537 223.6496 32.3459 224.1643 32.1441 C 224.689 31.9423 225.2239 31.8414 225.7688 31.8414 C 227.0303 31.8414 227.9991 32.2349 228.6752 33.0221 C 229.3513 33.8092 229.6894 35.0101 229.6894 36.6248 C 229.6894 36.6954 229.6894 36.7913 229.6894 36.9124 C 229.6894 37.0234 229.6844 37.1243 229.6743 37.2151 L 223.2409 37.2151 C 223.3115 38.194 223.5941 38.9358 224.0886 39.4404 C 224.5831 39.9449 225.3551 40.1972 226.4046 40.1972 C 226.9899 40.1972 227.4844 40.1468 227.8881 40.0458 C 228.2917 39.9449 228.5945 39.8491 228.7963 39.7582 L 229.0385 41.166 C 228.8367 41.267 228.4784 41.378 227.9638 41.4991 C 227.4491 41.6202 226.8688 41.6807 226.223 41.6807 C 225.4056 41.6807 224.6941 41.5596 224.0886 41.3174 C 223.4932 41.0651 223.0038 40.722 222.6203 40.2881 C 222.2368 39.8541 221.9492 39.3394 221.7575 38.744 C 221.5758 38.1486 221.485 37.4977 221.485 36.7913 Z M 227.9335 35.8679 C 227.9436 35.111 227.7518 34.4904 227.3583 34.006 C 226.9748 33.5115 226.4399 33.2643 225.7537 33.2643 C 225.3601 33.2643 225.017 33.34 224.7243 33.4913 C 224.4317 33.6427 224.1794 33.8395 223.9675 34.0817 C 223.7656 34.3239 223.6092 34.6014 223.4982 34.9143 C 223.3872 35.2271 223.3115 35.545 223.2712 35.8679 Z M 234.2979 40.2578 C 234.9841 40.2578 235.4938 40.1669 235.8268 39.9853 C 236.1598 39.8036 236.3264 39.516 236.3264 39.1224 C 236.3264 38.7087 236.1599 38.3807 235.8268 38.1385 C 235.5039 37.8963 234.969 37.6289 234.2223 37.3362 C 233.859 37.1849 233.5108 37.0335 233.1778 36.8821 C 232.8549 36.7307 232.5723 36.5542 232.3301 36.3523 C 232.0879 36.1505 231.8911 35.9032 231.7397 35.6106 C 231.5985 35.3179 231.5278 34.9647 231.5278 34.551 C 231.5278 33.7134 231.8356 33.0524 232.4512 32.568 C 233.0668 32.0836 233.9044 31.8414 234.964 31.8414 C 235.2264 31.8414 235.4888 31.8565 235.7512 31.8868 C 236.0236 31.9171 236.2709 31.9524 236.4929 31.9928 C 236.725 32.0331 236.9268 32.0785 237.0984 32.129 C 237.2801 32.1694 237.4213 32.2097 237.5222 32.2501 L 237.2044 33.7033 C 237.0227 33.6024 236.7402 33.5015 236.3567 33.4005 C 235.9732 33.2996 235.509 33.2492 234.964 33.2492 C 234.4998 33.2492 234.0911 33.345 233.7379 33.5368 C 233.3847 33.7184 233.2081 34.006 233.2081 34.3996 C 233.2081 34.6014 233.2485 34.7831 233.3292 34.9446 C 233.4099 35.0959 233.531 35.2372 233.6925 35.3684 C 233.854 35.4996 234.0558 35.6207 234.298 35.7317 C 234.5402 35.8326 234.8278 35.9436 235.1608 36.0647 C 235.6049 36.2363 236.0035 36.4028 236.3567 36.5643 C 236.7099 36.7257 237.0076 36.9175 237.2498 37.1395 C 237.5021 37.3514 237.6938 37.6138 237.825 37.9266 C 237.9562 38.2294 238.0218 38.6028 238.0218 39.0468 C 238.0218 39.9147 237.6989 40.5706 237.053 41.0147 C 236.4072 41.4587 235.4888 41.6807 234.298 41.6807 C 233.4705 41.6807 232.8196 41.6101 232.3453 41.4688 C 231.871 41.3376 231.5531 41.2367 231.3916 41.166 L 231.6944 39.7128 C 231.8861 39.7835 232.1939 39.8945 232.6178 40.0459 C 233.0416 40.1871 233.6017 40.2578 234.298 40.2578 Z " fill="#da839a" stroke="none" stroke-width="1" stroke-linecap="square"/><path d="M 66.1409 90.8421 L 66.1409 92.7938 L 61.047 92.7938 L 61.047 106.9825 L 58.7831 106.9825 L 58.7831 92.7938 L 53.7087 92.7938 L 53.7087 90.8421 Z M 66.44 109.2464 C 66.6092 109.3245 66.8304 109.396 67.1036 109.4611 C 67.3768 109.5392 67.6436 109.5782 67.9038 109.5782 C 68.7625 109.5782 69.4326 109.383 69.914 108.9927 C 70.3955 108.6154 70.8248 107.9973 71.2022 107.1386 C 70.2263 105.278 69.3155 103.3068 68.4698 101.225 C 67.6241 99.1302 66.9215 97.0094 66.362 94.8626 L 68.704 94.8626 C 68.8732 95.5652 69.0748 96.3198 69.309 97.1265 C 69.5562 97.9332 69.823 98.7659 70.1092 99.6247 C 70.4085 100.4704 70.7272 101.3226 71.0655 102.1814 C 71.4168 103.0401 71.7747 103.8663 72.139 104.66 C 72.7375 103.0206 73.2514 101.4007 73.6808 99.8003 C 74.1102 98.2 74.52 96.554 74.9104 94.8626 L 77.1548 94.8626 C 76.5953 97.1526 75.9708 99.3515 75.2812 101.4593 C 74.6046 103.5541 73.8695 105.5187 73.0758 107.3533 C 72.7635 108.0559 72.4382 108.6544 72.1 109.1489 C 71.7747 109.6563 71.4104 110.0727 71.007 110.3979 C 70.6037 110.7362 70.1483 110.9769 69.6409 111.1201 C 69.1334 111.2762 68.5609 111.3543 67.9234 111.3543 C 67.7542 111.3543 67.5721 111.3413 67.3769 111.3152 C 67.1948 111.3022 67.0126 111.2762 66.8304 111.2372 C 66.6613 111.1981 66.4987 111.1526 66.3425 111.1006 C 66.1994 111.0615 66.0953 111.0225 66.0303 110.9835 Z M 87.8581 100.9518 C 87.8581 99.5335 87.5068 98.4471 86.8042 97.6925 C 86.1015 96.9248 85.1713 96.541 84.0133 96.541 C 83.3497 96.541 82.8358 96.567 82.4715 96.6191 C 82.1071 96.6581 81.8209 96.7101 81.6127 96.7752 L 81.6127 104.4258 C 81.8729 104.6339 82.2503 104.8421 82.7447 105.0503 C 83.2391 105.2455 83.7856 105.3431 84.3841 105.3431 C 84.9956 105.3431 85.5226 105.2325 85.9649 105.0113 C 86.4073 104.7901 86.7651 104.4843 87.0384 104.094 C 87.3246 103.6906 87.5328 103.2222 87.6629 102.6888 C 87.793 102.1553 87.8581 101.5763 87.8581 100.9518 Z M 90.1025 100.9518 C 90.1025 101.8626 89.9789 102.7083 89.7317 103.4889 C 89.4975 104.2696 89.1462 104.9397 88.6778 105.4992 C 88.2224 106.0587 87.6564 106.4945 86.9798 106.8068 C 86.3032 107.1061 85.5291 107.2557 84.6573 107.2557 C 83.9547 107.2557 83.3367 107.1646 82.8032 106.9825 C 82.2698 106.8003 81.8729 106.6247 81.6127 106.4555 L 81.6127 111.2957 L 79.4464 111.2957 L 79.4464 95.2334 C 79.9538 95.1163 80.5914 94.9862 81.359 94.8431 C 82.1267 94.6869 83.0179 94.6089 84.0328 94.6089 C 84.9566 94.6089 85.7893 94.7585 86.5309 95.0577 C 87.2856 95.344 87.9231 95.7603 88.4436 96.3068 C 88.977 96.8533 89.3869 97.5234 89.6731 98.317 C 89.9594 99.0977 90.1025 99.976 90.1025 100.9518 Z M 92.4887 100.9518 C 92.4887 99.8718 92.6449 98.935 92.9571 98.1413 C 93.2694 97.3347 93.6793 96.6711 94.1867 96.1506 C 94.6941 95.6172 95.2796 95.2203 95.9432 94.9601 C 96.6198 94.6999 97.3094 94.5698 98.012 94.5698 C 99.6384 94.5698 100.8874 95.0772 101.7592 96.0921 C 102.631 97.107 103.0668 98.6553 103.0668 100.7371 C 103.0668 100.8282 103.0668 100.9518 103.0668 101.1079 C 103.0668 101.251 103.0603 101.3811 103.0473 101.4982 L 94.7527 101.4982 C 94.8438 102.7603 95.2081 103.7166 95.8456 104.3672 C 96.4832 105.0178 97.4785 105.343 98.8317 105.343 C 99.5864 105.343 100.2239 105.278 100.7444 105.1479 C 101.2648 105.0178 101.6551 104.8942 101.9154 104.7771 L 102.2276 106.5921 C 101.9674 106.7222 101.5055 106.8654 100.8419 107.0215 C 100.1784 107.1776 99.4302 107.2557 98.5975 107.2557 C 97.5436 107.2557 96.6263 107.0996 95.8457 106.7873 C 95.078 106.462 94.447 106.0196 93.9526 105.4602 C 93.4581 104.9007 93.0873 104.2371 92.8401 103.4695 C 92.6059 102.7018 92.4888 101.8626 92.4888 100.9518 Z M 100.8029 99.7613 C 100.8159 98.7854 100.5687 97.9852 100.0612 97.3607 C 99.5668 96.7232 98.8772 96.4044 97.9925 96.4044 C 97.485 96.4044 97.0427 96.502 96.6653 96.6972 C 96.288 96.8923 95.9627 97.146 95.6895 97.4583 C 95.4293 97.7706 95.2276 98.1284 95.0845 98.5317 C 94.9414 98.9351 94.8438 99.3449 94.7917 99.7613 Z M 113.5914 94.8625 L 118.1974 94.8625 L 118.1974 96.6776 L 113.5914 96.6776 L 113.5914 102.2789 C 113.5914 102.8774 113.637 103.3784 113.7281 103.7817 C 113.8321 104.1721 113.9753 104.4843 114.1574 104.7185 C 114.3396 104.9397 114.5673 105.0958 114.8405 105.1869 C 115.1268 105.278 115.4585 105.3236 115.8359 105.3236 C 116.4864 105.3236 117.0069 105.252 117.3972 105.1089 C 117.8006 104.9658 118.0803 104.8616 118.2364 104.7966 L 118.6463 106.5922 C 118.4381 106.6962 118.0608 106.8263 117.5143 106.9825 C 116.9679 107.1516 116.3433 107.2362 115.6407 107.2362 C 114.821 107.2362 114.1444 107.1321 113.611 106.9239 C 113.0775 106.7158 112.6482 106.4035 112.3229 105.9871 C 111.9976 105.5578 111.7634 105.0373 111.6203 104.4258 C 111.4902 103.8143 111.4251 103.1052 111.4251 102.2985 L 111.4251 91.4862 L 113.5915 91.1154 Z M 131.3178 100.9323 C 131.3178 101.8951 131.1747 102.7668 130.8884 103.5475 C 130.6152 104.3152 130.2248 104.9787 129.7174 105.5382 C 129.21 106.0977 128.605 106.5336 127.9024 106.8458 C 127.2128 107.1451 126.4516 107.2947 125.6189 107.2947 C 124.7992 107.2947 124.038 107.1451 123.3355 106.8459 C 122.6328 106.5336 122.0278 106.0977 121.5204 105.5382 C 121.026 104.9788 120.6356 104.3152 120.3494 103.5475 C 120.0762 102.7669 119.9395 101.8951 119.9395 100.9323 C 119.9395 99.9825 120.0762 99.1172 120.3494 98.3366 C 120.6356 97.5429 121.026 96.8663 121.5204 96.3068 C 122.0278 95.7473 122.6329 95.318 123.3355 95.0187 C 124.0381 94.7195 124.7992 94.5698 125.6189 94.5698 C 126.4517 94.5698 127.2128 94.7195 127.9024 95.0187 C 128.605 95.318 129.21 95.7473 129.7175 96.3068 C 130.2249 96.8663 130.6152 97.5429 130.8885 98.3366 C 131.1747 99.1172 131.3178 99.9825 131.3178 100.9323 Z M 129.0538 100.9323 C 129.0538 99.5531 128.7416 98.4666 128.117 97.673 C 127.5055 96.8793 126.6728 96.4825 125.6189 96.4825 C 124.565 96.4825 123.7323 96.8793 123.1207 97.673 C 122.5092 98.4667 122.2035 99.5531 122.2035 100.9323 C 122.2035 102.2985 122.5092 103.3849 123.1207 104.1916 C 123.7323 104.9853 124.565 105.3821 125.6189 105.3821 C 126.6728 105.3821 127.5055 104.9853 128.117 104.1916 C 128.7416 103.3849 129.0538 102.2985 129.0538 100.9323 Z M 142.5648 105.4211 C 143.4495 105.4211 144.1066 105.304 144.536 105.0698 C 144.9654 104.8356 145.18 104.4648 145.18 103.9574 C 145.18 103.4239 144.9654 103.0011 144.536 102.6888 C 144.1196 102.3765 143.43 102.0317 142.4672 101.6544 C 141.9988 101.4592 141.5499 101.2641 141.1206 101.0689 C 140.7042 100.8737 140.3399 100.646 140.0276 100.3858 C 139.7154 100.1256 139.4617 99.8068 139.2665 99.4295 C 139.0843 99.0522 138.9933 98.5968 138.9933 98.0633 C 138.9933 96.9834 139.3901 96.1312 140.1838 95.5066 C 140.9775 94.8821 142.0574 94.5698 143.4236 94.5698 C 143.7619 94.5698 144.1002 94.5894 144.4384 94.6284 C 144.7897 94.6674 145.1085 94.713 145.3948 94.765 C 145.694 94.8171 145.9543 94.8756 146.1754 94.9407 C 146.4096 94.9927 146.5918 95.0448 146.7219 95.0968 L 146.3121 96.9704 C 146.0779 96.8403 145.7135 96.7102 145.2191 96.5801 C 144.7247 96.45 144.1262 96.3849 143.4236 96.3849 C 142.825 96.3849 142.2981 96.5085 141.8427 96.7558 C 141.3873 96.99 141.1596 97.3608 141.1596 97.8682 C 141.1596 98.1284 141.2117 98.3626 141.3158 98.5708 C 141.4199 98.766 141.576 98.9481 141.7842 99.1173 C 141.9924 99.2864 142.2526 99.4426 142.5648 99.5857 C 142.8771 99.7158 143.2479 99.8589 143.6773 100.0151 C 144.2498 100.2362 144.7637 100.4509 145.2191 100.6591 C 145.6745 100.8673 146.0584 101.1145 146.3706 101.4008 C 146.6959 101.674 146.9431 102.0123 147.1123 102.4156 C 147.2814 102.806 147.366 103.2874 147.366 103.8599 C 147.366 104.9788 146.9496 105.8246 146.1169 106.3971 C 145.2842 106.9695 144.1002 107.2558 142.5649 107.2558 C 141.4979 107.2558 140.6587 107.1647 140.0472 106.9826 C 139.4357 106.8134 139.0258 106.6833 138.8177 106.5922 L 139.208 104.7186 C 139.4552 104.8097 139.8521 104.9528 140.3985 105.148 C 140.945 105.3301 141.6671 105.4212 142.5649 105.4212 Z M 149.4644 100.9518 C 149.4644 99.8718 149.6206 98.935 149.9328 98.1413 C 150.2451 97.3347 150.655 96.6711 151.1624 96.1506 C 151.6698 95.6172 152.2553 95.2203 152.9189 94.9601 C 153.5955 94.6999 154.2851 94.5698 154.9877 94.5698 C 156.6141 94.5698 157.8631 95.0772 158.7349 96.0921 C 159.6067 97.107 160.0425 98.6553 160.0425 100.7371 C 160.0425 100.8282 160.0425 100.9518 160.0425 101.1079 C 160.0425 101.251 160.036 101.3811 160.023 101.4982 L 151.7284 101.4982 C 151.8195 102.7603 152.1838 103.7166 152.8213 104.3672 C 153.4589 105.0178 154.4542 105.343 155.8074 105.343 C 156.5621 105.343 157.1996 105.278 157.7201 105.1479 C 158.2405 105.0178 158.6308 104.8942 158.8911 104.7771 L 159.2033 106.5921 C 158.9431 106.7222 158.4812 106.8654 157.8176 107.0215 C 157.1541 107.1776 156.4059 107.2557 155.5732 107.2557 C 154.5193 107.2557 153.602 107.0996 152.8214 106.7873 C 152.0537 106.462 151.4227 106.0196 150.9283 105.4602 C 150.4338 104.9007 150.063 104.2371 149.8158 103.4695 C 149.5816 102.7018 149.4645 101.8626 149.4645 100.9518 Z M 157.7786 99.7613 C 157.7916 98.7854 157.5444 97.9852 157.0369 97.3607 C 156.5425 96.7232 155.8529 96.4044 154.9682 96.4044 C 154.4607 96.4044 154.0183 96.502 153.641 96.6972 C 153.2637 96.8923 152.9384 97.146 152.6652 97.4583 C 152.405 97.7706 152.2033 98.1284 152.0602 98.5317 C 151.9171 98.9351 151.8195 99.3449 151.7674 99.7613 Z M 167.2724 105.4211 C 167.7799 105.4211 168.2287 105.4081 168.6191 105.3821 C 169.0224 105.3561 169.3542 105.317 169.6145 105.265 L 169.6145 101.6544 C 169.4583 101.5763 169.2046 101.5113 168.8533 101.4592 C 168.515 101.3942 168.0921 101.3616 167.5847 101.3616 C 167.2594 101.3616 166.9146 101.3877 166.5503 101.4397 C 166.186 101.4787 165.8542 101.5763 165.555 101.7325 C 165.2557 101.8756 165.002 102.0773 164.7938 102.3375 C 164.5987 102.5847 164.5011 102.923 164.5011 103.3524 C 164.5011 104.12 164.7483 104.66 165.2427 104.9723 C 165.7371 105.2715 166.4137 105.4211 167.2725 105.4211 Z M 167.0773 94.5698 C 167.949 94.5698 168.6841 94.6804 169.2827 94.9016 C 169.8812 95.1228 170.3626 95.4416 170.7269 95.8579 C 171.0912 96.2743 171.3514 96.7687 171.5076 97.3412 C 171.6637 97.9007 171.7418 98.5187 171.7418 99.1953 L 171.7418 106.7678 C 171.5596 106.8068 171.2994 106.8524 170.9611 106.9044 C 170.6228 106.9565 170.2455 107.002 169.8291 107.041 C 169.4128 107.0931 168.9574 107.1386 168.463 107.1777 C 167.9815 107.2167 167.5001 107.2362 167.0187 107.2362 C 166.3291 107.2362 165.6981 107.1647 165.1256 107.0215 C 164.5531 106.8914 164.0522 106.6768 163.6228 106.3775 C 163.2064 106.0652 162.8812 105.6619 162.647 105.1675 C 162.4128 104.673 162.2957 104.0745 162.2957 103.3719 C 162.2957 102.7083 162.4323 102.1359 162.7055 101.6544 C 162.9787 101.173 163.3496 100.7827 163.818 100.4834 C 164.2864 100.1842 164.8263 99.9695 165.4379 99.8394 C 166.0624 99.6963 166.7195 99.6247 167.4091 99.6247 C 167.6302 99.6247 167.8515 99.6377 168.0726 99.6637 C 168.3068 99.6767 168.528 99.7028 168.7362 99.7418 C 168.9574 99.7808 169.1396 99.8199 169.2827 99.8589 C 169.4388 99.8849 169.5494 99.9044 169.6145 99.9175 L 169.6145 99.3124 C 169.6145 98.9611 169.5754 98.6098 169.4974 98.2585 C 169.4193 97.9072 169.2762 97.595 169.068 97.3217 C 168.8728 97.0485 168.5996 96.8338 168.2483 96.6777 C 167.91 96.5085 167.4611 96.424 166.9017 96.424 C 166.186 96.424 165.555 96.476 165.0085 96.5801 C 164.4751 96.6842 164.0782 96.7883 163.818 96.8924 L 163.5643 95.0968 C 163.8375 94.9797 164.2994 94.8626 164.95 94.7455 C 165.6136 94.6284 166.3227 94.5699 167.0773 94.5699 Z M 179.8074 94.6088 C 179.9896 94.6088 180.1978 94.6218 180.432 94.6479 C 180.6792 94.6739 180.9199 94.7064 181.1541 94.7455 C 181.3883 94.7845 181.603 94.8235 181.7982 94.8626 C 181.9933 94.9016 182.1364 94.9341 182.2275 94.9601 L 181.8567 96.8533 C 181.6876 96.7882 181.4013 96.7167 180.998 96.6386 C 180.6076 96.5475 180.1002 96.502 179.4757 96.502 C 179.0723 96.502 178.669 96.5475 178.2656 96.6386 C 177.8753 96.7167 177.6216 96.7687 177.5045 96.7948 L 177.5045 106.9825 L 175.3381 106.9825 L 175.3381 95.37 C 175.8456 95.1879 176.4766 95.0187 177.2313 94.8626 C 177.9989 94.6935 178.8577 94.6089 179.8075 94.6089 Z M 189.5831 107.2557 C 188.6072 107.2557 187.7485 107.1061 187.0068 106.8068 C 186.2782 106.4945 185.6602 106.0587 185.1528 105.4992 C 184.6453 104.9397 184.268 104.2761 184.0208 103.5085 C 183.7736 102.7278 183.65 101.8756 183.65 100.9518 C 183.65 100.015 183.7866 99.1628 184.0598 98.3951 C 184.3331 97.6144 184.7169 96.9444 185.2113 96.3849 C 185.7058 95.8124 186.3108 95.37 187.0264 95.0578 C 187.755 94.7325 188.5617 94.5699 189.4465 94.5699 C 189.993 94.5699 190.5394 94.6154 191.0859 94.7065 C 191.6324 94.7976 192.1528 94.9407 192.6472 95.1358 L 192.1593 96.9899 C 191.834 96.8338 191.4567 96.7102 191.0274 96.6191 C 190.598 96.5281 190.1426 96.4825 189.6612 96.4825 C 188.4511 96.4825 187.5208 96.8664 186.8703 97.634 C 186.2327 98.3887 185.914 99.4946 185.914 100.9519 C 185.914 101.6024 185.9855 102.2009 186.1287 102.7474 C 186.2718 103.2809 186.4995 103.7428 186.8118 104.1331 C 187.1371 104.5234 187.5469 104.8227 188.0413 105.0309 C 188.5488 105.239 189.1603 105.3431 189.8759 105.3431 C 190.4484 105.3431 190.9688 105.2911 191.4372 105.187 C 191.9056 105.0829 192.2699 104.9658 192.5302 104.8357 L 192.8229 106.6508 C 192.7058 106.7288 192.5302 106.8069 192.296 106.885 C 192.0618 106.95 191.795 107.0086 191.4958 107.0606 C 191.2095 107.1127 190.8973 107.1582 190.559 107.1972 C 190.2207 107.2363 189.8954 107.2558 189.5832 107.2558 Z M 195.1689 106.9825 L 195.1689 89.2808 L 197.3353 88.8904 L 197.3353 95.0968 C 197.7387 94.9406 198.168 94.8235 198.6234 94.7455 C 199.0788 94.6544 199.5342 94.6088 199.9896 94.6088 C 200.9524 94.6088 201.7526 94.7455 202.3902 95.0187 C 203.0277 95.2919 203.5351 95.6758 203.9125 96.1702 C 204.2898 96.6516 204.5565 97.2371 204.7127 97.9267 C 204.8688 98.6033 204.9469 99.3514 204.9469 100.1711 L 204.9469 106.9825 L 202.7805 106.9825 L 202.7805 100.6396 C 202.7805 99.8979 202.7285 99.2669 202.6244 98.7464 C 202.5203 98.213 202.3511 97.7836 202.1169 97.4583 C 201.8958 97.133 201.59 96.8988 201.1997 96.7557 C 200.8093 96.5996 200.3279 96.5215 199.7554 96.5215 C 199.5212 96.5215 199.2805 96.541 199.0333 96.5801 C 198.7861 96.6061 198.5454 96.6386 198.3112 96.6777 C 198.09 96.7167 197.8883 96.7623 197.7062 96.8143 C 197.537 96.8533 197.4134 96.8859 197.3354 96.9119 L 197.3354 106.9825 Z M 210.9731 95.2138 C 210.9731 96.515 210.9276 97.699 210.8365 98.7659 C 210.7454 99.8328 210.6283 100.8932 210.4852 101.9471 L 209.1385 101.9471 C 208.9954 100.8932 208.8783 99.8328 208.7872 98.7659 C 208.6961 97.699 208.6506 96.515 208.6506 95.2138 L 208.6506 90.8421 L 210.9731 90.8421 Z M 211.383 105.7334 C 211.383 106.1497 211.2398 106.514 210.9536 106.8263 C 210.6804 107.1386 210.303 107.2947 209.8216 107.2947 C 209.3402 107.2947 208.9564 107.1386 208.6701 106.8263 C 208.3969 106.514 208.2603 106.1497 208.2603 105.7334 C 208.2603 105.304 208.3969 104.9397 208.6702 104.6404 C 208.9564 104.3282 209.3402 104.172 209.8217 104.172 C 210.3031 104.172 210.6804 104.3282 210.9536 104.6404 C 211.2399 104.9397 211.383 105.304 211.383 105.7334 Z " fill="#ffffff" stroke="none" stroke-width="1" stroke-linecap="square"/><path d="M 42.6163 99.932 C 42.6163 104.2674 39.0346 107.782 34.6163 107.782 C 30.198 107.782 26.6163 104.2674 26.6163 99.932 C 26.6163 95.5965 30.198 92.082 34.6163 92.082 C 39.0346 92.082 42.6163 95.5965 42.6163 99.932 Z " fill="none" stroke="#ffffff" stroke-width="4" stroke-linecap="butt"/><path d="M 45.9084 111.3856 L 40.2084 105.6856 " fill="none" stroke="#ffffff" stroke-width="4" stroke-linecap="round"/></g></g></svg>